<?xml version="1.0" encoding="UTF-8" standalone="no"?>
<!-- Created with Inkscape (http://www.inkscape.org/) -->

<svg
   version="1.1"
   id="svg2"
   width="370.66666"
   height="398.66666"
   viewBox="0 0 370.66666 398.66666"
   sodipodi:docname="wildeguyot.eps"
   xmlns:inkscape="http://www.inkscape.org/namespaces/inkscape"
   xmlns:sodipodi="http://sodipodi.sourceforge.net/DTD/sodipodi-0.dtd"
   xmlns="http://www.w3.org/2000/svg"
   xmlns:svg="http://www.w3.org/2000/svg">
  <defs
     id="defs6">
    <clipPath
       clipPathUnits="userSpaceOnUse"
       id="clipPath18">
      <path
         d="M 0,2986 H 2779 V 0 H 0 Z"
         id="path16" />
    </clipPath>
  </defs>
  <sodipodi:namedview
     id="namedview4"
     pagecolor="#ffffff"
     bordercolor="#000000"
     borderopacity="0.25"
     inkscape:showpageshadow="2"
     inkscape:pageopacity="0.0"
     inkscape:pagecheckerboard="0"
     inkscape:deskcolor="#d1d1d1" />
  <g
     id="g8"
     inkscape:groupmode="layer"
     inkscape:label="ink_ext_XXXXXX"
     transform="matrix(1.3333333,0,0,-1.3333333,0,398.66667)">
    <g
       id="g10"
       transform="scale(0.1)">
      <g
         id="g12">
        <g
           id="g14"
           clip-path="url(#clipPath18)">
          <path
             d="M 224.848,2940.6 H 2673.16 V 117.199 L 224.848,114.012 V 2940.6"
             style="fill:#d5d4d5;fill-opacity:1;fill-rule:nonzero;stroke:none"
             id="path20" />
          <path
             d="m 223.184,1541.07 11.929,-1.69 1.703,-10.18 1.704,-16.95 8.523,-11.89 11.922,-3.38 32.383,-1.7 25.562,-20.35 1.703,-33.93 -8.519,-35.58 -10.227,-28.83 -10.222,-18.65 1.703,-18.67 20.445,-27.13 22.156,-22.05 8.516,-20.34 6.816,-15.27 20.457,-11.87 17.035,-30.51 11.93,-39.01 17.039,-33.9 34.086,-49.2 35.781,-44.08 28.973,-25.43 10.223,-22.05 11.929,-23.731 23.856,-10.179 20.445,-5.079 18.746,-16.972 17.039,-28.828 18.75,-49.18 13.633,-27.129 25.563,-25.434 17.035,-18.648 1.711,-18.648 -3.41,-15.262 10.222,-11.871 11.93,-1.719 20.445,1.719 10.227,-6.797 6.816,-10.152 v -20.379 l -5.109,-16.95 3.406,-25.429 22.149,-16.953 17.039,-3.399 15.343,3.399 15.336,16.953 5.114,28.828 v 8.48 l 20.449,-5.101 18.742,-8.481 h 20.449 l 17.043,-5.078 1.703,-16.949 -1.703,-13.57 11.93,-6.782 22.152,-10.179 10.219,-22.032 6.82,-20.367 15.34,-6.781 23.852,1.699 10.224,1.699 23.87,-5.089 17.04,3.39 18.74,-1.699 22.16,5.102 v 11.859 l 13.62,8.469 18.75,-15.25 10.22,-20.348 22.16,-25.434 15.33,-8.476 30.68,-23.75 22.15,-3.383 11.93,5.082 8.52,8.481 3.41,10.168 10.22,1.699 11.93,-3.399 8.52,1.7 3.41,6.781 v 8.5 l 1.7,11.871 h 10.22 l 8.52,-6.793 10.23,-8.481 15.34,-6.777 11.93,-3.402 5.11,5.082 -1.7,10.179 -6.82,10.192 10.22,3.379 18.75,-1.699 11.93,-10.172 13.63,-25.43 15.33,-22.051 13.63,-10.179 10.24,1.699 3.4,11.871 v 8.48 l 5.11,8.481 11.94,6.769 11.92,10.18 11.93,11.879 20.44,10.172 51.14,22.051 47.71,15.257 42.6,16.95 11.93,10.191 10.22,16.961 8.51,13.551 11.94,20.347 20.45,15.262 28.96,10.168 30.68,1.699 h 20.45 l 11.92,-5.097 25.56,5.097 20.46,10.184 5.11,13.547 3.42,20.371 5.1,11.859 25.56,13.551 28.97,11.898 46,3.383 57.94,-1.699 47.73,-8.48 22.16,1.699 18.74,11.859 20.43,22.07 13.65,8.45 22.14,5.101 25.56,10.18 8.53,6.769 8.52,20.36 10.22,22.031 10.23,13.57 23.85,8.481 27.29,22.047 10.2,15.25 6.83,30.531 -5.12,37.31 -10.23,42.4 -5.1,49.18 -1.72,37.3 8.53,61.06 5.12,44.08 13.62,39 22.15,35.63 17.05,30.51 11.93,30.5 10.21,30.53 v 22.05 l -6.8,20.35 -18.75,8.48 -17.05,6.78 -17.03,13.57 -8.53,18.65 -5.11,27.13 -6.81,13.57 3.4,20.35 -6.79,15.26 -1.72,18.65 -6.82,23.75 -13.63,18.63 -18.75,25.44 -20.45,20.36 -18.74,25.43 -10.23,28.83 -3.4,28.83 3.4,20.35 13.64,20.35 11.93,5.08 v 8.49 l -11.93,15.26 -6.82,8.48 1.7,6.77 11.93,15.28 13.64,8.45 1.69,18.68 -1.69,22.04 -11.93,23.73 -13.64,18.66 v 11.86 l 11.93,22.06 22.15,32.22 23.85,32.22 18.75,15.26 1.72,15.25 -6.82,8.49 -13.65,8.48 -8.52,13.56 -1.69,15.27 6.81,25.43 8.52,28.83 v 20.35 l -10.22,15.26 -15.34,10.18 -22.16,8.47 -30.66,11.87 -25.57,11.87 -11.92,20.35 -10.22,13.57 -10.22,28.83 -11.94,15.26 -35.79,33.91 -27.27,27.13 -30.66,22.05 -34.09,23.74 -34.08,22.04 -22.15,25.44 -20.45,27.13 -18.74,20.35 -25.57,13.56 -37.49,6.79 -46.01,5.09 -37.48,3.39 -27.27,13.57 -22.16,10.17 -20.43,22.04 -34.09,10.18 -54.53,20.34 -37.5,20.36 -27.26,15.25 -27.27,23.75 -15.33,13.56 -32.38,10.17 h -18.74 l -20.45,-11.86 -10.22,-22.05 -6.82,-22.04 -6.82,-15.27 -13.63,-10.17 -8.52,3.4 -10.22,16.95 -8.52,13.56 -17.05,10.18 -23.85,5.09 -22.16,-3.4 -15.33,-3.38 -10.23,-5.09 -10.22,5.09 -3.41,10.17 -15.34,10.18 -25.56,3.39 -17.04,-5.09 -13.63,-11.87 -1.71,-18.65 -3.41,-16.96 -13.63,-13.57 -22.15,-11.87 -27.27,-6.78 -20.45,-3.39 -23.85,1.7 -11.93,6.78 -27.267,28.83 -25.563,28.82 -23.855,23.74 -30.676,22.05 -34.082,15.26 h -28.969 l -32.379,-10.18 -35.785,-8.47 -35.785,-8.49 -28.965,-3.39 -25.562,6.78 -22.16,13.57 -37.489,33.92 -43.945,45.79 -38.559,38.35 -4.957,60.94 2123.618,-0.4 2.57,-2825.979 -2447.742,0.059 -1.664,1426.39"
             style="fill:#a7a5a6;fill-opacity:1;fill-rule:nonzero;stroke:none"
             id="path22" />
          <path
             d="m 227.48,1541.6 81.399,5.1 h 61.047 l 62.742,-1.72 74.613,-5.06 84.785,-5.1 93.266,-3.39 h 267.93 l 115.308,3.39 98.36,6.78 120.39,3.38 120.41,1.72 h 115.3 l 88.18,-5.1 H 1735 l 94.96,-5.08 100.05,-5.09 84.79,-3.4 88.18,-1.69 h 67.84 l 101.73,-1.69 106.83,-1.7 106.85,-1.7 79.68,1.7 105.99,-2.54"
             style="fill:none;stroke:#231f20;stroke-width:7.5;stroke-linecap:butt;stroke-linejoin:miter;stroke-miterlimit:4;stroke-dasharray:none;stroke-opacity:1"
             id="path24" />
          <path
             d="m 1809.18,2011.32 -32.38,16.97 -35.79,11.86 -15.33,8.49 -22.15,22.03 -34.08,40.71 -39.2,35.61 -40.9,27.13 -37.48,15.26 -39.2,15.26 -39.2,10.18 -40.9,5.09 -35.78,3.39 -34.08,-6.78 -27.26,-10.18 -20.45,-18.65 -11.93,-16.96 -11.93,-15.26 -5.11,-10.17 -11.93,-8.5 -11.93,-10.16 -13.63,-11.87 -8.52,-16.95 -15.34,-13.57 -25.56,-8.48 -49.41,-20.35 -51.13,-13.56 -51.12,-8.48 -54.534,1.69 -49.422,-1.69 -30.676,-5.09 -27.262,-15.25 -18.746,-23.75 -3.406,-18.66 3.406,-15.28 10.227,-11.85 10.223,-15.27 5.113,-10.18 v -15.25 l 6.816,-5.1 18.746,-10.17 17.039,-13.56 6.813,-20.34 v -18.66 l -6.813,-16.96 -5.109,-15.27 -15.34,-32.21 -18.75,-33.91 -6.808,-20.36 1.699,-22.04 8.523,-16.95 8.52,-22.05 8.515,-23.74 v -42.39 l 6.825,-6.78 6.816,-15.28 6.816,-11.86 1.704,-10.19 -3.411,-11.85 -10.226,-8.48 -5.11,-11.87 v -13.55 l 13.629,-30.55 13.637,-35.61 10.227,-22.03 17.035,-10.19 15.34,-8.46 13.634,-11.87 13.64,-18.66 17.03,-33.92 15.34,-32.21 13.64,-20.35 18.74,-16.95 17.04,-8.48 11.93,-3.4 11.93,-11.87 10.23,-18.66 5.1,-18.65 8.52,-15.25 15.34,-10.18 25.56,-8.47 34.08,-5.1 34.09,-5.1 30.67,-1.68 34.08,5.08 42.6,11.87 28.97,10.18 34.09,11.87 27.25,1.68 h 34.08 l 37.5,-1.68 39.19,-11.87 34.08,-16.95 35.8,-16.98 37.48,-11.85 35.78,-8.48 35.79,1.68 30.67,5.1 25.57,16.95 17.03,20.35 28.98,25.43 20.44,27.13 15.35,13.58 22.14,10.17 15.34,15.26 11.93,15.27 3.41,15.25 -8.53,20.35 -15.33,23.75 -13.63,27.13 -3.4,22.03 v 35.63 l 3.4,30.51 8.51,25.45 5.12,18.65 11.92,16.96 6.82,11.86 10.23,10.18 -1.7,8.47 -6.82,11.88 1.7,5.09 11.93,11.86 15.35,10.18 5.1,11.87 v 18.65 l -8.53,15.27 -6.8,28.82 -8.53,33.92 -3.4,28.81 -10.22,28.83 -17.05,40.7 -11.93,28.84 -6.82,27.13 -3.4,30.52 -5.11,35.6 -3.41,25.45 -10.24,23.73 -17.03,23.73 -17.04,15.28 -25.56,13.56"
             style="fill:#ebebeb;fill-opacity:1;fill-rule:nonzero;stroke:none"
             id="path26" />
          <path
             d="m 1809.18,2011.32 -32.38,16.97 -35.79,11.86 -15.33,8.49 -22.15,22.03 -34.08,40.71 -39.2,35.61 -40.9,27.13 -37.48,15.26 -39.2,15.26 -39.2,10.18 -40.9,5.09 -35.78,3.39 -34.08,-6.78 -27.26,-10.18 -20.45,-18.65 -11.93,-16.96 -11.93,-15.26 -5.11,-10.17 -11.93,-8.5 -11.93,-10.16 -13.63,-11.87 -8.52,-16.95 -15.34,-13.57 -25.56,-8.48 -49.41,-20.35 -51.13,-13.56 -51.12,-8.48 -54.534,1.69 -49.422,-1.69 -30.676,-5.09 -27.262,-15.25 -18.746,-23.75 -3.406,-18.66 3.406,-15.28 10.227,-11.85 10.223,-15.27 5.113,-10.18 v -15.25 l 6.816,-5.1 18.746,-10.17 17.039,-13.56 6.813,-20.34 v -18.66 l -6.813,-16.96 -5.109,-15.27 -15.34,-32.21 -18.75,-33.91 -6.808,-20.36 1.699,-22.04 8.523,-16.95 8.52,-22.05 8.515,-23.74 v -42.39 l 6.825,-6.78 6.816,-15.28 6.816,-11.86 1.704,-10.19 -3.411,-11.85 -10.226,-8.48 -5.11,-11.87 v -13.55 l 13.629,-30.55 13.637,-35.61 10.227,-22.03 17.035,-10.19 15.34,-8.46 13.634,-11.87 13.64,-18.66 17.03,-33.92 15.34,-32.21 13.64,-20.35 18.74,-16.95 17.04,-8.48 11.93,-3.4 11.93,-11.87 10.23,-18.66 5.1,-18.65 8.52,-15.25 15.34,-10.18 25.56,-8.47 34.08,-5.1 34.09,-5.1 30.67,-1.68 34.08,5.08 42.6,11.87 28.97,10.18 34.09,11.87 27.25,1.68 h 34.08 l 37.5,-1.68 39.19,-11.87 34.08,-16.95 35.8,-16.98 37.48,-11.85 35.78,-8.48 35.79,1.68 30.67,5.1 25.57,16.95 17.03,20.35 28.98,25.43 20.44,27.13 15.35,13.58 22.14,10.17 15.34,15.26 11.93,15.27 3.41,15.25 -8.53,20.35 -15.33,23.75 -13.63,27.13 -3.4,22.03 v 35.63 l 3.4,30.51 8.51,25.45 5.12,18.65 11.92,16.96 6.82,11.86 10.23,10.18 -1.7,8.47 -6.82,11.88 1.7,5.09 11.93,11.86 15.35,10.18 5.1,11.87 v 18.65 l -8.53,15.27 -6.8,28.82 -8.53,33.92 -3.4,28.81 -10.22,28.83 -17.05,40.7 -11.93,28.84 -6.82,27.13 -3.4,30.52 -5.11,35.6 -3.41,25.45 -10.24,23.73 -17.03,23.73 -17.04,15.28 z"
             style="fill:none;stroke:#231f20;stroke-width:7.5;stroke-linecap:butt;stroke-linejoin:miter;stroke-miterlimit:4;stroke-dasharray:none;stroke-opacity:1"
             id="path28" />
          <path
             d="m 1497.34,1312.68 30.66,10.18 22.16,5.08 27.27,1.7 28.96,6.77 30.68,10.18 35.78,11.88 30.68,15.25 30.66,15.27 23.87,15.26 20.45,20.35 13.63,25.43 3.4,16.97 1.71,23.73 5.11,15.27 6.82,8.48 17.05,6.77 13.61,6.78 15.35,16.95 13.62,16.98 11.95,16.96 8.51,15.26 5.11,13.56 -5.11,20.35 -5.11,18.65 -11.94,20.35 -10.21,16.96 -15.33,18.65 -8.53,22.05 -1.71,16.95 6.83,25.43 -3.43,25.45 -3.4,22.03 -10.21,30.53 -10.24,39 -17.03,33.91 -13.63,27.14 -15.34,13.56 -28.98,13.57 -23.85,3.39 -13.63,5.08 -8.52,13.59 -11.93,11.87 -17.04,3.39 -17.04,6.79 -22.16,25.43 -23.86,25.43 -30.67,20.35 -32.37,18.66 -32.39,10.17 -35.78,5.08 h -40.9 l -27.26,-1.7 -27.26,-10.16 -20.45,-16.97 -15.34,-15.25 -11.93,-11.88 -17.04,-11.87 -5.11,-10.17 -3.41,-16.96 -3.41,-18.65 -5.11,-8.48 -13.63,-11.87 -20.45,-8.49 -34.09,-10.17 -28.96,-5.08 -15.34,-5.1 -17.04,-8.47 -15.33,-10.18 -22.16,-16.95 -25.56,-32.22 -17.04,-27.13 -15.34,-28.83 -17.04,-27.13 -17.04,-33.92 -13.64,-33.92 -6.81,-30.5 -1.71,-30.54 5.12,-27.12 1.7,-22.06 1.7,-27.13 5.12,-22.04 6.81,-20.35 6.82,-13.56 11.93,-5.1 18.75,-6.78 8.52,-5.09 5.11,-8.48 6.81,-20.35 6.82,-15.25 5.12,-23.73 6.81,-27.15 11.93,-25.43 13.63,-22.05 15.34,-15.25 22.15,-15.27 28.97,-15.26 34.09,-13.57 13.62,-1.7 17.05,-1.68 32.37,-6.8 44.31,-3.38 42.6,-3.4 35.79,-1.69 40.9,1.69 34.08,1.7"
             style="fill:#ffffff;fill-opacity:1;fill-rule:nonzero;stroke:none"
             id="path30" />
          <path
             d="m 1497.34,1312.68 30.66,10.18 22.16,5.08 27.27,1.7 28.96,6.77 30.68,10.18 35.78,11.88 30.68,15.25 30.66,15.27 23.87,15.26 20.45,20.35 13.63,25.43 3.4,16.97 1.71,23.73 5.11,15.27 6.82,8.48 17.05,6.77 13.61,6.78 15.35,16.95 13.62,16.98 11.95,16.96 8.51,15.26 5.11,13.56 -5.11,20.35 -5.11,18.65 -11.94,20.35 -10.21,16.96 -15.33,18.65 -8.53,22.05 -1.71,16.95 6.83,25.43 -3.43,25.45 -3.4,22.03 -10.21,30.53 -10.24,39 -17.03,33.91 -13.63,27.14 -15.34,13.56 -28.98,13.57 -23.85,3.39 -13.63,5.08 -8.52,13.59 -11.93,11.87 -17.04,3.39 -17.04,6.79 -22.16,25.43 -23.86,25.43 -30.67,20.35 -32.37,18.66 -32.39,10.17 -35.78,5.08 h -40.9 l -27.26,-1.7 -27.26,-10.16 -20.45,-16.97 -15.34,-15.25 -11.93,-11.88 -17.04,-11.87 -5.11,-10.17 -3.41,-16.96 -3.41,-18.65 -5.11,-8.48 -13.63,-11.87 -20.45,-8.49 -34.09,-10.17 -28.96,-5.08 -15.34,-5.1 -17.04,-8.47 -15.33,-10.18 -22.16,-16.95 -25.56,-32.22 -17.04,-27.13 -15.34,-28.83 -17.04,-27.13 -17.04,-33.92 -13.64,-33.92 -6.81,-30.5 -1.71,-30.54 5.12,-27.12 1.7,-22.06 1.7,-27.13 5.12,-22.04 6.81,-20.35 6.82,-13.56 11.93,-5.1 18.75,-6.78 8.52,-5.09 5.11,-8.48 6.81,-20.35 6.82,-15.25 5.12,-23.73 6.81,-27.15 11.93,-25.43 13.63,-22.05 15.34,-15.25 22.15,-15.27 28.97,-15.26 34.09,-13.57 13.62,-1.7 17.05,-1.68 32.37,-6.8 44.31,-3.38 42.6,-3.4 35.79,-1.69 40.9,1.69 z"
             style="fill:none;stroke:#231f20;stroke-width:7.5;stroke-linecap:butt;stroke-linejoin:miter;stroke-miterlimit:4;stroke-dasharray:none;stroke-opacity:1"
             id="path32" />
          <path
             d="m 1013.37,1472.08 17.05,-18.65 17.04,-20.36 11.92,-15.25 15.34,-27.13 10.23,-27.13 10.22,-23.75 5.11,-25.43 3.42,-16.95 3.4,-10.18 h 11.93 l 15.34,3.38 17.04,-3.38 18.74,-5.09 27.27,-6.78 23.85,-8.48 23.86,-8.47 30.68,-10.18 23.85,-1.7 39.2,-3.4 h 39.19 l 28.98,-1.7 17.03,-1.68 11.93,-1.7 13.62,-1.69 6.83,-5.1 5.11,-5.08 6.82,3.4 8.52,3.38 8.52,-1.7 18.75,-1.68 30.66,1.68 h 47.71 l 22.16,-5.08 27.27,-8.48 34.08,-8.47 30.67,-6.78 h 61.35 l 27.27,6.78 20.44,8.47 17.04,11.88 13.63,10.17 8.53,5.08 5.1,11.88 3.42,11.87 8.52,8.48 6.8,8.48 3.41,11.87 1.7,23.73 -3.4,27.13 -6.81,28.83 -10.22,39 -1.71,32.23 3.41,27.13 8.52,22.05 8.51,13.56 11.94,10.16 10.22,15.27 8.52,22.05 6.82,15.25 6.82,25.44 v 23.75 l -8.53,25.43 -11.92,23.73 -13.63,30.53 -11.94,23.74 -3.4,20.34 -1.71,22.06 v 18.64 l -6.8,16.98 -3.42,23.73 v 23.75 l -5.12,30.5 -8.51,32.23 -15.33,28.83 -20.46,25.43 -23.86,16.96 -30.66,13.57 -28.98,15.25 -27.26,16.98 -23.86,20.35 -20.45,23.73 -20.45,27.13 -23.86,16.95 -34.08,22.05 -27.26,11.87 -32.38,11.87 -40.9,8.48 -27.26,3.39 h -28.97 l -27.27,-5.08 -30.67,-13.57 -30.67,-15.26 -15.34,-10.17 -6.82,-10.18 -10.22,-8.48 -13.63,-6.79 -10.23,-8.47 -6.82,-11.87 -15.33,-16.97 -15.34,-16.95 -18.75,-11.86 -28.96,-11.87 -34.08,-11.88 -27.27,-10.17 -39.19,-11.87 -30.67,-13.59 -18.75,-11.85 -10.22,-15.28 -3.42,-15.25 -3.4,-23.74 v -23.74 l -1.7,-20.35 -8.53,-25.43 -11.924,-22.05 -20.453,-33.91 -20.449,-40.7 -10.223,-20.35 -1.707,-11.88 -1.707,-16.94 v -20.36 l 5.117,-23.73 11.93,-25.44 8.519,-30.52 5.114,-28.83 5.109,-20.35 5.109,-28.83 1.711,-13.55 10.219,-11.87 z"
             style="fill:none;stroke:#231f20;stroke-width:2.5;stroke-linecap:butt;stroke-linejoin:miter;stroke-miterlimit:4;stroke-dasharray:none;stroke-opacity:1"
             id="path34" />
          <path
             d="m 1217.86,2058.82 -15.33,-6.78 -20.45,-10.18 -27.27,-6.79 -59.64,-16.96 -51.12,-11.86 -44.312,-8.49 -30.675,-10.17 -15.333,-10.17 -6.816,-10.19 1.703,-10.18 5.113,-13.55 8.524,-11.88 8.519,-11.87 6.813,-16.95 5.109,-25.43 -3.402,-25.43 -6.816,-20.35 -13.633,-27.13 -22.153,-39.01 -18.746,-30.52 -3.41,-20.36 1.699,-20.35 1.711,-20.34 11.93,-27.14 5.109,-16.96 v -20.34 l 6.813,-23.75 8.519,-13.56 11.938,-16.96 3.402,-15.25 -1.699,-11.89 -8.523,-6.78 -11.93,-6.77 -3.406,-5.08 5.113,-6.8 6.816,-13.57 17.036,-27.11 18.75,-23.75 28.977,-18.65 17.03,-23.75 13.64,-18.65 13.63,-22.05 10.23,-32.21 15.33,-28.83 6.82,-16.95 8.52,-10.18 10.22,-1.7 13.63,-1.7 11.93,-8.47 13.64,-5.08 13.63,-10.18 13.63,-15.27 18.75,-13.55 18.74,-5.1 32.38,-3.38 25.56,-3.4 25.56,-1.7 35.79,3.4 46.01,6.78 37.48,3.4 23.87,3.39 17.03,-3.39 h 15.34 l 22.16,3.39 20.45,1.68 37.48,-5.07 39.2,-11.88 35.78,-13.57 39.2,-15.26 34.08,-10.17 28.97,-3.4 18.75,3.4 27.26,10.17 27.26,15.26 17.04,13.57 22.16,20.35 11.92,15.26 8.52,16.95 13.64,10.19 17.04,18.64 1.7,18.65 -3.41,25.45 -10.22,33.91 -11.94,39 v 59.35 l 8.54,27.13 10.21,20.35 11.93,11.87 13.64,11.86 v 13.57 l 1.7,15.28 5.11,8.46 10.23,11.87 8.51,16.97 -1.7,18.64 -6.81,27.14 -15.34,44.09 -22.15,59.34 -8.52,28.84 -8.52,22.05 -1.72,28.81 -5.11,27.15 v 30.52 l -6.81,33.91 -13.63,32.23 -22.16,28.81 -25.55,18.67 -35.79,18.66 -37.48,13.55 -20.45,11.87 -27.27,30.53 -28.97,32.21 -27.27,27.14 -23.86,15.26 -28.96,15.26 -35.78,15.26 -37.5,11.87 -46,8.48 h -34.09 l -35.78,-3.39 -28.97,-8.48 -22.16,-13.56 -20.45,-16.96 -18.74,-18.65 -6.82,-8.48 -13.63,-8.48 -17.04,-10.17 -8.52,-15.28 -6.82,-11.85 -8.52,-8.5 z"
             style="fill:none;stroke:#231f20;stroke-width:2.5;stroke-linecap:butt;stroke-linejoin:miter;stroke-miterlimit:4;stroke-dasharray:none;stroke-opacity:1"
             id="path36" />
          <path
             d="m 1976.18,1697.61 -10.23,33.92 -11.92,30.52 -15.34,28.83 -6.82,28.83 -10.23,23.74 -1.69,30.52 v 28.83 l -3.41,40.7 -10.24,25.43 -17.03,25.45 -13.63,22.05 -8.52,16.95 -1.71,16.96 v 15.25 l -5.11,15.27 -18.74,3.39 -22.15,-6.78 -18.75,-5.09 h -15.33 l -8.53,11.87 -10.22,10.17 -18.74,13.56 -10.23,16.97 -8.52,22.04 -10.23,23.74 -17.04,20.35 -25.56,10.17 -23.86,5.09 -35.78,8.48 -28.97,10.17 -30.67,11.87 -30.68,15.27 -32.38,11.87 -22.15,1.69 -23.85,3.4 h -13.63 l -11.93,-3.4 -3.42,3.4 -1.7,10.17 -10.21,10.17 -17.05,-6.78 -18.75,-3.39 -28.97,-8.48 -20.45,-6.78 -15.33,-6.79 -13.64,-6.78 -10.22,-11.87 -13.63,-20.35 -17.04,-13.57 -15.33,-10.17 -10.24,-3.39 -10.22,-8.48 1.7,-8.48 v -10.17 l -8.52,-15.27 -13.63,-8.48 -17.04,-11.86 -13.63,-3.39 -34.08,-5.1 -18.75,-5.08 -18.74,-11.87 -34.09,-10.18 -30.67,-5.08 -49.417,3.38 -54.535,8.49 h -32.375 l -25.563,-5.09 -22.152,-10.17 -15.336,-13.58 -3.414,-15.25 -5.105,-13.56 -13.633,-20.35 -10.227,-15.26 -3.406,-20.36 8.519,-20.34 8.524,-16.96 6.812,-18.66 -1.703,-16.96 -1.703,-20.35 1.703,-18.65 11.93,-11.88 15.336,-11.85 13.633,-10.19 v -13.56 l 3.406,-13.56 v -15.27 l -10.223,-18.65 -8.519,-28.83 v -20.35 l 5.109,-22.03 1.711,-10.19 v -30.52 l 6.813,-16.96 8.519,-11.87 3.406,-8.48 3.41,-13.57 -3.41,-16.95 -1.703,-30.53 6.817,-13.56 6.816,-15.25 5.113,-11.89 1.703,-13.55 v -33.92 l -3.406,-28.81 5.11,-25.45 13.632,-30.53 23.856,-25.43 15.34,-16.97 15.336,-18.64 8.523,-22.05 5.106,-22.05 3.414,-35.6 6.816,-22.05 15.332,-25.43 22.165,-20.35 10.22,-5.08 13.63,1.7 17.04,8.45 11.93,5.1 17.04,-3.4 11.93,-5.09 8.52,-13.56 6.82,-20.33 11.92,-18.67 15.35,-18.66 37.48,-10.17 37.49,-5.08 20.46,3.38 h 15.33 l 30.67,1.7 30.67,1.7 28.97,5.1 27.27,8.47 51.12,23.73 27.27,6.78 23.85,6.8 13.64,-1.7 20.44,1.7 32.39,-10.18 40.9,-13.57 44.29,-20.34 22.15,-10.19 23.87,-10.16 28.96,-10.17 40.9,-3.4 35.78,-1.7 39.2,10.18 23.86,11.87 25.56,13.57 15.34,10.16 h 10.22 l 18.74,-3.38 11.94,-1.7 8.51,1.7 8.53,5.08 3.4,13.57 -8.52,11.86 -3.41,6.8 v 10.17 l 5.12,6.78 13.62,1.7 15.35,10.16 11.93,15.27 10.22,11.87 8.53,8.48 6.8,10.18 11.94,3.39 10.21,5.08 -1.7,11.88 1.7,11.87 -10.21,5.08 -17.05,20.35 -18.74,30.53 -11.93,37.3 -11.93,45.79 3.4,27.12 11.94,18.68 17.04,15.25 11.94,13.56 11.91,10.17 1.71,10.17 -3.41,13.58 -10.21,10.17 -8.52,8.48 v 8.47 l 11.91,6.78 5.12,15.27 -5.12,13.56 -5.11,15.27 -3.4,16.96 -5.12,23.73 -3.4,25.44 z"
             style="fill:none;stroke:#231f20;stroke-width:2.5;stroke-linecap:butt;stroke-linejoin:miter;stroke-miterlimit:4;stroke-dasharray:none;stroke-opacity:1"
             id="path38" />
          <path
             d="m 1640.48,1085.46 32.37,-11.88 35.8,-11.87 35.78,-5.08 37.48,-6.78 h 69.87 l 22.14,6.78 13.65,11.85 8.52,13.58 8.51,8.48 20.45,6.77 15.34,6.8 11.93,16.95 11.93,18.66 3.41,22.05 11.92,13.55 13.65,5.1 h 11.92 l 6.82,-10.18 13.63,-5.1 15.33,8.48 5.12,13.58 -3.42,10.17 -10.21,13.58 v 13.55 l 6.81,16.95 -3.4,16.98 -8.53,20.33 -15.33,28.83 -17.05,40.7 -6.8,30.53 v 33.92 l 8.52,32.21 15.33,22.05 20.45,16.95 1.7,13.58 -6.82,10.16 -5.12,8.48 10.24,8.48 17.04,5.08 10.22,8.48 -1.71,8.49 -13.63,3.38 -15.34,6.8 -1.7,11.85 v 20.36 l -8.53,13.56 -10.22,18.66 -6.81,23.73 -10.22,42.4 -3.4,18.66 -6.84,37.29 -11.92,28.84 -11.92,22.05 -11.94,27.12 -8.51,27.13 -3.41,32.23 3.41,44.09 v 30.5 l -11.94,28.85 -15.33,28.84 -20.45,18.65 -3.41,20.35 -6.81,23.73 -5.13,20.35 -13.62,6.78 h -18.74 l -13.64,-1.7 -18.74,3.4 -20.45,11.87 -11.93,11.87 -5.11,20.34 3.4,18.66 3.42,18.65 -5.12,18.65 -13.63,16.96 -23.86,11.88 -51.12,10.16 -44.3,8.49 -35.79,6.78 -35.79,8.48 -42.6,11.87 -22.14,6.78 -25.57,5.09 -23.85,6.78 h -18.75 l -13.63,6.79 -6.82,11.87 -11.93,6.78 -11.93,-3.4 -3.41,-13.56 -18.74,-3.39 -35.79,-3.39 -37.49,-6.79 -27.26,-16.95 -32.37,-28.83 -30.68,-27.13 -23.86,-28.83 -15.33,-13.57 -23.86,-5.08 -17.05,6.78 -27.26,11.87 -30.67,11.87 -25.56,1.69 -22.16,-8.48 -8.52,-16.95 3.41,-13.57 6.81,-16.96 -3.4,-10.16 -17.04,-8.49 -34.087,3.4 -57.937,6.77 -42.606,5.1 -35.785,-1.7 -20.445,-8.48 -10.227,-15.27 1.703,-18.65 5.114,-11.86 -5.114,-11.87 -3.41,-13.58 -23.855,-11.85 -15.336,-10.18 -5.113,-16.97 v -18.64 l 8.519,-18.66 8.52,-23.74 3.41,-23.75 1.703,-27.13 -1.703,-27.13 1.703,-16.96 8.519,-20.35 3.411,-13.56 17.039,-10.18 6.82,-22.05 -1.703,-23.73 -8.524,-23.75 -3.41,-18.64 5.114,-15.27 11.929,-18.65 10.219,-13.56 1.711,-8.49 -10.227,-11.86 -10.222,-18.66 -1.707,-13.56 8.523,-11.86 10.223,-10.19 15.344,-11.87 8.519,-10.17 v -11.87 l -6.82,-11.88 -10.227,-15.25 -3.406,-6.78 6.809,-10.18 8.527,-8.49 10.223,-10.18 6.816,-15.25 -1.703,-16.95 -1.703,-22.05 v -27.13 l 5.113,-25.43 8.519,-23.75 11.93,-15.25 18.742,-22.05 22.157,-27.13 10.218,-23.75 11.934,-32.21 v -23.75 l 8.519,-32.2 v -22.07 l 11.926,-30.51 13.637,-18.65 10.223,-11.88 18.744,6.8 18.75,15.25 23.86,6.78 13.63,1.7 10.22,-11.88 1.71,-25.43 11.93,-22.05 25.56,-10.17 34.07,-8.48 40.91,-11.88 h 47.72 l 46,-1.68 44.31,1.68 37.49,3.42 27.26,6.76 35.79,13.57 22.14,13.56 22.16,10.19 h 22.15 l 18.75,6.78 22.15,5.08 27.26,-5.08 32.39,-11.87 27.26,-15.26 z"
             style="fill:none;stroke:#231f20;stroke-width:2.5;stroke-linecap:butt;stroke-linejoin:miter;stroke-miterlimit:4;stroke-dasharray:none;stroke-opacity:1"
             id="path40" />
          <path
             d="m 711.75,1678.96 28.973,-11.87 6.812,-5.09 1.707,-13.56 8.524,-8.48 15.332,-10.18 13.632,-13.57 8.52,-11.85 1.703,-11.88 -3.406,-13.56 -6.817,-6.79 -27.265,-13.56 -15.34,-15.28 -11.922,-13.56 1.699,-10.18 13.633,-3.38 25.563,3.38 27.265,-5.07 11.93,-3.39 11.926,-11.86 8.519,-18.67 -3.406,-37.31 -5.113,-30.51 v -25.45 l 5.113,-18.65 5.106,-11.87 8.527,-10.18 11.93,-20.35 6.816,-22.03 5.109,-23.75 1.707,-22.03 5.11,-15.28 13.633,-16.95 11.929,-16.95 10.227,-13.58 3.402,-20.35 1.707,-16.95 3.41,-13.58 5.114,-6.77 11.925,1.7 6.813,-1.7 3.414,-6.78 5.105,-11.86 11.938,-3.4 13.629,-1.69 11.93,-6.8 11.925,-1.7 20.452,1.7 h 10.23 l 11.93,-3.38 1.7,-11.88 -11.93,-18.65 -3.41,-11.87 1.71,-11.86 13.63,-6.79 3.41,-13.56 17.04,-10.18 25.56,-13.57 20.45,-16.949 15.33,-3.403 h 18.75 l 20.45,10.172 13.63,5.1 h 15.34 l 23.85,-6.791 13.64,-6.777 h 15.34 l 13.63,6.777 13.63,11.871 11.93,6.78 17.04,3.4 22.15,-5.08 13.64,-3.4 17.04,3.4 17.04,16.95 11.93,11.88 20.44,13.55 13.63,1.7 11.93,-1.7 11.94,1.7 1.7,8.48 8.51,11.87 11.94,8.48 15.33,3.4 15.34,-1.7 13.63,3.38 13.64,3.39 h 23.85 l 25.56,-6.77 18.75,-10.18 23.86,-13.57 22.15,-11.86 25.56,-5.1 34.08,-3.39 28.97,-1.68 h 27.26 l 20.45,-5.1 17.04,-8.48 23.86,-15.25 22.15,-10.18 30.68,-6.791 h 30.67 l 17.05,8.491 11.93,8.48 6.81,15.25 5.11,15.26 8.51,8.49 11.95,3.38 20.43,-1.7 18.76,5.1 11.92,8.48 -1.71,13.55 -10.21,10.18 v 15.27 l 1.69,16.95 10.23,5.08 13.63,-1.68 h 13.64 l 11.93,8.48 11.92,15.25 8.53,25.43 v 44.1 l -11.94,20.35 -6.82,30.53 -20.43,28.83 -8.54,20.33 -6.81,30.53 -3.4,27.13 5.1,27.13 11.93,23.75 11.93,18.65 18.75,13.55 18.75,13.58 10.22,11.87 -1.7,11.88 -13.63,10.17 -8.52,6.78 -1.72,8.47 5.12,10.18 6.82,6.78 3.41,10.17 -5.11,6.79 -10.24,6.79 5.12,11.86 3.42,13.57 v 16.97 l -6.82,8.46 -11.93,20.35 -17.04,40.71 -13.65,22.04 -6.81,39.01 -20.45,49.17 -23.85,45.79 -5.12,16.95 -1.7,94.96 -5.1,61.04 -1.71,27.15 -17.05,22.05 -13.62,16.95 -8.53,8.48 v 25.43 l -6.82,5.08 -23.85,-1.68 -11.93,3.39 -13.63,8.47 -10.23,6.79 h -10.22 l -11.94,10.17 -8.51,11.87 -3.4,18.65 v 22.05 l -3.42,28.83 -15.33,20.34 -27.27,18.66 -30.68,15.26 -35.78,5.09 -32.38,5.08 -32.37,8.48 -15.34,16.96 -20.45,11.87 h -25.55 l -25.57,-1.69 -20.45,-1.7 -30.68,8.48 -28.97,5.09 -20.45,8.47 h -23.84 l -13.64,1.7 -8.51,10.17 -8.53,10.18 -13.63,-1.69 -13.64,-11.88 -13.63,-3.39 -15.34,6.78 -17.04,5.09 h -23.86 l -11.92,-11.87 -27.27,-30.52 -28.97,-33.92 -25.56,-25.43 -20.45,-5.09 -23.85,-11.87 -23.86,-5.09 -13.64,8.48 -3.4,15.26 -11.93,6.78 -13.63,8.49 -5.12,15.25 -13.63,18.66 -11.93,6.78 -13.63,1.7 -8.52,-8.48 v -11.87 l 5.11,-6.79 -3.4,-11.87 -10.23,-3.38 h -20.45 l -15.342,-8.49 -15.332,-18.65 -6.82,-13.56 1.707,-8.48 v -13.57 l -10.23,-8.48 -20.446,-1.7 -32.383,3.4 -57.933,16.96 -76.684,8.47 -27.265,-1.69 -25.563,-8.48 -5.105,-13.57 1.699,-15.26 3.406,-13.56 5.113,-15.26 -1.699,-23.74 -11.93,-16.96 -27.269,-13.57 -27.262,-13.56 -17.047,-16.96 -8.519,-20.34 -1.699,-11.89 13.632,-10.16 17.043,-15.28 1.703,-13.56 -8.519,-18.67 -3.414,-22.03 3.414,-15.26 13.625,-16.96 17.043,-22.05 5.113,-16.94 5.11,-16.97 -3.403,-22.03 -8.519,-15.27 -5.117,-20.36 5.117,-16.95 11.922,-10.18 15.339,-15.25 5.118,-20.35 -8.528,-18.65 -10.218,-18.66 -5.114,-11.87 z"
             style="fill:none;stroke:#231f20;stroke-width:2.5;stroke-linecap:butt;stroke-linejoin:miter;stroke-miterlimit:4;stroke-dasharray:none;stroke-opacity:1"
             id="path42" />
          <path
             d="m 1309.89,2452.23 -28.97,-16.96 -27.27,-25.44 -22.15,-16.96 -15.34,-23.74 -22.15,-18.65 -27.26,-15.26 h -18.76 l -20.44,3.39 -15.34,1.69 -17.04,10.18 -22.15,11.87 -13.64,3.39 -17.03,-8.47 -25.56,-13.57 -18.751,-8.48 -32.383,-22.05 -22.152,-10.17 -34.078,-5.09 -34.082,5.09 -59.645,16.95 -57.933,10.18 -57.942,6.78 h -51.129 l -39.187,-6.78 -30.672,-13.56 -20.453,-18.66 -17.043,-18.65 -3.406,-25.44 5.113,-18.65 10.226,-25.44 3.407,-27.13 1.703,-13.56 -5.11,-11.87 -11.933,-5.09 -13.629,-6.78 -13.633,-15.27 v -15.26 l 5.113,-15.26 1.704,-8.49 -17.043,-8.47 -28.969,-22.04 -17.039,-16.96 -8.524,-18.66 5.114,-15.25 11.929,-13.57 23.864,-18.65 32.371,-35.62 5.113,-18.65 6.82,-20.35 11.926,-13.56 18.742,-11.87 5.11,-10.18 -3.403,-13.56 -15.34,-16.96 -11.925,-16.96 -3.411,-18.65 10.227,-16.96 18.742,-20.36 28.969,-33.91 13.637,-16.96 1.703,-15.26 1.699,-16.96 -8.519,-20.33 v -11.88 l 3.41,-16.96 13.629,-22.04 v -13.58 l -3.403,-13.55 -10.226,-13.58 3.41,-8.47 15.336,-6.78 17.043,-13.56 10.222,-11.89 3.403,-22.03 6.824,-25.44 11.926,-18.64 11.926,-11.89 8.523,-3.38 11.926,3.38 10.222,5.1 13.633,-5.1 11.93,-8.48 8.519,-13.55 v -23.75 l -3.406,-27.13 -3.41,-20.35 1.707,-11.86 5.109,-10.18 13.633,-11.87 11.93,-15.27 3.41,-20.34 v -23.75 l 6.816,-28.82 -1.707,-35.61 3.411,-20.35 13.632,-16.95 13.633,-15.28 6.817,-13.55 5.113,-22.05 5.109,-25.43 17.043,-5.1 20.449,-5.08 11.93,-13.57 1.703,-13.56 -1.703,-10.17 8.516,-11.88 13.633,-8.47 17.039,-10.18 6.82,-11.88 -1.703,-10.172 -6.817,-8.476 -1.703,-16.953 6.813,-16.949 11.933,-18.661 22.153,-27.129 25.562,-25.441 27.264,-16.957 27.27,-10.172 30.67,-5.078 22.15,3.379 17.04,8.469 23.87,13.582 11.92,6.777 18.75,1.691 22.15,-1.691 13.63,-5.078 13.63,1.68 8.52,1.699 15.35,-5.078 20.44,-5.082 22.15,1.679 22.15,6.782 34.09,22.05 25.56,18.649 30.67,23.73 20.44,13.571 23.87,10.179 18.75,3.399 h 10.22 l 11.93,8.48 18.74,3.391 17.04,-3.391 15.33,-3.379 13.64,1.68 23.85,3.391 32.38,1.699 25.56,1.699 23.87,6.762 25.55,6.801 35.79,1.699 35.79,-1.699 27.26,-10.18 28.97,-18.652 32.38,-18.649 37.48,-20.351 32.38,-10.18 h 20.45 l 25.57,5.101 22.15,16.95 27.27,25.429 18.73,28.828 13.65,15.272 11.91,3.38 27.28,-1.68 22.15,10.16 20.45,13.57 5.1,22.05 -8.51,37.31 -10.23,27.13 -3.41,18.65 3.41,16.95 6.81,20.35 13.63,25.43 3.42,22.05 -5.12,20.36 -10.21,35.6 -15.34,35.61 -10.23,27.14 -1.7,22.04 5.1,27.12 10.23,23.75 15.34,30.53 25.56,35.61 18.75,16.95 17.05,20.36 1.69,16.94 -1.69,18.67 -20.47,25.43 -17.04,23.73 -6.8,16.96 -3.42,22.06 -25.56,40.69 -23.85,66.13 -17.05,37.31 -8.51,37.31 -11.93,37.31 -3.41,30.51 v 62.76 l -1.7,40.69 -3.42,28.84 -17.03,45.77 -17.05,32.22 -22.15,30.53 -8.52,18.65 -17.05,13.57 -15.33,3.38 -17.03,1.7 -13.63,10.18 -6.83,16.95 -1.69,22.05 -11.93,28.83 -17.05,23.74 -25.56,25.43 -27.27,16.96 -30.67,15.26 -49.41,13.57 -27.27,8.48 -23.87,10.17 -15.33,25.43 -8.51,18.66 -13.64,15.26 -15.34,1.69 -22.15,-5.08 -23.85,-8.48 -22.15,-10.17 -20.45,-1.7 -23.87,1.7 -18.74,16.95 -17.04,11.87 -20.45,3.39 -23.85,-1.69 h -17.05 l -11.93,18.65 -15.33,15.26 -17.04,6.78 -20.45,1.7 h -20.45 z"
             style="fill:none;stroke:#231f20;stroke-width:2.5;stroke-linecap:butt;stroke-linejoin:miter;stroke-miterlimit:4;stroke-dasharray:none;stroke-opacity:1"
             id="path44" />
          <path
             d="m 503.852,1828.19 -6.817,-20.35 6.817,-27.13 10.992,-17.56 53.765,-85.88 v -13.57 l 7.344,-24.09 6.754,-14.51 -3.539,-21.97 -22.488,-35.35 -1.782,-19.85 9.161,-9.04 22.847,-15.84 22.367,-15.52 5.68,-17.27 9.891,-30.06 6.812,-18.65 16.266,-16.03 24.687,-6.45 25.532,7.17 15.25,-15.26 5.937,-23.65 -7.578,-20.37 1.707,-28.85 13.629,-11.87 18.969,-11.72 13.41,-20.49 1.664,-30.47 1.211,-22.13 -0.41,-37.34 2.011,-21.87 4.043,-44.2 1.707,-8.48 -13.636,-20.35 -1.703,-18.65 6.82,-22.06 28.965,-22.03 22.156,-16.95 24.156,-21.07 10.992,-19.93 3.93,-25.191 5.227,-16.918 36.078,-52.961 96.84,-79.301 38.964,-27.68 27.34,-13.629 34.16,-0.859 29.05,1.488 34.35,5.192 28.5,11.597 25.77,1.922 32.32,2.379 35.84,2.641 25.55,5.09 20.45,16.96 20.45,25.43 40.9,30.52 34.08,27.129 23.85,8.48 28.98,3.402 h 20.45 l 8.52,-8.48 15.33,-10.191 h 20.45 l 34.08,6.789 25.57,11.882 63.04,25.43 37.48,10.641 27.28,2.929 h 22.21 l 27.21,-5.101 40.89,-15.27 40.91,-25.41 15.32,-8.5 11.95,-11.851 20.45,-1.719 25.7,3.109 14.07,7.871 26.68,0.91 22.14,-1.71 14.2,5 7.97,22.14 12.77,21.199 17.89,9.332 28.99,10.161 31.72,12.027 31.54,16.601 10.8,20.53 -1.41,32.3 -1.11,25.3 -1.4,32.32 -1.18,27.09 -0.81,18.67 9.35,33.91 0.58,28.87 0.37,18.57 -5.19,32.28 -7.7,32.17 -0.82,27.17 3.41,44.08 17.04,33.93 20.01,32.93 11.4,31.27 9.51,26.07 1.69,30.11 -5.11,37.33 -15.84,34.47 -23.36,38.43 -15.09,35.02 -29.22,37.9 -5.12,30.53 -2.48,26.8 -6.04,15.58 -28.96,55.98 -3.4,22.04 v 20.34 l 6.82,18.65 8.51,18.66 18.74,25.44 3.41,15.26 1.72,16.95 -15.35,13.55 -15.33,15.28 -10.24,27.13 -10.21,15.26 -5.12,20.36 -8.52,22.04 -8.51,20.35 1.7,22.05 v 15.25 l -5.12,10.18 -15.33,5.09 -15.33,10.17 -6.84,15.27 -15.32,5.08 -17.04,5.09 -6.82,15.26 -13.63,25.43 -17.04,28.83 -10.23,23.74 -13.63,13.57 -28.97,10.18 -20.44,10.17 -17.06,13.56 -17.04,20.35 -13.62,18.66 -13.63,10.17 -23.87,6.79 -28.96,6.78 -27.27,11.87 -23.86,15.26 -20.44,15.26 -17.05,8.48 -20.45,3.39 -22.15,-1.69 -25.56,-1.7 -28.97,6.79 -32.38,15.25 -23.85,10.18 -18.75,5.09 -18.75,-5.09 -13.63,-6.78 -10.21,3.39 -6.82,20.35 -10.24,13.56 -11.92,6.78 h -18.74 l -23.86,-3.39 -23.86,1.7 -22.15,-3.39 -25.56,-11.87 -57.94,-16.96 -39.19,-13.57 -49.42,-16.96 h -25.56 l -20.45,-8.47 -22.15,-1.7 -17.04,-10.17 -11.93,-3.39 -17.04,8.48 -13.64,8.47 -11.932,-8.47 -8.523,-10.18 -3.402,-11.87 -5.118,-10.17 h -10.218 l -25.563,6.78 -35.785,8.48 -28.969,3.39 -34.078,-11.87 -30.68,-6.78 -39.187,-10.18 -20.449,-3.39 -30.68,5.09 -42.602,13.56 -52.828,6.78 -39.191,1.7 h -25.559 l -37.492,5.09 -27.266,-3.39 -40.898,-11.87"
             style="fill:none;stroke:#231f20;stroke-width:2.5;stroke-linecap:butt;stroke-linejoin:miter;stroke-miterlimit:4;stroke-dasharray:none;stroke-opacity:1"
             id="path46" />
          <path
             d="m 534.531,1548.38 -15.34,6.79 -17.043,1.71 -13.632,-6.8 -6.813,-13.56 3.406,-8.49 11.926,-6.78 17.043,-8.47 15.336,1.7 10.227,10.17 z"
             style="fill:none;stroke:#231f20;stroke-width:2.5;stroke-linecap:butt;stroke-linejoin:miter;stroke-miterlimit:4;stroke-dasharray:none;stroke-opacity:1"
             id="path48" />
          <path
             d="m 524.297,1535.67 c 0,-5.11 -3.844,-9.33 -8.52,-9.33 -4.668,0 -8.515,4.22 -8.515,9.33 0,5.11 3.847,9.31 8.515,9.31 4.676,0 8.52,-4.2 8.52,-9.31 z"
             style="fill:none;stroke:#231f20;stroke-width:2.5;stroke-linecap:butt;stroke-linejoin:miter;stroke-miterlimit:4;stroke-dasharray:none;stroke-opacity:1"
             id="path50" />
          <path
             d="m 493.629,1611.13 -17.043,1.69 -18.742,-5.08 -6.817,-15.26 8.524,-15.27 -5.117,-15.25 -13.633,-10.18 -10.219,-11.86 6.813,-13.58 15.335,-6.79 18.747,-10.15 10.226,-10.17 15.332,-8.5 17.043,-8.48 h 15.336 l 15.34,3.4 8.519,13.58 v 23.72 l -5.113,22.03 -11.93,20.36 -11.933,18.66 -13.629,16.96 z"
             style="fill:none;stroke:#231f20;stroke-width:5;stroke-linecap:butt;stroke-linejoin:miter;stroke-miterlimit:4;stroke-dasharray:none;stroke-opacity:1"
             id="path52" />
          <path
             d="m 229.496,1628.09 17.043,5.08 11.922,13.57 13.641,11.87 23.855,-6.77 23.859,-16.96 23.856,-23.75 28.969,-25.44 27.261,-28.81 10.231,-27.15 5.105,-20.33 v -35.62 l -3.402,-40.71 v -37.3 l 1.699,-27.13 8.52,-20.35 6.816,-5.08 15.34,10.16 8.519,18.67 3.415,20.35 -1.711,18.65 8.519,11.86 13.633,3.4 18.746,-5.1 17.043,-11.86 18.742,-30.52 18.746,-25.45 15.336,-18.64 13.637,-27.14 6.809,-25.43 18.75,-25.43 18.742,-27.13 5.109,-11.88 -1.699,-15.25 3.41,-25.45 13.633,-32.23 17.039,-28.81 6.812,-16.97 13.633,-8.47 h 15.344 l 10.219,-6.78 10.222,-20.35 15.344,-30.53 22.149,-39.001 18.746,-33.91 6.816,-23.75 22.152,-27.129 22.153,-25.43 28.969,-23.73 30.675,-22.051 30.672,-16.949 34.082,-35.629 30.676,-16.949 25.557,-22.051 23.86,-11.86 23.86,-10.171 27.27,-1.7 30.67,-1.699 18.74,-6.781 25.56,-13.57 11.94,-3.379 34.07,10.148 23.86,6.801 35.79,6.781 30.67,-1.699 20.45,8.469 51.12,32.23 37.49,27.129 23.86,13.57 23.86,10.18 13.63,1.699 10.22,-8.5 10.23,-10.168 17.04,-6.781 23.86,5.102 25.55,3.378 20.45,1.7 10.24,8.468 22.14,16.961 20.45,22.051 15.34,16.949 23.86,20.352 25.56,20.348 20.44,11.882 27.26,6.778 27.27,8.492 18.75,-3.402 22.15,-8.489 17.05,-15.261 15.33,-11.868 18.75,-16.961 13.63,-8.468 17.04,-5.082 18.74,3.379 20.45,8.48 18.74,3.391 28.98,-3.391 20.45,-5.078 h 22.15 l 20.45,5.078 18.75,10.172 6.81,15.269 8.52,20.34 8.51,15.25 18.75,10.2 22.15,11.871 27.27,16.949 17.03,13.558 11.94,10.172 6.83,23.75 1.69,25.43 -8.52,32.23 -5.1,32.21 3.41,47.48 -1.72,49.18 5.12,55.97 10.22,30.51 17.05,44.08 20.45,39.01 6.8,37.32 1.71,49.18 -5.11,50.86 -8.52,28.82 -1.71,27.13 -1.69,20.36 -18.77,35.62 -30.65,40.68 -23.86,35.62 -10.23,22.04 -3.4,30.53 1.7,27.13 v 28.82 l -6.82,16.96 -17.05,11.87 -11.92,10.17 -6.81,16.96 8.51,23.75 10.22,16.94 5.12,16.97 5.11,22.04 1.7,18.66 -5.1,13.57 -6.83,11.87 -11.92,15.25 1.7,11.89 10.22,11.86 1.72,15.26 -1.72,13.57 -13.62,18.65 -11.93,22.05 -5.11,15.25 v 22.05 l 3.41,15.26 -3.41,16.96 -13.64,10.17 -20.45,11.87 -17.04,11.87 -13.63,27.14 -20.46,39 -25.55,27.13 -32.38,27.13 -35.78,16.96 -25.57,13.56 -18.74,42.4 -17.04,25.43 -30.67,20.35 -34.08,13.57 -32.38,1.69 -25.56,-1.69 -27.27,1.69 -23.85,10.18 -22.16,11.87 -15.34,13.56 -32.37,15.27 -42.61,11.87 -51.11,1.69 h -30.68 l -32.37,3.4 -13.64,6.78 h -13.62 l -18.76,6.79 -17.04,10.16 h -13.63 l -27.27,-11.86 -42.6,-13.57 -42.6,-3.39 -40.9,-10.18 -54.52,-10.17 -30.68,-5.09 -44.31,-5.08 -37.49,-5.09 -18.74,3.39 -25.564,11.87 -34.082,11.87 -30.676,8.48 -27.266,-3.4 -25.558,-15.25 -37.492,-16.96 -37.489,-10.18 -30.672,-6.78 -27.269,5.09 -32.379,16.96 -32.375,25.43 -27.262,32.21 -23.859,18.66 -25.559,10.17 -34.082,11.87 -20.449,6.79 -18.746,18.65 -20.449,39 -28.969,39.01"
             style="fill:none;stroke:#231f20;stroke-width:2.5;stroke-linecap:butt;stroke-linejoin:miter;stroke-miterlimit:4;stroke-dasharray:none;stroke-opacity:1"
             id="path54" />
          <path
             d="m 527.711,2771.02 28.969,-40.7 27.265,-30.52 17.043,-20.35 22.149,-22.04 11.933,-3.39 15.332,-3.4 17.039,-8.48 23.864,-23.73 23.851,-20.36 17.047,-22.03 22.149,-6.79 17.039,1.7 35.789,6.78 47.715,13.56 34.082,13.57 30.671,11.87 25.563,3.4 22.152,-8.49 17.043,-15.26 11.93,-22.05 1.703,-22.04 3.411,-10.17 15.34,-6.78 32.37,10.16 28.97,6.79 h 80.1 l 32.37,6.78 44.3,11.88 34.09,20.34 23.85,13.57 15.34,5.09 h 18.75 l 17.04,-10.18 11.93,-3.39 h 10.22 l 15.34,6.78 11.92,8.48 h 10.23 l 10.22,-1.69 8.53,-5.09 6.82,-5.09 h 23.84 l 27.27,1.7 23.87,1.69 44.29,-3.39 44.31,-10.17 35.79,-16.96 35.78,-28.83 15.33,-11.87 15.35,-6.78 27.26,-1.69 39.19,-5.09 37.5,-11.87 44.31,-22.05 39.19,-30.52 42.59,-45.79 15.34,-16.95 11.93,-25.44 10.23,-13.57 22.15,-10.17 30.67,-20.35 35.78,-23.74 17.05,-22.04 8.51,-27.14 1.72,-18.65 3.4,-11.87 8.52,-5.09 20.45,-10.17 18.75,-8.48 5.1,-13.56 -1.7,-23.74 -3.4,-23.74 6.81,-18.66 5.12,-20.35 5.12,-10.17 5.09,-16.96 1.7,-16.95 -6.79,-16.96 -5.12,-25.44 -6.83,-28.84 1.71,-25.43 3.41,-11.87 20.44,-10.18 11.95,-11.87 -5.12,-11.86 -15.35,-13.57 -27.26,-13.56 -5.12,-11.88 1.72,-11.86 8.52,-6.78 15.33,-8.5 6.81,-18.65 -3.4,-16.95 -3.41,-27.13 1.72,-25.43 6.79,-25.45 6.82,-15.26 5.13,-8.47 8.51,-11.88 32.38,-27.13 3.41,-8.47 v -18.66 l 17.04,-16.95 10.23,-13.57 1.7,-11.88 3.41,-11.86 10.22,-13.57 -1.71,-18.65 3.41,-27.13 10.23,-25.42 10.22,-15.28 17.04,-15.27 6.82,-20.33 -8.52,-27.15 -13.63,-47.48 -22.16,-52.56 -18.75,-45.78 -8.51,-25.43 -1.69,-27.15 -1.71,-35.6 1.71,-37.31 -1.71,-18.65 v -33.93 l 1.71,-35.6 v -30.53 l 1.69,-23.73 -6.82,-22.052 -18.75,-27.128 -27.26,-23.731 -34.08,-15.269 -17.04,-18.661 -10.22,-23.73 -17.05,-18.649 -27.26,-11.871 -34.08,-6.777 -34.09,1.68 -30.67,1.699 h -28.97 l -27.27,-11.879 -27.26,-11.852 -27.25,-3.398 -23.87,8.469 -28.97,8.5 h -28.97 l -32.37,-5.102 -44.31,-18.648 -30.67,-18.653 -27.27,-28.828 -30.67,-16.949 -40.9,-22.051 -34.09,-13.582 -20.44,-5.097 h -18.74 l -10.24,6.8 -10.21,10.18 -10.23,-10.18 -8.52,-8.472 -1.7,-11.879 v -16.949 l -6.83,-18.661 -17.04,-5.07 h -30.66 l -20.45,6.75 -23.86,3.422 -34.08,3.379 -22.16,-5.082 -18.74,-5.09 -28.97,1.691 -35.79,5.102 -20.44,5.078 h -56.23 l -27.27,6.781 -22.16,6.789 -28.96,-1.691 -34.09,5.07 -22.15,3.403 -32.384,20.347 -30.672,25.43 -32.375,22.051 -15.344,15.262 -22.148,20.347 -25.555,8.481 -34.086,15.269 -20.449,16.949 -13.633,28.832 -11.93,16.95 -35.781,33.91 -25.566,35.629 -10.219,27.121 -15.344,33.91 -15.332,16.95 -17.047,5.1 -27.257,1.7 -15.34,6.78 -15.336,18.65 -15.336,35.61 -17.043,30.52 -3.406,13.58 -1.704,15.25 -5.113,8.48 -10.226,3.4 -11.922,5.09 -3.414,10.16 -6.821,13.57 -10.218,10.18 -10.227,15.25 1.703,16.96 13.633,10.17 6.824,18.67 -1.715,27.11 -5.109,16.96 -13.633,8.49 -23.851,-1.7 -10.231,-13.57 -8.519,-11.86 -15.332,-11.87 -25.567,1.7 -25.562,13.55 -11.926,22.05 -10.223,18.66 -6.82,20.35 v 18.65 l 1.711,28.83 13.633,32.21 5.105,35.62 3.41,30.53 v 16.95 l -8.515,16.95 -11.934,10.17 -17.043,8.48 -23.851,6.8 h -22.153 l -13.633,6.77 -6.82,16.96 -15.336,16.95 -20.449,-1.7 -15.336,-13.55"
             style="fill:none;stroke:#231f20;stroke-width:2.5;stroke-linecap:butt;stroke-linejoin:miter;stroke-miterlimit:4;stroke-dasharray:none;stroke-opacity:1"
             id="path56" />
          <path
             d="m 553.273,2882.94 42.602,-42.39 42.602,-45.78 37.484,-33.92 22.156,-13.57 25.567,-6.78 28.968,3.39 35.782,8.48 35.785,8.48 32.379,10.17 h 28.968 l 34.082,-15.25 30.668,-22.06 23.86,-23.74 25.562,-28.82 27.272,-28.83 11.93,-6.78 23.86,-1.69 20.44,3.38 27.27,6.79 22.16,11.87 13.62,13.56 3.42,16.96 1.7,18.66 13.63,11.87 17.04,5.08 25.56,-3.39 15.34,-10.18 3.4,-10.16 10.24,-5.1 10.21,5.1 15.34,3.38 22.15,3.4 23.86,-5.1 17.04,-10.17 8.52,-13.57 10.23,-16.96 8.52,-3.38 13.63,10.17 6.82,15.26 6.81,22.05 10.23,22.04 20.44,11.87 h 18.76 l 32.37,-10.17 15.34,-13.57 27.27,-23.74 27.25,-15.26 37.49,-20.35 54.53,-20.34 34.08,-10.19 20.45,-22.04 22.16,-10.17 27.27,-13.57 37.49,-3.39 46,-5.09 37.49,-6.78 25.55,-13.57 18.77,-20.35 20.43,-27.13 22.17,-25.43 34.07,-22.05 34.09,-23.74 30.67,-22.04 27.26,-27.13 35.78,-33.91 11.94,-15.27 10.21,-28.83 10.24,-13.56 11.93,-20.35 25.56,-11.87 30.67,-11.87 22.15,-8.48 15.33,-10.18 10.23,-15.26 v -20.35 l -8.51,-28.82 -6.83,-25.44 1.71,-15.26 8.52,-13.57 13.63,-8.47 6.82,-8.49 -1.7,-15.25 -18.75,-15.28 -23.86,-32.21 -22.14,-32.21 -11.94,-22.05 v -11.88 l 13.62,-18.65 11.94,-23.74 1.71,-22.04 -1.71,-18.65 -13.62,-8.48 -11.94,-15.27 -1.69,-6.79 6.8,-8.46 11.94,-15.27 v -8.48 l -11.94,-5.09 -13.63,-20.34 -3.41,-20.35 3.41,-28.83 10.23,-28.83 18.75,-25.44 20.45,-20.34 18.74,-25.43 13.63,-18.67 6.83,-23.73 1.69,-18.67 6.82,-15.24 -3.41,-20.36 6.81,-13.57 5.12,-27.12 8.51,-18.65 17.05,-13.58 17.03,-6.77 18.74,-8.48 6.83,-20.35 v -22.05 l -10.23,-30.53 -11.92,-30.51 -17.05,-30.52 -22.15,-35.61 -13.63,-39 -5.11,-44.09 -8.52,-61.07 1.7,-37.29 5.1,-49.18 10.24,-42.38 5.11,-37.318 -6.82,-30.532 -10.22,-15.25 -27.26,-22.05 -23.87,-8.481 -10.21,-13.559 -10.24,-22.05 -8.51,-20.348 -8.52,-6.773 -25.56,-10.18 -22.15,-5.078 -13.64,-8.5 -20.45,-22.031 -18.74,-11.872 -22.15,-1.699 -47.72,8.481 -57.95,1.699 -45.99,-3.399 -28.99,-11.878 -25.54,-13.551 -5.12,-11.879 -3.41,-20.352 -5.11,-13.55 -20.46,-10.18 -25.55,-5.102 -11.94,5.102 h -20.45 l -30.66,-1.699 -28.97,-10.172 -20.44,-15.258 -11.94,-20.371 -8.52,-13.551 -10.23,-16.957 -11.92,-10.172 -42.61,-16.961 -47.71,-15.269 -51.12,-22.051 -20.45,-10.16 -11.93,-11.867 -11.93,-10.18 -11.92,-6.781 -5.11,-8.493 v -8.457 l -3.41,-11.871 -10.23,-1.699 -13.63,10.168 -15.34,22.051 -13.63,25.43 -11.93,10.179 -18.75,1.68 -10.22,-3.379 6.82,-10.18 1.7,-10.172 -5.11,-5.097 -11.93,3.398 -15.34,6.801 -10.22,8.469 -8.52,6.781 h -10.23 l -1.7,-11.871 v -8.481 l -3.41,-6.777 -8.52,-1.699 -11.93,3.379 -10.23,-1.68 -3.4,-10.172 -8.52,-8.48 -11.92,-5.078 -22.16,3.379 -30.67,23.75 -15.34,8.48 -22.16,25.43 -10.22,20.351 -18.75,15.25 -13.63,-8.472 V 593.68 l -22.15,-5.078 -18.74,1.699 -17.05,-3.403 -23.86,5.102 -10.225,-1.699 -23.852,-1.699 -15.339,6.777 -6.817,20.351 -10.222,22.051 -22.161,10.18 -11.925,6.769 1.707,13.579 -1.707,16.953 -17.039,5.078 h -20.45 l -18.738,8.48 -20.453,5.071 v -8.45 l -5.113,-28.851 -15.336,-16.93 -15.34,-3.398 -17.039,3.398 -22.149,16.93 -3.41,25.449 5.11,16.949 v 20.352 l -6.817,10.18 -10.226,6.781 -20.45,-1.68 -11.921,1.68 -10.227,11.871 3.406,15.277 -1.699,18.653 -17.043,18.648 -25.562,25.43 -13.637,27.129 -18.738,49.179 -17.043,28.832 -18.75,16.95 -20.446,5.082 -23.859,10.187 -11.926,23.731 -10.223,22.05 -28.964,25.43 -35.793,44.09 -34.079,49.18 -17.039,33.92 -11.933,39.01 -17.035,30.5 -20.457,11.88 -6.817,15.27 -8.519,20.33 -22.149,22.05 -20.449,27.13 -1.703,18.66 10.223,18.65 10.226,28.83 8.52,35.62 -1.703,33.91 -25.563,20.35 -32.379,1.7 -11.926,3.4 -8.523,11.86 -1.699,16.94 -1.711,10.18 -11.926,1.71"
             style="fill:none;stroke:#231f20;stroke-width:7.5;stroke-linecap:butt;stroke-linejoin:miter;stroke-miterlimit:4;stroke-dasharray:none;stroke-opacity:1"
             id="path58" />
          <path
             d="m 229.496,1065.11 5.113,-30.53 8.52,-23.73 15.332,-6.8 22.16,1.7 h 51.121 l 25.559,-8.48 28.972,-15.25 23.86,-25.45 17.035,-22.031 17.043,-32.23 5.109,-23.75 6.825,-13.547 6.808,-8.481 h 27.274 v -25.449 l 6.808,-8.473 18.742,-1.679 3.414,-6.801 v -23.731 l 8.52,-18.648 10.223,-16.98 37.492,-20.329 44.301,-18.671 20.449,-13.551 5.117,-15.258 10.219,-6.801 17.043,-8.469 6.82,-20.351 6.813,-25.43 6.816,-16.961 h 15.34 l 20.445,3.403 27.266,8.48 h 20.449 l 27.266,-10.184 22.148,-22.046 30.68,-25.43 20.449,-25.453 15.336,-11.867 25.562,-10.161 h 40.899 l 23.851,-1.703 39.195,-6.769 40.91,-13.578 35.78,-15.27 23.86,-22.031 20.45,-18.66 25.56,-30.52 20.45,-8.48 18.74,1.699 22.16,6.781 20.44,13.57 22.15,8.461 22.16,6.789 17.04,-3.39 8.52,-10.16 6.82,-1.7 18.74,-1.699 22.16,-15.269 17.04,-8.481 22.16,-10.172 22.15,3.391 23.84,16.961 28.98,20.348 27.26,23.75 23.86,11.851 23.86,3.399 22.16,6.781 h 28.96 l 18.74,5.082 25.56,8.488 27.26,13.559 15.35,22.051 13.64,42.402 15.33,28.828 25.56,33.91 23.85,15.25 28.97,6.801 h 37.48 l 35.8,-5.102 h 32.37 l 23.86,6.801 13.63,18.649 1.7,23.73 -11.91,16.949 -8.52,22.051 -6.82,16.961 5.1,11.871 10.24,5.098 h 22.15 l 27.26,-6.797 40.9,-20.352 28.97,-3.379 35.78,1.68 23.86,1.699 13.64,6.801 5.1,13.551 6.82,16.957 10.23,11.871 10.21,8.48 25.57,-3.378 17.05,1.679 15.33,8.489 6.83,16.96 5.09,23.731 -1.69,15.269 8.52,16.95 11.92,11.879 30.68,16.953 28.96,6.777 25.57,13.57 17.05,15.262 13.61,16.949 -3.4,22.051 -15.34,20.348 -17.04,22.031 -18.75,18.68 -13.61,23.73 -10.24,30.5 3.41,39.03 1.7,20.33 13.64,42.4 17.03,62.76 27.27,54.25 6.82,11.88 22.15,16.95 18.74,15.26 11.94,22.05 v 28.82 l 1.7,27.13 -5.12,18.66 -6.82,11.87 v 11.88 l 6.82,13.55 -5.1,13.57 -15.33,5.1 -5.13,10.15 1.71,8.48 10.22,6.79 1.72,13.56 -6.83,16.96 -10.22,1.69 -17.04,-5.07 -5.11,-10.18 -1.72,-10.18 -5.1,-13.57 -15.34,-6.78 -15.33,6.78 -8.53,11.89 -1.7,32.21 v 16.96 l -6.81,13.56 -5.12,16.96 v 13.56 l 5.12,11.87 1.7,13.57 -20.45,16.96 -22.15,18.65 -15.33,22.04 -5.12,30.52 -3.42,22.06 -5.11,16.94 1.71,20.36 11.94,10.18 15.33,3.39 15.33,3.38 -3.4,10.19 -3.41,11.86 -18.75,3.39 -11.92,8.49 v 15.25 l 11.92,23.74 13.65,49.18 15.31,30.52 3.42,22.05 13.63,22.05 18.75,16.96 18.74,13.57 35.79,11.86 28.96,13.57 11.94,13.57 v 11.86 l -10.24,10.18 -17.03,1.69 -23.85,6.78 -17.06,18.67 v 18.65 l 10.25,18.65 8.51,13.56 15.34,6.78 11.92,13.57 v 23.75 l -11.92,18.65 -18.75,13.56 -57.94,27.13 -64.75,25.44 -47.72,23.74 -35.78,32.22 -13.64,28.83 v 42.39 l 3.41,44.1 -6.82,30.51 -6.82,16.97 -15.33,8.46 -32.37,10.18 -40.9,11.87 -51.13,5.09 -37.48,10.18 -25.57,16.95 -11.93,25.44 -8.52,27.13 -10.21,20.35 -22.17,1.69 -34.08,-3.38 -39.19,-3.39 h -23.86 l -28.96,-1.7 -39.2,15.26 -61.35,25.44 -64.74,27.12 -59.65,30.52 -35.78,10.19 -28.97,8.47 -30.68,3.39 -17.03,-3.39 -22.16,-13.57 -20.45,-3.39 -18.75,1.7 -8.52,13.57 -1.7,20.35 -8.52,15.25 -17.04,8.49 -22.16,-5.09 -17.04,-10.18 -27.27,-11.86 -30.67,-10.18 -25.56,-3.39 h -25.56 l -13.64,10.18 -11.92,13.56 -17.04,39 -6.82,27.13 -11.93,27.13 -18.74,22.05 -23.86,10.18 -35.79,1.69 -35.785,-5.09 -22.148,-6.78 -27.266,1.7 -23.863,5.08 -20.445,1.7 -42.602,-1.7 -18.746,-3.38 -37.488,-3.4 -44.305,-1.7 h -28.969 l -17.046,6.79 -8.516,11.87"
             style="fill:none;stroke:#231f20;stroke-width:2.5;stroke-linecap:butt;stroke-linejoin:miter;stroke-miterlimit:4;stroke-dasharray:none;stroke-opacity:1"
             id="path60" />
          <path
             d="m 1238.32,2940.6 8.51,-13.56 10.23,-10.18 23.86,-3.4 27.26,-3.38 23.86,3.38 20.45,-5.08 30.67,-6.79 44.31,-23.73 32.37,-13.57 40.9,-8.48 28.97,-3.4 37.49,-16.95 51.12,-23.74 25.56,-13.56 27.27,-13.57 25.56,-13.57 h 27.27 l 46.01,1.7 39.19,6.78 35.79,5.09 30.67,-1.7 30.66,-3.39 22.16,-10.18 20.46,-18.64 23.85,-20.36 11.93,-20.35 8.53,-25.43 15.32,-16.95 18.75,-8.48 34.08,-10.18 54.53,-6.79 44.3,-10.17 32.38,-11.86 30.69,-18.66 13.63,-18.65 11.92,-35.62 3.41,-35.61 8.52,-33.91 10.23,-35.61 13.63,-20.35 30.67,-16.96 44.31,-27.13 32.37,-15.26 39.2,-22.05 25.56,-16.95 18.75,-27.14 5.1,-20.34 v -18.66 l -6.82,-23.73 -6.81,-16.96 -8.52,-16.96 v -16.96 l 3.41,-16.96 13.64,-23.74 15.34,-25.43 6.79,-20.35 v -16.95 l -10.2,-22.05 -17.05,-16.97 -32.38,-18.64 -27.26,-22.05 -27.27,-23.75 -17.04,-25.43 -17.04,-28.82 -5.12,-27.14 1.71,-18.65 6.81,-16.97 11.93,-10.17 10.24,-15.25 6.81,-18.67 v -20.33 l -11.93,-23.75 -5.12,-22.04 v -18.66 l 8.54,-18.65 5.1,-25.43 -1.7,-23.75 -3.4,-30.52 6.8,-20.35 10.23,-16.95 13.63,-8.49 25.57,1.7 h 15.32 l 18.75,-6.78 18.75,-10.18 5.12,-15.26 -1.71,-15.25 V 1467 l 8.53,-18.65 1.69,-23.75 v -22.05 l -8.51,-27.13 -17.05,-25.43 -27.26,-32.23 -27.26,-30.51 -11.94,-37.3 -6.82,-33.93 -11.91,-50.88 -5.13,-57.65 v -30.51 l 3.41,-8.5 13.63,-25.42 6.82,-23.74 11.94,-30.519 6.81,-28.832 -1.71,-20.348 -6.81,-22.051 -10.23,-13.558 -15.33,-13.571 -17.04,-8.48 -25.57,-8.481 -20.44,-11.871 -13.65,-13.55 -10.21,-18.661 -10.23,-25.449 -6.81,-25.429 -11.93,-13.551 -32.38,-20.348 -25.55,-11.883 -22.17,-10.168 -13.63,-18.679 -20.45,-16.93 -28.96,-10.172 -32.39,-5.098 -34.08,-6.781 -15.33,-13.57 -5.12,-15.258 -3.4,-22.051 -5.11,-22.031 -11.94,-11.871 -18.73,-11.879 -23.87,-3.379 h -34.08 l -30.66,-3.402 -25.57,-8.469 -20.46,-11.879 -20.44,-23.73 -35.79,-45.801 -34.07,-30.531 -46.01,-33.899 -49.42,-32.211 -17.04,-6.801 -25.56,-5.078 -32.38,-8.468 -49.41,-30.532 -76.69,-52.582 -46.01,-23.726 -37.49,-5.102 -35.79,8.481 -32.38,20.347 -37.49,20.352 -28.97,1.699 -35.78,-11.867 -47.71,-18.652 -34.09,-13.559 h -22.15 l -13.63,8.48 -61.35,47.481 -57.945,42.379 -40.899,16.949 -47.707,3.398 h -37.492 l -32.379,11.883 -35.785,39 -23.855,32.207 -22.157,16.973 -23.855,10.16 -32.375,-5.082 -37.492,-10.18 -25.563,-1.699 -27.261,6.801 -17.04,25.43 -17.046,45.781 -30.668,42.398 -25.563,25.43 -28.969,11.859 -40.898,5.102 -39.195,5.09 -39.192,15.258 -25.558,32.23 -15.34,44.082 -1.703,37.301 6.812,42.398 6.817,27.129 v 18.66 l -6.817,15.25 -13.629,11.871 h -23.863 l -18.738,-1.691 -18.746,5.09 -13.629,16.941 -5.117,28.84 1.707,22.059 -8.524,18.633"
             style="fill:none;stroke:#231f20;stroke-width:2.5;stroke-linecap:butt;stroke-linejoin:miter;stroke-miterlimit:4;stroke-dasharray:none;stroke-opacity:1"
             id="path62" />
          <path
             d="m 406.719,410.539 40.902,-33.91 37.488,-22.027 39.188,-16.973 20.457,-18.66 23.855,-11.848 25.559,-16.98 30.676,-8.469 h 71.574 l 32.371,-6.781 37.496,-15.25 17.035,-11.879 11.93,-3.403 23.855,3.403 27.266,-5.102 44.305,-10.172 32.383,-23.726 37.484,-22.051 27.27,-25.43 47.717,-44.082"
             style="fill:none;stroke:#231f20;stroke-width:2.5;stroke-linecap:butt;stroke-linejoin:miter;stroke-miterlimit:4;stroke-dasharray:none;stroke-opacity:1"
             id="path64" />
          <path
             d="m 1577.43,117.199 28.96,16.93 46.01,28.851 44.31,15.25 27.27,11.879 35.78,28.801 27.27,18.68 28.96,11.871 27.28,10.18 39.19,13.55 15.33,18.649 1.7,25.43 -5.11,28.832 -6.81,33.929 1.7,30.508 10.22,22.051 11.93,11.871 22.16,8.48 22.14,3.399 20.46,5.07 20.46,11.879 10.21,23.75 20.45,18.652 25.57,23.731 25.56,22.047 27.25,15.261 39.2,15.27 47.71,18.648 39.2,18.653 37.48,20.359 25.57,20.328 25.57,28.832 22.14,44.102 18.75,27.129 22.15,16.949 15.33,15.27 28.97,28.812 20.46,35.629 10.22,45.777 11.93,42.403 17.05,33.91 15.34,30.519 10.2,28.83 3.41,30.51 3.42,49.18 -6.83,42.4 -5.1,47.48 1.7,42.39 3.4,44.1 15.36,49.16 10.21,40.7 -1.7,25.45 -8.51,25.43 -1.71,20.35 8.51,13.56 11.93,13.57 5.12,20.35 -1.72,13.56 -15.33,6.79 -18.75,10.16 -10.21,15.28 1.7,15.25 11.93,11.87 17.04,11.87 13.62,15.26 5.13,16.96 v 25.44 l -3.41,18.66 -5.12,18.64 -23.86,25.43 -27.26,32.23 -13.63,32.23 -13.62,33.91 -13.65,28.82 -5.1,25.43 5.1,30.54 11.93,28.82 17.05,18.66 20.44,23.73 32.38,33.93 23.86,33.9 8.51,30.52 v 23.75 l -10.21,28.83 -10.23,28.83 1.69,16.96 -5.1,18.65 1.7,27.13 3.4,18.66 5.13,27.12 v 27.14 l -10.23,33.91 -20.44,33.91 -30.67,32.23 -40.91,33.91 -28.97,37.31 -34.08,25.43 -15.33,20.35 -13.64,18.66 -13.63,44.08 -18.75,52.58 -22.15,44.08 -25.56,39 -25.56,18.65 -42.61,18.66 -37.48,10.18 -20.45,11.87 -23.86,20.34 -13.64,33.91 -27.26,45.8 -15.33,20.34 -23.87,18.65 -35.78,13.57 -66.45,10.18 -121,15.26"
             style="fill:none;stroke:#231f20;stroke-width:2.5;stroke-linecap:butt;stroke-linejoin:miter;stroke-miterlimit:4;stroke-dasharray:none;stroke-opacity:1"
             id="path66" />
          <path
             d="m 2201.11,2942.29 13.65,-15.25 8.52,-11.88 11.91,-5.08 25.57,-1.7 13.63,-10.18 11.93,-10.17 5.11,-18.65 5.13,-25.44 1.69,-18.65 6.82,-13.57 13.62,-5.09 17.05,-10.17 20.45,-16.96 18.75,-20.35 10.23,-28.83 17.03,-35.61 17.03,-32.22 22.17,-28.83 20.44,-23.73 15.34,-25.44 6.82,-25.44 13.61,-23.73 13.65,-27.14 27.26,-28.83 27.26,-23.74 10.23,-18.65 10.24,-35.61 6.81,-18.65 8.52,-25.43 20.45,-23.75 6.8,-16.95 3.41,-15.27 -3.41,-27.13 -1.69,-18.65 1.69,-13.57 6.83,-18.65 18.74,-37.31 18.76,-35.61 v -118.69 l -10.24,-13.58 -30.68,-22.04 -27.26,-22.04 -18.73,-15.28 -22.16,-27.13 -3.41,-28.82 3.41,-23.73 11.92,-22.05 13.63,-18.66 28.97,-28.83 23.87,-22.05 13.63,-23.74 1.7,-20.35 -3.41,-32.21 -11.92,-42.39 -13.65,-22.05 -25.54,-23.73 -20.46,-20.36 -8.52,-23.73 6.82,-27.14 11.93,-16.96 11.92,-18.65 3.41,-18.64 -1.7,-20.35 -11.93,-25.43 1.7,-27.15 -1.7,-30.53 3.41,-33.91 11.92,-33.92 11.94,-18.65 20.45,-16.96 20.44,-15.25 6.82,-13.56 -1.71,-8.49 -17.04,-15.26 -13.62,-18.65 -6.83,-20.35 v -16.95 l 11.94,-18.65 17.03,-23.75 8.52,-11.88 v -45.78 l -3.41,-30.53 -13.63,-35.6 -13.62,-28.828 -17.05,-16.961 -25.56,-16.95 -22.16,-6.8 -18.74,-13.571 -17.04,-11.851 -11.92,-25.449 -6.82,-25.43 -10.23,-39.008 -8.52,-23.73 -13.63,-28.832 -15.34,-11.872 -17.04,-18.648 -8.53,-18.66 -5.11,-22.051 -1.7,-23.73 -17.04,-20.348 -13.62,-18.652 -34.08,-30.528 -56.24,-32.211 -28.98,-18.648 -44.29,-16.973 -46.02,-11.859 -42.6,-10.192 -47.71,-16.929 -17.05,-22.059 -3.4,-13.57 6.81,-15.25 6.82,-11.879 1.7,-20.352 -10.22,-6.777 h -18.74 l -17.06,-1.703 -15.33,-11.867 5.12,-20.332 13.63,-28.828 20.45,-25.454 10.22,-22.027 5.11,-30.531 v -32.231 l -6.81,-32.199 -20.45,-30.551 -25.57,-25.429 -39.18,-20.348 -52.83,-18.633"
             style="fill:none;stroke:#231f20;stroke-width:2.5;stroke-linecap:butt;stroke-linejoin:miter;stroke-miterlimit:4;stroke-dasharray:none;stroke-opacity:1"
             id="path68" />
          <g
             id="g70"
             transform="scale(10)">
            <text
               xml:space="preserve"
               transform="matrix(0.9898,0,0,-1,0.379688,274.721)"
               style="font-style:oblique;font-variant:normal;font-size:7px;font-family:Helvetica;-inkscape-font-specification:Helvetica-Oblique;writing-mode:lr-tb;fill:#231f20;fill-opacity:1;fill-rule:nonzero;stroke:none"
               id="text74"><tspan
                 x="0 3.8923571 7.7847142 9.7310715"
                 y="0"
                 sodipodi:role="line"
                 id="tspan72">21.4</tspan></text>
            <text
               xml:space="preserve"
               transform="matrix(1,0,0,-0.98396143,14.5551,277.721)"
               style="font-style:oblique;font-variant:normal;font-size:4.0652px;font-family:Helvetica;-inkscape-font-specification:Helvetica-Oblique;writing-mode:lr-tb;fill:#231f20;fill-opacity:1;fill-rule:nonzero;stroke:none"
               id="text78"><tspan
                 x="0"
                 y="0"
                 id="tspan76">o</tspan></text>
            <text
               xml:space="preserve"
               transform="matrix(0.9898,0,0,-1,0.379688,231.725)"
               style="font-style:oblique;font-variant:normal;font-size:7px;font-family:Helvetica;-inkscape-font-specification:Helvetica-Oblique;writing-mode:lr-tb;fill:#231f20;fill-opacity:1;fill-rule:nonzero;stroke:none"
               id="text82"><tspan
                 x="0 3.8923571 7.7847142 9.7310715"
                 y="0"
                 sodipodi:role="line"
                 id="tspan80">21.3</tspan></text>
            <text
               xml:space="preserve"
               transform="matrix(1,0,0,-0.98396143,14.5551,234.725)"
               style="font-style:oblique;font-variant:normal;font-size:4.0652px;font-family:Helvetica;-inkscape-font-specification:Helvetica-Oblique;writing-mode:lr-tb;fill:#231f20;fill-opacity:1;fill-rule:nonzero;stroke:none"
               id="text86"><tspan
                 x="0"
                 y="0"
                 id="tspan84">o</tspan></text>
            <text
               xml:space="preserve"
               transform="matrix(0.9898,0,0,-1,0.379688,187.907)"
               style="font-style:oblique;font-variant:normal;font-size:7px;font-family:Helvetica;-inkscape-font-specification:Helvetica-Oblique;writing-mode:lr-tb;fill:#231f20;fill-opacity:1;fill-rule:nonzero;stroke:none"
               id="text90"><tspan
                 x="0 3.8923571 7.7847142 9.7310715"
                 y="0"
                 sodipodi:role="line"
                 id="tspan88">21.2</tspan></text>
            <text
               xml:space="preserve"
               transform="matrix(1,0,0,-0.98396143,14.5551,190.907)"
               style="font-style:oblique;font-variant:normal;font-size:4.0652px;font-family:Helvetica;-inkscape-font-specification:Helvetica-Oblique;writing-mode:lr-tb;fill:#231f20;fill-opacity:1;fill-rule:nonzero;stroke:none"
               id="text94"><tspan
                 x="0"
                 y="0"
                 id="tspan92">o</tspan></text>
            <text
               xml:space="preserve"
               transform="matrix(0.9898,0,0,-1,0.379688,144.335)"
               style="font-style:oblique;font-variant:normal;font-size:7px;font-family:Helvetica;-inkscape-font-specification:Helvetica-Oblique;writing-mode:lr-tb;fill:#231f20;fill-opacity:1;fill-rule:nonzero;stroke:none"
               id="text98"><tspan
                 x="0 3.8923571 7.7847142 9.7310715"
                 y="0"
                 sodipodi:role="line"
                 id="tspan96">21.1</tspan></text>
            <text
               xml:space="preserve"
               transform="matrix(1,0,0,-0.98396143,14.5551,147.335)"
               style="font-style:oblique;font-variant:normal;font-size:4.0652px;font-family:Helvetica;-inkscape-font-specification:Helvetica-Oblique;writing-mode:lr-tb;fill:#231f20;fill-opacity:1;fill-rule:nonzero;stroke:none"
               id="text102"><tspan
                 x="0"
                 y="0"
                 id="tspan100">o</tspan></text>
            <text
               xml:space="preserve"
               transform="matrix(0.9898,0,0,-1,0.379688,101.185)"
               style="font-style:oblique;font-variant:normal;font-size:7px;font-family:Helvetica;-inkscape-font-specification:Helvetica-Oblique;writing-mode:lr-tb;fill:#231f20;fill-opacity:1;fill-rule:nonzero;stroke:none"
               id="text106"><tspan
                 x="0 3.8923571 7.7847142 9.7310715"
                 y="0"
                 sodipodi:role="line"
                 id="tspan104">21.0</tspan></text>
            <text
               xml:space="preserve"
               transform="matrix(1,0,0,-0.98396143,14.5551,104.185)"
               style="font-style:oblique;font-variant:normal;font-size:4.0652px;font-family:Helvetica;-inkscape-font-specification:Helvetica-Oblique;writing-mode:lr-tb;fill:#231f20;fill-opacity:1;fill-rule:nonzero;stroke:none"
               id="text110"><tspan
                 x="0"
                 y="0"
                 id="tspan108">o</tspan></text>
            <text
               xml:space="preserve"
               transform="matrix(0.9898,0,0,-1,0.379688,57.4391)"
               style="font-style:oblique;font-variant:normal;font-size:7px;font-family:Helvetica;-inkscape-font-specification:Helvetica-Oblique;writing-mode:lr-tb;fill:#231f20;fill-opacity:1;fill-rule:nonzero;stroke:none"
               id="text114"><tspan
                 x="0 3.8923571 7.7847142 9.7310715"
                 y="0"
                 sodipodi:role="line"
                 id="tspan112">20.9</tspan></text>
            <text
               xml:space="preserve"
               transform="matrix(1,0,0,-0.98396143,14.5551,60.4391)"
               style="font-style:oblique;font-variant:normal;font-size:4.0652px;font-family:Helvetica;-inkscape-font-specification:Helvetica-Oblique;writing-mode:lr-tb;fill:#231f20;fill-opacity:1;fill-rule:nonzero;stroke:none"
               id="text118"><tspan
                 x="0"
                 y="0"
                 id="tspan116">o</tspan></text>
            <text
               xml:space="preserve"
               transform="matrix(1,0,0,-0.98396143,0,14.609)"
               style="font-style:oblique;font-variant:normal;font-size:7.1141px;font-family:Helvetica;-inkscape-font-specification:Helvetica-Oblique;writing-mode:lr-tb;fill:#231f20;fill-opacity:1;fill-rule:nonzero;stroke:none"
               id="text122"><tspan
                 x="0 3.9558046 7.9116092 9.8896933"
                 y="0"
                 sodipodi:role="line"
                 id="tspan120">20.8</tspan></text>
            <text
               xml:space="preserve"
               transform="matrix(1,0,0,-0.98396143,14.5551,17.609)"
               style="font-style:oblique;font-variant:normal;font-size:4.0652px;font-family:Helvetica;-inkscape-font-specification:Helvetica-Oblique;writing-mode:lr-tb;fill:#231f20;fill-opacity:1;fill-rule:nonzero;stroke:none"
               id="text126"><tspan
                 x="0"
                 y="0"
                 id="tspan124">o</tspan></text>
            <text
               xml:space="preserve"
               transform="matrix(0.9947,0,0,-1,12.1863,0.576172)"
               style="font-style:oblique;font-variant:normal;font-size:7px;font-family:Helvetica;-inkscape-font-specification:Helvetica-Oblique;writing-mode:lr-tb;fill:#231f20;fill-opacity:1;fill-rule:nonzero;stroke:none"
               id="text130"><tspan
                 x="0 3.8922522 7.7845044 11.676757 13.623009"
                 y="0"
                 sodipodi:role="line"
                 id="tspan128">163.0</tspan></text>
            <text
               xml:space="preserve"
               transform="matrix(1,0,0,-0.98396143,30.3043,3.57617)"
               style="font-style:oblique;font-variant:normal;font-size:4.0652px;font-family:Helvetica;-inkscape-font-specification:Helvetica-Oblique;writing-mode:lr-tb;fill:#231f20;fill-opacity:1;fill-rule:nonzero;stroke:none"
               id="text134"><tspan
                 x="0"
                 y="0"
                 id="tspan132">o</tspan></text>
            <text
               xml:space="preserve"
               transform="matrix(0.9961,0,0,-1,53.1371,0.576172)"
               style="font-style:oblique;font-variant:normal;font-size:7px;font-family:Helvetica;-inkscape-font-specification:Helvetica-Oblique;writing-mode:lr-tb;fill:#231f20;fill-opacity:1;fill-rule:nonzero;stroke:none"
               id="text138"><tspan
                 x="0 3.8922338 7.7844677 11.676702 13.622935"
                 y="0"
                 sodipodi:role="line"
                 id="tspan136">163.1</tspan></text>
            <text
               xml:space="preserve"
               transform="matrix(1,0,0,-0.98396143,71.2805,3.57617)"
               style="font-style:oblique;font-variant:normal;font-size:4.0652px;font-family:Helvetica;-inkscape-font-specification:Helvetica-Oblique;writing-mode:lr-tb;fill:#231f20;fill-opacity:1;fill-rule:nonzero;stroke:none"
               id="text142"><tspan
                 x="0"
                 y="0"
                 id="tspan140">o</tspan></text>
            <text
               xml:space="preserve"
               transform="matrix(0.9961,0,0,-1,93.7781,0.576172)"
               style="font-style:oblique;font-variant:normal;font-size:7px;font-family:Helvetica;-inkscape-font-specification:Helvetica-Oblique;writing-mode:lr-tb;fill:#231f20;fill-opacity:1;fill-rule:nonzero;stroke:none"
               id="text146"><tspan
                 x="0 3.8922338 7.7844677 11.676702 13.622935"
                 y="0"
                 sodipodi:role="line"
                 id="tspan144">163.2</tspan></text>
            <text
               xml:space="preserve"
               transform="matrix(1,0,0,-0.98396143,111.922,3.57617)"
               style="font-style:oblique;font-variant:normal;font-size:4.0652px;font-family:Helvetica;-inkscape-font-specification:Helvetica-Oblique;writing-mode:lr-tb;fill:#231f20;fill-opacity:1;fill-rule:nonzero;stroke:none"
               id="text150"><tspan
                 x="0"
                 y="0"
                 id="tspan148">o</tspan></text>
            <text
               xml:space="preserve"
               transform="matrix(0.987,0,-3e-8,-1,134.843,0.576172)"
               style="font-style:oblique;font-variant:normal;font-size:7px;font-family:Helvetica;-inkscape-font-specification:Helvetica-Oblique;writing-mode:lr-tb;fill:#231f20;fill-opacity:1;fill-rule:nonzero;stroke:none"
               id="text154"><tspan
                 x="0 3.8923936 7.7847872 11.677181 13.623574"
                 y="0"
                 sodipodi:role="line"
                 id="tspan152">163.3</tspan></text>
            <text
               xml:space="preserve"
               transform="matrix(1,0,0,-0.98396143,152.819,3.57617)"
               style="font-style:oblique;font-variant:normal;font-size:4.0652px;font-family:Helvetica;-inkscape-font-specification:Helvetica-Oblique;writing-mode:lr-tb;fill:#231f20;fill-opacity:1;fill-rule:nonzero;stroke:none"
               id="text158"><tspan
                 x="0"
                 y="0"
                 id="tspan156">o</tspan></text>
            <text
               xml:space="preserve"
               transform="matrix(0.9961,0,0,-1,175.659,0.576172)"
               style="font-style:oblique;font-variant:normal;font-size:7px;font-family:Helvetica;-inkscape-font-specification:Helvetica-Oblique;writing-mode:lr-tb;fill:#231f20;fill-opacity:1;fill-rule:nonzero;stroke:none"
               id="text162"><tspan
                 x="0 3.8922338 7.7844677 11.676702 13.622935"
                 y="0"
                 sodipodi:role="line"
                 id="tspan160">163.4</tspan></text>
            <text
               xml:space="preserve"
               transform="matrix(1,0,0,-0.98396143,193.802,3.57617)"
               style="font-style:oblique;font-variant:normal;font-size:4.0652px;font-family:Helvetica;-inkscape-font-specification:Helvetica-Oblique;writing-mode:lr-tb;fill:#231f20;fill-opacity:1;fill-rule:nonzero;stroke:none"
               id="text166"><tspan
                 x="0"
                 y="0"
                 id="tspan164">o</tspan></text>
            <text
               xml:space="preserve"
               transform="matrix(0.987,0,-3e-8,-1,216.468,0.576172)"
               style="font-style:oblique;font-variant:normal;font-size:7px;font-family:Helvetica;-inkscape-font-specification:Helvetica-Oblique;writing-mode:lr-tb;fill:#231f20;fill-opacity:1;fill-rule:nonzero;stroke:none"
               id="text170"><tspan
                 x="0 3.8923936 7.7847872 11.677181 13.623574"
                 y="0"
                 sodipodi:role="line"
                 id="tspan168">163.5</tspan></text>
            <text
               xml:space="preserve"
               transform="matrix(1,0,0,-0.98396143,234.444,3.57617)"
               style="font-style:oblique;font-variant:normal;font-size:4.0652px;font-family:Helvetica;-inkscape-font-specification:Helvetica-Oblique;writing-mode:lr-tb;fill:#231f20;fill-opacity:1;fill-rule:nonzero;stroke:none"
               id="text174"><tspan
                 x="0"
                 y="0"
                 id="tspan172">o</tspan></text>
          </g>
          <path
             d="m 1447.29,2080.86 h 70.0898 v 61.0469 H 1447.29 Z"
             style="fill:#ffffff;fill-opacity:1;fill-rule:evenodd;stroke:none"
             id="path176" />
          <path
             d="m 2514.47,2429.05 h 70.1133 v 61.0391 H 2514.47 Z"
             style="fill:#a7a5a6;fill-opacity:1;fill-rule:evenodd;stroke:none"
             id="path178" />
          <path
             d="m 2109.76,2250.43 h 70.0781 v 61.0469 H 2109.76 Z"
             style="fill:#d3d2d2;fill-opacity:1;fill-rule:evenodd;stroke:none"
             id="path180" />
          <path
             d="m 967.953,2632.54 h 70.0977 v 61.0469 H 967.953 Z"
             style="fill:#d3d2d2;fill-opacity:1;fill-rule:evenodd;stroke:none"
             id="path182" />
          <path
             d="m 889.938,1988.38 h 74.5 v 61.043 h -74.5 z"
             style="fill:#d5d4d5;fill-opacity:1;fill-rule:nonzero;stroke:none"
             id="path184" />
          <path
             d="m 373.316,1133.5 h 70.0938 v 61.0391 H 373.316 Z"
             style="fill:#d3d2d2;fill-opacity:1;fill-rule:evenodd;stroke:none"
             id="path186" />
          <path
             d="m 1191.8,1135.75 h 70.0898 v 61.0508 H 1191.8 Z"
             style="fill:#ebebeb;fill-opacity:1;fill-rule:nonzero;stroke:none"
             id="path188" />
          <path
             d="m 1804.07,2043.55 -27.27,8.49 -13.63,3.38 -20.45,11.87 -17.04,20.35 -20.45,25.43 -27.27,28.83 -30.66,25.44 -35.79,25.44 -34.08,13.56 -23.86,11.87 -22.16,8.48 -20.45,3.39 -30.67,10.18 -22.15,3.38 -27.27,1.7 -22.14,-1.7 -15.35,3.4 -15.33,3.39 -25.56,-3.39 -32.38,-18.65 -20.45,-23.75 -20.45,-20.34 -22.15,-15.26 -13.64,-13.57 -6.8,-13.57 -3.42,-11.87 -10.22,-13.56 -27.27,-15.27 -35.78,-13.56 -30.68,-11.87 -39.19,-5.1 -35.78,-6.78 -54.542,-8.47 -57.941,1.7 -35.781,1.7 -25.563,-6.78 -20.449,-10.18 -18.742,-20.35 -6.824,-27.13 -1.7,-16.96 10.227,-25.44 11.93,-23.75 1.703,-15.26 v -16.96 l 8.519,-6.77 20.449,-18.67 13.633,-16.94 10.227,-15.27 1.703,-11.87 -11.93,-27.13 -15.336,-30.52 -10.226,-28.84 -5.11,-20.35 1.703,-18.64 3.407,-20.36 11.929,-25.43 5.11,-11.88 1.707,-13.56 -1.707,-32.22 3.41,-16.95 10.223,-15.27 6.82,-13.56 3.406,-10.18 -6.816,-10.17 -5.11,-8.48 -1.707,-10.17 3.407,-25.43 8.519,-30.53 8.52,-32.22 13.636,-20.35 8.52,-10.18 20.453,-15.25 10.219,-13.58 6.82,-20.33 11.93,-32.23 11.924,-23.75 13.64,-27.11 10.22,-15.27 10.23,-16.95 8.52,-6.8 h 13.63 l 15.34,6.8 20.45,-5.1 18.74,-8.48 1.7,-18.65 13.64,-16.95 15.33,-16.95 30.68,-20.36 25.56,-6.79 28.97,-6.78 30.67,1.7 39.19,1.7 42.61,10.17 35.78,11.88 40.9,10.15 28.96,6.8 30.68,3.38 h 30.67 l 30.68,-8.46 27.26,-6.79 40.9,-18.66 20.45,-13.57 15.33,-5.08 28.99,-8.47 35.78,-6.8 27.26,-1.7 25.56,3.4 30.67,5.1 20.45,6.77 20.45,18.66 13.63,16.95 17.04,18.65 15.35,22.05 8.51,10.18 10.22,6.79 h 11.93 l 23.87,-1.71 17.03,-1.68 15.34,8.47 11.92,13.56 10.22,8.47 6.84,10.18 -5.12,11.87 -18.75,16.96 -17.05,22.05 -22.14,35.6 -11.94,39.01 -1.69,30.52 3.4,25.43 11.94,27.13 11.91,16.98 1.72,20.35 8.52,33.9 v 22.05 l 3.4,10.17 11.93,10.17 11.93,10.18 -6.81,22.05 -8.53,37.29 -10.21,57.67 -6.83,16.94 -10.23,30.54 -15.32,38.99 -17.05,42.41 -5.12,20.35 v 33.9 l -3.39,33.91 -5.12,28.85 -8.52,22.03 -17.05,20.36 -18.74,15.25 -15.34,16.97 -13.63,10.18 z"
             style="fill:none;stroke:#231f20;stroke-width:2.5;stroke-linecap:butt;stroke-linejoin:miter;stroke-miterlimit:4;stroke-dasharray:none;stroke-opacity:1"
             id="path190" />
          <path
             d="m 2243.16,941.301 h 70.0898 v 61.0703 H 2243.16 Z"
             style="fill:#d3d2d2;fill-opacity:1;fill-rule:evenodd;stroke:none"
             id="path192" />
          <g
             id="g194"
             transform="scale(10)">
            <text
               xml:space="preserve"
               transform="matrix(0.987,0,-3e-8,-1,257.197,0.576172)"
               style="font-style:oblique;font-variant:normal;font-size:7px;font-family:Helvetica;-inkscape-font-specification:Helvetica-Oblique;writing-mode:lr-tb;fill:#231f20;fill-opacity:1;fill-rule:nonzero;stroke:none"
               id="text198"><tspan
                 x="0 3.8923936 7.7847872 11.677181 13.623574"
                 y="0"
                 sodipodi:role="line"
                 id="tspan196">163.6</tspan></text>
            <text
               xml:space="preserve"
               transform="matrix(1,0,0,-0.98396143,275.174,3.57617)"
               style="font-style:oblique;font-variant:normal;font-size:4.0652px;font-family:Helvetica;-inkscape-font-specification:Helvetica-Oblique;writing-mode:lr-tb;fill:#231f20;fill-opacity:1;fill-rule:nonzero;stroke:none"
               id="text202"><tspan
                 x="0"
                 y="0"
                 id="tspan200">o</tspan></text>
            <text
               xml:space="preserve"
               transform="matrix(1,0,0,-0.99186669,96.1063,264.491)"
               style="font-style:oblique;font-variant:normal;font-size:6.0492px;font-family:Helvetica;-inkscape-font-specification:Helvetica-Oblique;writing-mode:lr-tb;fill:#231f20;fill-opacity:1;fill-rule:nonzero;stroke:none"
               id="text220"><tspan
                 x="0 3.3634293"
                 y="0"
                 sodipodi:role="line"
                 id="tspan204">40</tspan><tspan
                 x="-7.1851592 -3.8217299"
                 y="64.986755"
                 sodipodi:role="line"
                 id="tspan206">20</tspan><tspan
                 x="48.13044 51.49387"
                 y="55.782204"
                 sodipodi:role="line"
                 id="tspan208">14</tspan><tspan
                 x="114.2246 117.58804"
                 y="38.578178"
                 sodipodi:role="line"
                 id="tspan210">40</tspan><tspan
                 x="127.55543 130.91885"
                 y="170.70279"
                 sodipodi:role="line"
                 id="tspan212">40</tspan><tspan
                 x="22.889145 26.252573"
                 y="151.17677"
                 sodipodi:role="line"
                 id="tspan214">20</tspan><tspan
                 x="-58.859241 -55.495811"
                 y="151.54895"
                 sodipodi:role="line"
                 id="tspan216">40</tspan><tspan
                 x="155.43871 158.80214"
                 y="20.760201"
                 sodipodi:role="line"
                 id="tspan218">48</tspan></text>
          </g>
          <path
             d="m 227.48,856.531 242.493,-79.711 305.238,-98.34 427.329,-84.8 247.57,-223.828 13.58,-3.403 v 74.61 l -6.79,176.371 3.39,335.761 v 278.089 l -5.08,303.54 v 181.44 l -28.83,262.84 -16.96,125.5 -3.39,57.65 -5.09,79.7 -10.17,161.1 -6.79,132.27 -5.09,120.39 -3.39,117.01 -3.39,93.26 3.39,61.06 -3.39,14.41 -40.7,-1.7 -57.65,-63.59 -88.18,-103.44 -78,-98.36 -49.18,-67.82 -66.138,-66.14 -50.875,-47.48 v -10.17 l 32.226,-42.4 50.877,-66.13 57.65,-76.31 128.88,-161.11 123.78,-157.7 30.53,-39 3.39,-23.74 33.91,-55.95 23.75,-54.27 32.22,-52.56 62.74,-98.36 45.78,-62.74 103.44,-137.35 100.06,-123.79 79.69,-100.06 71.23,-93.26 10.17,-13.56 h 6.78 l 22.04,42.4 59.36,79.69 62.74,94.96 62.74,100.04 47.48,71.23 49.19,74.61 18.65,33.92 8.47,6.78 -15.26,37.3 -28.83,88.19 -55.97,159.39 -67.82,179.75 -28.82,83.1 -8.48,16.96 -10.18,3.38 -139.05,-66.13 -184.83,-94.96 -234.02,-127.18 -140.75,-79.7 -20.35,-15.26 -10.17,-8.47 -20.35,-40.72 -33.91,-81.38 -39,-84.8 -81.4,-179.74 -74.61,-169.57 -39,-83.11 -72.926,-161.09 -8.477,-5.081 -120.402,55.961 -149.223,72.91 -278.102,133.98 -181.445,88.17"
             style="fill:none;stroke:#231f20;stroke-width:7.5;stroke-linecap:butt;stroke-linejoin:miter;stroke-miterlimit:4;stroke-dasharray:none;stroke-opacity:1"
             id="path222" />
          <path
             d="m 227.48,2028.29 37.305,-11.86 130.57,-62.76 198.411,-91.58 64.433,-18.64 h 72.926 l 139.043,1.69 h 86.488 l 27.129,1.7 5.086,-3.39 -10.176,-6.78 -16.957,-5.08 -15.258,-8.5 -30.527,-6.77 -37.305,-5.1 -25.441,-8.48 v -11.86 l 10.176,-13.57 45.793,-13.57 74.609,-6.78 71.215,-1.7 142.45,-1.68 h 67.83 l 142.45,6.77 142.44,-3.39 h 55.96 l 86.48,-5.08 8.48,-8.49 3.39,-15.26 5.09,-6.78 8.47,-8.48 6.78,-13.55 11.87,-8.5 13.58,-8.46 13.55,-8.48 10.19,-5.09 -58.76,-10.12 -3.99,-10.23 57.66,-6.78 h 69.53 l 71.2,5.08 h 79.71 l 225.54,5.1 152.61,6.77 156.02,5.09 149.22,7.62"
             style="fill:none;stroke:#231f20;stroke-width:7.5;stroke-linecap:butt;stroke-linejoin:miter;stroke-miterlimit:4;stroke-dasharray:none;stroke-opacity:1"
             id="path224" />
          <path
             d="m 577.125,1823.09 -8.516,-15.25 -1.703,-13.56 11.93,-15.27 18.742,-18.66 20.449,-20.35 13.629,-15.25 3.414,-15.25 v -33.93 l -6.824,-18.65 -3.402,-15.26 3.402,-18.65 15.344,-11.88 17.039,-1.69 20.445,1.69 15.344,-1.69 22.148,-5.08 10.223,-6.8 3.414,-13.56 -8.519,-5.08 -20.457,-6.79 -28.965,1.69 -22.153,-1.69 -11.933,-6.79 v -5.08 l 10.23,-5.09 10.223,-1.69 13.633,-1.7 5.113,-3.4 5.109,-8.46 -11.929,-11.89 -5.114,-11.86 8.52,-10.17 8.523,-6.77 3.411,-6.8 5.109,-8.48 6.82,-3.39 8.52,-1.7 11.929,3.39 11.93,8.48 13.629,1.7 15.34,-5.08 10.219,-11.87 10.226,-13.56 5.113,-22.05 -1.707,-23.75 -1.703,-25.43 -5.105,-27.13 5.105,-15.27 8.52,-20.35 13.633,-18.65 3.41,-20.36 5.113,-22.03 3.406,-18.65 3.411,-25.45 v -18.65 l 13.625,-11.88 22.16,-16.95 15.336,-10.18 8.519,-20.35 5.113,-22.03 5.11,-6.78 20.453,-6.79 8.519,-6.78 5.11,-6.78 v -13.57 l 6.82,-13.58 18.738,-6.77 h 23.86 l 13.637,-1.7 1.703,-11.86 -5.11,-16.97 -1.711,-13.55 v -10.18 l 10.231,-3.4 13.634,5.1 8.52,-1.7 v -5.08 l -5.11,-11.87 -8.52,-23.75 -3.411,-10.18 11.931,-8.48 11.92,-10.168 1.71,-15.262 15.34,-22.051 18.74,-20.328 23.86,-3.402 20.45,5.082 18.75,10.18 20.45,15.269 8.52,8.461 15.33,3.399 17.04,-1.7 17.04,-8.48 13.63,1.699 15.34,5.082 23.86,-5.082 18.74,-1.699 13.63,6.781 11.93,15.27 11.93,20.347 8.52,10.184 15.34,-3.402 20.45,1.699 17.04,11.871 22.15,20.359 11.93,11.851 10.22,6.8 13.64,-1.7 13.62,-10.181 11.93,-1.699 5.12,8.48 1.7,13.57 6.82,16.96 11.93,10.17 17.04,1.7 h 17.04 l 17.04,1.7 22.16,1.68 18.74,-6.78 30.67,-15.25 20.45,-6.8 18.75,-6.77 h 61.34 l 28.98,-1.7 25.56,-10.18 35.78,-16.948 30.67,-20.352 34.08,-20.359 34.08,-18.653 22.15,-5.078 32.38,6.801 18.75,18.629 15.33,33.93 11.94,28.83 13.63,11.85 13.62,1.72 23.86,-3.42 25.57,3.42 15.34,8.46 6.81,18.65 -3.4,20.37 -8.52,22.01 -3.41,16.98 3.41,16.95 5.11,23.75 6.81,30.53 3.41,18.65 -8.53,30.51 -6.8,28.83 -18.75,37.32 -10.22,40.68 3.41,22.05 6.81,27.13 6.82,32.23 13.63,23.73 11.93,20.35 13.62,13.58 15.35,8.47 22.15,13.58 11.93,10.17 1.7,13.55 -3.42,13.57 -23.84,10.18 -17.04,8.47 -13.64,13.56 5.13,25.45 -1.72,18.64 -6.82,18.66 -15.33,27.13 -10.22,27.14 -15.34,33.9 -20.45,37.31 -20.45,55.97 -11.93,37.31 -1.71,22.03 1.71,55.96 1.71,49.19 -8.53,28.83 -5.12,27.13 -13.62,23.74 -17.03,18.65 -8.53,8.48 -8.53,8.47 5.11,15.26 1.72,13.57 -8.53,6.79 -22.15,6.78 -23.86,8.48 -15.33,6.78 -15.34,13.57 -5.1,20.35 v 22.04 l -6.83,15.26 -11.94,23.74 -25.55,22.05 -32.38,11.87 -34.07,15.26 -32.39,8.48 -42.6,11.87 -22.15,15.26 -11.93,18.65 -10.22,20.35 -13.63,13.57 -22.16,-1.7 -13.62,-8.48 -18.75,-15.25 -18.75,-11.88 h -18.74 l -35.8,20.35 -13.63,5.09 -20.45,-3.4 -11.93,3.4 -17.03,10.17 -13.64,5.09 -17.04,-1.7 -11.92,3.4 -3.41,18.65 -6.82,23.74 -11.93,8.48 -20.44,3.39 -22.16,-10.17 -17.04,-18.66 -30.67,-37.3 -32.37,-40.7 -25.57,-25.44 -27.27,-18.65 -25.55,-5.09 -25.56,5.09 -20.46,22.04 -22.15,15.27 -20.45,10.17 h -13.63 l -15.34,-1.7 -18.75,-13.56 -10.22,-16.96 -18.744,-18.65 -20.449,-8.48 -18.747,-3.39 -42.601,-5.09 -32.379,1.69 -68.66,9.85 -49.422,11.88 -33.582,5.41 -47.711,-1.7 -37.488,-8.48 -39.199,-15.26 -11.926,-15.26 -8.52,-18.65 1.703,-22.05 17.043,-15.26 6.817,-23.74 5.113,-22.04 5.109,-20.37 -3.414,-10.16 -20.445,-13.57 -27.262,-13.56 -10.226,-13.56 -1.703,-10.18 5.113,-8.48 1.703,-13.57 -11.93,-8.48 -22.152,-11.86 -13.633,-15.27 -6.816,-13.57 3.406,-18.65 15.344,-13.57 17.035,-18.65 20.449,-16.95 8.52,-16.97 8.523,-25.43 10.223,-13.56 10.226,-3.39 18.739,-11.88 6.82,-11.86 -5.109,-10.18 -15.34,-5.09 -17.039,-6.77 z"
             style="fill:none;stroke:#231f20;stroke-width:7.5;stroke-linecap:butt;stroke-linejoin:miter;stroke-miterlimit:4;stroke-dasharray:none;stroke-opacity:1"
             id="path226" />
          <path
             d="m 997.355,889.301 h 70.0938 v 61.0586 H 997.355 Z"
             style="fill:#d3d2d2;fill-opacity:1;fill-rule:evenodd;stroke:none"
             id="path228" />
          <g
             id="g230"
             transform="scale(10)">
            <text
               xml:space="preserve"
               transform="matrix(1,0,0,-0.99186669,98.4984,89.777)"
               style="font-style:oblique;font-variant:normal;font-size:6.0492px;font-family:Helvetica;-inkscape-font-specification:Helvetica-Oblique;writing-mode:lr-tb;fill:#231f20;fill-opacity:1;fill-rule:nonzero;stroke:none"
               id="text234"><tspan
                 x="0 3.3634293"
                 y="0"
                 sodipodi:role="line"
                 id="tspan232">30</tspan></text>
          </g>
          <path
             d="m 664.504,2264.05 h 70.0859 v 61.0508 H 664.504 Z"
             style="fill:#d3d2d2;fill-opacity:1;fill-rule:evenodd;stroke:none"
             id="path236" />
          <g
             id="g238"
             transform="scale(10)">
            <text
               xml:space="preserve"
               transform="matrix(1,0,0,-0.99186669,66.0703,227.42)"
               style="font-style:oblique;font-variant:normal;font-size:5.69885px;font-family:Helvetica;-inkscape-font-specification:Helvetica-Oblique;writing-mode:lr-tb;fill:#231f20;fill-opacity:1;fill-rule:nonzero;stroke:none"
               id="text242"><tspan
                 x="0 3.1687729"
                 y="0"
                 sodipodi:role="line"
                 id="tspan240">30</tspan></text>
          </g>
          <path
             d="m 181.301,1464.46 h 42.453"
             style="fill:none;stroke:#231f20;stroke-width:5;stroke-linecap:square;stroke-linejoin:miter;stroke-miterlimit:4;stroke-dasharray:none;stroke-opacity:1"
             id="path244" />
          <path
             d="m 182.328,1031.18 h 41.426"
             style="fill:none;stroke:#231f20;stroke-width:5;stroke-linecap:square;stroke-linejoin:miter;stroke-miterlimit:4;stroke-dasharray:none;stroke-opacity:1"
             id="path246" />
          <path
             d="m 182.328,597.082 h 41.426"
             style="fill:none;stroke:#231f20;stroke-width:5;stroke-linecap:square;stroke-linejoin:miter;stroke-miterlimit:4;stroke-dasharray:none;stroke-opacity:1"
             id="path248" />
          <path
             d="m 182.328,164.68 h 42.457"
             style="fill:none;stroke:#231f20;stroke-width:5;stroke-linecap:square;stroke-linejoin:miter;stroke-miterlimit:4;stroke-dasharray:none;stroke-opacity:1"
             id="path250" />
          <path
             d="M 224.848,114.68 V 72.2188"
             style="fill:none;stroke:#231f20;stroke-width:5;stroke-linecap:square;stroke-linejoin:miter;stroke-miterlimit:4;stroke-dasharray:none;stroke-opacity:1"
             id="path252" />
          <path
             d="M 633.391,114.68 V 72.2188"
             style="fill:none;stroke:#231f20;stroke-width:5;stroke-linecap:square;stroke-linejoin:miter;stroke-miterlimit:4;stroke-dasharray:none;stroke-opacity:1"
             id="path254" />
          <path
             d="M 1039.8,114.68 V 72.2188"
             style="fill:none;stroke:#231f20;stroke-width:5;stroke-linecap:square;stroke-linejoin:miter;stroke-miterlimit:4;stroke-dasharray:none;stroke-opacity:1"
             id="path256" />
          <path
             d="M 1449.61,114.68 V 72.2188"
             style="fill:none;stroke:#231f20;stroke-width:5;stroke-linecap:square;stroke-linejoin:miter;stroke-miterlimit:4;stroke-dasharray:none;stroke-opacity:1"
             id="path258" />
          <path
             d="M 1858.61,114.68 V 72.2188"
             style="fill:none;stroke:#231f20;stroke-width:5;stroke-linecap:square;stroke-linejoin:miter;stroke-miterlimit:4;stroke-dasharray:none;stroke-opacity:1"
             id="path260" />
          <path
             d="M 2265.86,114.68 V 72.2188"
             style="fill:none;stroke:#231f20;stroke-width:5;stroke-linecap:square;stroke-linejoin:miter;stroke-miterlimit:4;stroke-dasharray:none;stroke-opacity:1"
             id="path262" />
          <path
             d="M 2673.16,114.68 V 72.2188"
             style="fill:none;stroke:#231f20;stroke-width:5;stroke-linecap:square;stroke-linejoin:miter;stroke-miterlimit:4;stroke-dasharray:none;stroke-opacity:1"
             id="path264" />
          <path
             d="M 224.848,2983.06 V 2940.6"
             style="fill:none;stroke:#231f20;stroke-width:5;stroke-linecap:square;stroke-linejoin:miter;stroke-miterlimit:4;stroke-dasharray:none;stroke-opacity:1"
             id="path266" />
          <path
             d="M 633.391,2983.06 V 2940.6"
             style="fill:none;stroke:#231f20;stroke-width:5;stroke-linecap:square;stroke-linejoin:miter;stroke-miterlimit:4;stroke-dasharray:none;stroke-opacity:1"
             id="path268" />
          <path
             d="M 1039.8,2983.06 V 2940.6"
             style="fill:none;stroke:#231f20;stroke-width:5;stroke-linecap:square;stroke-linejoin:miter;stroke-miterlimit:4;stroke-dasharray:none;stroke-opacity:1"
             id="path270" />
          <path
             d="M 1449.61,2983.06 V 2940.6"
             style="fill:none;stroke:#231f20;stroke-width:5;stroke-linecap:square;stroke-linejoin:miter;stroke-miterlimit:4;stroke-dasharray:none;stroke-opacity:1"
             id="path272" />
          <path
             d="M 1858.61,2983.06 V 2940.6"
             style="fill:none;stroke:#231f20;stroke-width:5;stroke-linecap:square;stroke-linejoin:miter;stroke-miterlimit:4;stroke-dasharray:none;stroke-opacity:1"
             id="path274" />
          <path
             d="M 2265.86,2983.06 V 2940.6"
             style="fill:none;stroke:#231f20;stroke-width:5;stroke-linecap:square;stroke-linejoin:miter;stroke-miterlimit:4;stroke-dasharray:none;stroke-opacity:1"
             id="path276" />
          <path
             d="M 2673.16,2983.06 V 2940.6"
             style="fill:none;stroke:#231f20;stroke-width:5;stroke-linecap:square;stroke-linejoin:miter;stroke-miterlimit:4;stroke-dasharray:none;stroke-opacity:1"
             id="path278" />
          <path
             d="m 224.848,114.68 h 2448.31 V 2940.6 H 224.848 Z"
             style="fill:none;stroke:#231f20;stroke-width:5;stroke-linecap:square;stroke-linejoin:miter;stroke-miterlimit:4;stroke-dasharray:none;stroke-opacity:1"
             id="path280" />
          <path
             d="m 182.328,2771.88 h 42.457"
             style="fill:none;stroke:#231f20;stroke-width:5;stroke-linecap:square;stroke-linejoin:miter;stroke-miterlimit:4;stroke-dasharray:none;stroke-opacity:1"
             id="path282" />
          <path
             d="m 181.301,2336.91 h 42.453"
             style="fill:none;stroke:#231f20;stroke-width:5;stroke-linecap:square;stroke-linejoin:miter;stroke-miterlimit:4;stroke-dasharray:none;stroke-opacity:1"
             id="path284" />
          <path
             d="m 181.301,1901.11 h 42.453"
             style="fill:none;stroke:#231f20;stroke-width:5;stroke-linecap:square;stroke-linejoin:miter;stroke-miterlimit:4;stroke-dasharray:none;stroke-opacity:1"
             id="path286" />
          <path
             d="m 2672.12,1464.46 h 42.46"
             style="fill:none;stroke:#231f20;stroke-width:5;stroke-linecap:square;stroke-linejoin:miter;stroke-miterlimit:4;stroke-dasharray:none;stroke-opacity:1"
             id="path288" />
          <path
             d="m 2673.16,1031.2 h 41.42"
             style="fill:none;stroke:#231f20;stroke-width:5;stroke-linecap:square;stroke-linejoin:miter;stroke-miterlimit:4;stroke-dasharray:none;stroke-opacity:1"
             id="path290" />
          <path
             d="m 2673.16,597.082 h 41.42"
             style="fill:none;stroke:#231f20;stroke-width:5;stroke-linecap:square;stroke-linejoin:miter;stroke-miterlimit:4;stroke-dasharray:none;stroke-opacity:1"
             id="path292" />
          <path
             d="m 2673.16,164.68 h 42.46"
             style="fill:none;stroke:#231f20;stroke-width:5;stroke-linecap:square;stroke-linejoin:miter;stroke-miterlimit:4;stroke-dasharray:none;stroke-opacity:1"
             id="path294" />
          <path
             d="m 2673.16,2771.88 h 42.46"
             style="fill:none;stroke:#231f20;stroke-width:5;stroke-linecap:square;stroke-linejoin:miter;stroke-miterlimit:4;stroke-dasharray:none;stroke-opacity:1"
             id="path296" />
          <path
             d="m 2672.12,2336.91 h 42.46"
             style="fill:none;stroke:#231f20;stroke-width:5;stroke-linecap:square;stroke-linejoin:miter;stroke-miterlimit:4;stroke-dasharray:none;stroke-opacity:1"
             id="path298" />
          <path
             d="m 2672.12,1901.11 h 42.46"
             style="fill:none;stroke:#231f20;stroke-width:5;stroke-linecap:square;stroke-linejoin:miter;stroke-miterlimit:4;stroke-dasharray:none;stroke-opacity:1"
             id="path300" />
        </g>
      </g>
    </g>
  </g>
</svg>
