<?xml version="1.0" encoding="UTF-8" standalone="no"?>
<!-- Created with Inkscape (http://www.inkscape.org/) -->

<svg
   version="1.1"
   id="svg2"
   width="441.33334"
   height="258.66666"
   viewBox="0 0 441.33334 258.66666"
   sodipodi:docname="earthinspace.eps"
   xmlns:inkscape="http://www.inkscape.org/namespaces/inkscape"
   xmlns:sodipodi="http://sodipodi.sourceforge.net/DTD/sodipodi-0.dtd"
   xmlns="http://www.w3.org/2000/svg"
   xmlns:svg="http://www.w3.org/2000/svg">
  <defs
     id="defs6" />
  <sodipodi:namedview
     id="namedview4"
     pagecolor="#ffffff"
     bordercolor="#000000"
     borderopacity="0.25"
     inkscape:showpageshadow="2"
     inkscape:pageopacity="0.0"
     inkscape:pagecheckerboard="0"
     inkscape:deskcolor="#d1d1d1" />
  <g
     id="g8"
     inkscape:groupmode="layer"
     inkscape:label="ink_ext_XXXXXX"
     transform="matrix(1.3333333,0,0,-1.3333333,0,258.66667)">
    <g
       id="g10"
       transform="scale(0.1)">
      <path
         d="m 2820.69,734.891 c 108.13,0 195.78,87.64 195.78,195.757 0,108.142 -87.65,195.782 -195.78,195.782"
         style="fill:#bdbcbc;fill-opacity:1;fill-rule:nonzero;stroke:none"
         id="path12" />
      <path
         d="m 525.988,1122.05 c -108.121,0 -195.773,-87.65 -195.773,-195.769 0,-108.133 87.652,-195.781 195.773,-195.781"
         style="fill:#bdbcbc;fill-opacity:1;fill-rule:nonzero;stroke:none"
         id="path14" />
      <path
         d="m 2897.84,753.309 c 99.16,43.121 144.57,158.453 101.47,257.601 -43.11,99.16 -158.46,144.59 -257.6,101.48 -99.15,-43.12 -144.58,-158.452 -101.47,-257.62 43.11,-99.141 158.44,-144.571 257.6,-101.461 z"
         style="fill:none;stroke:#231f20;stroke-width:7.5;stroke-linecap:butt;stroke-linejoin:miter;stroke-miterlimit:4;stroke-dasharray:none;stroke-opacity:1"
         id="path16" />
      <path
         d="m 2643.53,857 c 12.34,-28.379 101.99,-16.738 200.23,25.98 98.26,42.731 167.91,100.356 155.57,128.73"
         style="fill:none;stroke:#231f20;stroke-width:7.5;stroke-linecap:butt;stroke-linejoin:miter;stroke-miterlimit:4;stroke-dasharray:none;stroke-opacity:1"
         id="path18" />
      <path
         d="m 2998.56,1011.77 c -12.32,28.38 -101.97,16.74 -200.23,-25.973 -98.26,-42.746 -167.91,-100.356 -155.57,-128.738"
         style="fill:none;stroke:#231f20;stroke-width:7.5;stroke-linecap:butt;stroke-linejoin:miter;stroke-miterlimit:4;stroke-dasharray:40, 10;stroke-dashoffset:0;stroke-opacity:1"
         id="path20" />
      <path
         d="m 2970.67,817.23 c -3.36,7.758 -43.77,-2.339 -90.25,-22.558 -46.46,-20.211 -81.43,-42.871 -78.05,-50.621"
         style="fill:none;stroke:#231f20;stroke-width:7.5;stroke-linecap:butt;stroke-linejoin:miter;stroke-miterlimit:4;stroke-dasharray:40, 10;stroke-dashoffset:0;stroke-opacity:1"
         id="path22" />
      <path
         d="m 2666.24,1052.22 c 3.36,-7.75 43.77,2.36 90.23,22.56"
         style="fill:none;stroke:#231f20;stroke-width:7.5;stroke-linecap:butt;stroke-linejoin:miter;stroke-miterlimit:4;stroke-dasharray:none;stroke-opacity:1"
         id="path24" />
      <path
         d="m 2756.47,1074.78 c 46.49,20.22 81.45,42.88 78.07,50.63"
         style="fill:none;stroke:#231f20;stroke-width:7.5;stroke-linecap:butt;stroke-linejoin:miter;stroke-miterlimit:4;stroke-dasharray:none;stroke-opacity:1"
         id="path26" />
      <path
         d="m 2730.07,1139.15 184,-423.17"
         style="fill:none;stroke:#231f20;stroke-width:7.5;stroke-linecap:butt;stroke-linejoin:miter;stroke-miterlimit:4;stroke-dasharray:none;stroke-opacity:1"
         id="path28" />
      <path
         d="m 1305.42,785.219 c 85.59,0 154.98,69.383 154.98,154.98 0,85.601 -69.39,154.991 -154.98,154.991 -85.6,0 -154.99,-69.39 -154.99,-154.991 0,-85.597 69.39,-154.98 154.99,-154.98 z"
         style="fill:none;stroke:#231f20;stroke-width:7.5;stroke-linecap:butt;stroke-linejoin:miter;stroke-miterlimit:4;stroke-dasharray:none;stroke-opacity:1"
         id="path30" />
      <path
         d="m 603.91,748.391 c 99.153,43.097 144.582,158.429 101.465,257.599 -43.109,99.15 -158.441,144.58 -257.598,101.47 C 348.629,1064.35 303.199,949.012 346.313,849.852 389.426,750.711 504.762,705.281 603.91,748.391 Z"
         style="fill:none;stroke:#231f20;stroke-width:7.5;stroke-linecap:butt;stroke-linejoin:miter;stroke-miterlimit:4;stroke-dasharray:none;stroke-opacity:1"
         id="path32" />
      <path
         d="M 349.594,852.082 C 361.938,823.699 451.586,835.34 549.84,878.051 648.09,920.77 717.738,978.41 705.402,1006.79"
         style="fill:none;stroke:#231f20;stroke-width:7.5;stroke-linecap:butt;stroke-linejoin:miter;stroke-miterlimit:4;stroke-dasharray:none;stroke-opacity:1"
         id="path34" />
      <path
         d="m 704.641,1006.85 c -12.34,28.37 -101.989,16.74 -200.243,-25.979 C 406.148,938.129 336.5,880.5 348.836,852.141"
         style="fill:none;stroke:#231f20;stroke-width:7.5;stroke-linecap:butt;stroke-linejoin:miter;stroke-miterlimit:4;stroke-dasharray:40, 10;stroke-dashoffset:0;stroke-opacity:1"
         id="path36" />
      <path
         d="m 676.75,812.309 c -3.371,7.761 -43.781,-2.36 -90.262,-22.559 -46.472,-20.211 -81.425,-42.871 -78.05,-50.621"
         style="fill:none;stroke:#231f20;stroke-width:7.5;stroke-linecap:butt;stroke-linejoin:miter;stroke-miterlimit:4;stroke-dasharray:40, 10;stroke-dashoffset:0;stroke-opacity:1"
         id="path38" />
      <path
         d="m 372.301,1047.3 c 3.367,-7.75 43.777,2.34 90.258,22.56"
         style="fill:none;stroke:#231f20;stroke-width:7.5;stroke-linecap:butt;stroke-linejoin:miter;stroke-miterlimit:4;stroke-dasharray:none;stroke-opacity:1"
         id="path40" />
      <path
         d="m 462.559,1069.86 c 46.476,20.21 81.425,42.87 78.058,50.62"
         style="fill:none;stroke:#231f20;stroke-width:7.5;stroke-linecap:butt;stroke-linejoin:miter;stroke-miterlimit:4;stroke-dasharray:none;stroke-opacity:1"
         id="path42" />
      <path
         d="m 436.148,1134.22 184,-423.181"
         style="fill:none;stroke:#231f20;stroke-width:7.5;stroke-linecap:butt;stroke-linejoin:miter;stroke-miterlimit:4;stroke-dasharray:none;stroke-opacity:1"
         id="path44" />
      <path
         d="M 1529.46,47.3086 C 1628.62,90.4219 1674.05,205.75 1630.93,304.91 1587.82,404.051 1472.49,449.48 1373.34,406.371 1274.18,363.25 1228.76,247.922 1271.87,148.781 1314.98,49.6211 1430.31,4.19141 1529.46,47.3086"
         style="fill:#a7a5a6;fill-opacity:1;fill-rule:nonzero;stroke:none"
         id="path46" />
      <path
         d="m 1529.12,48.6797 c 99.15,43.1211 144.58,158.4613 101.47,257.6013 -43.12,99.16 -158.45,144.59 -257.6,101.457 C 1273.84,364.641 1228.41,249.301 1271.52,150.141 1314.64,51 1429.97,5.57031 1529.12,48.6797 Z"
         style="fill:none;stroke:#231f20;stroke-width:7.5;stroke-linecap:butt;stroke-linejoin:miter;stroke-miterlimit:4;stroke-dasharray:none;stroke-opacity:1"
         id="path48" />
      <path
         d="m 1274.81,152.371 c 12.33,-28.383 101.99,-16.742 200.24,25.981 98.25,42.707 167.9,100.347 155.57,128.73"
         style="fill:none;stroke:#231f20;stroke-width:7.5;stroke-linecap:butt;stroke-linejoin:miter;stroke-miterlimit:4;stroke-dasharray:none;stroke-opacity:1"
         id="path50" />
      <path
         d="m 1629.85,307.141 c -12.34,28.371 -101.99,16.73 -200.24,-25.981 -98.25,-42.73 -167.9,-100.371 -155.57,-128.73"
         style="fill:none;stroke:#231f20;stroke-width:7.5;stroke-linecap:butt;stroke-linejoin:miter;stroke-miterlimit:4;stroke-dasharray:40, 10;stroke-dashoffset:0;stroke-opacity:1"
         id="path52" />
      <path
         d="m 1601.96,112.602 c -3.37,7.757 -43.78,-2.34 -90.26,-22.5512 -46.48,-20.2188 -81.42,-42.8789 -78.06,-50.6289"
         style="fill:none;stroke:#231f20;stroke-width:7.5;stroke-linecap:butt;stroke-linejoin:miter;stroke-miterlimit:4;stroke-dasharray:40, 10;stroke-dashoffset:0;stroke-opacity:1"
         id="path54" />
      <path
         d="m 1297.51,347.59 c 3.37,-7.758 43.78,2.359 90.25,22.551"
         style="fill:none;stroke:#231f20;stroke-width:7.5;stroke-linecap:butt;stroke-linejoin:miter;stroke-miterlimit:4;stroke-dasharray:none;stroke-opacity:1"
         id="path56" />
      <path
         d="m 1387.76,370.141 c 46.48,20.218 81.43,42.871 78.07,50.629"
         style="fill:none;stroke:#231f20;stroke-width:7.5;stroke-linecap:butt;stroke-linejoin:miter;stroke-miterlimit:4;stroke-dasharray:none;stroke-opacity:1"
         id="path58" />
      <path
         d="m 1361.36,434.5 184,-423.1602"
         style="fill:none;stroke:#231f20;stroke-width:7.5;stroke-linecap:butt;stroke-linejoin:miter;stroke-miterlimit:4;stroke-dasharray:none;stroke-opacity:1"
         id="path60" />
      <path
         d="m 1522.28,1452.11 c 99.14,43.11 144.57,158.45 101.46,257.6 -43.11,99.15 -158.45,144.58 -257.6,101.47 -99.15,-43.12 -144.58,-158.45 -101.47,-257.61 43.12,-99.14 158.45,-144.57 257.61,-101.46 z"
         style="fill:none;stroke:#231f20;stroke-width:7.5;stroke-linecap:butt;stroke-linejoin:miter;stroke-miterlimit:4;stroke-dasharray:none;stroke-opacity:1"
         id="path62" />
      <path
         d="m 1267.96,1555.79 c 12.34,-28.36 101.99,-16.74 200.24,25.99 98.25,42.72 167.9,100.35 155.56,128.72"
         style="fill:none;stroke:#231f20;stroke-width:7.5;stroke-linecap:butt;stroke-linejoin:miter;stroke-miterlimit:4;stroke-dasharray:none;stroke-opacity:1"
         id="path64" />
      <path
         d="m 1623,1710.57 c -12.34,28.37 -101.99,16.73 -200.24,-25.99 -98.25,-42.72 -167.9,-100.36 -155.56,-128.72"
         style="fill:none;stroke:#231f20;stroke-width:7.5;stroke-linecap:butt;stroke-linejoin:miter;stroke-miterlimit:4;stroke-dasharray:40, 10;stroke-dashoffset:0;stroke-opacity:1"
         id="path66" />
      <path
         d="m 1595.11,1516.04 c -3.37,7.75 -43.78,-2.36 -90.26,-22.57 -46.48,-20.2 -81.42,-42.87 -78.05,-50.62"
         style="fill:none;stroke:#231f20;stroke-width:7.5;stroke-linecap:butt;stroke-linejoin:miter;stroke-miterlimit:4;stroke-dasharray:40, 10;stroke-dashoffset:0;stroke-opacity:1"
         id="path68" />
      <path
         d="M 1190.05,1609.29 C 928.57,1580.45 570.957,1367.04 520.961,1176.69"
         style="fill:none;stroke:#231f20;stroke-width:7.5;stroke-linecap:butt;stroke-linejoin:miter;stroke-miterlimit:4;stroke-dasharray:none;stroke-opacity:1"
         id="path70" />
      <path
         d="m 523.227,1162.02 c 5.203,8.49 9.343,13.81 14.257,20.43 l -28.144,7.39 c 0.562,-2.98 2.023,-14.85 2.383,-24.8 0.39,-10.66 0.078,-20.15 -0.723,-26.15 2.262,5.63 6.652,14.04 12.227,23.13"
         style="fill:#231f20;fill-opacity:1;fill-rule:nonzero;stroke:none"
         id="path72" />
      <path
         d="M 1155.45,928.66 H 528.559"
         style="fill:none;stroke:#231f20;stroke-width:7.5;stroke-linecap:butt;stroke-linejoin:miter;stroke-miterlimit:4;stroke-dasharray:none;stroke-opacity:1"
         id="path74" />
      <path
         d="M 1460.4,940.199 H 2819.78"
         style="fill:none;stroke:#231f20;stroke-width:7.5;stroke-linecap:butt;stroke-linejoin:miter;stroke-miterlimit:4;stroke-dasharray:none;stroke-opacity:1"
         id="path76" />
      <path
         d="m 1305.42,1095.19 141.5,529.22"
         style="fill:none;stroke:#231f20;stroke-width:7.5;stroke-linecap:butt;stroke-linejoin:miter;stroke-miterlimit:4;stroke-dasharray:none;stroke-opacity:1"
         id="path78" />
      <path
         d="m 1305.42,785.219 145.47,-565.68"
         style="fill:none;stroke:#231f20;stroke-width:7.5;stroke-linecap:butt;stroke-linejoin:miter;stroke-miterlimit:4;stroke-dasharray:none;stroke-opacity:1"
         id="path80" />
      <path
         d="m 2787.06,1170.2 c -121.13,282.64 -449.18,456.39 -1072.12,485.24"
         style="fill:none;stroke:#231f20;stroke-width:7.5;stroke-linecap:butt;stroke-linejoin:miter;stroke-miterlimit:4;stroke-dasharray:none;stroke-opacity:1"
         id="path82" />
      <path
         d="m 1701.06,1650.16 c 9.39,-3.32 15.45,-6.25 22.95,-9.68 l 1.35,29.07 c -2.79,-1.17 -14.1,-5.08 -23.75,-7.51 -10.34,-2.61 -19.69,-4.29 -25.72,-4.77 5.98,-1.02 15.12,-3.56 25.17,-7.11"
         style="fill:#231f20;fill-opacity:1;fill-rule:nonzero;stroke:none"
         id="path84" />
      <path
         d="M 1182.12,218.09 C 920.629,246.941 563.02,460.359 513.031,650.691"
         style="fill:none;stroke:#231f20;stroke-width:7.5;stroke-linecap:butt;stroke-linejoin:miter;stroke-miterlimit:4;stroke-dasharray:none;stroke-opacity:1"
         id="path86" />
      <path
         d="m 1196.31,222.469 c -9.17,3.922 -15.04,7.222 -22.3,11.133 l -3.19,-28.93 c 2.86,1 14.39,4.168 24.18,5.976 10.49,1.954 19.92,3.032 25.97,3.133 -5.89,1.399 -14.86,4.508 -24.66,8.688"
         style="fill:#231f20;fill-opacity:1;fill-rule:nonzero;stroke:none"
         id="path88" />
      <path
         d="M 2752.98,665.012 C 2631.85,382.391 2303.8,208.621 1680.86,179.789"
         style="fill:none;stroke:#231f20;stroke-width:7.5;stroke-linecap:butt;stroke-linejoin:miter;stroke-miterlimit:4;stroke-dasharray:none;stroke-opacity:1"
         id="path90" />
      <path
         d="m 2752.92,679.871 c -6.41,-7.641 -11.29,-12.281 -17.13,-18.109 l 26.74,-11.461 c -0.12,3.031 0.19,14.98 1.31,24.879 1.19,10.609 2.89,19.941 4.57,25.75 -3.07,-5.219 -8.65,-12.899 -15.49,-21.059"
         style="fill:#231f20;fill-opacity:1;fill-rule:nonzero;stroke:none"
         id="path92" />
      <path
         d="m 528.18,920.75 c 3.375,0 6.113,2.73 6.113,6.109 0,3.379 -2.738,6.141 -6.113,6.141 -3.383,0 -6.125,-2.762 -6.125,-6.141 0,-3.379 2.742,-6.109 6.125,-6.109"
         style="fill:#231f20;fill-opacity:1;fill-rule:nonzero;stroke:none"
         id="path94" />
      <path
         d="m 528.18,920.75 c 3.375,0 6.113,2.73 6.113,6.109 0,3.379 -2.738,6.141 -6.113,6.141 -3.383,0 -6.125,-2.762 -6.125,-6.141 0,-3.379 2.742,-6.109 6.125,-6.109 z"
         style="fill:none;stroke:#231f20;stroke-width:7.5;stroke-linecap:butt;stroke-linejoin:miter;stroke-miterlimit:4;stroke-dasharray:none;stroke-opacity:1"
         id="path96" />
      <path
         d="m 1446.73,1617.95 c 3.38,0 6.12,2.73 6.12,6.11 0,3.38 -2.74,6.12 -6.12,6.12 -3.38,0 -6.11,-2.74 -6.11,-6.12 0,-3.38 2.73,-6.11 6.11,-6.11"
         style="fill:#231f20;fill-opacity:1;fill-rule:nonzero;stroke:none"
         id="path98" />
      <path
         d="m 1446.73,1617.95 c 3.38,0 6.12,2.73 6.12,6.11 0,3.38 -2.74,6.12 -6.12,6.12 -3.38,0 -6.11,-2.74 -6.11,-6.12 0,-3.38 2.73,-6.11 6.11,-6.11 z"
         style="fill:none;stroke:#231f20;stroke-width:7.5;stroke-linecap:butt;stroke-linejoin:miter;stroke-miterlimit:4;stroke-dasharray:none;stroke-opacity:1"
         id="path100" />
      <path
         d="m 1432.31,1561.71 c 3.38,0 6.12,2.74 6.12,6.11 0,3.38 -2.74,6.12 -6.12,6.12 -3.38,0 -6.12,-2.74 -6.12,-6.12 0,-3.37 2.74,-6.11 6.12,-6.11"
         style="fill:#231f20;fill-opacity:1;fill-rule:nonzero;stroke:none"
         id="path102" />
      <path
         d="m 1432.31,1561.71 c 3.38,0 6.12,2.74 6.12,6.11 0,3.38 -2.74,6.12 -6.12,6.12 -3.38,0 -6.12,-2.74 -6.12,-6.12 0,-3.37 2.74,-6.11 6.12,-6.11 z"
         style="fill:none;stroke:#231f20;stroke-width:7.5;stroke-linecap:butt;stroke-linejoin:miter;stroke-miterlimit:4;stroke-dasharray:none;stroke-opacity:1"
         id="path104" />
      <path
         d="m 2816.63,933.738 c 3.36,0 6.11,2.731 6.11,6.114 0,3.378 -2.75,6.109 -6.11,6.109 -3.38,0 -6.13,-2.731 -6.13,-6.109 0,-3.383 2.75,-6.114 6.13,-6.114"
         style="fill:#231f20;fill-opacity:1;fill-rule:nonzero;stroke:none"
         id="path106" />
      <path
         d="m 2816.63,933.738 c 3.36,0 6.11,2.731 6.11,6.114 0,3.378 -2.75,6.109 -6.11,6.109 -3.38,0 -6.13,-2.731 -6.13,-6.109 0,-3.383 2.75,-6.114 6.13,-6.114 z"
         style="fill:none;stroke:#231f20;stroke-width:7.5;stroke-linecap:butt;stroke-linejoin:miter;stroke-miterlimit:4;stroke-dasharray:none;stroke-opacity:1"
         id="path108" />
      <path
         d="m 1451.05,216.32 c 3.38,0 6.12,2.731 6.12,6.11 0,3.379 -2.74,6.129 -6.12,6.129 -3.37,0 -6.11,-2.75 -6.11,-6.129 0,-3.379 2.74,-6.11 6.11,-6.11"
         style="fill:#231f20;fill-opacity:1;fill-rule:nonzero;stroke:none"
         id="path110" />
      <path
         d="m 1451.05,216.32 c 3.38,0 6.12,2.731 6.12,6.11 0,3.379 -2.74,6.129 -6.12,6.129 -3.37,0 -6.11,-2.75 -6.11,-6.129 0,-3.379 2.74,-6.11 6.11,-6.11 z"
         style="fill:none;stroke:#231f20;stroke-width:7.5;stroke-linecap:butt;stroke-linejoin:miter;stroke-miterlimit:4;stroke-dasharray:none;stroke-opacity:1"
         id="path112" />
      <path
         d="m 1435.2,275.441 c 3.37,0 6.11,2.731 6.11,6.11 0,3.379 -2.74,6.129 -6.11,6.129 -3.38,0 -6.13,-2.75 -6.13,-6.129 0,-3.379 2.75,-6.11 6.13,-6.11"
         style="fill:#231f20;fill-opacity:1;fill-rule:nonzero;stroke:none"
         id="path114" />
      <path
         d="m 1435.2,275.441 c 3.37,0 6.11,2.731 6.11,6.11 0,3.379 -2.74,6.129 -6.11,6.129 -3.38,0 -6.13,-2.75 -6.13,-6.129 0,-3.379 2.75,-6.11 6.13,-6.11 z"
         style="fill:none;stroke:#231f20;stroke-width:7.5;stroke-linecap:butt;stroke-linejoin:miter;stroke-miterlimit:4;stroke-dasharray:none;stroke-opacity:1"
         id="path116" />
      <path
         d="m 721.762,921.469 c 3.379,0 6.121,2.742 6.121,6.121 0,3.371 -2.742,6.109 -6.121,6.109 -3.379,0 -6.114,-2.738 -6.114,-6.109 0,-3.379 2.735,-6.121 6.114,-6.121"
         style="fill:#231f20;fill-opacity:1;fill-rule:nonzero;stroke:none"
         id="path118" />
      <path
         d="m 721.762,921.469 c 3.379,0 6.121,2.742 6.121,6.121 0,3.371 -2.742,6.109 -6.121,6.109 -3.379,0 -6.114,-2.738 -6.114,-6.109 0,-3.379 2.735,-6.121 6.114,-6.121 z"
         style="fill:none;stroke:#231f20;stroke-width:7.5;stroke-linecap:butt;stroke-linejoin:miter;stroke-miterlimit:4;stroke-dasharray:none;stroke-opacity:1"
         id="path120" />
      <path
         d="m 2624.83,933.738 c 3.38,0 6.12,2.731 6.12,6.114 0,3.378 -2.74,6.109 -6.12,6.109 -3.37,0 -6.11,-2.731 -6.11,-6.109 0,-3.383 2.74,-6.114 6.11,-6.114"
         style="fill:#231f20;fill-opacity:1;fill-rule:nonzero;stroke:none"
         id="path122" />
      <path
         d="m 2624.83,933.738 c 3.38,0 6.12,2.731 6.12,6.114 0,3.378 -2.74,6.109 -6.12,6.109 -3.37,0 -6.11,-2.731 -6.11,-6.109 0,-3.383 2.74,-6.114 6.11,-6.114 z"
         style="fill:none;stroke:#231f20;stroke-width:7.5;stroke-linecap:butt;stroke-linejoin:miter;stroke-miterlimit:4;stroke-dasharray:none;stroke-opacity:1"
         id="path124" />
      <path
         d="m 2819.52,1165.16 v 412.41"
         style="fill:#231f20;fill-opacity:1;fill-rule:nonzero;stroke:none"
         id="path126" />
      <path
         d="m 2819.52,1165.16 v 412.41"
         style="fill:none;stroke:#231f20;stroke-width:5;stroke-linecap:butt;stroke-linejoin:miter;stroke-miterlimit:4;stroke-dasharray:none;stroke-opacity:1"
         id="path128" />
      <path
         d="M 2716.46,1164.56 2552,1542.76"
         style="fill:#231f20;fill-opacity:1;fill-rule:nonzero;stroke:none"
         id="path130" />
      <path
         d="M 2716.46,1164.56 2552,1542.76"
         style="fill:none;stroke:#231f20;stroke-width:5;stroke-linecap:butt;stroke-linejoin:miter;stroke-miterlimit:4;stroke-dasharray:none;stroke-opacity:1"
         id="path132" />
      <path
         d="m 2629.17,1456.44 c 57.68,43.26 86.52,51.91 158.61,40.38"
         style="fill:none;stroke:#231f20;stroke-width:5;stroke-linecap:butt;stroke-linejoin:miter;stroke-miterlimit:4;stroke-dasharray:none;stroke-opacity:1"
         id="path134" />
      <path
         d="m 2805.19,1496.82 c -8.19,-3.04 -18.34,-8.23 -24.65,-13.72 l 4.96,13.72 -4.96,13.71 c 6.31,-5.49 16.46,-10.67 24.65,-13.71"
         style="fill:#231f20;fill-opacity:1;fill-rule:nonzero;stroke:none"
         id="path136" />
      <path
         d="m 2614.11,1447.68 c 5.55,6.74 11.73,16.33 14.42,24.24 l 2.59,-14.35 11.18,-9.37 c -8.19,1.58 -19.59,0.96 -28.19,-0.52"
         style="fill:#231f20;fill-opacity:1;fill-rule:nonzero;stroke:none"
         id="path138" />
      <path
         d="m 1295.39,1750.54 c 3.37,-7.74 43.78,2.35 90.25,22.57"
         style="fill:none;stroke:#231f20;stroke-width:7.5;stroke-linecap:butt;stroke-linejoin:miter;stroke-miterlimit:4;stroke-dasharray:none;stroke-opacity:1"
         id="path140" />
      <path
         d="m 1385.64,1773.11 c 46.48,20.2 81.43,42.87 78.06,50.61"
         style="fill:none;stroke:#231f20;stroke-width:7.5;stroke-linecap:butt;stroke-linejoin:miter;stroke-miterlimit:4;stroke-dasharray:none;stroke-opacity:1"
         id="path142" />
      <path
         d="m 2628.29,933.211 c 11.39,-25.313 94.18,-14.922 184.88,23.168 90.73,38.09 155.02,89.491 143.64,114.791"
         style="fill:none;stroke:#231f20;stroke-width:7.5;stroke-linecap:butt;stroke-linejoin:miter;stroke-miterlimit:4;stroke-dasharray:none;stroke-opacity:1"
         id="path144" />
      <path
         d="m 2956.1,1071.22 c -11.38,25.3 -94.16,14.92 -184.88,-23.18 -90.7,-38.08 -155.02,-89.474 -143.63,-114.79"
         style="fill:none;stroke:#231f20;stroke-width:7.5;stroke-linecap:butt;stroke-linejoin:miter;stroke-miterlimit:4;stroke-dasharray:40, 10;stroke-dashoffset:0;stroke-opacity:1"
         id="path146" />
      <path
         d="m 394.281,786.301 c 11.25,-25.903 93.043,-15.281 182.672,23.687 89.629,38.981 153.164,91.543 141.91,117.442"
         style="fill:none;stroke:#231f20;stroke-width:7.5;stroke-linecap:butt;stroke-linejoin:miter;stroke-miterlimit:4;stroke-dasharray:none;stroke-opacity:1"
         id="path148" />
      <path
         d="M 718.164,927.488 C 706.91,953.371 625.121,942.738 535.492,903.781 445.863,864.789 382.328,812.23 393.586,786.34"
         style="fill:none;stroke:#231f20;stroke-width:7.5;stroke-linecap:butt;stroke-linejoin:miter;stroke-miterlimit:4;stroke-dasharray:40, 10;stroke-dashoffset:0;stroke-opacity:1"
         id="path150" />
      <g
         id="g152"
         transform="scale(10)">
        <text
           xml:space="preserve"
           transform="matrix(1,0,-7e-8,-1,124.315,91.5051)"
           style="font-style:oblique;font-variant:normal;font-size:7px;font-family:Helvetica;-inkscape-font-specification:Helvetica-Oblique;writing-mode:lr-tb;fill:#231f20;fill-opacity:1;fill-rule:nonzero;stroke:none"
           id="text156"><tspan
             x="0 4.6692185 8.5614376"
             y="0"
             sodipodi:role="line"
             id="tspan154">Sun</tspan></text>
      </g>
      <path
         d="m 681.723,873.762 90,-72.012"
         style="fill:#231f20;fill-opacity:1;fill-rule:nonzero;stroke:none"
         id="path158" />
      <path
         d="m 681.723,873.762 90,-72.012"
         style="fill:none;stroke:#231f20;stroke-width:5;stroke-linecap:butt;stroke-linejoin:miter;stroke-miterlimit:4;stroke-dasharray:none;stroke-opacity:1"
         id="path160" />
      <g
         id="g162"
         transform="scale(10)">
        <text
           xml:space="preserve"
           transform="matrix(1,0,-7e-8,-1,79.1723,79.3762)"
           style="font-style:oblique;font-variant:normal;font-size:7px;font-family:Helvetica;-inkscape-font-specification:Helvetica-Oblique;writing-mode:lr-tb;fill:#231f20;fill-opacity:1;fill-rule:nonzero;stroke:none"
           id="text172"><tspan
             x="0 4.2771649 6.6083298 10.500495 14.392659 15.946824 19.446989 21.393154 25.285318"
             y="0"
             sodipodi:role="line"
             id="tspan164">Tropic of</tspan><tspan
             x="0 5.054142 8.9462843 12.838427 15.169569 16.723711 20.223854 24.115995 26.447138"
             y="8.5"
             sodipodi:role="line"
             id="tspan166">Capricorn</tspan><tspan
             x="-12.1332 -5.5250125 -3.970825 -0.078637332 1.8675503 5.759738"
             y="-38.799999"
             sodipodi:role="line"
             id="tspan168">Winter</tspan><tspan
             x="-12.1332 -8.6330891 -4.7409773 -3.186866 0.31324536 2.2593567 3.813468 7.3135796"
             y="-30.299999"
             sodipodi:role="line"
             id="tspan170">solstice</tspan></text>
      </g>
      <path
         d="m 1352.23,1845.64 184,-423.16"
         style="fill:none;stroke:#231f20;stroke-width:7.5;stroke-linecap:butt;stroke-linejoin:miter;stroke-miterlimit:4;stroke-dasharray:none;stroke-opacity:1"
         id="path174" />
      <path
         d="m 1417.73,1793.76 58,96"
         style="fill:#231f20;fill-opacity:1;fill-rule:nonzero;stroke:none"
         id="path176" />
      <path
         d="m 1417.73,1793.76 58,96"
         style="fill:none;stroke:#231f20;stroke-width:5;stroke-linecap:butt;stroke-linejoin:miter;stroke-miterlimit:4;stroke-dasharray:none;stroke-opacity:1"
         id="path178" />
      <g
         id="g180"
         transform="scale(10)">
        <text
           xml:space="preserve"
           transform="matrix(1,0,-7e-8,-1,148.772,188.576)"
           style="font-style:oblique;font-variant:normal;font-size:7px;font-family:Helvetica;-inkscape-font-specification:Helvetica-Oblique;writing-mode:lr-tb;fill:#231f20;fill-opacity:1;fill-rule:nonzero;stroke:none"
           id="text188"><tspan
             x="0 4.6691313 7.0002623 10.500394 12.446525 14.000656 17.500788 19.446918 24.501049 26.05518 28.386312 31.886442 33.440575"
             y="0"
             sodipodi:role="line"
             id="tspan182">Arctic Circle</tspan><tspan
             x="17.801201 22.4704 26.362598 28.308798 32.200996 38.032196 41.924397 45.816597"
             y="10"
             sodipodi:role="line"
             id="tspan184">Autumnal</tspan><tspan
             x="17.801201 21.693359 25.585518 29.477676 31.031834 34.923992 38.816151"
             y="18.5"
             sodipodi:role="line"
             id="tspan186">equinox</tspan></text>
      </g>
      <path
         d="m 1549.73,107.738 92,-81.988"
         style="fill:#231f20;fill-opacity:1;fill-rule:nonzero;stroke:none"
         id="path190" />
      <path
         d="m 1549.73,107.738 92,-81.988"
         style="fill:none;stroke:#231f20;stroke-width:5;stroke-linecap:butt;stroke-linejoin:miter;stroke-miterlimit:4;stroke-dasharray:none;stroke-opacity:1"
         id="path192" />
      <g
         id="g194"
         transform="scale(10)">
        <text
           xml:space="preserve"
           transform="matrix(1,0,-7e-8,-1,165.973,0.575)"
           style="font-style:oblique;font-variant:normal;font-size:7px;font-family:Helvetica;-inkscape-font-specification:Helvetica-Oblique;writing-mode:lr-tb;fill:#231f20;fill-opacity:1;fill-rule:nonzero;stroke:none"
           id="text202"><tspan
             x="0 4.6691504 8.5613012 10.507451 14.399602 16.730753 20.230902 22.177053 23.731203 27.231354 29.177504 34.231655 35.785805 38.116955 41.617107 43.171257"
             y="0"
             sodipodi:role="line"
             id="tspan196">Antarctic Circle</tspan><tspan
             x="0 4.6691985 8.5613976 10.892596 14.784795 18.676992 20.231192"
             y="-41.401199"
             sodipodi:role="line"
             id="tspan198">Vernal </tspan><tspan
             x="0 3.8921585 7.784317 11.676476 13.230635 17.122793 21.014952"
             y="-32.901199"
             sodipodi:role="line"
             id="tspan200">equinox</tspan></text>
      </g>
      <path
         d="M 2711.73,923.762 2567.72,789.75"
         style="fill:#231f20;fill-opacity:1;fill-rule:nonzero;stroke:none"
         id="path204" />
      <path
         d="M 2711.73,923.762 2567.72,789.75"
         style="fill:none;stroke:#231f20;stroke-width:5;stroke-linecap:butt;stroke-linejoin:miter;stroke-miterlimit:4;stroke-dasharray:none;stroke-opacity:1"
         id="path206" />
      <g
         id="g208"
         transform="scale(10)">
        <text
           xml:space="preserve"
           transform="matrix(1,0,-7e-8,-1,226.973,77.175)"
           style="font-style:oblique;font-variant:normal;font-size:7px;font-family:Helvetica;-inkscape-font-specification:Helvetica-Oblique;writing-mode:lr-tb;fill:#231f20;fill-opacity:1;fill-rule:nonzero;stroke:none"
           id="text220"><tspan
             x="0 4.2771649 6.6083298 10.500495 14.392659 15.946824 19.446989 21.393154 25.285318"
             y="0"
             sodipodi:role="line"
             id="tspan210">Tropic of</tspan><tspan
             x="0 5.054141 8.9462814 12.838423 16.338564 20.230703"
             y="8.5"
             sodipodi:role="line"
             id="tspan212">Cancer</tspan><tspan
             x="5 9.6691799 13.561359 19.392538 25.223719 29.115898"
             y="-36.200802"
             sodipodi:role="line"
             id="tspan214">Summer</tspan><tspan
             x="5 8.5001116 12.392222 13.946334 17.446445 19.392557 20.946669 24.446779"
             y="-27.7008"
             sodipodi:role="line"
             id="tspan216">solstice</tspan><tspan
             x="33.400002 37.292202"
             y="-78.050797"
             sodipodi:role="line"
             id="tspan218">23</tspan></text>
      </g>
      <path
         d="m 2693.23,1547.76 33.19,47.06 h 3.45 l -33.16,-46.68"
         style="fill:#231f20;fill-opacity:1;fill-rule:nonzero;stroke:none"
         id="path222" />
      <g
         id="g224"
         transform="scale(10)">
        <text
           xml:space="preserve"
           transform="matrix(1,0,-2e-8,-1,269.522,157.626)"
           style="font-style:oblique;font-variant:normal;font-size:3.2px;font-family:Helvetica;-inkscape-font-specification:Helvetica-Oblique;writing-mode:lr-tb;fill:#231f20;fill-opacity:1;fill-rule:nonzero;stroke:none"
           id="text230"><tspan
             x="0"
             y="0"
             id="tspan226">1</tspan><tspan
             x="2.25"
             y="2.69961"
             id="tspan228">2</tspan></text>
        <text
           xml:space="preserve"
           transform="matrix(1,0,0,-1,273.871,157.926)"
           style="font-style:oblique;font-variant:normal;font-size:4px;font-family:Helvetica;-inkscape-font-specification:Helvetica-Oblique;writing-mode:lr-tb;fill:#231f20;fill-opacity:1;fill-rule:nonzero;stroke:none"
           id="text234"><tspan
             x="0"
             y="0"
             id="tspan232">o</tspan></text>
        <text
           xml:space="preserve"
           transform="matrix(1,0,-7e-8,-1,0,92.107)"
           style="font-style:oblique;font-variant:normal;font-size:7px;font-family:Helvetica;-inkscape-font-specification:Helvetica-Oblique;writing-mode:lr-tb;fill:#231f20;fill-opacity:1;fill-rule:nonzero;stroke:none"
           id="text238"><tspan
             x="0 3.892164 7.784328 10.115492 11.669656 15.56182 19.453983 21.008148 22.562313 26.454475 304.45099 308.34317 312.23535 316.12753 320.01971 321.57388 323.12805 327.02023"
             y="0"
             sodipodi:role="line"
             id="tspan236">perihelionaphelion</tspan></text>
      </g>
    </g>
  </g>
</svg>
