<?xml version="1.0" encoding="UTF-8" standalone="no"?>
<!-- Created with Inkscape (http://www.inkscape.org/) -->

<svg
   version="1.1"
   id="svg2"
   width="452"
   height="272"
   viewBox="0 0 452 272"
   sodipodi:docname="zonalaveheat.eps"
   xmlns:inkscape="http://www.inkscape.org/namespaces/inkscape"
   xmlns:sodipodi="http://sodipodi.sourceforge.net/DTD/sodipodi-0.dtd"
   xmlns="http://www.w3.org/2000/svg"
   xmlns:svg="http://www.w3.org/2000/svg">
  <defs
     id="defs6">
    <clipPath
       clipPathUnits="userSpaceOnUse"
       id="clipPath18">
      <path
         d="M 0,2036 H 3380 V 0 H 0 Z"
         id="path16" />
    </clipPath>
  </defs>
  <sodipodi:namedview
     id="namedview4"
     pagecolor="#ffffff"
     bordercolor="#000000"
     borderopacity="0.25"
     inkscape:showpageshadow="2"
     inkscape:pageopacity="0.0"
     inkscape:pagecheckerboard="0"
     inkscape:deskcolor="#d1d1d1" />
  <g
     id="g8"
     inkscape:groupmode="layer"
     inkscape:label="ink_ext_XXXXXX"
     transform="matrix(1.3333333,0,0,-1.3333333,0,272)">
    <g
       id="g10"
       transform="scale(0.1)">
      <g
         id="g12">
        <g
           id="g14"
           clip-path="url(#clipPath18)">
          <path
             d="m 3327.4,1196.79 h -59.2"
             style="fill:none;stroke:#231f20;stroke-width:2.835;stroke-linecap:butt;stroke-linejoin:miter;stroke-miterlimit:10;stroke-dasharray:none;stroke-opacity:1"
             id="path20" />
          <path
             d="m 572.867,1234.35 16.348,3.42 16.609,3.01 16.34,3.01 16.34,2.82 16.598,2.61 16.347,3.21 16.614,3.62 16.335,5.22 16.34,4.63 16.602,4.62 16.348,4.82 16.609,4.82 16.34,5.03 16.336,5.42 16.601,5.82 16.348,6.42 16.34,6.64 16.609,7.23 16.34,7.44 16.609,7.63 16.34,7.84 16.336,8.04 16.613,8.44 16.336,8.83 16.614,9.04 16.341,9.24 16.34,9.85 16.61,10.04 16.34,10.25 16.61,10.85 16.34,11.25 16.33,11.65 16.62,11.85 16.33,12.25 16.35,12.06 16.6,12.66 16.34,13.86 16.61,13.67 16.34,13.06 16.35,13.66 16.6,15.26 16.34,14.87 16.61,13.67 16.34,12.85 16.34,13.85 16.61,12.87 16.33,13.66 16.62,13.66 16.33,12.66 16.35,13.26 16.6,12.66 16.34,13.05 16.34,11.05 16.61,11.25 16.35,9.65 16.6,10.25 16.35,9.03 16.33,10.66 16.61,8.23 16.34,7.24 16.61,7.83 16.33,7.44 16.35,6.42 16.6,7.04 16.35,5.41 16.6,5.04 16.35,5.01 16.34,4.62 16.6,3.82 16.35,5.83 16.33,5.82 16.62,4.22 16.33,6.43 16.6,7.03 16.35,4.02 16.34,-0.2 16.61,-3.41 16.34,-7.64 16.6,-12.66 16.35,-14.06 16.34,-13.46 16.61,-8.24 16.34,-3.62 16.61,-0.19 16.33,2.21 16.35,5.42 16.6,4.42 16.34,5.43 16.34,8.23 16.61,1.21 16.34,-3.23 16.61,-3.4 16.33,-4.83 16.35,-5.22 16.61,-7.03 16.34,-8.04 16.61,-6.83 16.33,-8.83 16.34,-10.05 16.61,-8.25 16.35,-10.84 16.6,-9.84 16.34,-16.28 16.34,-13.86 16.61,-15.87 16.35,-14.26 16.33,-16.27 16.61,-17.49 16.34,-12.05 16.61,-9.85 16.33,-10.84 16.34,-13.66 16.61,-12.06 16.35,-16.87 16.6,-18.28 16.35,-14.47 16.34,-16.48 16.6,-17.07 16.34,-14.67 16.61,-15.07 16.35,-15.47 16.32,-13.26 16.62,-12.86 16.33,-10.65 16.35,-9.84 16.61,-10.84 16.34,-7.44 16.6,-12.05 16.35,-8.44 16.34,-8.85 16.61,-7.22 16.34,-4.22 16.6,-6.43 16.34,-8.04 16.34,-6.83 16.62,-6.83 16.32,-8.03 16.62,-6.84 16.33,-6.42 16.35,-6.23 16.61,-7.04 16.34,-6.82 16.34,-7.24 16.61,-7.03 16.34,-4.62 16.61,-5.03 16.34,-3.01 16.33,-3.61 16.62,-6.23 16.33,-5.02 16.61,-3.82 16.33,-3.62 16.35,-4.82 16.61,-3.81 16.35,-3.22 16.6,-3.81 16.34,-3.02 16.34,-3.42 16.61,-3.41 16.34,-3.01 16.33,-2.82 16.62,-3.21 16.33,-3.22 16.61,-3.01 16.34,-3.02 16.34,-2.8 16.61,-2.81"
             style="fill:none;stroke:#231f20;stroke-width:7.5;stroke-linecap:butt;stroke-linejoin:miter;stroke-miterlimit:10;stroke-dasharray:none;stroke-opacity:1"
             id="path22" />
          <path
             d="m 572.867,1173.28 16.348,3.2 16.609,3.02 16.34,2.62 16.34,1.6 16.598,1.21 16.347,0.8 16.614,0.61 16.335,-0.41 16.34,-0.2 16.602,-0.2 16.348,-0.19 16.609,-0.61 16.34,0.8 16.336,1.01 16.601,0.8 16.348,0.41 16.34,0.39 h 16.609 l 16.34,0.21 16.609,0.4 16.34,0.4 16.336,0.6 16.613,0.6 16.336,0.21 h 16.614 l 16.341,-0.21 16.34,-0.4 16.61,-0.8 16.34,-1.01 16.61,-1.21 16.34,-1.59 16.33,-2.02 16.62,-2.41 16.33,-2.4 16.35,-2.42 16.6,-2 16.34,-1.81 16.61,-0.82 16.34,-0.6 h 16.35 l 16.6,0.6 16.34,0.21 16.61,0.4 16.34,-0.19 16.34,-0.21 h 16.61 l 16.33,-0.21 16.62,0.41 16.33,0.41 16.35,0.19 16.6,0.61 16.34,0.4 16.34,0.4 h 16.61 l 16.35,0.21 16.6,0.59 16.35,0.61 16.33,0.8 16.61,0.6 16.34,0.61 16.61,0.6 16.33,0.4 16.35,0.6 16.6,0.6 16.35,0.61 16.6,0.6 16.35,0.6 16.34,0.41 16.6,0.6 16.35,0.41 16.33,0.79 16.62,0.6 16.33,0.61 16.6,0.61 h 16.35 l 16.34,-0.41 16.61,-1 16.34,-1.61 16.6,-1.61 16.35,-1.61 16.34,-1.2 16.61,-0.8 16.34,-0.41 16.61,0.2 16.33,0.41 16.35,0.81 16.6,0.8 16.34,0.99 16.34,0.81 h 16.61 l 16.34,-0.4 16.61,-0.6 16.33,-0.61 16.35,-0.8 16.61,-1.2 16.34,-1.21 16.61,-1.21 16.33,-1.2 16.34,-1.6 16.61,-1.21 16.35,-1.01 16.6,-1 16.34,-2.01 16.34,-1.01 16.61,-1 16.35,-1.01 16.33,-1.2 16.61,-1.81 16.34,-1.8 16.61,-1.82 16.33,-1.2 16.34,-3.01 16.61,-1.01 16.35,-3.61 16.6,-3.42 16.35,0.2 16.34,0.2 16.6,2.82 16.34,4.62 16.61,5.22 16.35,5.23 16.32,2.8 16.62,1.42 16.33,1.2 16.35,-1.2 16.61,-0.61 16.34,-1.01 h 16.6 l 16.35,-1.21 16.34,-2 16.61,-1 16.34,-1.41 16.6,-1.81 16.34,-2.41 16.34,-1.61 16.62,-1.6 16.32,2.21 16.62,-1.81 16.33,1.4 16.35,2.41 16.61,-0.4 16.34,0.6 16.34,0.81 16.61,4.22 16.34,0.4 16.61,-0.2 16.34,0.61 16.33,4.21 16.62,1.01 16.33,2.61 16.61,3 16.33,2.22 16.35,3.42 16.61,3.01 16.35,3.21 16.6,3.22 16.34,0.6 16.34,-0.4 h 32.95 l 16.33,-0.2 16.62,0.6 16.33,1.21 16.61,1.4 16.34,1.41 16.34,1.41 16.61,1.4"
             style="fill:none;stroke:#231f20;stroke-width:7.5;stroke-linecap:butt;stroke-linejoin:miter;stroke-miterlimit:10;stroke-dasharray:11.3391, 28.347;stroke-dashoffset:0;stroke-opacity:1"
             id="path24" />
          <path
             d="m 572.867,1163.63 16.348,-1.2 16.609,-1 h 16.34 l 16.34,0.8 16.598,0.81 16.347,0.59 16.614,-0.4 16.335,-1.8 16.34,-1.61 16.602,-1.81 16.348,-2.01 16.609,-2.02 16.34,-1.39 16.336,-1.42 16.601,-1.6 16.348,-2.01 16.34,-2.61 16.609,-2.81 16.34,-2.62 16.609,-2.81 16.34,-2.62 16.336,-2.4 16.613,-2.41 16.336,-2.61 16.614,-2.61 16.341,-2.61 16.34,-2.82 16.61,-2.61 16.34,-2.82 16.61,-3.21 16.34,-3.61 16.33,-4.02 16.62,-4.42 16.33,-4.42 16.35,-4.02 16.6,-4.23 16.34,-4.2 16.61,-3.82 16.34,-3.42 16.35,-3.21 16.6,-3.42 16.34,-3.01 16.61,-2.22 16.34,-2 16.34,-2.22 16.61,-1.61 16.33,-1.79 16.62,-1.41 16.33,-1.01 16.35,-1 16.6,-0.8 16.34,-0.61 16.34,-0.2 16.61,-0.2 16.35,0.2 16.6,0.4 16.35,0.8 16.33,0.6 16.61,1.01 16.34,0.81 16.61,0.8 16.33,0.8 16.35,0.8 16.6,0.8 16.35,0.81 16.6,1.01 16.35,0.61 16.34,0.19 16.6,0.4 16.35,-0.4 16.33,-0.19 16.62,0.39 16.33,-0.2 16.6,-0.6 16.35,-0.2 16.34,0.2 16.61,0.41 16.34,0.59 16.6,1.41 16.35,2.01 16.34,2.41 16.61,2 16.34,1.21 16.61,0.61 16.33,0.4 16.35,-0.4 16.6,-0.61 16.34,-1 16.34,-1.81 16.61,-1.61 16.34,-1.6 16.61,-1.41 16.33,-1 16.35,-1.2 16.61,-1.01 16.34,-1.01 16.61,-1 16.33,-1.41 16.34,-1.41 16.61,-1.4 16.35,-0.61 16.6,-0.2 16.34,0.2 16.34,0.61 16.61,0.6 16.35,1.01 16.33,1.41 16.61,1.79 16.34,1.01 16.61,0.6 16.33,1.01 16.34,1.81 16.61,1.81 16.35,2.42 16.6,3 16.35,2.61 16.34,4.02 16.6,5.02 16.34,5.03 16.61,5.42 16.35,5.63 16.32,3.82 16.62,3.61 16.33,2.81 16.35,1.81 16.61,2.41 16.34,1.01 16.6,3.61 16.35,1.21 16.34,1.6 16.61,0.8 16.34,-0.8 16.6,0.21 16.34,1 16.34,0.61 16.62,0.8 16.32,3.21 16.62,1.2 16.33,1.62 16.35,1.8 16.61,2.42 16.34,2.81 16.34,3.21 16.61,4.03 16.34,0.19 16.61,1.21 16.34,1.61 16.33,2.2 16.62,1 16.33,1.62 16.61,1.8 16.33,2.01 16.35,4.42 16.61,3.62 16.35,3.42 16.6,4.22 16.34,1.8 16.34,2.82 16.61,2.81 16.34,2 16.33,1.61 16.62,2.82 16.33,3 16.61,3.02 16.34,2.81 16.34,2.62 16.61,2.61"
             style="fill:none;stroke:#231f20;stroke-width:7.5;stroke-linecap:butt;stroke-linejoin:miter;stroke-miterlimit:10;stroke-dasharray:11.3391, 28.347;stroke-dashoffset:0;stroke-opacity:1"
             id="path26" />
          <path
             d="m 572.867,1196.79 h 16.348 l 16.609,-0.2 16.34,-1.22 16.34,-1.8 16.598,-1.21 16.347,-1.8 16.614,-2.01 16.335,-3.02 16.34,-1.2 16.602,-1.01 16.348,-0.8 16.609,-1.2 16.34,-1.21 16.336,-1.6 16.601,-1.82 16.348,-2.21 16.34,-2.41 16.609,-2.61 16.34,-3.01 16.609,-3.41 16.34,-3.42 16.336,-3.02 16.613,-2.41 16.336,-3.21 16.614,-3.42 16.341,-3.81 16.34,-4.63 16.61,-5.42 16.34,-5.62 16.61,-6.03 16.34,-6.64 16.33,-7.83 16.62,-10.24 16.33,-12.07 16.35,-13.25 16.6,-13.66 16.34,-13.86 16.61,-11.66 16.34,-11.25 16.35,-8.84 16.6,-7.43 16.34,-7.64 16.61,-7.629 16.34,-9.442 16.34,-10.449 16.61,-9.84 16.33,-11.859 16.62,-9.039 16.33,-8.442 16.35,-9.441 16.6,-7.027 16.34,-7.032 16.34,-6.628 16.61,-8.442 16.35,-8.051 16.6,-6.23 16.35,-6.008 16.33,-4.223 16.61,-3.828 16.34,-4 16.61,-3.422 16.33,-2.207 16.35,0.2 16.6,2.609 16.35,3.422 16.6,4 16.35,5.238 16.34,3.61 16.6,6.429 16.35,5.633 16.33,9.238 16.62,13.461 16.33,13.66 16.6,12.258 16.35,8.43 16.34,2.223 16.61,-3.211 16.34,-9.25 16.6,-12.661 16.35,-12.25 16.34,-8.242 16.61,-5.828 16.34,-6.031 16.61,-4.418 16.33,-3.813 16.35,-3.007 16.6,-2.621 16.34,-3.418 16.34,-2.614 16.61,-4.218 16.34,-4.219 16.61,-1.801 16.33,-0.602 16.35,-1.019 16.61,1.211 16.34,2.211 16.61,2.808 16.33,2.211 16.34,3.032 16.61,2.589 16.35,4.438 16.6,7.223 16.34,3.628 16.34,6.629 16.61,6.821 16.35,9.05 16.33,8.032 16.61,6.828 16.34,5.43 16.61,6.628 16.33,7.032 16.34,4.429 16.61,9.032 16.35,4.41 16.6,7.238 16.35,15.473 16.34,15.468 16.6,20.9 16.34,22.3 16.61,21.5 16.35,16.07 16.32,11.65 16.62,8.44 16.33,7.23 16.35,4.82 16.61,2.62 16.34,3.82 16.6,1.2 16.35,1.21 16.34,4.22 16.61,2 16.34,3.42 16.6,1.61 16.34,0.4 16.34,1.41 16.62,1.61 16.32,0.58 16.62,3.02 16.33,2.83 16.35,4.01 16.61,-1 16.34,1.8 16.34,1.4 16.61,4.22 16.34,6.44 16.61,3.21 16.34,1.81 16.33,6.82 16.62,3.02 16.33,4.22 16.61,5.02 16.33,4.22 16.35,0.6 16.61,2.82 16.35,2.21 16.6,1.01 16.34,0.8 h 16.34 l 16.61,-0.2 16.34,-0.41 16.33,-0.8 16.62,-0.4 16.33,-0.2 16.61,0.6 16.34,1.41 16.34,1.6 16.61,1.61"
             style="fill:none;stroke:#231f20;stroke-width:7.5;stroke-linecap:butt;stroke-linejoin:miter;stroke-miterlimit:10;stroke-dasharray:none;stroke-opacity:1"
             id="path28" />
          <path
             d="m 572.867,312.578 16.348,5.242 16.609,5.02 16.34,4.43 16.34,3.21 16.598,3.821 16.347,2.597 16.614,2.012 16.335,-0.191 16.34,1.793 16.602,1.41 16.348,1.617 16.609,1.391 16.34,3.031 16.336,3.41 16.601,3.008 16.348,2.812 16.34,2.02 16.609,2.008 16.34,1.812 16.609,1.778 16.34,2.23 16.336,3.223 16.613,4.019 16.336,3.399 16.614,3.011 16.341,2.641 16.34,1.988 16.61,1.211 16.34,0.61 16.61,0.39 16.34,-0.39 16.33,-2.231 16.62,-5.219 16.33,-6.812 16.35,-7.438 16.6,-7.25 16.34,-6.23 16.61,-2.402 16.34,-2.399 16.35,2.012 16.6,4.629 16.34,4.801 16.61,4.019 16.34,1.207 16.34,0.981 16.61,1.429 h 16.33 l 16.62,3.614 16.33,3.418 16.35,3.011 16.6,5.617 16.34,5.633 16.34,4.629 16.61,2.809 16.35,1.793 16.6,5.039 16.35,4.219 16.33,8.031 16.61,6.019 16.34,4.821 16.61,5.64 16.33,6.43 16.35,7.828 16.6,11.25 16.35,10.449 16.6,10.434 16.35,11.469 16.34,8.82 16.6,11.059 16.35,11.66 16.33,15.859 16.62,18.492 16.33,20.301 16.6,19.469 16.35,12.461 16.34,1.617 16.61,-7.238 16.34,-17.68 16.6,-25.723 16.35,-25.898 16.34,-20.289 16.61,-13.071 16.34,-8.628 16.61,-4.032 16.33,-0.8 16.35,2.601 16.6,2.418 16.34,1.621 16.34,5 16.61,-4.609 16.34,-9.84 16.61,-7.031 16.33,-7.032 16.35,-8.238 16.61,-8.031 16.34,-8.051 16.61,-6.027 16.33,-9.442 16.34,-10.25 16.61,-8.031 16.35,-8.027 16.6,-3.821 16.34,-14.261 16.34,-8.047 16.61,-9.242 16.35,-5.211 16.33,-8.219 16.61,-10.469 16.34,-7.25 16.61,-4.801 16.33,-3.621 16.34,-10.449 16.61,-2.398 16.35,-13.262 16.6,-11.859 16.35,4.007 16.34,2.813 16.6,12.07 16.34,16.879 16.61,17.262 16.35,11.469 16.32,5.211 16.62,0.41 16.33,0.797 16.35,-4.84 16.61,-6.02 16.34,-4.019 16.6,-7.231 16.35,-6.808 16.34,-5.243 16.61,-5.617 16.34,-2.601 16.6,-6.45 16.34,-9.429 16.34,-6.02 16.62,-6.25 16.32,-1.793 16.62,-4.629 16.33,-0.609 16.35,2.012 16.61,-5.821 16.34,-1.601 16.34,-1.809 16.61,5.43 16.34,2.199 16.61,-0.601 16.34,0.8 16.33,9.653 16.62,-1.41 16.33,3.828 16.61,5.82 16.33,5 16.35,3.441 16.61,5.821 16.35,5.429 16.6,4.629 16.34,0.168 16.34,-1.187 16.61,-0.41 16.34,-1.602 16.33,-2.008 16.62,-0.39 16.33,0.8 16.61,1.789 16.34,2.84 16.34,2.789 16.61,2.813"
             style="fill:none;stroke:#231f20;stroke-width:7.5;stroke-linecap:butt;stroke-linejoin:miter;stroke-miterlimit:10;stroke-dasharray:none;stroke-opacity:1"
             id="path30" />
          <path
             d="m 572.867,307.172 16.348,5.019 16.609,4.418 16.34,4.02 16.34,2.422 16.598,3.211 16.347,2.008 16.614,0.992 16.335,-0.992 16.34,0.992 16.602,0.808 16.348,0.821 16.609,0.39 16.34,2.418 16.336,2.403 16.601,2.007 16.348,1.602 16.34,1.211 16.609,0.808 16.34,0.391 16.609,0.41 16.34,1.008 16.336,1.801 16.613,2.808 16.336,2.012 16.614,1.41 16.341,1.211 16.34,0.199 16.61,-0.402 16.34,-1.207 16.61,-1.621 16.34,-2.398 16.33,-4.411 16.62,-7.863 16.33,-9.637 16.35,-10.429 16.6,-10.242 16.34,-9.239 16.61,-5.429 16.34,-5.024 16.35,-0.598 16.6,2.602 16.34,2.609 16.61,1.61 16.34,-1.199 16.34,-1.622 16.61,-1.21 16.33,-2.79 16.62,1.391 16.33,1.399 16.35,0.609 16.6,3.609 16.34,3.442 16.34,2.789 16.61,0.613 16.35,-0.203 16.6,3.422 16.35,2.398 16.33,6.84 16.61,4.609 16.34,3.633 16.61,4.61 16.33,5.429 16.35,7.231 16.6,10.859 16.35,10.641 16.6,10.23 16.35,11.86 16.34,9.039 16.6,11.449 16.35,12.07 16.33,16.461 16.62,20.102 16.33,21.699 16.6,20.699 16.35,13.25 16.34,2.012 16.61,-7.621 16.34,-18.692 16.6,-27.129 16.35,-26.718 16.34,-20.903 16.61,-13.238 16.34,-9.262 16.61,-4.41 16.33,-1.211 16.35,2.203 16.6,2.207 16.34,1.024 16.34,4.797 16.61,-5 16.34,-9.84 16.61,-6.859 16.33,-6.622 16.35,-7.828 16.61,-7.23 16.34,-7.031 16.61,-5.039 16.33,-8.418 16.34,-8.84 16.61,-7.032 16.35,-6.429 16.6,-2.012 16.34,-12.66 16.34,-6.027 16.61,-7.024 16.35,-3.019 16.33,-5.821 16.61,-8.457 16.34,-5.41 16.61,-2.832 16.33,-1.801 16.34,-8.629 h 16.61 l 16.35,-11.468 16.6,-9.43 16.35,7.25 16.34,6.418 16.6,16.062 16.34,21.309 16.61,21.281 16.35,15.078 16.32,8.032 16.62,2.828 16.33,2.793 16.35,-3 16.61,-4.633 16.34,-2.598 16.6,-5.84 16.35,-5.82 16.34,-3.609 16.61,-4.442 16.34,-1.379 16.6,-5.242 16.34,-8.629 16.34,-5.039 16.62,-5.019 16.32,-1 16.62,-3.41 16.33,0.82 16.35,3.398 16.61,-5.242 16.34,-0.59 16.34,-0.988 16.61,6.82 16.34,3.801 16.61,0.41 16.34,1.821 16.33,11.058 16.62,-0.422 16.33,5.024 16.61,7.039 16.33,6.027 16.35,4.223 16.61,6.621 16.35,6.25 16.6,5.219 16.34,0.8 16.34,-0.613 16.61,-0.187 16.34,-1.219 16.33,-1.813 h 16.62 l 16.33,1.211 16.61,2.399 16.34,3.222 16.34,3.618 16.61,3.222"
             style="fill:none;stroke:#231f20;stroke-width:7.5;stroke-linecap:butt;stroke-linejoin:miter;stroke-miterlimit:10;stroke-dasharray:11.3391, 28.347;stroke-dashoffset:0;stroke-opacity:1"
             id="path32" />
          <path
             d="M 367.418,1196.79 H 3327.15"
             style="fill:none;stroke:#231f20;stroke-width:2.5;stroke-linecap:butt;stroke-linejoin:miter;stroke-miterlimit:10;stroke-dasharray:none;stroke-opacity:1"
             id="path34" />
          <path
             d="M 367.418,764.23 H 3327.15"
             style="fill:none;stroke:#231f20;stroke-width:5;stroke-linecap:butt;stroke-linejoin:miter;stroke-miterlimit:10;stroke-dasharray:none;stroke-opacity:1"
             id="path36" />
          <path
             d="M 367.418,331.691 H 3327.15"
             style="fill:none;stroke:#231f20;stroke-width:2.5;stroke-linecap:butt;stroke-linejoin:miter;stroke-miterlimit:10;stroke-dasharray:none;stroke-opacity:1"
             id="path38" />
          <g
             id="g40"
             transform="scale(10)">
            <text
               xml:space="preserve"
               transform="matrix(1,0,-7e-8,-1,327.386,0.575)"
               style="font-style:oblique;font-variant:normal;font-size:7px;font-family:Helvetica;-inkscape-font-specification:Helvetica-Oblique;writing-mode:lr-tb;fill:#231f20;fill-opacity:1;fill-rule:nonzero;stroke:none"
               id="text44"><tspan
                 x="0 3.8922031"
                 y="0"
                 sodipodi:role="line"
                 id="tspan42">90</tspan></text>
            <text
               xml:space="preserve"
               transform="matrix(1,0,0,-1,335.87,3.575)"
               style="font-style:oblique;font-variant:normal;font-size:4px;font-family:Helvetica;-inkscape-font-specification:Helvetica-Oblique;writing-mode:lr-tb;fill:#231f20;fill-opacity:1;fill-rule:nonzero;stroke:none"
               id="text48"><tspan
                 x="0"
                 y="0"
                 id="tspan46">o</tspan></text>
            <text
               xml:space="preserve"
               transform="matrix(1,0,-7e-8,-1,278.045,0.575)"
               style="font-style:oblique;font-variant:normal;font-size:7px;font-family:Helvetica;-inkscape-font-specification:Helvetica-Oblique;writing-mode:lr-tb;fill:#231f20;fill-opacity:1;fill-rule:nonzero;stroke:none"
               id="text52"><tspan
                 x="0 3.8922031"
                 y="0"
                 sodipodi:role="line"
                 id="tspan50">60</tspan></text>
            <text
               xml:space="preserve"
               transform="matrix(1,0,0,-1,286.529,3.575)"
               style="font-style:oblique;font-variant:normal;font-size:4px;font-family:Helvetica;-inkscape-font-specification:Helvetica-Oblique;writing-mode:lr-tb;fill:#231f20;fill-opacity:1;fill-rule:nonzero;stroke:none"
               id="text56"><tspan
                 x="0"
                 y="0"
                 id="tspan54">o</tspan></text>
            <text
               xml:space="preserve"
               transform="matrix(1,0,-7e-8,-1,228.702,0.575)"
               style="font-style:oblique;font-variant:normal;font-size:7px;font-family:Helvetica;-inkscape-font-specification:Helvetica-Oblique;writing-mode:lr-tb;fill:#231f20;fill-opacity:1;fill-rule:nonzero;stroke:none"
               id="text60"><tspan
                 x="0 3.8922031"
                 y="0"
                 sodipodi:role="line"
                 id="tspan58">30</tspan></text>
            <text
               xml:space="preserve"
               transform="matrix(1,0,0,-1,237.186,3.575)"
               style="font-style:oblique;font-variant:normal;font-size:4px;font-family:Helvetica;-inkscape-font-specification:Helvetica-Oblique;writing-mode:lr-tb;fill:#231f20;fill-opacity:1;fill-rule:nonzero;stroke:none"
               id="text64"><tspan
                 x="0"
                 y="0"
                 id="tspan62">o</tspan></text>
            <text
               xml:space="preserve"
               transform="matrix(1,0,-7e-8,-1,181.333,0.575)"
               style="font-style:oblique;font-variant:normal;font-size:7px;font-family:Helvetica;-inkscape-font-specification:Helvetica-Oblique;writing-mode:lr-tb;fill:#231f20;fill-opacity:1;fill-rule:nonzero;stroke:none"
               id="text68"><tspan
                 x="0"
                 y="0"
                 id="tspan66">0</tspan></text>
            <text
               xml:space="preserve"
               transform="matrix(1,0,0,-1,185.925,3.575)"
               style="font-style:oblique;font-variant:normal;font-size:4px;font-family:Helvetica;-inkscape-font-specification:Helvetica-Oblique;writing-mode:lr-tb;fill:#231f20;fill-opacity:1;fill-rule:nonzero;stroke:none"
               id="text72"><tspan
                 x="0"
                 y="0"
                 id="tspan70">o</tspan></text>
            <text
               xml:space="preserve"
               transform="matrix(1,0,-7e-8,-1,128.879,0.575)"
               style="font-style:oblique;font-variant:normal;font-size:7px;font-family:Helvetica;-inkscape-font-specification:Helvetica-Oblique;writing-mode:lr-tb;fill:#231f20;fill-opacity:1;fill-rule:nonzero;stroke:none"
               id="text76"><tspan
                 x="0 2.3311822 6.2233644"
                 y="0"
                 sodipodi:role="line"
                 id="tspan74">-30</tspan></text>
            <text
               xml:space="preserve"
               transform="matrix(1,0,0,-1,139.694,3.575)"
               style="font-style:oblique;font-variant:normal;font-size:4px;font-family:Helvetica;-inkscape-font-specification:Helvetica-Oblique;writing-mode:lr-tb;fill:#231f20;fill-opacity:1;fill-rule:nonzero;stroke:none"
               id="text80"><tspan
                 x="0"
                 y="0"
                 id="tspan78">o</tspan></text>
            <text
               xml:space="preserve"
               transform="matrix(1,0,-7e-8,-1,79.5367,0.575)"
               style="font-style:oblique;font-variant:normal;font-size:7px;font-family:Helvetica;-inkscape-font-specification:Helvetica-Oblique;writing-mode:lr-tb;fill:#231f20;fill-opacity:1;fill-rule:nonzero;stroke:none"
               id="text84"><tspan
                 x="0 2.3311822 6.2233644"
                 y="0"
                 sodipodi:role="line"
                 id="tspan82">-60</tspan></text>
            <text
               xml:space="preserve"
               transform="matrix(1,0,0,-1,90.3516,3.575)"
               style="font-style:oblique;font-variant:normal;font-size:4px;font-family:Helvetica;-inkscape-font-specification:Helvetica-Oblique;writing-mode:lr-tb;fill:#231f20;fill-opacity:1;fill-rule:nonzero;stroke:none"
               id="text88"><tspan
                 x="0"
                 y="0"
                 id="tspan86">o</tspan></text>
            <text
               xml:space="preserve"
               transform="matrix(1,0,-7e-8,-1,30.2223,0.575)"
               style="font-style:oblique;font-variant:normal;font-size:7px;font-family:Helvetica;-inkscape-font-specification:Helvetica-Oblique;writing-mode:lr-tb;fill:#231f20;fill-opacity:1;fill-rule:nonzero;stroke:none"
               id="text92"><tspan
                 x="0 2.3311822 6.2233644"
                 y="0"
                 sodipodi:role="line"
                 id="tspan90">-90</tspan></text>
            <text
               xml:space="preserve"
               transform="matrix(1,0,0,-1,41.0371,3.575)"
               style="font-style:oblique;font-variant:normal;font-size:4px;font-family:Helvetica;-inkscape-font-specification:Helvetica-Oblique;writing-mode:lr-tb;fill:#231f20;fill-opacity:1;fill-rule:nonzero;stroke:none"
               id="text96"><tspan
                 x="0"
                 y="0"
                 id="tspan94">o</tspan></text>
            <text
               xml:space="preserve"
               transform="matrix(1,0,-7e-8,-1,19.3965,189.432)"
               style="font-style:oblique;font-variant:normal;font-size:7px;font-family:Helvetica;-inkscape-font-specification:Helvetica-Oblique;writing-mode:lr-tb;fill:#231f20;fill-opacity:1;fill-rule:nonzero;stroke:none"
               id="text126"><tspan
                 x="0 3.8922031 7.7844062"
                 y="0"
                 sodipodi:role="line"
                 id="tspan98">250</tspan><tspan
                 x="0 3.8922031 7.7844062"
                 y="14.5504"
                 sodipodi:role="line"
                 id="tspan100">200</tspan><tspan
                 x="0 3.8922031 7.7844062"
                 y="28.993401"
                 sodipodi:role="line"
                 id="tspan102">150</tspan><tspan
                 x="0 3.8922031 7.7844062"
                 y="43.073898"
                 sodipodi:role="line"
                 id="tspan104">100</tspan><tspan
                 x="3.8917999 7.7840033"
                 y="57.755901"
                 sodipodi:role="line"
                 id="tspan106">50</tspan><tspan
                 x="7.7839899"
                 y="72.077797"
                 id="tspan108">0</tspan><tspan
                 x="9.9999997e-06 3.8922131 7.7844162"
                 y="86.278603"
                 sodipodi:role="line"
                 id="tspan110">–50</tspan><tspan
                 x="-3.89218 2.313e-05 3.8922262 7.7844296"
                 y="100.6403"
                 sodipodi:role="line"
                 id="tspan112">–100</tspan><tspan
                 x="-3.89218 2.313e-05 3.8922262 7.7844296"
                 y="114.9895"
                 sodipodi:role="line"
                 id="tspan114">–150</tspan><tspan
                 x="9.9999997e-06 3.8922131 7.7844162"
                 y="129.6915"
                 sodipodi:role="line"
                 id="tspan116">100</tspan><tspan
                 x="3.8918099 7.7840133"
                 y="144.2755"
                 sodipodi:role="line"
                 id="tspan118">50</tspan><tspan
                 x="7.7839999"
                 y="158.3927"
                 id="tspan120">0</tspan><tspan
                 x="1.9999999e-05 3.8922231 7.7844262"
                 y="172.9314"
                 sodipodi:role="line"
                 id="tspan122">–50</tspan><tspan
                 x="122.31102"
                 y="25.214399"
                 id="tspan124">Q</tspan></text>
            <text
               xml:space="preserve"
               transform="matrix(1,0,2e-8,-1,147.853,162.218)"
               style="font-style:oblique;font-variant:normal;font-size:5px;font-family:Helvetica;-inkscape-font-specification:Helvetica-Oblique;writing-mode:lr-tb;fill:#231f20;fill-opacity:1;fill-rule:nonzero;stroke:none"
               id="text130"><tspan
                 x="0 3.835156"
                 y="0"
                 sodipodi:role="line"
                 id="tspan128">SW</tspan></text>
            <text
               xml:space="preserve"
               transform="matrix(1,0,-7e-8,-1,129.282,87.4172)"
               style="font-style:oblique;font-variant:normal;font-size:7px;font-family:Helvetica;-inkscape-font-specification:Helvetica-Oblique;writing-mode:lr-tb;fill:#231f20;fill-opacity:1;fill-rule:nonzero;stroke:none"
               id="text134"><tspan
                 x="0"
                 y="0"
                 id="tspan132">Q</tspan></text>
            <text
               xml:space="preserve"
               transform="matrix(1,0,2e-8,-1,135.428,85.4172)"
               style="font-style:oblique;font-variant:normal;font-size:5px;font-family:Helvetica;-inkscape-font-specification:Helvetica-Oblique;writing-mode:lr-tb;fill:#231f20;fill-opacity:1;fill-rule:nonzero;stroke:none"
               id="text138"><tspan
                 x="0"
                 y="0"
                 id="tspan136">L</tspan></text>
            <text
               xml:space="preserve"
               transform="matrix(1,0,-7e-8,-1,172.826,124.568)"
               style="font-style:oblique;font-variant:normal;font-size:7px;font-family:Helvetica;-inkscape-font-specification:Helvetica-Oblique;writing-mode:lr-tb;fill:#231f20;fill-opacity:1;fill-rule:nonzero;stroke:none"
               id="text142"><tspan
                 x="0"
                 y="0"
                 id="tspan140">Q</tspan></text>
            <text
               xml:space="preserve"
               transform="matrix(1,0,2e-8,-1,178.272,122.568)"
               style="font-style:oblique;font-variant:normal;font-size:5px;font-family:Helvetica;-inkscape-font-specification:Helvetica-Oblique;writing-mode:lr-tb;fill:#231f20;fill-opacity:1;fill-rule:nonzero;stroke:none"
               id="text146"><tspan
                 x="0"
                 y="0"
                 id="tspan144">S</tspan></text>
            <text
               xml:space="preserve"
               transform="matrix(1,0,-7e-8,-1,148.461,97.6672)"
               style="font-style:oblique;font-variant:normal;font-size:7px;font-family:Helvetica;-inkscape-font-specification:Helvetica-Oblique;writing-mode:lr-tb;fill:#231f20;fill-opacity:1;fill-rule:nonzero;stroke:none"
               id="text150"><tspan
                 x="0"
                 y="0"
                 id="tspan148">Q</tspan></text>
            <text
               xml:space="preserve"
               transform="matrix(1,0,2e-8,-1,154.607,95.6672)"
               style="font-style:oblique;font-variant:normal;font-size:5px;font-family:Helvetica;-inkscape-font-specification:Helvetica-Oblique;writing-mode:lr-tb;fill:#231f20;fill-opacity:1;fill-rule:nonzero;stroke:none"
               id="text154"><tspan
                 x="0 3.280195"
                 y="0"
                 sodipodi:role="line"
                 id="tspan152">LW</tspan></text>
            <text
               xml:space="preserve"
               transform="matrix(1,0,-7e-8,-1,259.669,59.1672)"
               style="font-style:oblique;font-variant:normal;font-size:7px;font-family:Helvetica;-inkscape-font-specification:Helvetica-Oblique;writing-mode:lr-tb;fill:#231f20;fill-opacity:1;fill-rule:nonzero;stroke:none"
               id="text160"><tspan
                 x="0 4.2771721 8.1693439 10.115516 14.007688 15.561859 17.508032 22.562204 26.454376 30.346548 32.292721 34.238892 38.516064 40.070236 43.962406"
                 y="0"
                 sodipodi:role="line"
                 id="tspan156">Total Heat Flux</tspan><tspan
                 x="-12.0609 -7.0067258 -3.1145513 0.777623 2.7237973 4.6699715 8.9471464 10.50132 14.393495 17.893669 19.839844 24.894018 28.786192 34.617367 38.509541 42.401714 46.293888 50.186062 54.078239 56.024414"
                 y="-112.866"
                 sodipodi:role="line"
                 id="tspan158">Heat Flux Components</tspan></text>
            <text
               xml:space="preserve"
               transform="matrix(0,1,1,-7e-8,7.51719,30.8941)"
               style="font-style:oblique;font-variant:normal;font-size:7px;font-family:Helvetica;-inkscape-font-specification:Helvetica-Oblique;writing-mode:lr-tb;fill:#231f20;fill-opacity:1;fill-rule:nonzero;stroke:none"
               id="text164"><tspan
                 x="0 7.3082089 9.9544182"
                 y="0"
                 sodipodi:role="line"
                 id="tspan162">W/m</tspan></text>
            <text
               xml:space="preserve"
               transform="matrix(0,1,1,2e-8,4.51719,47.3789)"
               style="font-style:oblique;font-variant:normal;font-size:5px;font-family:Helvetica;-inkscape-font-specification:Helvetica-Oblique;writing-mode:lr-tb;fill:#231f20;fill-opacity:1;fill-rule:nonzero;stroke:none"
               id="text168"><tspan
                 x="0"
                 y="0"
                 id="tspan166">2</tspan></text>
            <text
               xml:space="preserve"
               transform="matrix(0,1,1,-7e-8,7.51719,128.641)"
               style="font-style:oblique;font-variant:normal;font-size:7px;font-family:Helvetica;-inkscape-font-specification:Helvetica-Oblique;writing-mode:lr-tb;fill:#231f20;fill-opacity:1;fill-rule:nonzero;stroke:none"
               id="text172"><tspan
                 x="0 7.3082089 9.9544182"
                 y="0"
                 sodipodi:role="line"
                 id="tspan170">W/m</tspan></text>
            <text
               xml:space="preserve"
               transform="matrix(0,1,1,2e-8,4.51719,145.126)"
               style="font-style:oblique;font-variant:normal;font-size:5px;font-family:Helvetica;-inkscape-font-specification:Helvetica-Oblique;writing-mode:lr-tb;fill:#231f20;fill-opacity:1;fill-rule:nonzero;stroke:none"
               id="text176"><tspan
                 x="0"
                 y="0"
                 id="tspan174">2</tspan></text>
          </g>
          <path
             d="m 3327.15,1196.79 h -59.2"
             style="fill:none;stroke:#231f20;stroke-width:5;stroke-linecap:butt;stroke-linejoin:miter;stroke-miterlimit:10;stroke-dasharray:none;stroke-opacity:1"
             id="path178" />
          <path
             d="m 860.563,1992.96 v 42.54"
             style="fill:none;stroke:#231f20;stroke-width:5;stroke-linecap:butt;stroke-linejoin:miter;stroke-miterlimit:10;stroke-dasharray:none;stroke-opacity:1"
             id="path180" />
          <path
             d="m 1353.99,1992.96 v 42.52"
             style="fill:none;stroke:#231f20;stroke-width:5;stroke-linecap:butt;stroke-linejoin:miter;stroke-miterlimit:10;stroke-dasharray:none;stroke-opacity:1"
             id="path182" />
          <path
             d="m 1847.41,1992.96 v 42.52"
             style="fill:none;stroke:#231f20;stroke-width:5;stroke-linecap:butt;stroke-linejoin:miter;stroke-miterlimit:10;stroke-dasharray:none;stroke-opacity:1"
             id="path184" />
          <path
             d="m 2340.57,1992.96 v 42.52"
             style="fill:none;stroke:#231f20;stroke-width:5;stroke-linecap:butt;stroke-linejoin:miter;stroke-miterlimit:10;stroke-dasharray:none;stroke-opacity:1"
             id="path186" />
          <path
             d="m 2833.99,1992.96 v 42.52"
             style="fill:none;stroke:#231f20;stroke-width:5;stroke-linecap:butt;stroke-linejoin:miter;stroke-miterlimit:10;stroke-dasharray:none;stroke-opacity:1"
             id="path188" />
          <path
             d="m 531.617,1992.96 v 21.08"
             style="fill:none;stroke:#231f20;stroke-width:5;stroke-linecap:butt;stroke-linejoin:miter;stroke-miterlimit:10;stroke-dasharray:none;stroke-opacity:1"
             id="path190" />
          <path
             d="m 696.09,1992.96 v 21.08"
             style="fill:none;stroke:#231f20;stroke-width:5;stroke-linecap:butt;stroke-linejoin:miter;stroke-miterlimit:10;stroke-dasharray:none;stroke-opacity:1"
             id="path192" />
          <path
             d="m 1025.05,1992.96 v 21.26"
             style="fill:none;stroke:#231f20;stroke-width:5;stroke-linecap:butt;stroke-linejoin:miter;stroke-miterlimit:10;stroke-dasharray:none;stroke-opacity:1"
             id="path194" />
          <path
             d="m 1189.52,1992.96 v 21.26"
             style="fill:none;stroke:#231f20;stroke-width:5;stroke-linecap:butt;stroke-linejoin:miter;stroke-miterlimit:10;stroke-dasharray:none;stroke-opacity:1"
             id="path196" />
          <path
             d="m 1518.47,1992.96 v 21.26"
             style="fill:none;stroke:#231f20;stroke-width:5;stroke-linecap:butt;stroke-linejoin:miter;stroke-miterlimit:10;stroke-dasharray:none;stroke-opacity:1"
             id="path198" />
          <path
             d="m 1682.94,1992.96 v 21.26"
             style="fill:none;stroke:#231f20;stroke-width:5;stroke-linecap:butt;stroke-linejoin:miter;stroke-miterlimit:10;stroke-dasharray:none;stroke-opacity:1"
             id="path200" />
          <path
             d="m 2011.62,1992.96 v 21.26"
             style="fill:none;stroke:#231f20;stroke-width:5;stroke-linecap:butt;stroke-linejoin:miter;stroke-miterlimit:10;stroke-dasharray:none;stroke-opacity:1"
             id="path202" />
          <path
             d="m 2176.09,1992.96 v 21.26"
             style="fill:none;stroke:#231f20;stroke-width:5;stroke-linecap:butt;stroke-linejoin:miter;stroke-miterlimit:10;stroke-dasharray:none;stroke-opacity:1"
             id="path204" />
          <path
             d="m 2505.04,1992.96 v 21.26"
             style="fill:none;stroke:#231f20;stroke-width:5;stroke-linecap:butt;stroke-linejoin:miter;stroke-miterlimit:10;stroke-dasharray:none;stroke-opacity:1"
             id="path206" />
          <path
             d="m 2669.51,1992.96 v 21.26"
             style="fill:none;stroke:#231f20;stroke-width:5;stroke-linecap:butt;stroke-linejoin:miter;stroke-miterlimit:10;stroke-dasharray:none;stroke-opacity:1"
             id="path208" />
          <path
             d="m 2998.46,1992.96 v 21.26"
             style="fill:none;stroke:#231f20;stroke-width:5;stroke-linecap:butt;stroke-linejoin:miter;stroke-miterlimit:10;stroke-dasharray:none;stroke-opacity:1"
             id="path210" />
          <path
             d="m 3162.94,1992.96 v 21.26"
             style="fill:none;stroke:#231f20;stroke-width:5;stroke-linecap:butt;stroke-linejoin:miter;stroke-miterlimit:10;stroke-dasharray:none;stroke-opacity:1"
             id="path212" />
          <path
             d="m 367.418,1992.96 v 42.54"
             style="fill:none;stroke:#231f20;stroke-width:5;stroke-linecap:butt;stroke-linejoin:miter;stroke-miterlimit:10;stroke-dasharray:none;stroke-opacity:1"
             id="path214" />
          <path
             d="m 3327.4,1992.96 v 42.52"
             style="fill:none;stroke:#231f20;stroke-width:5;stroke-linecap:butt;stroke-linejoin:miter;stroke-miterlimit:10;stroke-dasharray:none;stroke-opacity:1"
             id="path216" />
          <path
             d="m 326.68,331.922 h 40.738"
             style="fill:none;stroke:#231f20;stroke-width:5;stroke-linecap:butt;stroke-linejoin:miter;stroke-miterlimit:10;stroke-dasharray:none;stroke-opacity:1"
             id="path218" />
          <path
             d="m 326.211,764.262 h 41.207"
             style="fill:none;stroke:#231f20;stroke-width:5;stroke-linecap:butt;stroke-linejoin:miter;stroke-miterlimit:10;stroke-dasharray:none;stroke-opacity:1"
             id="path220" />
          <path
             d="m 326.68,1196.82 h 40.738"
             style="fill:none;stroke:#231f20;stroke-width:5;stroke-linecap:butt;stroke-linejoin:miter;stroke-miterlimit:10;stroke-dasharray:none;stroke-opacity:1"
             id="path222" />
          <path
             d="m 326.68,187.66 h 40.738"
             style="fill:none;stroke:#231f20;stroke-width:5;stroke-linecap:butt;stroke-linejoin:miter;stroke-miterlimit:10;stroke-dasharray:none;stroke-opacity:1"
             id="path224" />
          <path
             d="m 326.68,475.961 h 40.738"
             style="fill:none;stroke:#231f20;stroke-width:5;stroke-linecap:butt;stroke-linejoin:miter;stroke-miterlimit:10;stroke-dasharray:none;stroke-opacity:1"
             id="path226" />
          <path
             d="m 326.211,620.219 h 41.207"
             style="fill:none;stroke:#231f20;stroke-width:5;stroke-linecap:butt;stroke-linejoin:miter;stroke-miterlimit:10;stroke-dasharray:none;stroke-opacity:1"
             id="path228" />
          <path
             d="m 326.68,908.52 h 40.738"
             style="fill:none;stroke:#231f20;stroke-width:5;stroke-linecap:butt;stroke-linejoin:miter;stroke-miterlimit:10;stroke-dasharray:none;stroke-opacity:1"
             id="path230" />
          <path
             d="m 326.68,1052.77 h 40.738"
             style="fill:none;stroke:#231f20;stroke-width:5;stroke-linecap:butt;stroke-linejoin:miter;stroke-miterlimit:10;stroke-dasharray:none;stroke-opacity:1"
             id="path232" />
          <path
             d="m 326.68,1341.07 h 40.738"
             style="fill:none;stroke:#231f20;stroke-width:5;stroke-linecap:butt;stroke-linejoin:miter;stroke-miterlimit:10;stroke-dasharray:none;stroke-opacity:1"
             id="path234" />
          <path
             d="m 326.68,1485.11 h 40.738"
             style="fill:none;stroke:#231f20;stroke-width:5;stroke-linecap:butt;stroke-linejoin:miter;stroke-miterlimit:10;stroke-dasharray:none;stroke-opacity:1"
             id="path236" />
          <path
             d="m 326.68,1629.36 h 40.738"
             style="fill:none;stroke:#231f20;stroke-width:5;stroke-linecap:butt;stroke-linejoin:miter;stroke-miterlimit:10;stroke-dasharray:none;stroke-opacity:1"
             id="path238" />
          <path
             d="m 326.68,1773.61 h 40.738"
             style="fill:none;stroke:#231f20;stroke-width:5;stroke-linecap:butt;stroke-linejoin:miter;stroke-miterlimit:10;stroke-dasharray:none;stroke-opacity:1"
             id="path240" />
          <path
             d="m 326.68,1917.66 h 40.738"
             style="fill:none;stroke:#231f20;stroke-width:5;stroke-linecap:butt;stroke-linejoin:miter;stroke-miterlimit:10;stroke-dasharray:none;stroke-opacity:1"
             id="path242" />
          <path
             d="m 3327.4,331.879 h 40.74"
             style="fill:none;stroke:#231f20;stroke-width:5;stroke-linecap:butt;stroke-linejoin:miter;stroke-miterlimit:10;stroke-dasharray:none;stroke-opacity:1"
             id="path244" />
          <path
             d="m 3326.93,764.23 h 41.21"
             style="fill:none;stroke:#231f20;stroke-width:5;stroke-linecap:butt;stroke-linejoin:miter;stroke-miterlimit:10;stroke-dasharray:none;stroke-opacity:1"
             id="path246" />
          <path
             d="m 3327.4,1196.79 h 40.74"
             style="fill:none;stroke:#231f20;stroke-width:5;stroke-linecap:butt;stroke-linejoin:miter;stroke-miterlimit:10;stroke-dasharray:none;stroke-opacity:1"
             id="path248" />
          <path
             d="m 3327.4,187.621 h 40.74"
             style="fill:none;stroke:#231f20;stroke-width:5;stroke-linecap:butt;stroke-linejoin:miter;stroke-miterlimit:10;stroke-dasharray:none;stroke-opacity:1"
             id="path250" />
          <path
             d="m 3327.4,475.922 h 40.74"
             style="fill:none;stroke:#231f20;stroke-width:5;stroke-linecap:butt;stroke-linejoin:miter;stroke-miterlimit:10;stroke-dasharray:none;stroke-opacity:1"
             id="path252" />
          <path
             d="m 3326.93,620.18 h 41.21"
             style="fill:none;stroke:#231f20;stroke-width:5;stroke-linecap:butt;stroke-linejoin:miter;stroke-miterlimit:10;stroke-dasharray:none;stroke-opacity:1"
             id="path254" />
          <path
             d="m 3327.4,908.48 h 40.74"
             style="fill:none;stroke:#231f20;stroke-width:5;stroke-linecap:butt;stroke-linejoin:miter;stroke-miterlimit:10;stroke-dasharray:none;stroke-opacity:1"
             id="path256" />
          <path
             d="m 3327.4,1052.73 h 40.74"
             style="fill:none;stroke:#231f20;stroke-width:5;stroke-linecap:butt;stroke-linejoin:miter;stroke-miterlimit:10;stroke-dasharray:none;stroke-opacity:1"
             id="path258" />
          <path
             d="m 3327.4,1341.04 h 40.74"
             style="fill:none;stroke:#231f20;stroke-width:5;stroke-linecap:butt;stroke-linejoin:miter;stroke-miterlimit:10;stroke-dasharray:none;stroke-opacity:1"
             id="path260" />
          <path
             d="m 3327.4,1485.08 h 40.74"
             style="fill:none;stroke:#231f20;stroke-width:5;stroke-linecap:butt;stroke-linejoin:miter;stroke-miterlimit:10;stroke-dasharray:none;stroke-opacity:1"
             id="path262" />
          <path
             d="m 3327.4,1629.33 h 40.74"
             style="fill:none;stroke:#231f20;stroke-width:5;stroke-linecap:butt;stroke-linejoin:miter;stroke-miterlimit:10;stroke-dasharray:none;stroke-opacity:1"
             id="path264" />
          <path
             d="m 3327.4,1773.57 h 40.74"
             style="fill:none;stroke:#231f20;stroke-width:5;stroke-linecap:butt;stroke-linejoin:miter;stroke-miterlimit:10;stroke-dasharray:none;stroke-opacity:1"
             id="path266" />
          <path
             d="m 3327.4,1917.63 h 40.74"
             style="fill:none;stroke:#231f20;stroke-width:5;stroke-linecap:butt;stroke-linejoin:miter;stroke-miterlimit:10;stroke-dasharray:none;stroke-opacity:1"
             id="path268" />
          <path
             d="M 860.563,112.488 V 69.9492"
             style="fill:none;stroke:#231f20;stroke-width:5;stroke-linecap:butt;stroke-linejoin:miter;stroke-miterlimit:10;stroke-dasharray:none;stroke-opacity:1"
             id="path270" />
          <path
             d="M 1353.99,112.488 V 69.9688"
             style="fill:none;stroke:#231f20;stroke-width:5;stroke-linecap:butt;stroke-linejoin:miter;stroke-miterlimit:10;stroke-dasharray:none;stroke-opacity:1"
             id="path272" />
          <path
             d="M 1847.41,112.488 V 69.9688"
             style="fill:none;stroke:#231f20;stroke-width:5;stroke-linecap:butt;stroke-linejoin:miter;stroke-miterlimit:10;stroke-dasharray:none;stroke-opacity:1"
             id="path274" />
          <path
             d="M 2340.57,112.488 V 69.9688"
             style="fill:none;stroke:#231f20;stroke-width:5;stroke-linecap:butt;stroke-linejoin:miter;stroke-miterlimit:10;stroke-dasharray:none;stroke-opacity:1"
             id="path276" />
          <path
             d="M 2833.99,112.488 V 69.9688"
             style="fill:none;stroke:#231f20;stroke-width:5;stroke-linecap:butt;stroke-linejoin:miter;stroke-miterlimit:10;stroke-dasharray:none;stroke-opacity:1"
             id="path278" />
          <path
             d="M 531.617,112.488 V 91.4102"
             style="fill:none;stroke:#231f20;stroke-width:5;stroke-linecap:butt;stroke-linejoin:miter;stroke-miterlimit:10;stroke-dasharray:none;stroke-opacity:1"
             id="path280" />
          <path
             d="M 696.09,112.488 V 91.4102"
             style="fill:none;stroke:#231f20;stroke-width:5;stroke-linecap:butt;stroke-linejoin:miter;stroke-miterlimit:10;stroke-dasharray:none;stroke-opacity:1"
             id="path282" />
          <path
             d="M 1025.05,112.488 V 91.2383"
             style="fill:none;stroke:#231f20;stroke-width:5;stroke-linecap:butt;stroke-linejoin:miter;stroke-miterlimit:10;stroke-dasharray:none;stroke-opacity:1"
             id="path284" />
          <path
             d="M 1189.52,112.488 V 91.2383"
             style="fill:none;stroke:#231f20;stroke-width:5;stroke-linecap:butt;stroke-linejoin:miter;stroke-miterlimit:10;stroke-dasharray:none;stroke-opacity:1"
             id="path286" />
          <path
             d="M 1518.47,112.488 V 91.2383"
             style="fill:none;stroke:#231f20;stroke-width:5;stroke-linecap:butt;stroke-linejoin:miter;stroke-miterlimit:10;stroke-dasharray:none;stroke-opacity:1"
             id="path288" />
          <path
             d="M 1682.94,112.488 V 91.2383"
             style="fill:none;stroke:#231f20;stroke-width:5;stroke-linecap:butt;stroke-linejoin:miter;stroke-miterlimit:10;stroke-dasharray:none;stroke-opacity:1"
             id="path290" />
          <path
             d="M 2011.62,112.488 V 91.2383"
             style="fill:none;stroke:#231f20;stroke-width:5;stroke-linecap:butt;stroke-linejoin:miter;stroke-miterlimit:10;stroke-dasharray:none;stroke-opacity:1"
             id="path292" />
          <path
             d="M 2176.09,112.488 V 91.2383"
             style="fill:none;stroke:#231f20;stroke-width:5;stroke-linecap:butt;stroke-linejoin:miter;stroke-miterlimit:10;stroke-dasharray:none;stroke-opacity:1"
             id="path294" />
          <path
             d="M 2505.04,112.488 V 91.2383"
             style="fill:none;stroke:#231f20;stroke-width:5;stroke-linecap:butt;stroke-linejoin:miter;stroke-miterlimit:10;stroke-dasharray:none;stroke-opacity:1"
             id="path296" />
          <path
             d="M 2669.51,112.488 V 91.2383"
             style="fill:none;stroke:#231f20;stroke-width:5;stroke-linecap:butt;stroke-linejoin:miter;stroke-miterlimit:10;stroke-dasharray:none;stroke-opacity:1"
             id="path298" />
          <path
             d="M 2998.46,112.488 V 91.2383"
             style="fill:none;stroke:#231f20;stroke-width:5;stroke-linecap:butt;stroke-linejoin:miter;stroke-miterlimit:10;stroke-dasharray:none;stroke-opacity:1"
             id="path300" />
          <path
             d="M 3162.94,112.488 V 91.2383"
             style="fill:none;stroke:#231f20;stroke-width:5;stroke-linecap:butt;stroke-linejoin:miter;stroke-miterlimit:10;stroke-dasharray:none;stroke-opacity:1"
             id="path302" />
          <path
             d="M 367.418,112.488 V 69.9492"
             style="fill:none;stroke:#231f20;stroke-width:5;stroke-linecap:butt;stroke-linejoin:miter;stroke-miterlimit:10;stroke-dasharray:none;stroke-opacity:1"
             id="path304" />
          <path
             d="M 3327.4,112.488 V 69.9688"
             style="fill:none;stroke:#231f20;stroke-width:5;stroke-linecap:butt;stroke-linejoin:miter;stroke-miterlimit:10;stroke-dasharray:none;stroke-opacity:1"
             id="path306" />
          <path
             d="m 367.418,112.488 h 2959.98 v 1880.47 H 367.418 Z"
             style="fill:none;stroke:#231f20;stroke-width:5;stroke-linecap:butt;stroke-linejoin:miter;stroke-miterlimit:10;stroke-dasharray:none;stroke-opacity:1"
             id="path308" />
        </g>
      </g>
    </g>
  </g>
</svg>
