<?xml version="1.0" encoding="UTF-8" standalone="no"?>
<!-- Created with Inkscape (http://www.inkscape.org/) -->

<svg
   version="1.1"
   id="svg2"
   width="261.33334"
   height="368"
   viewBox="0 0 261.33334 368"
   sodipodi:docname="reflectance.eps"
   xmlns:inkscape="http://www.inkscape.org/namespaces/inkscape"
   xmlns:sodipodi="http://sodipodi.sourceforge.net/DTD/sodipodi-0.dtd"
   xmlns="http://www.w3.org/2000/svg"
   xmlns:svg="http://www.w3.org/2000/svg">
  <defs
     id="defs6">
    <clipPath
       clipPathUnits="userSpaceOnUse"
       id="clipPath18">
      <path
         d="M 0,2 V 2760 H 1957 V 2 Z"
         id="path16" />
    </clipPath>
  </defs>
  <sodipodi:namedview
     id="namedview4"
     pagecolor="#ffffff"
     bordercolor="#000000"
     borderopacity="0.25"
     inkscape:showpageshadow="2"
     inkscape:pageopacity="0.0"
     inkscape:pagecheckerboard="0"
     inkscape:deskcolor="#d1d1d1" />
  <g
     id="g8"
     inkscape:groupmode="layer"
     inkscape:label="ink_ext_XXXXXX"
     transform="matrix(1.3333333,0,0,-1.3333333,0,368)">
    <g
       id="g10"
       transform="scale(0.1)">
      <g
         id="g12">
        <g
           id="g14"
           clip-path="url(#clipPath18)">
          <path
             d="m 363.285,2443.85 c 31.906,0 47.496,-47.61 63.086,-75.67 15.594,-28.07 69.149,-359.12 88.367,-359.12 19.219,0 4.067,18.66 28.012,18.66 23.945,0 56.098,-170.36 64.188,-194.04 8.093,-23.68 31.691,-22.19 59.683,-50.18 27.992,-28 26.988,-71.83 40.649,-85.49 21.32,-21.32 4.168,17.19 37.82,-1.68 33.652,-18.86 151.785,-571 158.195,-659.16 6.414,-88.15 10.223,-158.799 20.457,-183.33 10.235,-24.531 37.977,-45.09 56.863,-63.981 18.895,-18.89 114.365,-337.488 126.215,-349.347 11.86,-11.852 27.43,-3.852 53.14,-13.34 25.7,-9.481 38.9,-38.902 54.75,-54.75 15.85,-15.852 63.63,-58.832 95.25,-65.25 31.62,-6.41 24.31,2.078 45.89,2.078 21.59,0 27.31,-29.281 51.73,-29.281 24.43,0 86.33,19.301 95.72,9.922 9.38,-9.391 10.79,-15.641 26.66,-15.641 15.87,0 23.17,21.828 36.67,21.828 13.49,0 49.9,-28.906 49.9,-28.906"
             style="fill:none;stroke:#231f20;stroke-width:7.5;stroke-linecap:butt;stroke-linejoin:miter;stroke-miterlimit:4;stroke-dasharray:none;stroke-opacity:1"
             id="path20" />
          <path
             d="m 350.938,1438.43 9.605,-34.31"
             style="fill:none;stroke:#231f20;stroke-width:11.25;stroke-linecap:butt;stroke-linejoin:miter;stroke-miterlimit:4;stroke-dasharray:none;stroke-opacity:1"
             id="path22" />
          <path
             d="m 370.586,1374.92 c -4.793,-2.06 -10.492,0.5 -12.379,5.66 -1.742,5.12 0.906,10.59 5.898,12.2 5,1.61 10.387,-0.97 12.024,-5.79 1.707,-4.69 -0.688,-9.98 -5.543,-12.07"
             style="fill:#363639;fill-opacity:1;fill-rule:nonzero;stroke:none"
             id="path24" />
          <path
             d="m 370.586,1374.92 c -4.793,-2.06 -10.492,0.5 -12.379,5.66 -1.742,5.12 0.906,10.59 5.898,12.2 5,1.61 10.387,-0.97 12.024,-5.79 1.707,-4.69 -0.688,-9.98 -5.543,-12.07 z"
             style="fill:none;stroke:#231f20;stroke-width:2.813;stroke-linecap:butt;stroke-linejoin:miter;stroke-miterlimit:4;stroke-dasharray:none;stroke-opacity:1"
             id="path26" />
          <path
             d="m 379.527,1359.6 c 7.282,-9.44 17.153,-16.41 24.512,-25.82"
             style="fill:none;stroke:#231f20;stroke-width:11.25;stroke-linecap:butt;stroke-linejoin:miter;stroke-miterlimit:4;stroke-dasharray:none;stroke-opacity:1"
             id="path28" />
          <path
             d="m 418.508,1306.78 c -5.203,-1.65 -9.727,0.85 -11.805,4.89 -2.348,3.92 -0.59,9.42 3.84,12.23 4.434,2.82 10.469,0.97 13.398,-4.18 2.645,-5.27 -0.609,-11.45 -5.433,-12.94"
             style="fill:#363639;fill-opacity:1;fill-rule:nonzero;stroke:none"
             id="path30" />
          <path
             d="m 418.508,1306.78 c -5.203,-1.65 -9.727,0.85 -11.805,4.89 -2.348,3.92 -0.59,9.42 3.84,12.23 4.434,2.82 10.469,0.97 13.398,-4.18 2.645,-5.27 -0.609,-11.45 -5.433,-12.94 z"
             style="fill:none;stroke:#231f20;stroke-width:2.813;stroke-linecap:butt;stroke-linejoin:miter;stroke-miterlimit:4;stroke-dasharray:none;stroke-opacity:1"
             id="path32" />
          <path
             d="m 422.676,1289.47 c 1.953,-11.67 0.207,-24.04 5.394,-35.02"
             style="fill:none;stroke:#231f20;stroke-width:11.25;stroke-linecap:butt;stroke-linejoin:miter;stroke-miterlimit:4;stroke-dasharray:none;stroke-opacity:1"
             id="path34" />
          <path
             d="m 446.684,1230.15 c -3.801,-3.71 -9.817,-3.39 -13.516,0.66 -3.715,3.86 -3.391,10.29 0.887,13.53 4.109,3.1 9.726,2.88 13.289,-0.84 3.39,-3.7 3.051,-9.72 -0.66,-13.35"
             style="fill:#363639;fill-opacity:1;fill-rule:nonzero;stroke:none"
             id="path36" />
          <path
             d="m 446.684,1230.15 c -3.801,-3.71 -9.817,-3.39 -13.516,0.66 -3.715,3.86 -3.391,10.29 0.887,13.53 4.109,3.1 9.726,2.88 13.289,-0.84 3.39,-3.7 3.051,-9.72 -0.66,-13.35 z"
             style="fill:none;stroke:#231f20;stroke-width:2.813;stroke-linecap:butt;stroke-linejoin:miter;stroke-miterlimit:4;stroke-dasharray:none;stroke-opacity:1"
             id="path38" />
          <path
             d="m 459.262,1217.45 25.703,-24.69"
             style="fill:none;stroke:#231f20;stroke-width:11.25;stroke-linecap:butt;stroke-linejoin:miter;stroke-miterlimit:4;stroke-dasharray:none;stroke-opacity:1"
             id="path40" />
          <path
             d="m 507.461,1171.6 c -3.594,-3.83 -9.606,-4.03 -13.438,-0.43 -3.832,3.59 -4.011,9.61 -0.414,13.43 3.594,3.83 9.614,4.03 13.438,0.44 3.824,-3.58 4.012,-9.62 0.414,-13.44"
             style="fill:#363639;fill-opacity:1;fill-rule:nonzero;stroke:none"
             id="path42" />
          <path
             d="m 507.461,1171.6 c -3.594,-3.83 -9.606,-4.03 -13.438,-0.43 -3.832,3.59 -4.011,9.61 -0.414,13.43 3.594,3.83 9.614,4.03 13.438,0.44 3.824,-3.58 4.012,-9.62 0.414,-13.44 z"
             style="fill:none;stroke:#231f20;stroke-width:2.813;stroke-linecap:butt;stroke-linejoin:miter;stroke-miterlimit:4;stroke-dasharray:none;stroke-opacity:1"
             id="path44" />
          <path
             d="m 520.449,1159.31 c 8.813,-8 16.524,-17.09 23.41,-26.77"
             style="fill:none;stroke:#231f20;stroke-width:11.25;stroke-linecap:butt;stroke-linejoin:miter;stroke-miterlimit:4;stroke-dasharray:none;stroke-opacity:1"
             id="path46" />
          <path
             d="m 560.664,1106.63 c -4.457,-2.78 -10.316,-1.38 -13.09,2.96 -2.769,4.37 -1.437,10.23 2.918,13.09 4.426,2.91 10.309,1.59 13.16,-2.91 2.871,-4.5 1.465,-10.36 -2.988,-13.14"
             style="fill:#363639;fill-opacity:1;fill-rule:nonzero;stroke:none"
             id="path48" />
          <path
             d="m 560.664,1106.63 c -4.457,-2.78 -10.316,-1.38 -13.09,2.96 -2.769,4.37 -1.437,10.23 2.918,13.09 4.426,2.91 10.309,1.59 13.16,-2.91 2.871,-4.5 1.465,-10.36 -2.988,-13.14 z"
             style="fill:none;stroke:#231f20;stroke-width:2.813;stroke-linecap:butt;stroke-linejoin:miter;stroke-miterlimit:4;stroke-dasharray:none;stroke-opacity:1"
             id="path50" />
          <path
             d="m 570.168,1091.48 c 6.219,-9.84 13.27,-20.74 25.57,-23.31"
             style="fill:none;stroke:#231f20;stroke-width:11.25;stroke-linecap:butt;stroke-linejoin:miter;stroke-miterlimit:4;stroke-dasharray:none;stroke-opacity:1"
             id="path52" />
          <path
             d="m 625.746,1060.9 c -1.172,-5.11 -6.234,-8.38 -11.308,-7.26 -5.215,1.17 -8.504,6.31 -7.239,11.4 1.27,5.1 6.262,8.32 11.293,7.19 5.172,-1.13 8.422,-6.21 7.254,-11.33"
             style="fill:#363639;fill-opacity:1;fill-rule:nonzero;stroke:none"
             id="path54" />
          <path
             d="m 625.746,1060.9 c -1.172,-5.11 -6.234,-8.38 -11.308,-7.26 -5.215,1.17 -8.504,6.31 -7.239,11.4 1.27,5.1 6.262,8.32 11.293,7.19 5.172,-1.13 8.422,-6.21 7.254,-11.33 z"
             style="fill:none;stroke:#231f20;stroke-width:2.813;stroke-linecap:butt;stroke-linejoin:miter;stroke-miterlimit:4;stroke-dasharray:none;stroke-opacity:1"
             id="path56" />
          <path
             d="m 642.902,1055.91 c 10.868,-5.23 16.668,-16.88 27.09,-22.86"
             style="fill:none;stroke:#231f20;stroke-width:11.25;stroke-linecap:butt;stroke-linejoin:miter;stroke-miterlimit:4;stroke-dasharray:none;stroke-opacity:1"
             id="path58" />
          <path
             d="m 699.094,1024.63 c 0.121,-5.34 -4.293,-9.81 -11.192,-8.72 -6.933,0.42 -9.265,7.3 -7.336,11.86 2.071,5.09 7.012,6.58 10.801,6.85 3.496,-0.61 7.59,-4.88 7.727,-9.99"
             style="fill:#363639;fill-opacity:1;fill-rule:nonzero;stroke:none"
             id="path60" />
          <path
             d="m 699.094,1024.63 c 0.121,-5.34 -4.293,-9.81 -11.192,-8.72 -6.933,0.42 -9.265,7.3 -7.336,11.86 2.071,5.09 7.012,6.58 10.801,6.85 3.496,-0.61 7.59,-4.88 7.727,-9.99 z"
             style="fill:none;stroke:#231f20;stroke-width:2.813;stroke-linecap:butt;stroke-linejoin:miter;stroke-miterlimit:4;stroke-dasharray:none;stroke-opacity:1"
             id="path62" />
          <path
             d="m 716.934,1025.58 c 11.839,1.02 23.613,2.6 35.39,4.18"
             style="fill:none;stroke:#231f20;stroke-width:11.25;stroke-linecap:butt;stroke-linejoin:miter;stroke-miterlimit:4;stroke-dasharray:none;stroke-opacity:1"
             id="path64" />
          <path
             d="m 782.875,1034.3 c 0.777,-5.19 -2.797,-10.05 -7.977,-10.83 -5.199,-0.78 -10.062,2.82 -10.816,8.02 -0.758,5.2 2.793,10.02 7.981,10.8 5.191,0.78 10.031,-2.79 10.812,-7.99"
             style="fill:#363639;fill-opacity:1;fill-rule:nonzero;stroke:none"
             id="path66" />
          <path
             d="m 782.875,1034.3 c 0.777,-5.19 -2.797,-10.05 -7.977,-10.83 -5.199,-0.78 -10.062,2.82 -10.816,8.02 -0.758,5.2 2.793,10.02 7.981,10.8 5.191,0.78 10.031,-2.79 10.812,-7.99 z"
             style="fill:none;stroke:#231f20;stroke-width:2.813;stroke-linecap:butt;stroke-linejoin:miter;stroke-miterlimit:4;stroke-dasharray:none;stroke-opacity:1"
             id="path68" />
          <path
             d="m 800.566,1036.87 c 11.86,2.84 23.575,-0.7 34.864,-4.24"
             style="fill:none;stroke:#231f20;stroke-width:11.25;stroke-linecap:butt;stroke-linejoin:miter;stroke-miterlimit:4;stroke-dasharray:none;stroke-opacity:1"
             id="path70" />
          <path
             d="m 864.824,1023.16 c -1.648,-5 -7.039,-7.66 -11.988,-6.06 -4.949,1.6 -7.668,6.96 -6.074,11.96 1.593,5 6.968,7.74 12.004,6.11 5.039,-1.62 7.699,-7.04 6.058,-12.01"
             style="fill:#363639;fill-opacity:1;fill-rule:nonzero;stroke:none"
             id="path72" />
          <path
             d="m 864.824,1023.16 c -1.648,-5 -7.039,-7.66 -11.988,-6.06 -4.949,1.6 -7.668,6.96 -6.074,11.96 1.593,5 6.968,7.74 12.004,6.11 5.039,-1.62 7.699,-7.04 6.058,-12.01 z"
             style="fill:none;stroke:#231f20;stroke-width:2.813;stroke-linecap:butt;stroke-linejoin:miter;stroke-miterlimit:4;stroke-dasharray:none;stroke-opacity:1"
             id="path74" />
          <path
             d="m 881.789,1017.51 33.891,-11.03"
             style="fill:none;stroke:#231f20;stroke-width:11.25;stroke-linecap:butt;stroke-linejoin:miter;stroke-miterlimit:4;stroke-dasharray:none;stroke-opacity:1"
             id="path76" />
          <path
             d="m 945.41,998.219 c -0.84,-5.297 -6.59,-8.547 -11.621,-6.981 -5.254,1.442 -8.277,6.692 -6.758,11.722 1.516,5.03 6.692,8.03 11.563,6.69 5.011,-1.54 7.629,-6.34 6.816,-11.431"
             style="fill:#363639;fill-opacity:1;fill-rule:nonzero;stroke:none"
             id="path78" />
          <path
             d="m 945.41,998.219 c -0.84,-5.297 -6.59,-8.547 -11.621,-6.981 -5.254,1.442 -8.277,6.692 -6.758,11.722 1.516,5.03 6.692,8.03 11.563,6.69 5.011,-1.54 7.629,-6.34 6.816,-11.431 z"
             style="fill:none;stroke:#231f20;stroke-width:2.813;stroke-linecap:butt;stroke-linejoin:miter;stroke-miterlimit:4;stroke-dasharray:none;stroke-opacity:1"
             id="path80" />
          <path
             d="m 962.941,999.109 c 9.942,5.151 19.051,16.671 31.309,13.001"
             style="fill:none;stroke:#231f20;stroke-width:11.25;stroke-linecap:butt;stroke-linejoin:miter;stroke-miterlimit:4;stroke-dasharray:none;stroke-opacity:1"
             id="path82" />
          <path
             d="m 1020.17,995.66 c -3.22,-4.14 -9.11,-4.961 -13.13,-1.832 -3.98,2.75 -4.97,8.392 -2.27,12.932 2.67,4.5 8.9,5.64 13.54,2.4 4.26,-3.31 5.09,-9.359 1.86,-13.5"
             style="fill:#363639;fill-opacity:1;fill-rule:nonzero;stroke:none"
             id="path84" />
          <path
             d="m 1020.17,995.66 c -3.22,-4.14 -9.11,-4.961 -13.13,-1.832 -3.98,2.75 -4.97,8.392 -2.27,12.932 2.67,4.5 8.9,5.64 13.54,2.4 4.26,-3.31 5.09,-9.359 1.86,-13.5 z"
             style="fill:none;stroke:#231f20;stroke-width:2.813;stroke-linecap:butt;stroke-linejoin:miter;stroke-miterlimit:4;stroke-dasharray:none;stroke-opacity:1"
             id="path86" />
          <path
             d="m 1034.13,984.488 27.44,-22.75"
             style="fill:none;stroke:#231f20;stroke-width:11.25;stroke-linecap:butt;stroke-linejoin:miter;stroke-miterlimit:4;stroke-dasharray:none;stroke-opacity:1"
             id="path88" />
          <path
             d="m 1085.95,942.801 c -3.01,-4.27 -9.18,-5.223 -13.48,-1.942 -4.17,3.321 -4.9,9.36 -1.63,13.461 3.29,4.11 9.2,4.84 13.25,1.61 4.04,-3.071 4.91,-8.809 1.86,-13.129"
             style="fill:#363639;fill-opacity:1;fill-rule:nonzero;stroke:none"
             id="path90" />
          <path
             d="m 1085.95,942.801 c -3.01,-4.27 -9.18,-5.223 -13.48,-1.942 -4.17,3.321 -4.9,9.36 -1.63,13.461 3.29,4.11 9.2,4.84 13.25,1.61 4.04,-3.071 4.91,-8.809 1.86,-13.129 z"
             style="fill:none;stroke:#231f20;stroke-width:2.813;stroke-linecap:butt;stroke-linejoin:miter;stroke-miterlimit:4;stroke-dasharray:none;stroke-opacity:1"
             id="path92" />
          <path
             d="m 1100.88,933.012 c 10.01,-6.582 22.06,-8.703 33.35,-12.102"
             style="fill:none;stroke:#231f20;stroke-width:11.25;stroke-linecap:butt;stroke-linejoin:miter;stroke-miterlimit:4;stroke-dasharray:none;stroke-opacity:1"
             id="path94" />
          <path
             d="m 1164.13,913.109 c -1.35,-5.039 -6.55,-8.097 -11.61,-6.808 -5.06,1.308 -8.1,6.5 -6.79,11.59 1.31,5.078 6.5,8.14 11.6,6.828 5.1,-1.309 8.15,-6.5 6.8,-11.61"
             style="fill:#363639;fill-opacity:1;fill-rule:nonzero;stroke:none"
             id="path96" />
          <path
             d="m 1164.13,913.109 c -1.35,-5.039 -6.55,-8.097 -11.61,-6.808 -5.06,1.308 -8.1,6.5 -6.79,11.59 1.31,5.078 6.5,8.14 11.6,6.828 5.1,-1.309 8.15,-6.5 6.8,-11.61 z"
             style="fill:none;stroke:#231f20;stroke-width:2.813;stroke-linecap:butt;stroke-linejoin:miter;stroke-miterlimit:4;stroke-dasharray:none;stroke-opacity:1"
             id="path98" />
          <path
             d="m 1181.33,908.262 c 11.29,-3.614 22.76,-6.942 33.61,-11.774"
             style="fill:none;stroke:#231f20;stroke-width:11.25;stroke-linecap:butt;stroke-linejoin:miter;stroke-miterlimit:4;stroke-dasharray:none;stroke-opacity:1"
             id="path100" />
          <path
             d="m 1242.26,882.262 c -2.98,-4.321 -8.7,-5.801 -12.74,-3.274 -3.89,2.762 -6.04,7.891 -3.71,12.703 2.23,4.637 8.28,7.118 13.06,3.868 4.87,-3.008 6.38,-8.969 3.39,-13.297"
             style="fill:#363639;fill-opacity:1;fill-rule:nonzero;stroke:none"
             id="path102" />
          <path
             d="m 1242.26,882.262 c -2.98,-4.321 -8.7,-5.801 -12.74,-3.274 -3.89,2.762 -6.04,7.891 -3.71,12.703 2.23,4.637 8.28,7.118 13.06,3.868 4.87,-3.008 6.38,-8.969 3.39,-13.297 z"
             style="fill:none;stroke:#231f20;stroke-width:2.813;stroke-linecap:butt;stroke-linejoin:miter;stroke-miterlimit:4;stroke-dasharray:none;stroke-opacity:1"
             id="path104" />
          <path
             d="m 1256.04,871.039 c 9.46,-7.527 13.93,-19.109 20.94,-28.629"
             style="fill:none;stroke:#231f20;stroke-width:11.25;stroke-linecap:butt;stroke-linejoin:miter;stroke-miterlimit:4;stroke-dasharray:none;stroke-opacity:1"
             id="path106" />
          <path
             d="m 1291.23,815.059 c -4.81,-2.129 -10.46,-0.149 -12.62,4.402 -2.16,4.559 -0.15,10.277 4.47,12.769 4.63,2.5 10.27,0.54 12.62,-4.39 2.33,-4.918 0.33,-10.649 -4.47,-12.781"
             style="fill:#363639;fill-opacity:1;fill-rule:nonzero;stroke:none"
             id="path108" />
          <path
             d="m 1291.23,815.059 c -4.81,-2.129 -10.46,-0.149 -12.62,4.402 -2.16,4.559 -0.15,10.277 4.47,12.769 4.63,2.5 10.27,0.54 12.62,-4.39 2.33,-4.918 0.33,-10.649 -4.47,-12.781 z"
             style="fill:none;stroke:#231f20;stroke-width:2.813;stroke-linecap:butt;stroke-linejoin:miter;stroke-miterlimit:4;stroke-dasharray:none;stroke-opacity:1"
             id="path110" />
          <path
             d="m 1298.29,798.648 13.56,-32.949"
             style="fill:none;stroke:#231f20;stroke-width:11.25;stroke-linecap:butt;stroke-linejoin:miter;stroke-miterlimit:4;stroke-dasharray:none;stroke-opacity:1"
             id="path112" />
          <path
             d="m 1325.22,737.871 c -4.71,-2.34 -10.41,-0.41 -12.73,4.289 -2.34,4.711 -0.41,10.399 4.3,12.738 4.71,2.321 10.42,0.411 12.75,-4.296 2.32,-4.711 0.39,-10.411 -4.32,-12.731"
             style="fill:#363639;fill-opacity:1;fill-rule:nonzero;stroke:none"
             id="path114" />
          <path
             d="m 1325.22,737.871 c -4.71,-2.34 -10.41,-0.41 -12.73,4.289 -2.34,4.711 -0.41,10.399 4.3,12.738 4.71,2.321 10.42,0.411 12.75,-4.296 2.32,-4.711 0.39,-10.411 -4.32,-12.731 z"
             style="fill:none;stroke:#231f20;stroke-width:2.813;stroke-linecap:butt;stroke-linejoin:miter;stroke-miterlimit:4;stroke-dasharray:none;stroke-opacity:1"
             id="path116" />
          <path
             d="m 1333.15,721.828 15.79,-31.937"
             style="fill:none;stroke:#231f20;stroke-width:11.25;stroke-linecap:butt;stroke-linejoin:miter;stroke-miterlimit:4;stroke-dasharray:none;stroke-opacity:1"
             id="path118" />
          <path
             d="m 1362.63,662.199 c -4.71,-2.32 -10.41,-0.398 -12.73,4.301 -2.33,4.711 -0.39,10.41 4.31,12.738 4.71,2.332 10.41,0.403 12.74,-4.297 2.33,-4.703 0.39,-10.402 -4.32,-12.742"
             style="fill:#363639;fill-opacity:1;fill-rule:nonzero;stroke:none"
             id="path120" />
          <path
             d="m 1362.63,662.199 c -4.71,-2.32 -10.41,-0.398 -12.73,4.301 -2.33,4.711 -0.39,10.41 4.31,12.738 4.71,2.332 10.41,0.403 12.74,-4.297 2.33,-4.703 0.39,-10.402 -4.32,-12.742 z"
             style="fill:none;stroke:#231f20;stroke-width:2.813;stroke-linecap:butt;stroke-linejoin:miter;stroke-miterlimit:4;stroke-dasharray:none;stroke-opacity:1"
             id="path122" />
          <path
             d="m 1376.15,628.039 12.77,-37.969"
             style="fill:none;stroke:#231f20;stroke-width:11.25;stroke-linecap:butt;stroke-linejoin:miter;stroke-miterlimit:4;stroke-dasharray:none;stroke-opacity:1"
             id="path124" />
          <path
             d="m 1401.68,557.789 c -4.76,-2.18 -10.7,0.59 -13.07,6.211 -2.18,5.621 0.06,11.691 4.96,13.551 4.91,1.859 10.59,-0.992 12.67,-6.379 2.21,-5.25 0.23,-11.184 -4.56,-13.383"
             style="fill:#363639;fill-opacity:1;fill-rule:nonzero;stroke:none"
             id="path126" />
          <path
             d="m 1401.68,557.789 c -4.76,-2.18 -10.7,0.59 -13.07,6.211 -2.18,5.621 0.06,11.691 4.96,13.551 4.91,1.859 10.59,-0.992 12.67,-6.379 2.21,-5.25 0.23,-11.184 -4.56,-13.383 z"
             style="fill:none;stroke:#231f20;stroke-width:2.813;stroke-linecap:butt;stroke-linejoin:miter;stroke-miterlimit:4;stroke-dasharray:none;stroke-opacity:1"
             id="path128" />
          <path
             d="m 1410.73,539.859 c 7.79,-10.808 15.2,-21.988 24.4,-31.718"
             style="fill:none;stroke:#231f20;stroke-width:11.25;stroke-linecap:butt;stroke-linejoin:miter;stroke-miterlimit:4;stroke-dasharray:none;stroke-opacity:1"
             id="path130" />
          <path
             d="m 1459.12,483.078 c -3.58,-3.848 -10.07,-3.539 -14.48,0.684 -4.55,4.097 -4.55,10.797 -0.69,14.347 3.87,3.571 9.94,2.852 14.19,-0.949 4.12,-3.922 4.55,-10.23 0.98,-14.082"
             style="fill:#363639;fill-opacity:1;fill-rule:nonzero;stroke:none"
             id="path132" />
          <path
             d="m 1459.12,483.078 c -3.58,-3.848 -10.07,-3.539 -14.48,0.684 -4.55,4.097 -4.55,10.797 -0.69,14.347 3.87,3.571 9.94,2.852 14.19,-0.949 4.12,-3.922 4.55,-10.23 0.98,-14.082 z"
             style="fill:none;stroke:#231f20;stroke-width:2.813;stroke-linecap:butt;stroke-linejoin:miter;stroke-miterlimit:4;stroke-dasharray:none;stroke-opacity:1"
             id="path134" />
          <path
             d="m 1474.12,469.738 c 10.43,-8.328 21.76,-15.508 31.94,-24.129"
             style="fill:none;stroke:#231f20;stroke-width:11.25;stroke-linecap:butt;stroke-linejoin:miter;stroke-miterlimit:4;stroke-dasharray:none;stroke-opacity:1"
             id="path136" />
          <path
             d="m 1528.6,419.301 c -3.6,-3.992 -10.66,-3.051 -14.64,2.23 -3.68,5.047 -2.89,10.938 1.16,14.309 4.05,3.34 10.72,1.691 13.99,-2.801 3.13,-4.148 2.92,-9.91 -0.51,-13.738"
             style="fill:#363639;fill-opacity:1;fill-rule:nonzero;stroke:none"
             id="path138" />
          <path
             d="m 1528.6,419.301 c -3.6,-3.992 -10.66,-3.051 -14.64,2.23 -3.68,5.047 -2.89,10.938 1.16,14.309 4.05,3.34 10.72,1.691 13.99,-2.801 3.13,-4.148 2.92,-9.91 -0.51,-13.738 z"
             style="fill:none;stroke:#231f20;stroke-width:2.813;stroke-linecap:butt;stroke-linejoin:miter;stroke-miterlimit:4;stroke-dasharray:none;stroke-opacity:1"
             id="path140" />
          <path
             d="m 1545.37,408.609 c 13.23,-4.148 26.22,3.219 38.23,8.071"
             style="fill:none;stroke:#231f20;stroke-width:11.25;stroke-linecap:butt;stroke-linejoin:miter;stroke-miterlimit:4;stroke-dasharray:none;stroke-opacity:1"
             id="path142" />
          <path
             d="m 1617.02,425.309 c -0.08,-5.258 -4.02,-10.008 -8.82,-10.411 -4.93,-1.359 -10.37,1.59 -12.12,6.551 -1.76,4.942 2.01,10.449 8.5,12.129 6.92,0.781 12.5,-3.027 12.44,-8.269"
             style="fill:#363639;fill-opacity:1;fill-rule:nonzero;stroke:none"
             id="path144" />
          <path
             d="m 1617.02,425.309 c -0.08,-5.258 -4.02,-10.008 -8.82,-10.411 -4.93,-1.359 -10.37,1.59 -12.12,6.551 -1.76,4.942 2.01,10.449 8.5,12.129 6.92,0.781 12.5,-3.027 12.44,-8.269 z"
             style="fill:none;stroke:#231f20;stroke-width:2.813;stroke-linecap:butt;stroke-linejoin:miter;stroke-miterlimit:4;stroke-dasharray:none;stroke-opacity:1"
             id="path146" />
          <path
             d="m 788.238,2549.53 c -4.117,-1.48 -8.57,0.61 -9.933,4.69 -1.367,4.08 0.836,8.67 4.918,10.24 4.086,1.58 8.539,-0.53 9.941,-4.7 1.399,-4.16 -0.809,-8.75 -4.926,-10.23"
             style="fill:#363639;fill-opacity:1;fill-rule:nonzero;stroke:none"
             id="path148" />
          <path
             d="m 788.238,2549.53 c -4.117,-1.48 -8.57,0.61 -9.933,4.69 -1.367,4.08 0.836,8.67 4.918,10.24 4.086,1.58 8.539,-0.53 9.941,-4.7 1.399,-4.16 -0.809,-8.75 -4.926,-10.23 z"
             style="fill:none;stroke:#231f20;stroke-width:2.344;stroke-linecap:butt;stroke-linejoin:miter;stroke-miterlimit:4;stroke-dasharray:none;stroke-opacity:1"
             id="path150" />
          <path
             d="m 799.309,2516.54 c -4.176,-1.31 -8.672,0.94 -10.039,5 -1.375,4.08 0.882,8.54 5.027,9.94 4.141,1.41 8.644,-0.84 10.043,-5.02 1.398,-4.16 -0.86,-8.6 -5.031,-9.92"
             style="fill:#363639;fill-opacity:1;fill-rule:nonzero;stroke:none"
             id="path152" />
          <path
             d="m 799.309,2516.54 c -4.176,-1.31 -8.672,0.94 -10.039,5 -1.375,4.08 0.882,8.54 5.027,9.94 4.141,1.41 8.644,-0.84 10.043,-5.02 1.398,-4.16 -0.86,-8.6 -5.031,-9.92 z"
             style="fill:none;stroke:#231f20;stroke-width:2.344;stroke-linecap:butt;stroke-linejoin:miter;stroke-miterlimit:4;stroke-dasharray:none;stroke-opacity:1"
             id="path154" />
          <path
             d="m 809.348,2483.26 c -4.219,-1.15 -8.496,1.3 -9.543,5.47 -0.977,4.21 1.429,8.56 5.562,9.77 4.266,1.25 8.696,-1.17 9.696,-5.45 1.066,-4.25 -1.493,-8.64 -5.715,-9.79"
             style="fill:#363639;fill-opacity:1;fill-rule:nonzero;stroke:none"
             id="path156" />
          <path
             d="m 809.348,2483.26 c -4.219,-1.15 -8.496,1.3 -9.543,5.47 -0.977,4.21 1.429,8.56 5.562,9.77 4.266,1.25 8.696,-1.17 9.696,-5.45 1.066,-4.25 -1.493,-8.64 -5.715,-9.79 z"
             style="fill:none;stroke:#231f20;stroke-width:2.344;stroke-linecap:butt;stroke-linejoin:miter;stroke-miterlimit:4;stroke-dasharray:none;stroke-opacity:1"
             id="path158" />
          <path
             d="m 817.809,2449.51 c -4.258,-1.01 -8.567,1.56 -9.61,5.73 -1.051,4.19 1.539,8.47 5.778,9.55 4.242,1.09 8.546,-1.48 9.617,-5.74 1.066,-4.25 -1.528,-8.52 -5.785,-9.54"
             style="fill:#363639;fill-opacity:1;fill-rule:nonzero;stroke:none"
             id="path160" />
          <path
             d="m 817.809,2449.51 c -4.258,-1.01 -8.567,1.56 -9.61,5.73 -1.051,4.19 1.539,8.47 5.778,9.55 4.242,1.09 8.546,-1.48 9.617,-5.74 1.066,-4.25 -1.528,-8.52 -5.785,-9.54 z"
             style="fill:none;stroke:#231f20;stroke-width:2.344;stroke-linecap:butt;stroke-linejoin:miter;stroke-miterlimit:4;stroke-dasharray:none;stroke-opacity:1"
             id="path162" />
          <path
             d="m 825.578,2415.61 c -4.285,-0.89 -8.43,1.83 -9.25,6.07 -0.758,4.27 1.871,8.43 6.113,9.36 4.301,0.96 8.629,-1.73 9.391,-6.04 0.836,-4.29 -1.969,-8.49 -6.254,-9.39"
             style="fill:#363639;fill-opacity:1;fill-rule:nonzero;stroke:none"
             id="path164" />
          <path
             d="m 825.578,2415.61 c -4.285,-0.89 -8.43,1.83 -9.25,6.07 -0.758,4.27 1.871,8.43 6.113,9.36 4.301,0.96 8.629,-1.73 9.391,-6.04 0.836,-4.29 -1.969,-8.49 -6.254,-9.39 z"
             style="fill:none;stroke:#231f20;stroke-width:2.344;stroke-linecap:butt;stroke-linejoin:miter;stroke-miterlimit:4;stroke-dasharray:none;stroke-opacity:1"
             id="path166" />
          <path
             d="m 832.203,2381.45 c -4.301,-0.81 -8.461,1.98 -9.281,6.22 -0.828,4.25 1.992,8.39 6.281,9.26 4.293,0.85 8.449,-1.94 9.285,-6.23 0.828,-4.29 -1.988,-8.43 -6.285,-9.25"
             style="fill:#363639;fill-opacity:1;fill-rule:nonzero;stroke:none"
             id="path168" />
          <path
             d="m 832.203,2381.45 c -4.301,-0.81 -8.461,1.98 -9.281,6.22 -0.828,4.25 1.992,8.39 6.281,9.26 4.293,0.85 8.449,-1.94 9.285,-6.23 0.828,-4.29 -1.988,-8.43 -6.285,-9.25 z"
             style="fill:none;stroke:#231f20;stroke-width:2.344;stroke-linecap:butt;stroke-linejoin:miter;stroke-miterlimit:4;stroke-dasharray:none;stroke-opacity:1"
             id="path170" />
          <path
             d="m 838.566,2347.25 c -4.312,-0.75 -8.398,2.11 -9.121,6.39 -0.683,4.3 2.039,8.34 6.379,9.13 4.274,0.77 8.555,-2.08 9.239,-6.38 0.722,-4.28 -2.188,-8.38 -6.497,-9.14"
             style="fill:#363639;fill-opacity:1;fill-rule:nonzero;stroke:none"
             id="path172" />
          <path
             d="m 838.566,2347.25 c -4.312,-0.75 -8.398,2.11 -9.121,6.39 -0.683,4.3 2.039,8.34 6.379,9.13 4.274,0.77 8.555,-2.08 9.239,-6.38 0.722,-4.28 -2.188,-8.38 -6.497,-9.14 z"
             style="fill:none;stroke:#231f20;stroke-width:2.344;stroke-linecap:butt;stroke-linejoin:miter;stroke-miterlimit:4;stroke-dasharray:none;stroke-opacity:1"
             id="path174" />
          <path
             d="m 844.359,2312.95 c -4.308,-0.73 -8.402,2.14 -9.125,6.42 -0.722,4.29 2.188,8.37 6.504,9.11 4.313,0.75 8.399,-2.13 9.125,-6.43 0.723,-4.28 -2.187,-8.37 -6.504,-9.1"
             style="fill:#363639;fill-opacity:1;fill-rule:nonzero;stroke:none"
             id="path176" />
          <path
             d="m 844.359,2312.95 c -4.308,-0.73 -8.402,2.14 -9.125,6.42 -0.722,4.29 2.188,8.37 6.504,9.11 4.313,0.75 8.399,-2.13 9.125,-6.43 0.723,-4.28 -2.187,-8.37 -6.504,-9.1 z"
             style="fill:none;stroke:#231f20;stroke-width:2.344;stroke-linecap:butt;stroke-linejoin:miter;stroke-miterlimit:4;stroke-dasharray:none;stroke-opacity:1"
             id="path178" />
          <path
             d="m 850.102,2278.63 c -4.329,-0.67 -8.329,2.18 -9.075,6.47 -0.722,4.29 2.192,8.35 6.504,9.08 4.317,0.72 8.407,-2.17 9.137,-6.47 0.746,-4.27 -2.25,-8.4 -6.566,-9.08"
             style="fill:#363639;fill-opacity:1;fill-rule:nonzero;stroke:none"
             id="path180" />
          <path
             d="m 850.102,2278.63 c -4.329,-0.67 -8.329,2.18 -9.075,6.47 -0.722,4.29 2.192,8.35 6.504,9.08 4.317,0.72 8.407,-2.17 9.137,-6.47 0.746,-4.27 -2.25,-8.4 -6.566,-9.08 z"
             style="fill:none;stroke:#231f20;stroke-width:2.344;stroke-linecap:butt;stroke-linejoin:miter;stroke-miterlimit:4;stroke-dasharray:none;stroke-opacity:1"
             id="path182" />
          <path
             d="m 854.836,2244.17 c -4.344,-0.55 -8.313,2.49 -8.856,6.79 -0.531,4.31 2.489,8.24 6.833,8.83 4.328,0.6 8.359,-2.46 8.89,-6.79 0.555,-4.33 -2.527,-8.29 -6.867,-8.83"
             style="fill:#363639;fill-opacity:1;fill-rule:nonzero;stroke:none"
             id="path184" />
          <path
             d="m 854.836,2244.17 c -4.344,-0.55 -8.313,2.49 -8.856,6.79 -0.531,4.31 2.489,8.24 6.833,8.83 4.328,0.6 8.359,-2.46 8.89,-6.79 0.555,-4.33 -2.527,-8.29 -6.867,-8.83 z"
             style="fill:none;stroke:#231f20;stroke-width:2.344;stroke-linecap:butt;stroke-linejoin:miter;stroke-miterlimit:4;stroke-dasharray:none;stroke-opacity:1"
             id="path186" />
          <path
             d="m 859,2209.63 c -4.352,-0.51 -8.273,2.58 -8.785,6.89 -0.516,4.3 2.59,8.23 6.933,8.75 4.348,0.53 8.297,-2.57 8.821,-6.89 0.508,-4.33 -2.625,-8.25 -6.969,-8.75"
             style="fill:#363639;fill-opacity:1;fill-rule:nonzero;stroke:none"
             id="path188" />
          <path
             d="m 859,2209.63 c -4.352,-0.51 -8.273,2.58 -8.785,6.89 -0.516,4.3 2.59,8.23 6.933,8.75 4.348,0.53 8.297,-2.57 8.821,-6.89 0.508,-4.33 -2.625,-8.25 -6.969,-8.75 z"
             style="fill:none;stroke:#231f20;stroke-width:2.344;stroke-linecap:butt;stroke-linejoin:miter;stroke-miterlimit:4;stroke-dasharray:none;stroke-opacity:1"
             id="path190" />
          <path
             d="m 862.93,2175.06 c -4.344,-0.49 -8.27,2.62 -8.754,6.93 -0.485,4.32 2.656,8.23 7,8.73 4.351,0.49 8.273,-2.62 8.758,-6.95 0.488,-4.32 -2.653,-8.23 -7.004,-8.71"
             style="fill:#363639;fill-opacity:1;fill-rule:nonzero;stroke:none"
             id="path192" />
          <path
             d="m 862.93,2175.06 c -4.344,-0.49 -8.27,2.62 -8.754,6.93 -0.485,4.32 2.656,8.23 7,8.73 4.351,0.49 8.273,-2.62 8.758,-6.95 0.488,-4.32 -2.653,-8.23 -7.004,-8.71 z"
             style="fill:none;stroke:#231f20;stroke-width:2.344;stroke-linecap:butt;stroke-linejoin:miter;stroke-miterlimit:4;stroke-dasharray:none;stroke-opacity:1"
             id="path194" />
          <path
             d="m 866.734,2140.48 c -4.351,-0.48 -8.265,2.65 -8.734,6.96 -0.477,4.32 2.676,8.22 7.023,8.7 4.352,0.48 8.262,-2.66 8.739,-6.98 0.472,-4.32 -2.676,-8.21 -7.028,-8.68"
             style="fill:#363639;fill-opacity:1;fill-rule:nonzero;stroke:none"
             id="path196" />
          <path
             d="m 866.734,2140.48 c -4.351,-0.48 -8.265,2.65 -8.734,6.96 -0.477,4.32 2.676,8.22 7.023,8.7 4.352,0.48 8.262,-2.66 8.739,-6.98 0.472,-4.32 -2.676,-8.21 -7.028,-8.68 z"
             style="fill:none;stroke:#231f20;stroke-width:2.344;stroke-linecap:butt;stroke-linejoin:miter;stroke-miterlimit:4;stroke-dasharray:none;stroke-opacity:1"
             id="path198" />
          <path
             d="m 870.441,2105.88 c -4.347,-0.46 -8.253,2.67 -8.718,6.99 -0.461,4.32 2.691,8.21 7.043,8.68 4.355,0.46 8.261,-2.67 8.726,-7 0.461,-4.32 -2.695,-8.21 -7.051,-8.67"
             style="fill:#363639;fill-opacity:1;fill-rule:nonzero;stroke:none"
             id="path200" />
          <path
             d="m 870.441,2105.88 c -4.347,-0.46 -8.253,2.67 -8.718,6.99 -0.461,4.32 2.691,8.21 7.043,8.68 4.355,0.46 8.261,-2.67 8.726,-7 0.461,-4.32 -2.695,-8.21 -7.051,-8.67 z"
             style="fill:none;stroke:#231f20;stroke-width:2.344;stroke-linecap:butt;stroke-linejoin:miter;stroke-miterlimit:4;stroke-dasharray:none;stroke-opacity:1"
             id="path202" />
          <path
             d="m 874.082,2071.29 c -4.355,-0.46 -8.246,2.68 -8.707,6.99 -0.453,4.33 2.711,8.21 7.063,8.67 4.351,0.46 8.257,-2.68 8.71,-7.01 0.457,-4.33 -2.714,-8.2 -7.066,-8.65"
             style="fill:#363639;fill-opacity:1;fill-rule:nonzero;stroke:none"
             id="path204" />
          <path
             d="m 874.082,2071.29 c -4.355,-0.46 -8.246,2.68 -8.707,6.99 -0.453,4.33 2.711,8.21 7.063,8.67 4.351,0.46 8.257,-2.68 8.71,-7.01 0.457,-4.33 -2.714,-8.2 -7.066,-8.65 z"
             style="fill:none;stroke:#231f20;stroke-width:2.344;stroke-linecap:butt;stroke-linejoin:miter;stroke-miterlimit:4;stroke-dasharray:none;stroke-opacity:1"
             id="path206" />
          <path
             d="m 877.672,2036.68 c -4.356,-0.45 -8.242,2.7 -8.695,7.01 -0.45,4.33 2.718,8.2 7.074,8.66 4.351,0.45 8.25,-2.7 8.703,-7.03 0.445,-4.32 -2.731,-8.2 -7.082,-8.64"
             style="fill:#363639;fill-opacity:1;fill-rule:nonzero;stroke:none"
             id="path208" />
          <path
             d="m 877.672,2036.68 c -4.356,-0.45 -8.242,2.7 -8.695,7.01 -0.45,4.33 2.718,8.2 7.074,8.66 4.351,0.45 8.25,-2.7 8.703,-7.03 0.445,-4.32 -2.731,-8.2 -7.082,-8.64 z"
             style="fill:none;stroke:#231f20;stroke-width:2.344;stroke-linecap:butt;stroke-linejoin:miter;stroke-miterlimit:4;stroke-dasharray:none;stroke-opacity:1"
             id="path210" />
          <path
             d="m 881.223,2002.07 c -4.356,-0.45 -8.243,2.7 -8.688,7.02 -0.445,4.33 2.731,8.2 7.078,8.65 4.356,0.44 8.254,-2.7 8.7,-7.04 0.441,-4.32 -2.735,-8.19 -7.09,-8.63"
             style="fill:#363639;fill-opacity:1;fill-rule:nonzero;stroke:none"
             id="path212" />
          <path
             d="m 881.223,2002.07 c -4.356,-0.45 -8.243,2.7 -8.688,7.02 -0.445,4.33 2.731,8.2 7.078,8.65 4.356,0.44 8.254,-2.7 8.7,-7.04 0.441,-4.32 -2.735,-8.19 -7.09,-8.63 z"
             style="fill:none;stroke:#231f20;stroke-width:2.344;stroke-linecap:butt;stroke-linejoin:miter;stroke-miterlimit:4;stroke-dasharray:none;stroke-opacity:1"
             id="path214" />
          <path
             d="m 884.742,1967.45 c -4.355,-0.44 -8.242,2.71 -8.683,7.03 -0.442,4.33 2.734,8.2 7.089,8.64 4.352,0.45 8.243,-2.71 8.688,-7.04 0.441,-4.32 -2.742,-8.19 -7.094,-8.63"
             style="fill:#363639;fill-opacity:1;fill-rule:nonzero;stroke:none"
             id="path216" />
          <path
             d="m 884.742,1967.45 c -4.355,-0.44 -8.242,2.71 -8.683,7.03 -0.442,4.33 2.734,8.2 7.089,8.64 4.352,0.45 8.243,-2.71 8.688,-7.04 0.441,-4.32 -2.742,-8.19 -7.094,-8.63 z"
             style="fill:none;stroke:#231f20;stroke-width:2.344;stroke-linecap:butt;stroke-linejoin:miter;stroke-miterlimit:4;stroke-dasharray:none;stroke-opacity:1"
             id="path218" />
          <path
             d="m 888.227,1932.84 c -4.348,-0.44 -8.235,2.71 -8.676,7.03 -0.434,4.33 2.746,8.2 7.101,8.64 4.356,0.44 8.243,-2.72 8.676,-7.05 0.438,-4.32 -2.742,-8.18 -7.101,-8.62"
             style="fill:#363639;fill-opacity:1;fill-rule:nonzero;stroke:none"
             id="path220" />
          <path
             d="m 888.227,1932.84 c -4.348,-0.44 -8.235,2.71 -8.676,7.03 -0.434,4.33 2.746,8.2 7.101,8.64 4.356,0.44 8.243,-2.72 8.676,-7.05 0.438,-4.32 -2.742,-8.18 -7.101,-8.62 z"
             style="fill:none;stroke:#231f20;stroke-width:2.344;stroke-linecap:butt;stroke-linejoin:miter;stroke-miterlimit:4;stroke-dasharray:none;stroke-opacity:1"
             id="path222" />
          <path
             d="m 891.695,1898.22 c -4.351,-0.44 -8.238,2.72 -8.672,7.05 -0.433,4.32 2.75,8.19 7.106,8.62 4.355,0.44 8.242,-2.72 8.672,-7.05 0.433,-4.32 -2.75,-8.19 -7.106,-8.62"
             style="fill:#363639;fill-opacity:1;fill-rule:nonzero;stroke:none"
             id="path224" />
          <path
             d="m 891.695,1898.22 c -4.351,-0.44 -8.238,2.72 -8.672,7.05 -0.433,4.32 2.75,8.19 7.106,8.62 4.355,0.44 8.242,-2.72 8.672,-7.05 0.433,-4.32 -2.75,-8.19 -7.106,-8.62 z"
             style="fill:none;stroke:#231f20;stroke-width:2.344;stroke-linecap:butt;stroke-linejoin:miter;stroke-miterlimit:4;stroke-dasharray:none;stroke-opacity:1"
             id="path226" />
          <path
             d="m 895.141,1863.6 c -4.348,-0.44 -8.235,2.73 -8.664,7.04 -0.43,4.34 2.753,8.2 7.109,8.64 4.355,0.43 8.234,-2.73 8.672,-7.06 0.43,-4.33 -2.762,-8.19 -7.117,-8.62"
             style="fill:#363639;fill-opacity:1;fill-rule:nonzero;stroke:none"
             id="path228" />
          <path
             d="m 895.141,1863.6 c -4.348,-0.44 -8.235,2.73 -8.664,7.04 -0.43,4.34 2.753,8.2 7.109,8.64 4.355,0.43 8.234,-2.73 8.672,-7.06 0.43,-4.33 -2.762,-8.19 -7.117,-8.62 z"
             style="fill:none;stroke:#231f20;stroke-width:2.344;stroke-linecap:butt;stroke-linejoin:miter;stroke-miterlimit:4;stroke-dasharray:none;stroke-opacity:1"
             id="path230" />
          <path
             d="m 898.574,1828.97 c -4.355,-0.43 -8.238,2.74 -8.668,7.06 -0.422,4.33 2.762,8.19 7.117,8.62 4.356,0.44 8.235,-2.73 8.665,-7.06 0.429,-4.32 -2.758,-8.18 -7.114,-8.62"
             style="fill:#363639;fill-opacity:1;fill-rule:nonzero;stroke:none"
             id="path232" />
          <path
             d="m 898.574,1828.97 c -4.355,-0.43 -8.238,2.74 -8.668,7.06 -0.422,4.33 2.762,8.19 7.117,8.62 4.356,0.44 8.235,-2.73 8.665,-7.06 0.429,-4.32 -2.758,-8.18 -7.114,-8.62 z"
             style="fill:none;stroke:#231f20;stroke-width:2.344;stroke-linecap:butt;stroke-linejoin:miter;stroke-miterlimit:4;stroke-dasharray:none;stroke-opacity:1"
             id="path234" />
          <path
             d="m 901.992,1794.36 c -4.355,-0.43 -8.238,2.73 -8.66,7.05 -0.43,4.33 2.758,8.2 7.113,8.63 4.356,0.42 8.239,-2.75 8.668,-7.08 0.422,-4.32 -2.765,-8.17 -7.121,-8.6"
             style="fill:#363639;fill-opacity:1;fill-rule:nonzero;stroke:none"
             id="path236" />
          <path
             d="m 901.992,1794.36 c -4.355,-0.43 -8.238,2.73 -8.66,7.05 -0.43,4.33 2.758,8.2 7.113,8.63 4.356,0.42 8.239,-2.75 8.668,-7.08 0.422,-4.32 -2.765,-8.17 -7.121,-8.6 z"
             style="fill:none;stroke:#231f20;stroke-width:2.344;stroke-linecap:butt;stroke-linejoin:miter;stroke-miterlimit:4;stroke-dasharray:none;stroke-opacity:1"
             id="path238" />
          <path
             d="m 905.402,1759.73 c -4.355,-0.43 -8.238,2.73 -8.664,7.05 -0.425,4.33 2.766,8.2 7.121,8.63 4.356,0.43 8.235,-2.75 8.661,-7.07 0.425,-4.33 -2.762,-8.19 -7.118,-8.61"
             style="fill:#363639;fill-opacity:1;fill-rule:nonzero;stroke:none"
             id="path240" />
          <path
             d="m 905.402,1759.73 c -4.355,-0.43 -8.238,2.73 -8.664,7.05 -0.425,4.33 2.766,8.2 7.121,8.63 4.356,0.43 8.235,-2.75 8.661,-7.07 0.425,-4.33 -2.762,-8.19 -7.118,-8.61 z"
             style="fill:none;stroke:#231f20;stroke-width:2.344;stroke-linecap:butt;stroke-linejoin:miter;stroke-miterlimit:4;stroke-dasharray:none;stroke-opacity:1"
             id="path242" />
          <path
             d="m 908.793,1725.1 c -4.355,-0.43 -8.23,2.74 -8.656,7.06 -0.426,4.33 2.769,8.19 7.125,8.62 4.351,0.43 8.23,-2.74 8.656,-7.07 0.426,-4.33 -2.77,-8.18 -7.125,-8.61"
             style="fill:#363639;fill-opacity:1;fill-rule:nonzero;stroke:none"
             id="path244" />
          <path
             d="m 908.793,1725.1 c -4.355,-0.43 -8.23,2.74 -8.656,7.06 -0.426,4.33 2.769,8.19 7.125,8.62 4.351,0.43 8.23,-2.74 8.656,-7.07 0.426,-4.33 -2.77,-8.18 -7.125,-8.61 z"
             style="fill:none;stroke:#231f20;stroke-width:2.344;stroke-linecap:butt;stroke-linejoin:miter;stroke-miterlimit:4;stroke-dasharray:none;stroke-opacity:1"
             id="path246" />
          <path
             d="m 912.188,1690.47 c -4.356,-0.42 -8.239,2.74 -8.657,7.06 -0.426,4.34 2.77,8.2 7.125,8.62 4.348,0.43 8.231,-2.74 8.657,-7.07 0.417,-4.32 -2.77,-8.18 -7.125,-8.61"
             style="fill:#363639;fill-opacity:1;fill-rule:nonzero;stroke:none"
             id="path248" />
          <path
             d="m 912.188,1690.47 c -4.356,-0.42 -8.239,2.74 -8.657,7.06 -0.426,4.34 2.77,8.2 7.125,8.62 4.348,0.43 8.231,-2.74 8.657,-7.07 0.417,-4.32 -2.77,-8.18 -7.125,-8.61 z"
             style="fill:none;stroke:#231f20;stroke-width:2.344;stroke-linecap:butt;stroke-linejoin:miter;stroke-miterlimit:4;stroke-dasharray:none;stroke-opacity:1"
             id="path250" />
          <path
             d="m 915.57,1655.84 c -4.355,-0.42 -8.23,2.75 -8.656,7.07 -0.418,4.33 2.77,8.19 7.125,8.62 4.356,0.42 8.238,-2.75 8.656,-7.08 0.426,-4.32 -2.769,-8.18 -7.125,-8.61"
             style="fill:#363639;fill-opacity:1;fill-rule:nonzero;stroke:none"
             id="path252" />
          <path
             d="m 915.57,1655.84 c -4.355,-0.42 -8.23,2.75 -8.656,7.07 -0.418,4.33 2.77,8.19 7.125,8.62 4.356,0.42 8.238,-2.75 8.656,-7.08 0.426,-4.32 -2.769,-8.18 -7.125,-8.61 z"
             style="fill:none;stroke:#231f20;stroke-width:2.344;stroke-linecap:butt;stroke-linejoin:miter;stroke-miterlimit:4;stroke-dasharray:none;stroke-opacity:1"
             id="path254" />
          <path
             d="m 918.957,1621.22 c -4.355,-0.42 -8.234,2.74 -8.66,7.06 -0.418,4.33 2.769,8.19 7.125,8.62 4.355,0.42 8.238,-2.74 8.656,-7.08 0.426,-4.32 -2.765,-8.17 -7.121,-8.6"
             style="fill:#363639;fill-opacity:1;fill-rule:nonzero;stroke:none"
             id="path256" />
          <path
             d="m 918.957,1621.22 c -4.355,-0.42 -8.234,2.74 -8.66,7.06 -0.418,4.33 2.769,8.19 7.125,8.62 4.355,0.42 8.238,-2.74 8.656,-7.08 0.426,-4.32 -2.765,-8.17 -7.121,-8.6 z"
             style="fill:none;stroke:#231f20;stroke-width:2.344;stroke-linecap:butt;stroke-linejoin:miter;stroke-miterlimit:4;stroke-dasharray:none;stroke-opacity:1"
             id="path258" />
          <path
             d="m 922.34,1586.6 c -4.356,-0.43 -8.235,2.74 -8.656,7.06 -0.422,4.33 2.765,8.19 7.121,8.62 4.355,0.42 8.238,-2.75 8.66,-7.08 0.418,-4.32 -2.766,-8.18 -7.125,-8.6"
             style="fill:#363639;fill-opacity:1;fill-rule:nonzero;stroke:none"
             id="path260" />
          <path
             d="m 922.34,1586.6 c -4.356,-0.43 -8.235,2.74 -8.656,7.06 -0.422,4.33 2.765,8.19 7.121,8.62 4.355,0.42 8.238,-2.75 8.66,-7.08 0.418,-4.32 -2.766,-8.18 -7.125,-8.6 z"
             style="fill:none;stroke:#231f20;stroke-width:2.344;stroke-linecap:butt;stroke-linejoin:miter;stroke-miterlimit:4;stroke-dasharray:none;stroke-opacity:1"
             id="path262" />
          <path
             d="m 925.734,1551.97 c -4.355,-0.43 -8.238,2.74 -8.664,7.06 -0.418,4.33 2.77,8.19 7.125,8.62 4.36,0.43 8.239,-2.74 8.657,-7.07 0.429,-4.32 -2.762,-8.18 -7.118,-8.61"
             style="fill:#363639;fill-opacity:1;fill-rule:nonzero;stroke:none"
             id="path264" />
          <path
             d="m 925.734,1551.97 c -4.355,-0.43 -8.238,2.74 -8.664,7.06 -0.418,4.33 2.77,8.19 7.125,8.62 4.36,0.43 8.239,-2.74 8.657,-7.07 0.429,-4.32 -2.762,-8.18 -7.118,-8.61 z"
             style="fill:none;stroke:#231f20;stroke-width:2.344;stroke-linecap:butt;stroke-linejoin:miter;stroke-miterlimit:4;stroke-dasharray:none;stroke-opacity:1"
             id="path266" />
          <path
             d="m 929.133,1517.34 c -4.352,-0.43 -8.238,2.74 -8.66,7.06 -0.43,4.33 2.765,8.19 7.117,8.62 4.355,0.43 8.242,-2.74 8.66,-7.07 0.43,-4.32 -2.762,-8.18 -7.117,-8.61"
             style="fill:#363639;fill-opacity:1;fill-rule:nonzero;stroke:none"
             id="path268" />
          <path
             d="m 929.133,1517.34 c -4.352,-0.43 -8.238,2.74 -8.66,7.06 -0.43,4.33 2.765,8.19 7.117,8.62 4.355,0.43 8.242,-2.74 8.66,-7.07 0.43,-4.32 -2.762,-8.18 -7.117,-8.61 z"
             style="fill:none;stroke:#231f20;stroke-width:2.344;stroke-linecap:butt;stroke-linejoin:miter;stroke-miterlimit:4;stroke-dasharray:none;stroke-opacity:1"
             id="path270" />
          <path
             d="m 932.559,1482.72 c -4.344,-0.43 -8.231,2.73 -8.661,7.05 -0.437,4.33 2.754,8.2 7.11,8.63 4.355,0.43 8.23,-2.74 8.672,-7.06 0.429,-4.32 -2.766,-8.19 -7.121,-8.62"
             style="fill:#363639;fill-opacity:1;fill-rule:nonzero;stroke:none"
             id="path272" />
          <path
             d="m 932.559,1482.72 c -4.344,-0.43 -8.231,2.73 -8.661,7.05 -0.437,4.33 2.754,8.2 7.11,8.63 4.355,0.43 8.23,-2.74 8.672,-7.06 0.429,-4.32 -2.766,-8.19 -7.121,-8.62 z"
             style="fill:none;stroke:#231f20;stroke-width:2.344;stroke-linecap:butt;stroke-linejoin:miter;stroke-miterlimit:4;stroke-dasharray:none;stroke-opacity:1"
             id="path274" />
          <path
             d="m 936.047,1448.11 c -4.348,-0.45 -8.254,2.71 -8.684,7.03 -0.437,4.33 2.746,8.2 7.102,8.64 4.344,0.44 8.242,-2.72 8.672,-7.05 0.429,-4.31 -2.735,-8.18 -7.09,-8.62"
             style="fill:#363639;fill-opacity:1;fill-rule:nonzero;stroke:none"
             id="path276" />
          <path
             d="m 936.047,1448.11 c -4.348,-0.45 -8.254,2.71 -8.684,7.03 -0.437,4.33 2.746,8.2 7.102,8.64 4.344,0.44 8.242,-2.72 8.672,-7.05 0.429,-4.31 -2.735,-8.18 -7.09,-8.62 z"
             style="fill:none;stroke:#231f20;stroke-width:2.344;stroke-linecap:butt;stroke-linejoin:miter;stroke-miterlimit:4;stroke-dasharray:none;stroke-opacity:1"
             id="path278" />
          <path
             d="m 939.707,1413.51 c -4.344,-0.51 -8.269,2.62 -8.75,6.96 -0.477,4.35 2.695,8.24 7.051,8.7 4.355,0.46 8.242,-2.68 8.711,-6.98 0.48,-4.29 -2.664,-8.18 -7.012,-8.68"
             style="fill:#363639;fill-opacity:1;fill-rule:nonzero;stroke:none"
             id="path280" />
          <path
             d="m 939.707,1413.51 c -4.344,-0.51 -8.269,2.62 -8.75,6.96 -0.477,4.35 2.695,8.24 7.051,8.7 4.355,0.46 8.242,-2.68 8.711,-6.98 0.48,-4.29 -2.664,-8.18 -7.012,-8.68 z"
             style="fill:none;stroke:#231f20;stroke-width:2.344;stroke-linecap:butt;stroke-linejoin:miter;stroke-miterlimit:4;stroke-dasharray:none;stroke-opacity:1"
             id="path282" />
          <path
             d="m 952.91,1382.54 c -2.176,-3.33 -9.023,-4.29 -11.765,0.87 -3.215,4.84 -1.993,9.96 2.46,11.5 3.817,1.27 8.739,0.39 10.282,-2.07 1.054,-2.97 1.808,-6.41 -0.977,-10.3"
             style="fill:#363639;fill-opacity:1;fill-rule:nonzero;stroke:none"
             id="path284" />
          <path
             d="m 952.91,1382.54 c -2.176,-3.33 -9.023,-4.29 -11.765,0.87 -3.215,4.84 -1.993,9.96 2.46,11.5 3.817,1.27 8.739,0.39 10.282,-2.07 1.054,-2.97 1.808,-6.41 -0.977,-10.3 z"
             style="fill:none;stroke:#231f20;stroke-width:2.344;stroke-linecap:butt;stroke-linejoin:miter;stroke-miterlimit:4;stroke-dasharray:none;stroke-opacity:1"
             id="path286" />
          <path
             d="m 983.84,1367.24 c -3.32,-3.22 -6.985,-4.13 -10.031,-2.76 -3.172,1.38 -5.079,6 -3.77,10.09 1.359,4.23 6.027,6.25 10.82,4.12 4.825,-2.24 6.086,-8.61 2.981,-11.45"
             style="fill:#363639;fill-opacity:1;fill-rule:nonzero;stroke:none"
             id="path288" />
          <path
             d="m 983.84,1367.24 c -3.32,-3.22 -6.985,-4.13 -10.031,-2.76 -3.172,1.38 -5.079,6 -3.77,10.09 1.359,4.23 6.027,6.25 10.82,4.12 4.825,-2.24 6.086,-8.61 2.981,-11.45 z"
             style="fill:none;stroke:#231f20;stroke-width:2.344;stroke-linecap:butt;stroke-linejoin:miter;stroke-miterlimit:4;stroke-dasharray:none;stroke-opacity:1"
             id="path290" />
          <path
             d="m 995.109,1335.29 c -4.289,-0.21 -7.765,3.02 -8.925,6.53 -0.852,3.63 1.921,7.63 6.105,8.91 4.191,1.29 8.521,-1.62 9.571,-6.48 1.35,-4.88 -2.309,-8.75 -6.751,-8.96"
             style="fill:#363639;fill-opacity:1;fill-rule:nonzero;stroke:none"
             id="path292" />
          <path
             d="m 995.109,1335.29 c -4.289,-0.21 -7.765,3.02 -8.925,6.53 -0.852,3.63 1.921,7.63 6.105,8.91 4.191,1.29 8.521,-1.62 9.571,-6.48 1.35,-4.88 -2.309,-8.75 -6.751,-8.96 z"
             style="fill:none;stroke:#231f20;stroke-width:2.344;stroke-linecap:butt;stroke-linejoin:miter;stroke-miterlimit:4;stroke-dasharray:none;stroke-opacity:1"
             id="path294" />
          <path
             d="m 996.801,1300.81 c -3.699,-2.09 -10.18,2.44 -9.504,6.95 -0.051,4.76 3.504,8.56 7.875,8.49 4.379,-0.07 7.948,-3.33 7.938,-7.28 -0.54,-4.41 -2.01,-5.96 -6.309,-8.16"
             style="fill:#363639;fill-opacity:1;fill-rule:nonzero;stroke:none"
             id="path296" />
          <path
             d="m 996.801,1300.81 c -3.699,-2.09 -10.18,2.44 -9.504,6.95 -0.051,4.76 3.504,8.56 7.875,8.49 4.379,-0.07 7.948,-3.33 7.938,-7.28 -0.54,-4.41 -2.01,-5.96 -6.309,-8.16 z"
             style="fill:none;stroke:#231f20;stroke-width:2.344;stroke-linecap:butt;stroke-linejoin:miter;stroke-miterlimit:4;stroke-dasharray:none;stroke-opacity:1"
             id="path298" />
          <path
             d="m 1020.25,1275.98 c -2.86,-3.2 -7.82,-3.64 -11.11,-0.9 -3.28,2.75 -3.71,7.72 -0.88,11.12 2.76,3.34 7.78,3.8 11.17,0.94 3.38,-2.81 3.79,-7.84 0.82,-11.16"
             style="fill:#363639;fill-opacity:1;fill-rule:nonzero;stroke:none"
             id="path300" />
          <path
             d="m 1020.25,1275.98 c -2.86,-3.2 -7.82,-3.64 -11.11,-0.9 -3.28,2.75 -3.71,7.72 -0.88,11.12 2.76,3.34 7.78,3.8 11.17,0.94 3.38,-2.81 3.79,-7.84 0.82,-11.16 z"
             style="fill:none;stroke:#231f20;stroke-width:2.344;stroke-linecap:butt;stroke-linejoin:miter;stroke-miterlimit:4;stroke-dasharray:none;stroke-opacity:1"
             id="path302" />
          <path
             d="m 1041.2,1248.73 c -4.42,-0.73 -8.08,0.13 -9.93,2.9 -2.32,3.03 -1.41,7.76 1.99,10.52 3.4,2.77 8.54,1.85 11.44,-2.08 2.93,-4.42 0.88,-10.71 -3.5,-11.34"
             style="fill:#363639;fill-opacity:1;fill-rule:nonzero;stroke:none"
             id="path304" />
          <path
             d="m 1041.2,1248.73 c -4.42,-0.73 -8.08,0.13 -9.93,2.9 -2.32,3.03 -1.41,7.76 1.99,10.52 3.4,2.77 8.54,1.85 11.44,-2.08 2.93,-4.42 0.88,-10.71 -3.5,-11.34 z"
             style="fill:none;stroke:#231f20;stroke-width:2.344;stroke-linecap:butt;stroke-linejoin:miter;stroke-miterlimit:4;stroke-dasharray:none;stroke-opacity:1"
             id="path306" />
          <path
             d="m 1047.3,1214.5 c -4.35,-0.59 -8.28,2.43 -8.95,6.64 -0.63,4.23 2.36,8.24 6.67,8.95 4.32,0.72 8.36,-2.26 9.02,-6.64 0.69,-4.37 -2.41,-8.36 -6.74,-8.95"
             style="fill:#363639;fill-opacity:1;fill-rule:nonzero;stroke:none"
             id="path308" />
          <path
             d="m 1047.3,1214.5 c -4.35,-0.59 -8.28,2.43 -8.95,6.64 -0.63,4.23 2.36,8.24 6.67,8.95 4.32,0.72 8.36,-2.26 9.02,-6.64 0.69,-4.37 -2.41,-8.36 -6.74,-8.95 z"
             style="fill:none;stroke:#231f20;stroke-width:2.344;stroke-linecap:butt;stroke-linejoin:miter;stroke-miterlimit:4;stroke-dasharray:none;stroke-opacity:1"
             id="path310" />
          <path
             d="m 1051.6,1179.98 c -4.35,-0.51 -8.28,2.56 -8.79,6.87 -0.52,4.31 2.57,8.23 6.91,8.77 4.35,0.54 8.31,-2.55 8.83,-6.88 0.51,-4.33 -2.61,-8.25 -6.95,-8.76"
             style="fill:#363639;fill-opacity:1;fill-rule:nonzero;stroke:none"
             id="path312" />
          <path
             d="m 1051.6,1179.98 c -4.35,-0.51 -8.28,2.56 -8.79,6.87 -0.52,4.31 2.57,8.23 6.91,8.77 4.35,0.54 8.31,-2.55 8.83,-6.88 0.51,-4.33 -2.61,-8.25 -6.95,-8.76 z"
             style="fill:none;stroke:#231f20;stroke-width:2.344;stroke-linecap:butt;stroke-linejoin:miter;stroke-miterlimit:4;stroke-dasharray:none;stroke-opacity:1"
             id="path314" />
          <path
             d="m 1055.68,1145.42 c -4.35,-0.52 -8.29,2.56 -8.81,6.89 -0.52,4.33 2.61,8.25 6.95,8.76 4.35,0.51 8.27,-2.59 8.79,-6.89 0.52,-4.31 -2.59,-8.23 -6.93,-8.76"
             style="fill:#363639;fill-opacity:1;fill-rule:nonzero;stroke:none"
             id="path316" />
          <path
             d="m 1055.68,1145.42 c -4.35,-0.52 -8.29,2.56 -8.81,6.89 -0.52,4.33 2.61,8.25 6.95,8.76 4.35,0.51 8.27,-2.59 8.79,-6.89 0.52,-4.31 -2.59,-8.23 -6.93,-8.76 z"
             style="fill:none;stroke:#231f20;stroke-width:2.344;stroke-linecap:butt;stroke-linejoin:miter;stroke-miterlimit:4;stroke-dasharray:none;stroke-opacity:1"
             id="path318" />
          <path
             d="m 1060.15,1110.92 c -4.33,-0.62 -8.34,2.4 -8.94,6.73 -0.63,4.36 2.5,8.32 6.82,8.89 4.36,0.56 8.27,-2.49 8.89,-6.76 0.59,-4.26 -2.44,-8.23 -6.77,-8.86"
             style="fill:#363639;fill-opacity:1;fill-rule:nonzero;stroke:none"
             id="path320" />
          <path
             d="m 1060.15,1110.92 c -4.33,-0.62 -8.34,2.4 -8.94,6.73 -0.63,4.36 2.5,8.32 6.82,8.89 4.36,0.56 8.27,-2.49 8.89,-6.76 0.59,-4.26 -2.44,-8.23 -6.77,-8.86 z"
             style="fill:none;stroke:#231f20;stroke-width:2.344;stroke-linecap:butt;stroke-linejoin:miter;stroke-miterlimit:4;stroke-dasharray:none;stroke-opacity:1"
             id="path322" />
          <path
             d="m 1066.12,1076.67 c -4.24,-1.04 -8.64,1.79 -9.4,6.17 -0.83,4.39 2.02,8.54 6.33,9.26 4.31,0.73 8.45,-2.06 9.24,-6.22 0.71,-4.19 -1.9,-8.19 -6.17,-9.21"
             style="fill:#363639;fill-opacity:1;fill-rule:nonzero;stroke:none"
             id="path324" />
          <path
             d="m 1066.12,1076.67 c -4.24,-1.04 -8.64,1.79 -9.4,6.17 -0.83,4.39 2.02,8.54 6.33,9.26 4.31,0.73 8.45,-2.06 9.24,-6.22 0.71,-4.19 -1.9,-8.19 -6.17,-9.21 z"
             style="fill:none;stroke:#231f20;stroke-width:2.344;stroke-linecap:butt;stroke-linejoin:miter;stroke-miterlimit:4;stroke-dasharray:none;stroke-opacity:1"
             id="path326" />
          <path
             d="m 1082.89,1047.14 c -3.18,-2.98 -8.15,-2.88 -11.19,0.28 -2.95,2.92 -3.04,8.5 0.6,11.34 3.25,2.56 7.7,2.78 10.94,-0.45 2.99,-3.11 2.83,-8.15 -0.35,-11.17"
             style="fill:#363639;fill-opacity:1;fill-rule:nonzero;stroke:none"
             id="path328" />
          <path
             d="m 1082.89,1047.14 c -3.18,-2.98 -8.15,-2.88 -11.19,0.28 -2.95,2.92 -3.04,8.5 0.6,11.34 3.25,2.56 7.7,2.78 10.94,-0.45 2.99,-3.11 2.83,-8.15 -0.35,-11.17 z"
             style="fill:none;stroke:#231f20;stroke-width:2.344;stroke-linecap:butt;stroke-linejoin:miter;stroke-miterlimit:4;stroke-dasharray:none;stroke-opacity:1"
             id="path330" />
          <path
             d="m 1106.02,1021.18 c -3.34,-2.83 -8.32,-2.47 -11.11,0.77 -2.79,3.25 -2.41,8.26 0.85,11.18 3.26,2.92 8.24,2.57 11.12,-0.78 2.87,-3.35 2.49,-8.35 -0.86,-11.17"
             style="fill:#363639;fill-opacity:1;fill-rule:nonzero;stroke:none"
             id="path332" />
          <path
             d="m 1106.02,1021.18 c -3.34,-2.83 -8.32,-2.47 -11.11,0.77 -2.79,3.25 -2.41,8.26 0.85,11.18 3.26,2.92 8.24,2.57 11.12,-0.78 2.87,-3.35 2.49,-8.35 -0.86,-11.17 z"
             style="fill:none;stroke:#231f20;stroke-width:2.344;stroke-linecap:butt;stroke-linejoin:miter;stroke-miterlimit:4;stroke-dasharray:none;stroke-opacity:1"
             id="path334" />
          <path
             d="m 1127.74,994 c -3.5,-2.621 -8.48,-2.012 -11.11,1.359 -2.64,3.379 -2,8.341 1.42,11.061 3.42,2.74 8.4,2.12 11.12,-1.36 2.71,-3.47 2.08,-8.431 -1.43,-11.06"
             style="fill:#363639;fill-opacity:1;fill-rule:nonzero;stroke:none"
             id="path336" />
          <path
             d="m 1127.74,994 c -3.5,-2.621 -8.48,-2.012 -11.11,1.359 -2.64,3.379 -2,8.341 1.42,11.061 3.42,2.74 8.4,2.12 11.12,-1.36 2.71,-3.47 2.08,-8.431 -1.43,-11.06 z"
             style="fill:none;stroke:#231f20;stroke-width:2.344;stroke-linecap:butt;stroke-linejoin:miter;stroke-miterlimit:4;stroke-dasharray:none;stroke-opacity:1"
             id="path338" />
          <path
             d="m 1147.83,965.602 c -3.65,-2.411 -8.59,-1.524 -11.03,1.976 -2.44,3.531 -1.52,8.442 2.04,10.973 3.58,2.527 8.52,1.64 11.04,-1.992 2.51,-3.629 1.59,-8.539 -2.05,-10.957"
             style="fill:#363639;fill-opacity:1;fill-rule:nonzero;stroke:none"
             id="path340" />
          <path
             d="m 1147.83,965.602 c -3.65,-2.411 -8.59,-1.524 -11.03,1.976 -2.44,3.531 -1.52,8.442 2.04,10.973 3.58,2.527 8.52,1.64 11.04,-1.992 2.51,-3.629 1.59,-8.539 -2.05,-10.957 z"
             style="fill:none;stroke:#231f20;stroke-width:2.344;stroke-linecap:butt;stroke-linejoin:miter;stroke-miterlimit:4;stroke-dasharray:none;stroke-opacity:1"
             id="path342" />
          <path
             d="m 1166.18,936.059 c -3.79,-2.207 -8.66,-1.02 -10.85,2.652 -2.21,3.66 -0.99,8.519 2.72,10.848 3.7,2.32 8.58,1.132 10.85,-2.661 2.28,-3.777 1.06,-8.636 -2.72,-10.839"
             style="fill:#363639;fill-opacity:1;fill-rule:nonzero;stroke:none"
             id="path344" />
          <path
             d="m 1166.18,936.059 c -3.79,-2.207 -8.66,-1.02 -10.85,2.652 -2.21,3.66 -0.99,8.519 2.72,10.848 3.7,2.32 8.58,1.132 10.85,-2.661 2.28,-3.777 1.06,-8.636 -2.72,-10.839 z"
             style="fill:none;stroke:#231f20;stroke-width:2.344;stroke-linecap:butt;stroke-linejoin:miter;stroke-miterlimit:4;stroke-dasharray:none;stroke-opacity:1"
             id="path346" />
          <path
             d="m 1182.73,905.48 c -3.92,-1.968 -8.65,-0.46 -10.58,3.34 -1.92,3.821 -0.37,8.629 3.47,10.731 3.85,2.09 8.58,0.578 10.58,-3.36 1.99,-3.941 0.44,-8.742 -3.47,-10.711"
             style="fill:#363639;fill-opacity:1;fill-rule:nonzero;stroke:none"
             id="path348" />
          <path
             d="m 1182.73,905.48 c -3.92,-1.968 -8.65,-0.46 -10.58,3.34 -1.92,3.821 -0.37,8.629 3.47,10.731 3.85,2.09 8.58,0.578 10.58,-3.36 1.99,-3.941 0.44,-8.742 -3.47,-10.711 z"
             style="fill:none;stroke:#231f20;stroke-width:2.344;stroke-linecap:butt;stroke-linejoin:miter;stroke-miterlimit:4;stroke-dasharray:none;stroke-opacity:1"
             id="path350" />
          <path
             d="m 1197.51,874.02 c -4.02,-1.719 -8.59,0.109 -10.18,4.058 -1.48,4.024 -0.03,8.543 3.98,10.41 3.92,1.84 8.95,0.231 10.49,-3.929 1.66,-4.098 -0.26,-8.821 -4.29,-10.539"
             style="fill:#363639;fill-opacity:1;fill-rule:nonzero;stroke:none"
             id="path352" />
          <path
             d="m 1197.51,874.02 c -4.02,-1.719 -8.59,0.109 -10.18,4.058 -1.48,4.024 -0.03,8.543 3.98,10.41 3.92,1.84 8.95,0.231 10.49,-3.929 1.66,-4.098 -0.26,-8.821 -4.29,-10.539 z"
             style="fill:none;stroke:#231f20;stroke-width:2.344;stroke-linecap:butt;stroke-linejoin:miter;stroke-miterlimit:4;stroke-dasharray:none;stroke-opacity:1"
             id="path354" />
          <path
             d="m 1210.55,841.762 c -4.13,-1.453 -8.78,0.578 -10.38,4.527 -1.6,3.973 0.4,8.481 4.47,10.082 4.09,1.59 8.73,-0.449 10.39,-4.551 1.65,-4.09 -0.36,-8.601 -4.48,-10.058"
             style="fill:#363639;fill-opacity:1;fill-rule:nonzero;stroke:none"
             id="path356" />
          <path
             d="m 1210.55,841.762 c -4.13,-1.453 -8.78,0.578 -10.38,4.527 -1.6,3.973 0.4,8.481 4.47,10.082 4.09,1.59 8.73,-0.449 10.39,-4.551 1.65,-4.09 -0.36,-8.601 -4.48,-10.058 z"
             style="fill:none;stroke:#231f20;stroke-width:2.344;stroke-linecap:butt;stroke-linejoin:miter;stroke-miterlimit:4;stroke-dasharray:none;stroke-opacity:1"
             id="path358" />
          <path
             d="m 1221.62,808.781 c -4.17,-1.32 -8.67,0.918 -10.03,5 -1.37,4.098 0.9,8.547 5.05,9.949 4.14,1.391 8.64,-0.859 10.03,-5.019 1.38,-4.152 -0.88,-8.609 -5.05,-9.93"
             style="fill:#363639;fill-opacity:1;fill-rule:nonzero;stroke:none"
             id="path360" />
          <path
             d="m 1221.62,808.781 c -4.17,-1.32 -8.67,0.918 -10.03,5 -1.37,4.098 0.9,8.547 5.05,9.949 4.14,1.391 8.64,-0.859 10.03,-5.019 1.38,-4.152 -0.88,-8.609 -5.05,-9.93 z"
             style="fill:none;stroke:#231f20;stroke-width:2.344;stroke-linecap:butt;stroke-linejoin:miter;stroke-miterlimit:4;stroke-dasharray:none;stroke-opacity:1"
             id="path362" />
          <path
             d="m 1231.68,775.48 c -4.19,-1.21 -8.62,1.168 -9.85,5.301 -1.24,4.129 1.15,8.52 5.34,9.789 4.18,1.27 8.61,-1.101 9.87,-5.3 1.25,-4.192 -1.15,-8.579 -5.36,-9.79"
             style="fill:#363639;fill-opacity:1;fill-rule:nonzero;stroke:none"
             id="path364" />
          <path
             d="m 1231.68,775.48 c -4.19,-1.21 -8.62,1.168 -9.85,5.301 -1.24,4.129 1.15,8.52 5.34,9.789 4.18,1.27 8.61,-1.101 9.87,-5.3 1.25,-4.192 -1.15,-8.579 -5.36,-9.79 z"
             style="fill:none;stroke:#231f20;stroke-width:2.344;stroke-linecap:butt;stroke-linejoin:miter;stroke-miterlimit:4;stroke-dasharray:none;stroke-opacity:1"
             id="path366" />
          <path
             d="m 1240.93,741.941 c -4.23,-1.113 -8.58,1.368 -9.7,5.539 -1.14,4.168 1.36,8.5 5.58,9.661 4.22,1.179 8.58,-1.313 9.72,-5.532 1.14,-4.218 -1.36,-8.558 -5.6,-9.668"
             style="fill:#363639;fill-opacity:1;fill-rule:nonzero;stroke:none"
             id="path368" />
          <path
             d="m 1240.93,741.941 c -4.23,-1.113 -8.58,1.368 -9.7,5.539 -1.14,4.168 1.36,8.5 5.58,9.661 4.22,1.179 8.58,-1.313 9.72,-5.532 1.14,-4.218 -1.36,-8.558 -5.6,-9.668 z"
             style="fill:none;stroke:#231f20;stroke-width:2.344;stroke-linecap:butt;stroke-linejoin:miter;stroke-miterlimit:4;stroke-dasharray:none;stroke-opacity:1"
             id="path370" />
          <path
             d="m 1249.47,708.219 c -4.26,-1.039 -8.55,1.531 -9.58,5.73 -1.05,4.199 1.56,8.492 5.8,9.563 4.25,1.078 8.53,-1.5 9.59,-5.75 1.04,-4.242 -1.55,-8.524 -5.81,-9.543"
             style="fill:#363639;fill-opacity:1;fill-rule:nonzero;stroke:none"
             id="path372" />
          <path
             d="m 1249.47,708.219 c -4.26,-1.039 -8.55,1.531 -9.58,5.73 -1.05,4.199 1.56,8.492 5.8,9.563 4.25,1.078 8.53,-1.5 9.59,-5.75 1.04,-4.242 -1.55,-8.524 -5.81,-9.543 z"
             style="fill:none;stroke:#231f20;stroke-width:2.344;stroke-linecap:butt;stroke-linejoin:miter;stroke-miterlimit:4;stroke-dasharray:none;stroke-opacity:1"
             id="path374" />
          <path
             d="m 1257.38,674.328 c -4.28,-0.949 -8.52,1.703 -9.47,5.922 -0.96,4.219 1.72,8.461 5.98,9.449 4.26,0.992 8.51,-1.66 9.47,-5.929 0.97,-4.239 -1.71,-8.481 -5.98,-9.442"
             style="fill:#363639;fill-opacity:1;fill-rule:nonzero;stroke:none"
             id="path376" />
          <path
             d="m 1257.38,674.328 c -4.28,-0.949 -8.52,1.703 -9.47,5.922 -0.96,4.219 1.72,8.461 5.98,9.449 4.26,0.992 8.51,-1.66 9.47,-5.929 0.97,-4.239 -1.71,-8.481 -5.98,-9.442 z"
             style="fill:none;stroke:#231f20;stroke-width:2.344;stroke-linecap:butt;stroke-linejoin:miter;stroke-miterlimit:4;stroke-dasharray:none;stroke-opacity:1"
             id="path378" />
          <path
             d="m 1264.73,640.328 c -4.29,-0.887 -8.48,1.82 -9.37,6.063 -0.89,4.238 1.86,8.437 6.14,9.359 4.28,0.93 8.48,-1.801 9.37,-6.078 0.89,-4.262 -1.86,-8.453 -6.14,-9.344"
             style="fill:#363639;fill-opacity:1;fill-rule:nonzero;stroke:none"
             id="path380" />
          <path
             d="m 1264.73,640.328 c -4.29,-0.887 -8.48,1.82 -9.37,6.063 -0.89,4.238 1.86,8.437 6.14,9.359 4.28,0.93 8.48,-1.801 9.37,-6.078 0.89,-4.262 -1.86,-8.453 -6.14,-9.344 z"
             style="fill:none;stroke:#231f20;stroke-width:2.344;stroke-linecap:butt;stroke-linejoin:miter;stroke-miterlimit:4;stroke-dasharray:none;stroke-opacity:1"
             id="path382" />
          <path
             d="m 1271.59,606.23 c -4.3,-0.832 -8.46,1.938 -9.29,6.192 -0.83,4.258 1.98,8.406 6.28,9.258 4.29,0.859 8.45,-1.91 9.28,-6.2 0.84,-4.269 -1.98,-8.421 -6.27,-9.25"
             style="fill:#363639;fill-opacity:1;fill-rule:nonzero;stroke:none"
             id="path384" />
          <path
             d="m 1271.59,606.23 c -4.3,-0.832 -8.46,1.938 -9.29,6.192 -0.83,4.258 1.98,8.406 6.28,9.258 4.29,0.859 8.45,-1.91 9.28,-6.2 0.84,-4.269 -1.98,-8.421 -6.27,-9.25 z"
             style="fill:none;stroke:#231f20;stroke-width:2.344;stroke-linecap:butt;stroke-linejoin:miter;stroke-miterlimit:4;stroke-dasharray:none;stroke-opacity:1"
             id="path386" />
          <path
             d="m 1278,572.031 c -4.3,-0.769 -8.42,2.047 -9.21,6.309 -0.78,4.262 2.08,8.379 6.39,9.18 4.3,0.82 8.43,-2.02 9.21,-6.309 0.78,-4.293 -2.08,-8.402 -6.39,-9.18"
             style="fill:#363639;fill-opacity:1;fill-rule:nonzero;stroke:none"
             id="path388" />
          <path
             d="m 1278,572.031 c -4.3,-0.769 -8.42,2.047 -9.21,6.309 -0.78,4.262 2.08,8.379 6.39,9.18 4.3,0.82 8.43,-2.02 9.21,-6.309 0.78,-4.293 -2.08,-8.402 -6.39,-9.18 z"
             style="fill:none;stroke:#231f20;stroke-width:2.344;stroke-linecap:butt;stroke-linejoin:miter;stroke-miterlimit:4;stroke-dasharray:none;stroke-opacity:1"
             id="path390" />
          <path
             d="m 1284.05,537.77 c -4.32,-0.731 -8.42,2.14 -9.15,6.41 -0.74,4.261 2.16,8.351 6.46,9.109 4.32,0.762 8.42,-2.109 9.16,-6.418 0.74,-4.293 -2.17,-8.371 -6.47,-9.101"
             style="fill:#363639;fill-opacity:1;fill-rule:nonzero;stroke:none"
             id="path392" />
          <path
             d="m 1284.05,537.77 c -4.32,-0.731 -8.42,2.14 -9.15,6.41 -0.74,4.261 2.16,8.351 6.46,9.109 4.32,0.762 8.42,-2.109 9.16,-6.418 0.74,-4.293 -2.17,-8.371 -6.47,-9.101 z"
             style="fill:none;stroke:#231f20;stroke-width:2.344;stroke-linecap:butt;stroke-linejoin:miter;stroke-miterlimit:4;stroke-dasharray:none;stroke-opacity:1"
             id="path394" />
          <path
             d="m 1289.76,503.441 c -4.33,-0.691 -8.4,2.219 -9.1,6.5 -0.7,4.27 2.23,8.34 6.54,9.047 4.32,0.723 8.4,-2.187 9.1,-6.488 0.72,-4.301 -2.22,-8.352 -6.54,-9.059"
             style="fill:#363639;fill-opacity:1;fill-rule:nonzero;stroke:none"
             id="path396" />
          <path
             d="m 1289.76,503.441 c -4.33,-0.691 -8.4,2.219 -9.1,6.5 -0.7,4.27 2.23,8.34 6.54,9.047 4.32,0.723 8.4,-2.187 9.1,-6.488 0.72,-4.301 -2.22,-8.352 -6.54,-9.059 z"
             style="fill:none;stroke:#231f20;stroke-width:2.344;stroke-linecap:butt;stroke-linejoin:miter;stroke-miterlimit:4;stroke-dasharray:none;stroke-opacity:1"
             id="path398" />
          <path
             d="m 1295.23,469.09 c -4.33,-0.692 -8.38,2.25 -9.06,6.539 -0.68,4.293 2.27,8.332 6.59,9.019 4.33,0.692 8.39,-2.25 9.07,-6.546 0.68,-4.301 -2.28,-8.332 -6.6,-9.012"
             style="fill:#363639;fill-opacity:1;fill-rule:nonzero;stroke:none"
             id="path400" />
          <path
             d="m 1295.23,469.09 c -4.33,-0.692 -8.38,2.25 -9.06,6.539 -0.68,4.293 2.27,8.332 6.59,9.019 4.33,0.692 8.39,-2.25 9.07,-6.546 0.68,-4.301 -2.28,-8.332 -6.6,-9.012 z"
             style="fill:none;stroke:#231f20;stroke-width:2.344;stroke-linecap:butt;stroke-linejoin:miter;stroke-miterlimit:4;stroke-dasharray:none;stroke-opacity:1"
             id="path402" />
          <path
             d="m 1300.71,434.73 c -4.32,-0.73 -8.43,2.211 -9.1,6.5 -0.69,4.309 2.26,8.372 6.58,9.059 4.32,0.68 8.39,-2.238 9.07,-6.527 0.67,-4.274 -2.25,-8.301 -6.55,-9.032"
             style="fill:#363639;fill-opacity:1;fill-rule:nonzero;stroke:none"
             id="path404" />
          <path
             d="m 1300.71,434.73 c -4.32,-0.73 -8.43,2.211 -9.1,6.5 -0.69,4.309 2.26,8.372 6.58,9.059 4.32,0.68 8.39,-2.238 9.07,-6.527 0.67,-4.274 -2.25,-8.301 -6.55,-9.032 z"
             style="fill:none;stroke:#231f20;stroke-width:2.344;stroke-linecap:butt;stroke-linejoin:miter;stroke-miterlimit:4;stroke-dasharray:none;stroke-opacity:1"
             id="path406" />
          <path
             d="m 1315.1,410.629 c 4.03,-2.008 0.18,-12.629 -10.64,-8.09 -8.44,4.832 -4.29,14.16 -0.26,13.481 5.86,1.031 6.03,-1.602 7.46,0.652 -2.74,-4.332 -0.27,-0.961 3.44,-6.043"
             style="fill:#363639;fill-opacity:1;fill-rule:nonzero;stroke:none"
             id="path408" />
          <path
             d="m 1315.1,410.629 c 4.03,-2.008 0.18,-12.629 -10.64,-8.09 -8.44,4.832 -4.29,14.16 -0.26,13.481 5.86,1.031 6.03,-1.602 7.46,0.652 -2.74,-4.332 -0.27,-0.961 3.44,-6.043 z"
             style="fill:none;stroke:#231f20;stroke-width:2.344;stroke-linecap:butt;stroke-linejoin:miter;stroke-miterlimit:4;stroke-dasharray:none;stroke-opacity:1"
             id="path410" />
          <path
             d="m 1346.18,418.57 c -2.06,-3.832 -5.18,-5.769 -8.37,-5.742 -3.08,0.961 -5.6,3.293 -6.88,7.742 -1.29,4.02 3.15,9.282 8.69,8.008 5.7,-0.308 8.66,-6.066 6.56,-10.008"
             style="fill:#363639;fill-opacity:1;fill-rule:nonzero;stroke:none"
             id="path412" />
          <path
             d="m 1346.18,418.57 c -2.06,-3.832 -5.18,-5.769 -8.37,-5.742 -3.08,0.961 -5.6,3.293 -6.88,7.742 -1.29,4.02 3.15,9.282 8.69,8.008 5.7,-0.308 8.66,-6.066 6.56,-10.008 z"
             style="fill:none;stroke:#231f20;stroke-width:2.344;stroke-linecap:butt;stroke-linejoin:miter;stroke-miterlimit:4;stroke-dasharray:none;stroke-opacity:1"
             id="path414" />
          <path
             d="m 1361.68,389.43 c -4.27,-0.489 -8.33,2.359 -9.08,6.101 -0.45,3.981 1.43,7.348 5.6,9.199 3.85,1.782 9.32,-1.171 9.92,-5.902 0.95,-4.777 -2.01,-8.887 -6.44,-9.398"
             style="fill:#363639;fill-opacity:1;fill-rule:nonzero;stroke:none"
             id="path416" />
          <path
             d="m 1361.68,389.43 c -4.27,-0.489 -8.33,2.359 -9.08,6.101 -0.45,3.981 1.43,7.348 5.6,9.199 3.85,1.782 9.32,-1.171 9.92,-5.902 0.95,-4.777 -2.01,-8.887 -6.44,-9.398 z"
             style="fill:none;stroke:#231f20;stroke-width:2.344;stroke-linecap:butt;stroke-linejoin:miter;stroke-miterlimit:4;stroke-dasharray:none;stroke-opacity:1"
             id="path418" />
          <path
             d="m 1371.86,357.711 c -2.27,-3.711 -9.19,-5.02 -12.32,1.789 -2.94,5.84 0.7,10.148 4.66,11.07 4.42,1.11 8.27,-2.05 9.44,-3.832 0.19,-1.859 0.45,-5.359 -1.78,-9.027"
             style="fill:#363639;fill-opacity:1;fill-rule:nonzero;stroke:none"
             id="path420" />
          <path
             d="m 1371.86,357.711 c -2.27,-3.711 -9.19,-5.02 -12.32,1.789 -2.94,5.84 0.7,10.148 4.66,11.07 4.42,1.11 8.27,-2.05 9.44,-3.832 0.19,-1.859 0.45,-5.359 -1.78,-9.027 z"
             style="fill:none;stroke:#231f20;stroke-width:2.344;stroke-linecap:butt;stroke-linejoin:miter;stroke-miterlimit:4;stroke-dasharray:none;stroke-opacity:1"
             id="path422" />
          <path
             d="m 1405.57,351.52 c -1.19,-3.79 -4.72,-6.731 -8.58,-6.629 -3.59,0.289 -7,4.14 -6.96,8.488 0.06,4.402 3.7,7.691 8.77,7.262 4.92,-0.211 8.19,-4.551 6.77,-9.121"
             style="fill:#363639;fill-opacity:1;fill-rule:nonzero;stroke:none"
             id="path424" />
          <path
             d="m 1405.57,351.52 c -1.19,-3.79 -4.72,-6.731 -8.58,-6.629 -3.59,0.289 -7,4.14 -6.96,8.488 0.06,4.402 3.7,7.691 8.77,7.262 4.92,-0.211 8.19,-4.551 6.77,-9.121 z"
             style="fill:none;stroke:#231f20;stroke-width:2.344;stroke-linecap:butt;stroke-linejoin:miter;stroke-miterlimit:4;stroke-dasharray:none;stroke-opacity:1"
             id="path426" />
          <path
             d="m 1425.14,324.941 c -4.24,-1.113 -8.61,1.079 -9.74,4.879 -1.49,3.328 0.5,7.782 4.33,9.891 3.84,2.109 8.63,0.078 10.61,-4.582 1.38,-4.508 -0.97,-9.09 -5.2,-10.188"
             style="fill:#363639;fill-opacity:1;fill-rule:nonzero;stroke:none"
             id="path428" />
          <path
             d="m 1425.14,324.941 c -4.24,-1.113 -8.61,1.079 -9.74,4.879 -1.49,3.328 0.5,7.782 4.33,9.891 3.84,2.109 8.63,0.078 10.61,-4.582 1.38,-4.508 -0.97,-9.09 -5.2,-10.188 z"
             style="fill:none;stroke:#231f20;stroke-width:2.344;stroke-linecap:butt;stroke-linejoin:miter;stroke-miterlimit:4;stroke-dasharray:none;stroke-opacity:1"
             id="path430" />
          <path
             d="m 1431.11,290.711 c -4.36,-0.359 -8.21,2.648 -8.75,6.809 -0.55,4.16 2.44,8.089 6.73,8.8 4.34,0.739 8.41,-2.308 8.99,-6.781 0.59,-4.469 -2.61,-8.469 -6.97,-8.828"
             style="fill:#363639;fill-opacity:1;fill-rule:nonzero;stroke:none"
             id="path432" />
          <path
             d="m 1431.11,290.711 c -4.36,-0.359 -8.21,2.648 -8.75,6.809 -0.55,4.16 2.44,8.089 6.73,8.8 4.34,0.739 8.41,-2.308 8.99,-6.781 0.59,-4.469 -2.61,-8.469 -6.97,-8.828 z"
             style="fill:none;stroke:#231f20;stroke-width:2.344;stroke-linecap:butt;stroke-linejoin:miter;stroke-miterlimit:4;stroke-dasharray:none;stroke-opacity:1"
             id="path434" />
          <path
             d="m 1624.19,398.781 c -28.79,42 -61.19,0 -84.86,12.188 -23.67,12.191 -60.31,23.812 -81.91,45.41 -21.6,21.601 -128.37,166.812 -167.94,206.383 -39.57,39.566 -116.43,78.578 -159.58,95.988 -27.91,17.398 -105.62,128.398 -119.99,142.781 -14.379,14.367 -71.414,39.008 -87.594,55.188 -16.183,16.191 -32.414,104.411 -45.597,117.591 -13.184,13.19 -27.184,14.4 -41.992,35.97 -14.809,21.57 -35.411,95.44 -57.594,117.62 -22.18,22.17 -132.61,69.01 -157.18,93.58 -24.57,24.57 -79.816,191.4 -113.992,225.58 -17.977,17.97 -21.016,1.82 -31.195,12 -10.18,10.18 -58.836,251.96 -82.789,261.57 -23.95,9.6 -33.598,178.78 -33.598,178.78"
             style="fill:none;stroke:#231f20;stroke-width:7.5;stroke-linecap:butt;stroke-linejoin:miter;stroke-miterlimit:4;stroke-dasharray:56.693, 56.693;stroke-dashoffset:0;stroke-opacity:1"
             id="path436" />
          <path
             d="m 353.008,1956.45 c 0,0 16.347,-73.87 16.347,-98.59 0,-24.73 -7.339,-41.02 0,-54.45 2.524,-4.61 36.372,2.73 46.875,-34.39 21.809,-77.05 66.184,-188.47 74.958,-188.47 13.367,0 8.914,29.73 22.285,29.73 13.367,0 112.918,-234.43 172.347,-252.42 59.43,-18.01 66.856,10.22 83.2,10.22 16.343,0 17.828,-10.22 26.742,-10.22 8.918,0 13.371,19.14 20.801,19.14 7.433,0 36.406,-31.96 43.089,-38.64 6.688,-6.68 26.004,-17.08 38.629,-29.7 12.629,-12.63 32.59,-51.65 46.055,-60.92 16.348,-11.25 26.738,7.42 43.086,7.42 16.348,0 64.718,-70.55 119.398,-118.85 39.52,-34.91 59.66,-31.96 79.71,-52.01 20.05,-20.05 29.71,-35.66 71.31,-112.921 41.6,-77.25 134.59,-413.66 221.37,-494.75 65.38,-41.609 98.07,-41.609 98.07,-41.609"
             style="fill:none;stroke:#231f20;stroke-width:7.5;stroke-linecap:butt;stroke-linejoin:miter;stroke-miterlimit:4;stroke-dasharray:14.173, 14.173;stroke-dashoffset:0;stroke-opacity:1"
             id="path438" />
          <g
             id="g440"
             transform="scale(10)">
            <text
               xml:space="preserve"
               transform="matrix(1,0,-3e-8,-1,97.3398,176.443)"
               style="font-style:oblique;font-variant:normal;font-size:6px;font-family:Helvetica;-inkscape-font-specification:Helvetica-Oblique;writing-mode:lr-tb;fill:#231f20;fill-opacity:1;fill-rule:nonzero;stroke:none"
               id="text452"><tspan
                 x="0 1.9981252 3.6662502 7.1703753 8.838501 12.174625 13.842751 17.178877"
                 y="0"
                 sodipodi:role="line"
                 id="tspan442">( &lt; 0.1)</tspan><tspan
                 x="-26.408199 -23.072147 -21.404097"
                 y="-0.77031302"
                 sodipodi:role="line"
                 id="tspan444">0.3</tspan><tspan
                 x="-37.944901 -34.608849 -32.940796"
                 y="24.335888"
                 sodipodi:role="line"
                 id="tspan446">1.3</tspan><tspan
                 x="-35.290211 -31.954159 -30.286106"
                 y="56.635887"
                 sodipodi:role="line"
                 id="tspan448">0.6</tspan><tspan
                 x="-30.99255 -27.656498 -25.988445"
                 y="69.910889"
                 sodipodi:role="line"
                 id="tspan450">3.0</tspan></text>
          </g>
          <path
             d="M 233.027,2726.79 V 241.34 H 1868.96"
             style="fill:none;stroke:#231f20;stroke-width:5;stroke-linecap:butt;stroke-linejoin:miter;stroke-miterlimit:4;stroke-dasharray:none;stroke-opacity:1"
             id="path454" />
          <path
             d="M 233.027,2484.07 H 211.77"
             style="fill:none;stroke:#231f20;stroke-width:5;stroke-linecap:butt;stroke-linejoin:miter;stroke-miterlimit:4;stroke-dasharray:none;stroke-opacity:1"
             id="path456" />
          <path
             d="M 233.027,2357.86 H 211.77"
             style="fill:none;stroke:#231f20;stroke-width:5;stroke-linecap:butt;stroke-linejoin:miter;stroke-miterlimit:4;stroke-dasharray:none;stroke-opacity:1"
             id="path458" />
          <path
             d="M 233.027,2231.64 H 211.77"
             style="fill:none;stroke:#231f20;stroke-width:5;stroke-linecap:butt;stroke-linejoin:miter;stroke-miterlimit:4;stroke-dasharray:none;stroke-opacity:1"
             id="path460" />
          <path
             d="M 233.027,2100.57 H 190.508"
             style="fill:none;stroke:#231f20;stroke-width:5;stroke-linecap:butt;stroke-linejoin:miter;stroke-miterlimit:4;stroke-dasharray:none;stroke-opacity:1"
             id="path462" />
          <path
             d="M 232.484,1984.07 H 211.77"
             style="fill:none;stroke:#231f20;stroke-width:5;stroke-linecap:butt;stroke-linejoin:miter;stroke-miterlimit:4;stroke-dasharray:none;stroke-opacity:1"
             id="path464" />
          <path
             d="M 232.484,1857.86 H 211.77"
             style="fill:none;stroke:#231f20;stroke-width:5;stroke-linecap:butt;stroke-linejoin:miter;stroke-miterlimit:4;stroke-dasharray:none;stroke-opacity:1"
             id="path466" />
          <path
             d="M 232.484,1736.49 H 211.77"
             style="fill:none;stroke:#231f20;stroke-width:5;stroke-linecap:butt;stroke-linejoin:miter;stroke-miterlimit:4;stroke-dasharray:none;stroke-opacity:1"
             id="path468" />
          <path
             d="M 235.383,1610.28 H 211.77"
             style="fill:none;stroke:#231f20;stroke-width:5;stroke-linecap:butt;stroke-linejoin:miter;stroke-miterlimit:4;stroke-dasharray:none;stroke-opacity:1"
             id="path470" />
          <path
             d="m 233.027,1484.07 -42.519,0.12"
             style="fill:none;stroke:#231f20;stroke-width:5;stroke-linecap:butt;stroke-linejoin:miter;stroke-miterlimit:4;stroke-dasharray:none;stroke-opacity:1"
             id="path472" />
          <path
             d="M 233.027,1357.97 H 211.77"
             style="fill:none;stroke:#231f20;stroke-width:5;stroke-linecap:butt;stroke-linejoin:miter;stroke-miterlimit:4;stroke-dasharray:none;stroke-opacity:1"
             id="path474" />
          <path
             d="M 233.027,1236.49 H 211.77"
             style="fill:none;stroke:#231f20;stroke-width:5;stroke-linecap:butt;stroke-linejoin:miter;stroke-miterlimit:4;stroke-dasharray:none;stroke-opacity:1"
             id="path476" />
          <path
             d="M 233.027,1110.28 H 211.77"
             style="fill:none;stroke:#231f20;stroke-width:5;stroke-linecap:butt;stroke-linejoin:miter;stroke-miterlimit:4;stroke-dasharray:none;stroke-opacity:1"
             id="path478" />
          <path
             d="M 233.027,984.07 H 211.77"
             style="fill:none;stroke:#231f20;stroke-width:5;stroke-linecap:butt;stroke-linejoin:miter;stroke-miterlimit:4;stroke-dasharray:none;stroke-opacity:1"
             id="path480" />
          <path
             d="m 233.027,867.559 -42.519,0.132"
             style="fill:none;stroke:#231f20;stroke-width:5;stroke-linecap:butt;stroke-linejoin:miter;stroke-miterlimit:4;stroke-dasharray:none;stroke-opacity:1"
             id="path482" />
          <path
             d="m 232.805,741.34 -21.035,0.14"
             style="fill:none;stroke:#231f20;stroke-width:5;stroke-linecap:butt;stroke-linejoin:miter;stroke-miterlimit:4;stroke-dasharray:none;stroke-opacity:1"
             id="path484" />
          <path
             d="m 232.805,615.129 -21.035,0.133"
             style="fill:none;stroke:#231f20;stroke-width:5;stroke-linecap:butt;stroke-linejoin:miter;stroke-miterlimit:4;stroke-dasharray:none;stroke-opacity:1"
             id="path486" />
          <path
             d="M 232.797,493.77 H 211.879"
             style="fill:none;stroke:#231f20;stroke-width:5;stroke-linecap:butt;stroke-linejoin:miter;stroke-miterlimit:4;stroke-dasharray:none;stroke-opacity:1"
             id="path488" />
          <path
             d="M 232.797,372.422 H 211.879"
             style="fill:none;stroke:#231f20;stroke-width:5;stroke-linecap:butt;stroke-linejoin:miter;stroke-miterlimit:4;stroke-dasharray:none;stroke-opacity:1"
             id="path490" />
          <path
             d="M 334.777,241.34 334.68,198.82"
             style="fill:none;stroke:#231f20;stroke-width:5;stroke-linecap:butt;stroke-linejoin:miter;stroke-miterlimit:4;stroke-dasharray:none;stroke-opacity:1"
             id="path492" />
          <path
             d="M 466.039,241.34 V 220.27"
             style="fill:none;stroke:#231f20;stroke-width:5;stroke-linecap:butt;stroke-linejoin:miter;stroke-miterlimit:4;stroke-dasharray:none;stroke-opacity:1"
             id="path494" />
          <path
             d="M 597.105,241.34 V 220.27"
             style="fill:none;stroke:#231f20;stroke-width:5;stroke-linecap:butt;stroke-linejoin:miter;stroke-miterlimit:4;stroke-dasharray:none;stroke-opacity:1"
             id="path496" />
          <path
             d="M 723.32,241.34 V 220.27"
             style="fill:none;stroke:#231f20;stroke-width:5;stroke-linecap:butt;stroke-linejoin:miter;stroke-miterlimit:4;stroke-dasharray:none;stroke-opacity:1"
             id="path498" />
          <path
             d="M 849.535,241.34 V 198.82"
             style="fill:none;stroke:#231f20;stroke-width:5;stroke-linecap:butt;stroke-linejoin:miter;stroke-miterlimit:4;stroke-dasharray:none;stroke-opacity:1"
             id="path500" />
          <path
             d="M 980.605,241.34 V 220.078"
             style="fill:none;stroke:#231f20;stroke-width:5;stroke-linecap:butt;stroke-linejoin:miter;stroke-miterlimit:4;stroke-dasharray:none;stroke-opacity:1"
             id="path502" />
          <path
             d="M 1106.82,241.34 V 220.078"
             style="fill:none;stroke:#231f20;stroke-width:5;stroke-linecap:butt;stroke-linejoin:miter;stroke-miterlimit:4;stroke-dasharray:none;stroke-opacity:1"
             id="path504" />
          <path
             d="M 1237.89,241.34 V 220.078"
             style="fill:none;stroke:#231f20;stroke-width:5;stroke-linecap:butt;stroke-linejoin:miter;stroke-miterlimit:4;stroke-dasharray:none;stroke-opacity:1"
             id="path506" />
          <path
             d="M 1368.96,241.34 V 198.82"
             style="fill:none;stroke:#231f20;stroke-width:5;stroke-linecap:butt;stroke-linejoin:miter;stroke-miterlimit:4;stroke-dasharray:none;stroke-opacity:1"
             id="path508" />
          <path
             d="M 1490.32,241.34 V 220.078"
             style="fill:none;stroke:#231f20;stroke-width:5;stroke-linecap:butt;stroke-linejoin:miter;stroke-miterlimit:4;stroke-dasharray:none;stroke-opacity:1"
             id="path510" />
          <path
             d="M 1616.53,241.34 V 220.078"
             style="fill:none;stroke:#231f20;stroke-width:5;stroke-linecap:butt;stroke-linejoin:miter;stroke-miterlimit:4;stroke-dasharray:none;stroke-opacity:1"
             id="path512" />
          <path
             d="M 1742.74,241.34 V 220.078"
             style="fill:none;stroke:#231f20;stroke-width:5;stroke-linecap:butt;stroke-linejoin:miter;stroke-miterlimit:4;stroke-dasharray:none;stroke-opacity:1"
             id="path514" />
          <g
             id="g516"
             transform="scale(10)">
            <text
               xml:space="preserve"
               transform="matrix(1,0,-7e-8,-1,13.7414,270.693)"
               style="font-style:oblique;font-variant:normal;font-size:7px;font-family:Helvetica;-inkscape-font-specification:Helvetica-Oblique;writing-mode:lr-tb;fill:#231f20;fill-opacity:1;fill-rule:nonzero;stroke:none"
               id="text532"><tspan
                 x="0"
                 y="0"
                 id="tspan518">4</tspan><tspan
                 x="0"
                 y="62.698799"
                 id="tspan520">3</tspan><tspan
                 x="0"
                 y="124.2078"
                 id="tspan522">2</tspan><tspan
                 x="0"
                 y="185.98911"
                 id="tspan524">1</tspan><tspan
                 x="0"
                 y="248.68401"
                 id="tspan526">0</tspan><tspan
                 x="10.9988 14.891022 16.837244 20.729465 24.621689 62.442558 66.334785 68.281006 72.173225 76.065445 114.38472 118.27694 120.22317 124.11539 128.00761 164.40111 168.29333 170.23955 174.13177 178.024"
                 y="257.26096"
                 sodipodi:role="line"
                 id="tspan528">0.4000.5000.6000.700</tspan><tspan
                 x="62.930801 64.876991 71.485191 75.37738 78.877579 82.769775 84.323967 88.216164 92.108353 96.000549 97.946747 101.83894 103.78513"
                 y="268.60004"
                 sodipodi:role="line"
                 id="tspan530"> Wavelength (</tspan></text>
            <text
               xml:space="preserve"
               transform="matrix(1,0,0,-1,119.855,2.09297)"
               style="font-variant:normal;font-weight:normal;font-size:7px;font-family:Symbol;-inkscape-font-specification:Symbol;writing-mode:lr-tb;fill:#231f20;fill-opacity:1;fill-rule:nonzero;stroke:none"
               id="text536"><tspan
                 x="0"
                 y="0"
                 id="tspan534"></tspan></text>
            <text
               xml:space="preserve"
               transform="matrix(1,0,-7e-8,-1,123.888,2.09297)"
               style="font-style:oblique;font-variant:normal;font-size:7px;font-family:Helvetica;-inkscape-font-specification:Helvetica-Oblique;writing-mode:lr-tb;fill:#231f20;fill-opacity:1;fill-rule:nonzero;stroke:none"
               id="text540"><tspan
                 x="0 5.8311405"
                 y="0"
                 sodipodi:role="line"
                 id="tspan538">m)</tspan></text>
            <text
               xml:space="preserve"
               transform="matrix(0,1,1,-7e-8,5.51719,123.517)"
               style="font-style:oblique;font-variant:normal;font-size:7px;font-family:Helvetica;-inkscape-font-specification:Helvetica-Oblique;writing-mode:lr-tb;fill:#231f20;fill-opacity:1;fill-rule:nonzero;stroke:none"
               id="text544"><tspan
                 x="0 5.0541811 8.9463625 10.892544 12.446725 16.338907 19.839088 21.785269 25.67745 29.569632 33.069813 36.961994 38.908176 41.239357 47.46254"
                 y="0"
                 sodipodi:role="line"
                 id="tspan542">Reflectance (%)</tspan></text>
          </g>
          <path
             d="M 233.027,2605.43 H 211.77"
             style="fill:none;stroke:#231f20;stroke-width:5;stroke-linecap:butt;stroke-linejoin:miter;stroke-miterlimit:4;stroke-dasharray:none;stroke-opacity:1"
             id="path546" />
          <path
             d="M 1868.96,241.34 V 198.82"
             style="fill:none;stroke:#231f20;stroke-width:5;stroke-linecap:butt;stroke-linejoin:miter;stroke-miterlimit:4;stroke-dasharray:none;stroke-opacity:1"
             id="path548" />
          <path
             d="m 190.508,2726.92 42.519,-0.13"
             style="fill:none;stroke:#231f20;stroke-width:5;stroke-linecap:butt;stroke-linejoin:miter;stroke-miterlimit:4;stroke-dasharray:none;stroke-opacity:1"
             id="path550" />
          <path
             d="M 233.027,241.34 H 190.508"
             style="fill:none;stroke:#231f20;stroke-width:5;stroke-linecap:butt;stroke-linejoin:miter;stroke-miterlimit:4;stroke-dasharray:none;stroke-opacity:1"
             id="path552" />
          <path
             d="M 233.027,220.078 V 241.34"
             style="fill:none;stroke:#231f20;stroke-width:5;stroke-linecap:butt;stroke-linejoin:miter;stroke-miterlimit:4;stroke-dasharray:none;stroke-opacity:1"
             id="path554" />
        </g>
      </g>
    </g>
  </g>
</svg>
