<?xml version="1.0" encoding="UTF-8" standalone="no"?>
<!-- Created with Inkscape (http://www.inkscape.org/) -->

<svg
   version="1.1"
   id="svg2"
   width="461.33334"
   height="306.66666"
   viewBox="0 0 461.33334 306.66666"
   sodipodi:docname="depth-r.eps"
   xmlns:inkscape="http://www.inkscape.org/namespaces/inkscape"
   xmlns:sodipodi="http://sodipodi.sourceforge.net/DTD/sodipodi-0.dtd"
   xmlns="http://www.w3.org/2000/svg"
   xmlns:svg="http://www.w3.org/2000/svg">
  <defs
     id="defs6">
    <clipPath
       clipPathUnits="userSpaceOnUse"
       id="clipPath18">
      <path
         d="M 0,2299 H 3454 V 0 H 0 Z"
         id="path16" />
    </clipPath>
  </defs>
  <sodipodi:namedview
     id="namedview4"
     pagecolor="#ffffff"
     bordercolor="#000000"
     borderopacity="0.25"
     inkscape:showpageshadow="2"
     inkscape:pageopacity="0.0"
     inkscape:pagecheckerboard="0"
     inkscape:deskcolor="#d1d1d1" />
  <g
     id="g8"
     inkscape:groupmode="layer"
     inkscape:label="ink_ext_XXXXXX"
     transform="matrix(1.3333333,0,0,-1.3333333,0,306.66667)">
    <g
       id="g10"
       transform="scale(0.1)">
      <g
         id="g12">
        <g
           id="g14"
           clip-path="url(#clipPath18)">
          <path
             d="M 363.727,425.551 H 3351.44"
             style="fill:none;stroke:#100f0d;stroke-width:2.4;stroke-linecap:butt;stroke-linejoin:miter;stroke-miterlimit:10;stroke-dasharray:none;stroke-opacity:1"
             id="path20" />
          <path
             d="M 363.727,608.852 H 3351.44"
             style="fill:none;stroke:#100f0d;stroke-width:2.4;stroke-linecap:butt;stroke-linejoin:miter;stroke-miterlimit:10;stroke-dasharray:none;stroke-opacity:1"
             id="path22" />
          <path
             d="M 363.727,792.168 H 3351.44"
             style="fill:none;stroke:#100f0d;stroke-width:2.4;stroke-linecap:butt;stroke-linejoin:miter;stroke-miterlimit:10;stroke-dasharray:none;stroke-opacity:1"
             id="path24" />
          <path
             d="M 363.727,975.48 H 3351.44"
             style="fill:none;stroke:#100f0d;stroke-width:2.4;stroke-linecap:butt;stroke-linejoin:miter;stroke-miterlimit:10;stroke-dasharray:none;stroke-opacity:1"
             id="path26" />
          <path
             d="M 363.727,1157.42 H 3351.44"
             style="fill:none;stroke:#100f0d;stroke-width:10;stroke-linecap:butt;stroke-linejoin:miter;stroke-miterlimit:10;stroke-dasharray:none;stroke-opacity:1"
             id="path28" />
          <path
             d="M 363.727,1340.74 H 3351.44"
             style="fill:none;stroke:#100f0d;stroke-width:2.4;stroke-linecap:butt;stroke-linejoin:miter;stroke-miterlimit:10;stroke-dasharray:none;stroke-opacity:1"
             id="path30" />
          <path
             d="M 363.727,1524.05 H 3351.44"
             style="fill:none;stroke:#100f0d;stroke-width:2.4;stroke-linecap:butt;stroke-linejoin:miter;stroke-miterlimit:10;stroke-dasharray:none;stroke-opacity:1"
             id="path32" />
          <path
             d="M 363.727,1707.36 H 3351.44"
             style="fill:none;stroke:#100f0d;stroke-width:2.4;stroke-linecap:butt;stroke-linejoin:miter;stroke-miterlimit:10;stroke-dasharray:none;stroke-opacity:1"
             id="path34" />
          <path
             d="M 363.727,1890.67 H 3351.44"
             style="fill:none;stroke:#100f0d;stroke-width:2.4;stroke-linecap:butt;stroke-linejoin:miter;stroke-miterlimit:10;stroke-dasharray:none;stroke-opacity:1"
             id="path36" />
          <path
             d="M 363.727,2073.98 H 3351.44"
             style="fill:none;stroke:#100f0d;stroke-width:10;stroke-linecap:butt;stroke-linejoin:miter;stroke-miterlimit:10;stroke-dasharray:none;stroke-opacity:1"
             id="path38" />
          <path
             d="M 661.949,2073.98 V 242.23"
             style="fill:none;stroke:#100f0d;stroke-width:2.4;stroke-linecap:butt;stroke-linejoin:miter;stroke-miterlimit:10;stroke-dasharray:none;stroke-opacity:1"
             id="path40" />
          <path
             d="M 961.539,2073.98 V 242.23"
             style="fill:none;stroke:#100f0d;stroke-width:2.4;stroke-linecap:butt;stroke-linejoin:miter;stroke-miterlimit:10;stroke-dasharray:none;stroke-opacity:1"
             id="path42" />
          <path
             d="M 1259.76,2073.98 V 242.23"
             style="fill:none;stroke:#100f0d;stroke-width:2.4;stroke-linecap:butt;stroke-linejoin:miter;stroke-miterlimit:10;stroke-dasharray:none;stroke-opacity:1"
             id="path44" />
          <path
             d="M 1559.36,2073.98 V 242.23"
             style="fill:none;stroke:#100f0d;stroke-width:2.4;stroke-linecap:butt;stroke-linejoin:miter;stroke-miterlimit:10;stroke-dasharray:none;stroke-opacity:1"
             id="path46" />
          <path
             d="M 1857.58,2073.98 V 242.23"
             style="fill:none;stroke:#100f0d;stroke-width:2.4;stroke-linecap:butt;stroke-linejoin:miter;stroke-miterlimit:10;stroke-dasharray:none;stroke-opacity:1"
             id="path48" />
          <path
             d="M 2155.8,2073.98 V 242.23"
             style="fill:none;stroke:#100f0d;stroke-width:2.4;stroke-linecap:butt;stroke-linejoin:miter;stroke-miterlimit:10;stroke-dasharray:none;stroke-opacity:1"
             id="path50" />
          <path
             d="M 2455.39,2073.98 V 242.23"
             style="fill:none;stroke:#100f0d;stroke-width:2.4;stroke-linecap:butt;stroke-linejoin:miter;stroke-miterlimit:10;stroke-dasharray:none;stroke-opacity:1"
             id="path52" />
          <path
             d="M 2753.61,2073.98 V 242.23"
             style="fill:none;stroke:#100f0d;stroke-width:2.4;stroke-linecap:butt;stroke-linejoin:miter;stroke-miterlimit:10;stroke-dasharray:none;stroke-opacity:1"
             id="path54" />
          <path
             d="M 3053.21,2073.98 V 242.23"
             style="fill:none;stroke:#100f0d;stroke-width:2.4;stroke-linecap:butt;stroke-linejoin:miter;stroke-miterlimit:10;stroke-dasharray:none;stroke-opacity:1"
             id="path56" />
          <path
             d="M 3351.44,2073.98 V 242.23"
             style="fill:none;stroke:#100f0d;stroke-width:10;stroke-linecap:butt;stroke-linejoin:miter;stroke-miterlimit:10;stroke-dasharray:none;stroke-opacity:1"
             id="path58" />
          <path
             d="M 363.727,2073.98 V 242.23"
             style="fill:none;stroke:#100f0d;stroke-width:10;stroke-linecap:butt;stroke-linejoin:miter;stroke-miterlimit:10;stroke-dasharray:none;stroke-opacity:1"
             id="path60" />
          <path
             d="m 344.574,242.23 h 19.153"
             style="fill:none;stroke:#100f0d;stroke-width:2.4;stroke-linecap:butt;stroke-linejoin:miter;stroke-miterlimit:10;stroke-dasharray:none;stroke-opacity:1"
             id="path62" />
          <path
             d="m 344.574,425.551 h 19.153"
             style="fill:none;stroke:#100f0d;stroke-width:2.4;stroke-linecap:butt;stroke-linejoin:miter;stroke-miterlimit:10;stroke-dasharray:none;stroke-opacity:1"
             id="path64" />
          <path
             d="m 344.574,608.852 h 19.153"
             style="fill:none;stroke:#100f0d;stroke-width:2.4;stroke-linecap:butt;stroke-linejoin:miter;stroke-miterlimit:10;stroke-dasharray:none;stroke-opacity:1"
             id="path66" />
          <path
             d="m 344.574,792.168 h 19.153"
             style="fill:none;stroke:#100f0d;stroke-width:2.4;stroke-linecap:butt;stroke-linejoin:miter;stroke-miterlimit:10;stroke-dasharray:none;stroke-opacity:1"
             id="path68" />
          <path
             d="m 344.574,975.48 h 19.153"
             style="fill:none;stroke:#100f0d;stroke-width:2.4;stroke-linecap:butt;stroke-linejoin:miter;stroke-miterlimit:10;stroke-dasharray:none;stroke-opacity:1"
             id="path70" />
          <path
             d="m 344.574,1157.42 h 19.153"
             style="fill:none;stroke:#100f0d;stroke-width:2.4;stroke-linecap:butt;stroke-linejoin:miter;stroke-miterlimit:10;stroke-dasharray:none;stroke-opacity:1"
             id="path72" />
          <path
             d="m 344.574,1340.74 h 19.153"
             style="fill:none;stroke:#100f0d;stroke-width:2.4;stroke-linecap:butt;stroke-linejoin:miter;stroke-miterlimit:10;stroke-dasharray:none;stroke-opacity:1"
             id="path74" />
          <path
             d="m 344.574,1524.05 h 19.153"
             style="fill:none;stroke:#100f0d;stroke-width:2.4;stroke-linecap:butt;stroke-linejoin:miter;stroke-miterlimit:10;stroke-dasharray:none;stroke-opacity:1"
             id="path76" />
          <path
             d="m 344.574,1707.36 h 19.153"
             style="fill:none;stroke:#100f0d;stroke-width:2.4;stroke-linecap:butt;stroke-linejoin:miter;stroke-miterlimit:10;stroke-dasharray:none;stroke-opacity:1"
             id="path78" />
          <path
             d="m 344.574,1890.67 h 19.153"
             style="fill:none;stroke:#100f0d;stroke-width:2.4;stroke-linecap:butt;stroke-linejoin:miter;stroke-miterlimit:10;stroke-dasharray:none;stroke-opacity:1"
             id="path80" />
          <path
             d="m 344.574,2073.98 h 19.153"
             style="fill:none;stroke:#100f0d;stroke-width:2.4;stroke-linecap:butt;stroke-linejoin:miter;stroke-miterlimit:10;stroke-dasharray:none;stroke-opacity:1"
             id="path82" />
          <path
             d="M 363.727,242.23 H 3351.44"
             style="fill:none;stroke:#100f0d;stroke-width:10;stroke-linecap:butt;stroke-linejoin:miter;stroke-miterlimit:10;stroke-dasharray:none;stroke-opacity:1"
             id="path84" />
          <path
             d="M 661.949,223.078 V 242.23"
             style="fill:none;stroke:#100f0d;stroke-width:2.4;stroke-linecap:butt;stroke-linejoin:miter;stroke-miterlimit:10;stroke-dasharray:none;stroke-opacity:1"
             id="path86" />
          <path
             d="M 961.539,223.078 V 242.23"
             style="fill:none;stroke:#100f0d;stroke-width:2.4;stroke-linecap:butt;stroke-linejoin:miter;stroke-miterlimit:10;stroke-dasharray:none;stroke-opacity:1"
             id="path88" />
          <path
             d="M 1259.76,223.078 V 242.23"
             style="fill:none;stroke:#100f0d;stroke-width:2.4;stroke-linecap:butt;stroke-linejoin:miter;stroke-miterlimit:10;stroke-dasharray:none;stroke-opacity:1"
             id="path90" />
          <path
             d="M 1559.36,223.078 V 242.23"
             style="fill:none;stroke:#100f0d;stroke-width:2.4;stroke-linecap:butt;stroke-linejoin:miter;stroke-miterlimit:10;stroke-dasharray:none;stroke-opacity:1"
             id="path92" />
          <path
             d="M 1857.58,223.078 V 242.23"
             style="fill:none;stroke:#100f0d;stroke-width:2.4;stroke-linecap:butt;stroke-linejoin:miter;stroke-miterlimit:10;stroke-dasharray:none;stroke-opacity:1"
             id="path94" />
          <path
             d="M 2155.8,223.078 V 242.23"
             style="fill:none;stroke:#100f0d;stroke-width:2.4;stroke-linecap:butt;stroke-linejoin:miter;stroke-miterlimit:10;stroke-dasharray:none;stroke-opacity:1"
             id="path96" />
          <path
             d="M 2455.39,223.078 V 242.23"
             style="fill:none;stroke:#100f0d;stroke-width:2.4;stroke-linecap:butt;stroke-linejoin:miter;stroke-miterlimit:10;stroke-dasharray:none;stroke-opacity:1"
             id="path98" />
          <path
             d="M 2753.61,223.078 V 242.23"
             style="fill:none;stroke:#100f0d;stroke-width:2.4;stroke-linecap:butt;stroke-linejoin:miter;stroke-miterlimit:10;stroke-dasharray:none;stroke-opacity:1"
             id="path100" />
          <path
             d="M 3053.21,223.078 V 242.23"
             style="fill:none;stroke:#100f0d;stroke-width:2.4;stroke-linecap:butt;stroke-linejoin:miter;stroke-miterlimit:10;stroke-dasharray:none;stroke-opacity:1"
             id="path102" />
          <path
             d="M 3343.54,223.078 V 242.23"
             style="fill:none;stroke:#100f0d;stroke-width:2.4;stroke-linecap:butt;stroke-linejoin:miter;stroke-miterlimit:10;stroke-dasharray:none;stroke-opacity:1"
             id="path104" />
          <path
             d="m 3350.75,225.129 v 8.211 m 0,0 v 9.582 m 0,0 v 9.578 m 0,0 v 8.199 m 0,0 v 9.571 m 0,0 v 9.582 m 0,0 v 8.207 m 0,0 v 9.57 m 0,0 v 9.582 m 0,0 v 9.59 m 0,0 V 325 m 0,0 v 9.57 m 0,0 v 9.578 m 0,0 v 8.204 m 0,0 v 9.578 m 0,0 v 9.57 m 0,0 v 8.211 m 0,0 v 9.59 m 0,0 v 9.57 m 0,0 v 9.578 m 0,0 -1.37,8.199 m 0,0 v 9.582 m 0,0 v 9.571 m 0,0 V 444 m 0,0 v 9.59 m 0,0 v 9.57 m 0,0 v 8.211 m 0,0 v 9.59 m 0,0 v 9.57 m 0,0 v 8.199 m 0,0 -1.36,9.579 m 0,0 v 9.57 m 0,0 v 9.582 m 0,0 v 8.199 m 0,0 -1.38,9.59 m 0,0 v 9.57 m 0,0 v 8.211 m 0,0 -1.37,9.578 m 0,0 -1.35,9.582 m 0,0 -1.38,8.2 m 0,0 -4.1,9.57 m 0,0 -8.21,9.578 m 0,0 -13.69,8.211 m 0,0 -17.77,9.57 m 0,0 -24.63,9.571 m 0,0 -31.46,9.589 m 0,0 -39.67,8.211 m 0,0 -46.52,9.571 m 0,0 -54.71,9.578 m 0,0 -60.2,8.211 m 0,0 -67.03,9.57 m 0,0 -67.03,9.57 m 0,0 -65.66,8.207 m 0,0 -65.67,9.582 m 0,0 -64.3,9.571 m 0,0 -68.39,9.578 m 0,0 -68.4,8.211 m 0,0 -71.14,9.578 m 0,0 -72.5,9.57 m 0,0 -69.77,8.203 m 0,0 -65.67,9.59 m 0,0 -64.29,9.571 m 0,0 -60.2,8.207 m 0,0 -60.18,9.57 m 0,0 -54.73,9.582 m 0,0 -54.72,8.207 m 0,0 -50.61,9.582 m 0,0 -47.88,9.57 m 0,0 -42.41,9.578 m 0,0 -39.67,8.204 m 0,0 -34.2,9.589 m 0,0 -30.1,9.571 m 0,0 -27.36,8.199 m 0,0 -24.62,9.578 m 0,0 -23.26,9.57 m 0,0 -20.52,8.219 m 0,0 -16.42,9.57 m 0,0 -16.41,9.582 m 0,0 -15.05,9.579 m 0,0 -13.68,8.203 m 0,0 -13.68,9.578 m 0,0 -10.94,9.582 m 0,0 -12.32,8.199 m 0,0 -10.94,9.57 m 0,0 -9.57,9.579 m 0,0 -9.58,8.22 m 0,0 -9.57,9.57 m 0,0 -9.58,9.57 m 0,0 -8.21,8.21 m 0,0 -8.21,9.58 m 0,0 -8.2,9.57 m 0,0 -8.21,9.58 m 0,0 -6.84,8.2 m 0,0 -6.84,9.58 m 0,0 -6.84,9.57 m 0,0 -8.21,8.22 m 0,0 -10.94,9.58 m 0,0 -13.69,9.57 m 0,0 -17.78,8.21 m 0,0 -20.52,9.57 m 0,0 -39.67,9.58 m 0,0 -114.92,8.2 m 0,0 -131.32,9.57 m 0,0 -113.552,9.59 m 0,0 -88.914,9.57 m 0,0 -83.445,8.22 m 0,0 -65.664,9.57 m 0,0 -46.516,9.58 m 0,0 -41.039,8.2 m 0,0 -25.992,9.58 m 0,0 -24.625,9.57 m 0,0 -25.988,8.21 m 0,0 -21.891,9.57 m 0,0 -20.52,9.58 m 0,0 -19.156,9.58 m 0,0 -13.676,8.21 m 0,0 -12.312,9.58 m 0,0 -10.945,9.58 m 0,0 -9.575,8.2 m 0,0 -6.84,9.57 m 0,0 -8.207,9.58 m 0,0 -5.468,8.22 m 0,0 -6.848,9.56 m 0,0 -5.469,9.58 m 0,0 -5.472,8.21 m 0,0 -5.469,9.58 m 0,0 -5.473,9.57 m 0,0 -5.472,9.58 m 0,0 -4.106,8.2 m 0,0 -5.473,9.58 m 0,0 -4.105,9.58 m 0,0 -4.102,8.2 m 0,0 -4.105,9.58 m 0,0 -4.102,9.58 m 0,0 -4.105,8.2 m 0,0 -2.734,9.58 m 0,0 -2.739,9.58 m 0,0 -2.738,9.57 m 0,0 -2.734,8.21 m 0,0 -2.735,9.58 m 0,0 -1.371,9.57 m 0,0 -1.363,8.21 m 0,0 -1.371,9.57 m 0,0 v 9.59 m 0,0 -1.367,8.2 m 0,0 -1.368,9.57 m 0,0 v 9.58 m 0,0 -1.367,8.21 m 0,0 -1.371,9.58 m 0,0 -1.363,9.58 m 0,0 -1.371,9.57 m 0,0 -1.367,8.21 m 0,0 -1.368,9.57 m 0,0 v 9.58 m 0,0 -1.367,8.21 m 0,0 v 9.57 m 0,0 v 9.58 m 0,0 -1.367,8.21 m 0,0 v 9.57 m 0,0 v 9.58 m 0,0 v 9.58 m 0,0 v 8.2 m 0,0 v 9.58 m 0,0 v 9.58 m 0,0 v 8.2 m 0,0 v 9.58 m 0,0 v 9.57 m 0,0 v 8.21 m 0,0 v 9.58 m 0,0 v 9.57 m 0,0 v 8.21 m 0,0 v 9.58 m 0,0 v 9.58 m 0,0 v 9.57 m 0,0 v 8.21 m 0,0 v 9.57 m 0,0 v 9.58 m 0,0 v 8.21 m 0,0 v 9.57 m 0,0 v 9.58 m 0,0 v 8.21 m 0,0 v 9.58 m 0,0 v 9.57 m 0,0 v 8.21 m 0,0 v 9.57 m 0,0 v 9.58 m 0,0 v 9.57 m 0,0 v 8.22 m 0,0 v 9.57 m 0,0 v 9.58 m 0,0 v 8.21 m 0,0 v 9.57"
             style="fill:none;stroke:#bdbbbc;stroke-width:10;stroke-linecap:butt;stroke-linejoin:miter;stroke-miterlimit:10;stroke-dasharray:none;stroke-opacity:1"
             id="path106" />
          <path
             d="m 3332.29,2073.98 h 38.3"
             style="fill:none;stroke:#100f0d;stroke-width:2.4;stroke-linecap:butt;stroke-linejoin:miter;stroke-miterlimit:10;stroke-dasharray:none;stroke-opacity:1"
             id="path108" />
          <path
             d="m 363.727,2054.83 v 38.3"
             style="fill:none;stroke:#100f0d;stroke-width:2.4;stroke-linecap:butt;stroke-linejoin:miter;stroke-miterlimit:10;stroke-dasharray:none;stroke-opacity:1"
             id="path110" />
          <path
             d="m 661.949,2054.83 v 38.3"
             style="fill:none;stroke:#100f0d;stroke-width:2.4;stroke-linecap:butt;stroke-linejoin:miter;stroke-miterlimit:10;stroke-dasharray:none;stroke-opacity:1"
             id="path112" />
          <path
             d="m 961.539,2054.83 v 38.3"
             style="fill:none;stroke:#100f0d;stroke-width:2.4;stroke-linecap:butt;stroke-linejoin:miter;stroke-miterlimit:10;stroke-dasharray:none;stroke-opacity:1"
             id="path114" />
          <path
             d="m 1259.76,2054.83 v 38.3"
             style="fill:none;stroke:#100f0d;stroke-width:2.4;stroke-linecap:butt;stroke-linejoin:miter;stroke-miterlimit:10;stroke-dasharray:none;stroke-opacity:1"
             id="path116" />
          <path
             d="m 1559.36,2054.83 v 38.3"
             style="fill:none;stroke:#100f0d;stroke-width:2.4;stroke-linecap:butt;stroke-linejoin:miter;stroke-miterlimit:10;stroke-dasharray:none;stroke-opacity:1"
             id="path118" />
          <path
             d="m 1857.58,2054.83 v 38.3"
             style="fill:none;stroke:#100f0d;stroke-width:2.4;stroke-linecap:butt;stroke-linejoin:miter;stroke-miterlimit:10;stroke-dasharray:none;stroke-opacity:1"
             id="path120" />
          <path
             d="m 2155.8,2054.83 v 38.3"
             style="fill:none;stroke:#100f0d;stroke-width:2.4;stroke-linecap:butt;stroke-linejoin:miter;stroke-miterlimit:10;stroke-dasharray:none;stroke-opacity:1"
             id="path122" />
          <path
             d="m 2455.39,2054.83 v 38.3"
             style="fill:none;stroke:#100f0d;stroke-width:2.4;stroke-linecap:butt;stroke-linejoin:miter;stroke-miterlimit:10;stroke-dasharray:none;stroke-opacity:1"
             id="path124" />
          <path
             d="m 2753.61,2054.83 v 38.3"
             style="fill:none;stroke:#100f0d;stroke-width:2.4;stroke-linecap:butt;stroke-linejoin:miter;stroke-miterlimit:10;stroke-dasharray:none;stroke-opacity:1"
             id="path126" />
          <path
             d="m 3053.21,2054.83 v 38.3"
             style="fill:none;stroke:#100f0d;stroke-width:2.4;stroke-linecap:butt;stroke-linejoin:miter;stroke-miterlimit:10;stroke-dasharray:none;stroke-opacity:1"
             id="path128" />
          <path
             d="m 3351.44,2054.83 v 38.3"
             style="fill:none;stroke:#100f0d;stroke-width:2.4;stroke-linecap:butt;stroke-linejoin:miter;stroke-miterlimit:10;stroke-dasharray:none;stroke-opacity:1"
             id="path130" />
          <path
             d="m 363.043,233.34 v 9.582 m 0,0 v 9.578 m 0,0 v 8.199 m 0,0 v 9.571 m 0,0 v 9.582 m 0,0 v 8.207 m 0,0 v 9.57 m 0,0 v 9.582 m 0,0 v 9.59 m 0,0 V 325 m 0,0 v 9.57 m 0,0 1.367,9.578 m 0,0 v 8.204 m 0,0 v 9.578 m 0,0 v 9.57 m 0,0 v 8.211 m 0,0 v 9.59 m 0,0 v 9.57 m 0,0 v 9.578 m 0,0 v 8.199 m 0,0 v 9.582 m 0,0 v 9.571 m 0,0 V 444 m 0,0 1.367,9.59 m 0,0 v 9.57 m 0,0 v 8.211 m 0,0 1.368,9.59 m 0,0 v 9.57 m 0,0 1.367,8.199 m 0,0 v 9.579 m 0,0 v 9.57 m 0,0 v 9.582 m 0,0 1.371,8.199 m 0,0 1.363,9.59 m 0,0 v 9.57 m 0,0 2.738,8.211 m 0,0 2.735,9.578 m 0,0 6.84,9.582 m 0,0 20.523,8.2 m 0,0 41.035,9.57 m 0,0 84.821,9.578 m 0,0 99.863,8.211 m 0,0 97.129,9.57 m 0,0 112.172,9.571 m 0,0 164.158,9.589 m 0,0 149.12,8.211 m 0,0 154.58,9.571 m 0,0 146.37,9.578 m 0,0 112.18,8.211 m 0,0 142.27,9.57 m 0,0 -10.94,9.57 m 0,0 -12.31,8.207 m 0,0 -16.42,9.582 m 0,0 -12.31,9.571 m 0,0 64.3,9.578 m 0,0 10.94,8.211 m 0,0 57.46,9.578 m 0,0 15.04,9.57 m 0,0 -36.93,8.203 m 0,0 -79.35,9.59 m 0,0 -47.88,9.571 m 0,0 -58.82,8.207 m 0,0 -39.67,9.57 m 0,0 -57.46,9.582 m 0,0 -35.57,8.207 m 0,0 -65.66,9.582 m 0,0 -82.08,9.57 m 0,0 -79.34,9.578 m 0,0 -75.24,8.204 m 0,0 -94.4,9.589 m 0,0 -80.71,9.571 m 0,0 -62.926,8.199 m 0,0 -42.406,9.578 m 0,0 -42.407,9.57 m 0,0 -56.089,8.219 m 0,0 -54.723,9.57 m 0,0 -28.727,9.582 m 0,0 -25.996,9.579 m 0,0 -21.883,8.203 m 0,0 -6.839,9.578 m 0,0 -21.891,9.582 m 0,0 -17.781,8.199 m 0,0 -9.578,9.57 m 0,0 -8.207,9.579 m 0,0 -9.575,8.22 m 0,0 -15.05,9.57 m 0,0 -4.106,9.57 m 0,0 -1.367,8.21 m 0,0 -9.574,9.58 m 0,0 -5.477,9.57 m 0,0 -12.308,9.58 m 0,0 -12.309,8.2 m 0,0 2.734,9.58 m 0,0 -1.371,9.57 m 0,0 28.731,8.22 56.09,9.58 50.613,9.57 67.031,8.21 77.981,9.57 372.09,9.58 1503.43,8.2 331.06,9.57 -369.36,9.59 -478.79,9.57 -84.83,8.22 -396.72,9.57 -355.68,9.58 -132.69,8.2 -270.866,9.58 -58.824,9.57 32.832,8.21 -62.93,9.57 -31.461,9.58 -47.879,9.58 -83.453,8.21 -41.039,9.58 -23.258,9.58 -47.875,8.2 -19.156,9.57 m 0,0 -9.574,9.58 m 0,0 -13.676,8.22 m 0,0 -1.367,9.56 m 0,0 -9.582,9.58 m 0,0 -12.309,8.21 m 0,0 -5.472,9.58 m 0,0 v 9.57 m 0,0 2.734,9.58 m 0,0 -8.207,8.2 m 0,0 -1.363,9.58 m 0,0 -12.317,9.58 m 0,0 -1.371,8.2 m 0,0 8.207,9.58 m 0,0 -12.308,9.58 m 0,0 -10.942,8.2 m 0,0 -5.472,9.58 m 0,0 -5.477,9.58 m 0,0 1.371,9.57 m 0,0 v 8.21 m 0,0 -9.578,9.58 m 0,0 -19.148,9.57 m 0,0 -1.372,8.21 m 0,0 -4.105,9.57 m 0,0 -6.84,9.59 m 0,0 2.738,8.2 m 0,0 v 9.57 m 0,0 1.368,9.58 m 0,0 4.101,8.21 m 0,0 -1.367,9.58 m 0,0 v 9.58 m 0,0 1.367,9.57 m 0,0 v 8.21 m 0,0 -2.734,9.57 m 0,0 -2.735,9.58 m 0,0 -5.472,8.21 m 0,0 -4.102,9.57 m 0,0 -2.734,9.58 m 0,0 -1.371,8.21 m 0,0 -1.367,9.57 m 0,0 -1.368,9.58 m 0,0 -1.367,9.58 m 0,0 v 8.2 m 0,0 v 9.58 m 0,0 -1.367,9.58 m 0,0 v 8.2 m 0,0 v 9.58 m 0,0 v 9.57 m 0,0 v 8.21 m 0,0 v 9.58 m 0,0 v 9.57 m 0,0 v 8.21 m 0,0 v 9.58 m 0,0 v 9.58 m 0,0 v 9.57 m 0,0 v 8.21 m 0,0 v 9.57 m 0,0 v 9.58 m 0,0 v 8.21 m 0,0 v 9.57 m 0,0 v 9.58 m 0,0 v 8.21 m 0,0 v 9.58 m 0,0 v 9.57 m 0,0 v 8.21 m 0,0 v 9.57 m 0,0 v 9.58 m 0,0 v 9.57 m 0,0 v 8.22 m 0,0 v 9.57 m 0,0 v 9.58 m 0,0 v 8.21 m 0,0 v 9.57"
             style="fill:none;stroke:#231f20;stroke-width:10;stroke-linecap:butt;stroke-linejoin:miter;stroke-miterlimit:10;stroke-dasharray:none;stroke-opacity:1"
             id="path132" />
          <g
             id="g134"
             transform="scale(10)">
            <text
               xml:space="preserve"
               transform="matrix(1,0,1e-8,-1,26.3391,113.76)"
               style="font-style:oblique;font-variant:normal;font-size:5.7456px;font-family:Helvetica;-inkscape-font-specification:Helvetica-Oblique;writing-mode:lr-tb;fill:#100f0d;fill-opacity:1;fill-rule:nonzero;stroke:none"
               id="text138"><tspan
                 x="0"
                 y="0"
                 id="tspan136">0</tspan></text>
            <text
               xml:space="preserve"
               transform="matrix(1,0,-7e-8,-1,7.36094,22.2398)"
               style="font-style:oblique;font-variant:normal;font-size:7px;font-family:Helvetica;-inkscape-font-specification:Helvetica-Oblique;writing-mode:lr-tb;fill:#100f0d;fill-opacity:1;fill-rule:nonzero;stroke:none"
               id="text160"><tspan
                 x="0 2.3312075 6.2234154 10.115623 12.061831 15.954039 19.846247"
                 y="0"
                 sodipodi:role="line"
                 id="tspan140">-10,000</tspan><tspan
                 x="3.8917999 6.2230082 10.115216 12.061424 15.953633 19.84584"
                 y="-18.332001"
                 sodipodi:role="line"
                 id="tspan142">-8,000</tspan><tspan
                 x="3.8917999 6.2230082 10.115216 12.061424 15.953633 19.84584"
                 y="-36.662102"
                 sodipodi:role="line"
                 id="tspan144">-6,000</tspan><tspan
                 x="3.8917999 6.2230082 10.115216 12.061424 15.953633 19.84584"
                 y="-54.994099"
                 sodipodi:role="line"
                 id="tspan146">-4,000</tspan><tspan
                 x="3.8917999 6.2230082 10.115216 12.061424 15.953633 19.84584"
                 y="-73.324997"
                 sodipodi:role="line"
                 id="tspan148">-2,000</tspan><tspan
                 x="6.2226601 10.114882 12.061104 15.953326 19.845549"
                 y="-109.8508"
                 sodipodi:role="line"
                 id="tspan150">2,000</tspan><tspan
                 x="6.2226601 10.114882 12.061104 15.953326 19.845549"
                 y="-128.1824"
                 sodipodi:role="line"
                 id="tspan152">4,000</tspan><tspan
                 x="6.2226601 10.114882 12.061104 15.953326 19.845549"
                 y="-146.51331"
                 sodipodi:role="line"
                 id="tspan154">6,000</tspan><tspan
                 x="6.2226601 10.114882 12.061104 15.953326 19.845549"
                 y="-164.8446"
                 sodipodi:role="line"
                 id="tspan156">8,000</tspan><tspan
                 x="2.33164 6.2238588 10.116077 12.062296 15.954515 19.846733"
                 y="-183.17551"
                 sodipodi:role="line"
                 id="tspan158">10,000</tspan></text>
            <text
               xml:space="preserve"
               transform="matrix(0,1,1,-7e-8,5.65313,90.8762)"
               style="font-style:oblique;font-variant:normal;font-size:7px;font-family:Helvetica;-inkscape-font-specification:Helvetica-Oblique;writing-mode:lr-tb;fill:#100f0d;fill-opacity:1;fill-rule:nonzero;stroke:none"
               id="text164"><tspan
                 x="0 4.6691823 6.2233644 10.1148 13.614902 17.505819 19.452318 21.006817 24.896839 28.788652 30.735167 33.065979 38.897141 42.789303 44.735462 48.627625 50.958782 54.458946"
                 y="0"
                 sodipodi:role="line"
                 id="tspan162">Elevation (meters)</tspan></text>
          </g>
          <g
             id="g166"
             transform="scale(10)">
            <text
               xml:space="preserve"
               transform="matrix(1,0,-7e-8,-1,31.3785,13.6219)"
               style="font-style:oblique;font-variant:normal;font-size:7px;font-family:Helvetica;-inkscape-font-specification:Helvetica-Oblique;writing-mode:lr-tb;fill:#918f90;fill-opacity:1;fill-rule:nonzero;stroke:none"
               id="text172"><tspan
                 x="0 3.8922732 28.044901 31.937149 35.829399 58.00425 61.8965 65.78875 87.827309 91.719559 95.611809 117.78827 121.68052 125.57277 147.6109 151.50316 155.3954 177.4299 181.32175 185.21359 207.38966 211.28151 215.17336 237.2123 241.10414 244.99599 267.17245 271.06433 274.95618 295.21689 299.10873 303.00058 306.89243"
                 y="0"
                 sodipodi:role="line"
                 id="tspan168">0%10%20%30%40%50%60%70%80%90%100%</tspan><tspan
                 x="133.11391 138.16808 142.06026 147.89143 151.78362 153.33778 157.22997 159.17615 160.73032 164.2305 168.12268 170.06886 172.40004 178.6198 180.56633 185.23584 187.56737 191.4581 195.34987"
                 y="12.0469"
                 sodipodi:role="line"
                 id="tspan170">Cumulative (% Area)</tspan></text>
          </g>
          <g
             id="g174"
             transform="scale(10)">
            <text
               xml:space="preserve"
               transform="matrix(1,0,-7e-8,-1,26.727,213.464)"
               style="font-style:oblique;font-variant:normal;font-size:7px;font-family:Helvetica;-inkscape-font-specification:Helvetica-Oblique;writing-mode:lr-tb;fill:#231f20;fill-opacity:1;fill-rule:nonzero;stroke:none"
               id="text180"><tspan
                 x="0 3.8922498 5.8384995 9.7307491 13.622999 29.823839 33.716087 35.662338 39.554588 43.446838 59.784389 63.67664 65.622887 69.515137 73.407387 89.608582 93.500832 95.447075 99.339325 103.23158 119.56871 123.46096 125.4072 129.29945 133.19171 149.39177 153.28403 155.23027 159.12253 163.01477 179.209 183.10085 185.04729 188.93913 192.83098 209.16919 213.06104 215.00748 218.89932 222.79117 238.99266 242.88451 244.83095 248.72279 252.61464 268.95285 272.8447 274.79114 278.68298 282.57483 298.77591 302.66776 304.6142 308.50604 312.39789"
                 y="0"
                 sodipodi:role="line"
                 id="tspan176">0.00%0.50%1.00%1.50%2.00%2.50%3.00%3.50%4.00%4.50%5.00%</tspan><tspan
                 x="116.9379 121.21508 123.54626 127.43844 131.33061 135.22279 139.11497 143.00716 146.50732 150.00751 151.95369 154.28487 160.50804 162.45422 167.1234 169.45459 173.34676 177.23894"
                 y="-10.4113"
                 sodipodi:role="line"
                 id="tspan178">Frequency (% Area)</tspan></text>
          </g>
        </g>
      </g>
    </g>
  </g>
</svg>
