<?xml version="1.0" encoding="UTF-8" standalone="no"?>
<!-- Created with Inkscape (http://www.inkscape.org/) -->

<svg
   version="1.1"
   id="svg2"
   width="324"
   height="222.66667"
   viewBox="0 0 324 222.66667"
   sodipodi:docname="altimetersketch.eps"
   xmlns:inkscape="http://www.inkscape.org/namespaces/inkscape"
   xmlns:sodipodi="http://sodipodi.sourceforge.net/DTD/sodipodi-0.dtd"
   xmlns="http://www.w3.org/2000/svg"
   xmlns:svg="http://www.w3.org/2000/svg">
  <defs
     id="defs6">
    <clipPath
       clipPathUnits="userSpaceOnUse"
       id="clipPath18">
      <path
         d="M 0,1670 H 2427 V 0 H 0 Z"
         id="path16" />
    </clipPath>
  </defs>
  <sodipodi:namedview
     id="namedview4"
     pagecolor="#ffffff"
     bordercolor="#000000"
     borderopacity="0.25"
     inkscape:showpageshadow="2"
     inkscape:pageopacity="0.0"
     inkscape:pagecheckerboard="0"
     inkscape:deskcolor="#d1d1d1" />
  <g
     id="g8"
     inkscape:groupmode="layer"
     inkscape:label="ink_ext_XXXXXX"
     transform="matrix(1.3333333,0,0,-1.3333333,0,222.66667)">
    <g
       id="g10"
       transform="scale(0.1)">
      <g
         id="g12">
        <g
           id="g14"
           clip-path="url(#clipPath18)">
          <path
             d="m 360.855,718.16 c 175.434,250.766 467.208,414.85 797.485,414.85 380.56,0 709.99,-217.846 869.25,-535.119"
             style="fill:none;stroke:#231f20;stroke-width:7.5;stroke-linecap:butt;stroke-linejoin:miter;stroke-miterlimit:4;stroke-dasharray:none;stroke-opacity:1"
             id="path20" />
          <path
             d="m 277.309,1300.34 c 243.906,190.54 550.875,304.08 884.361,304.08 347.4,0 666.03,-123.22 914.56,-328.33"
             style="fill:none;stroke:#231f20;stroke-width:7.5;stroke-linecap:butt;stroke-linejoin:miter;stroke-miterlimit:4;stroke-dasharray:none;stroke-opacity:1"
             id="path22" />
          <g
             id="g24"
             transform="scale(10)">
            <text
               xml:space="preserve"
               transform="matrix(0.990558,-0.137094,-0.137094,-0.990558,134.209,161.396)"
               style="font-style:oblique;font-variant:normal;font-size:7.0002px;font-family:Helvetica;-inkscape-font-specification:Helvetica-Oblique;writing-mode:lr-tb;fill:#231f20;fill-opacity:1;fill-rule:nonzero;stroke:none"
               id="text28"><tspan
                 x="0"
                 y="0"
                 id="tspan26">S</tspan></text>
            <text
               xml:space="preserve"
               transform="matrix(0.98604,-0.166507,-0.166507,-0.98604,138.822,160.752)"
               style="font-style:oblique;font-variant:normal;font-size:6.99961px;font-family:Helvetica;-inkscape-font-specification:Helvetica-Oblique;writing-mode:lr-tb;fill:#231f20;fill-opacity:1;fill-rule:nonzero;stroke:none"
               id="text32"><tspan
                 x="0"
                 y="0"
                 id="tspan30">a</tspan></text>
            <text
               xml:space="preserve"
               transform="matrix(0.982435,-0.186607,-0.186607,-0.982435,142.654,160.095)"
               style="font-style:oblique;font-variant:normal;font-size:6.99975px;font-family:Helvetica;-inkscape-font-specification:Helvetica-Oblique;writing-mode:lr-tb;fill:#231f20;fill-opacity:1;fill-rule:nonzero;stroke:none"
               id="text36"><tspan
                 x="0"
                 y="0"
                 id="tspan34">t</tspan></text>
            <text
               xml:space="preserve"
               transform="matrix(0.978445,-0.206509,-0.206509,-0.978445,144.563,159.743)"
               style="font-style:oblique;font-variant:normal;font-size:6.99958px;font-family:Helvetica;-inkscape-font-specification:Helvetica-Oblique;writing-mode:lr-tb;fill:#231f20;fill-opacity:1;fill-rule:nonzero;stroke:none"
               id="text40"><tspan
                 x="0"
                 y="0"
                 id="tspan38">e</tspan></text>
            <text
               xml:space="preserve"
               transform="matrix(0.974334,-0.225108,-0.225108,-0.974334,148.366,158.929)"
               style="font-style:oblique;font-variant:normal;font-size:6.99966px;font-family:Helvetica;-inkscape-font-specification:Helvetica-Oblique;writing-mode:lr-tb;fill:#231f20;fill-opacity:1;fill-rule:nonzero;stroke:none"
               id="text44"><tspan
                 x="0"
                 y="0"
                 id="tspan42">l</tspan></text>
            <text
               xml:space="preserve"
               transform="matrix(0.971824,-0.235706,-0.235706,-0.971824,149.878,158.579)"
               style="font-style:oblique;font-variant:normal;font-size:6.99982px;font-family:Helvetica;-inkscape-font-specification:Helvetica-Oblique;writing-mode:lr-tb;fill:#231f20;fill-opacity:1;fill-rule:nonzero;stroke:none"
               id="text48"><tspan
                 x="0"
                 y="0"
                 id="tspan46">l</tspan></text>
            <text
               xml:space="preserve"
               transform="matrix(0.969194,-0.246298,-0.246298,-0.969194,151.388,158.213)"
               style="font-style:oblique;font-variant:normal;font-size:6.99994px;font-family:Helvetica;-inkscape-font-specification:Helvetica-Oblique;writing-mode:lr-tb;fill:#231f20;fill-opacity:1;fill-rule:nonzero;stroke:none"
               id="text52"><tspan
                 x="0"
                 y="0"
                 id="tspan50">i</tspan></text>
            <text
               xml:space="preserve"
               transform="matrix(0.966117,-0.258105,-0.258105,-0.966117,152.893,157.832)"
               style="font-style:oblique;font-variant:normal;font-size:6.99978px;font-family:Helvetica;-inkscape-font-specification:Helvetica-Oblique;writing-mode:lr-tb;fill:#231f20;fill-opacity:1;fill-rule:nonzero;stroke:none"
               id="text56"><tspan
                 x="0"
                 y="0"
                 id="tspan54">t</tspan></text>
            <text
               xml:space="preserve"
               transform="matrix(0.960636,-0.27781,-0.27781,-0.960636,154.772,157.34)"
               style="font-style:oblique;font-variant:normal;font-size:6.99974px;font-family:Helvetica;-inkscape-font-specification:Helvetica-Oblique;writing-mode:lr-tb;fill:#231f20;fill-opacity:1;fill-rule:nonzero;stroke:none"
               id="text60"><tspan
                 x="0"
                 y="0"
                 id="tspan58">e</tspan></text>
            <text
               xml:space="preserve"
               transform="matrix(0.955376,-0.295393,-0.295393,-0.955376,158.503,156.249)"
               style="font-style:oblique;font-variant:normal;font-size:7.00018px;font-family:Helvetica;-inkscape-font-specification:Helvetica-Oblique;writing-mode:lr-tb;fill:#231f20;fill-opacity:1;fill-rule:nonzero;stroke:none"
               id="text64"><tspan
                 x="0"
                 y="0"
                 id="tspan62">'</tspan></text>
            <text
               xml:space="preserve"
               transform="matrix(0.950242,-0.311514,-0.311514,-0.950242,159.783,155.863)"
               style="font-style:oblique;font-variant:normal;font-size:6.99969px;font-family:Helvetica;-inkscape-font-specification:Helvetica-Oblique;writing-mode:lr-tb;fill:#231f20;fill-opacity:1;fill-rule:nonzero;stroke:none"
               id="text68"><tspan
                 x="0"
                 y="0"
                 id="tspan66">s</tspan></text>
            <text
               xml:space="preserve"
               transform="matrix(0.935318,-0.353807,-0.353807,-0.935318,164.944,154.148)"
               style="font-style:oblique;font-variant:normal;font-size:6.99976px;font-family:Helvetica;-inkscape-font-specification:Helvetica-Oblique;writing-mode:lr-tb;fill:#231f20;fill-opacity:1;fill-rule:nonzero;stroke:none"
               id="text72"><tspan
                 x="0"
                 y="0"
                 id="tspan70">O</tspan></text>
            <text
               xml:space="preserve"
               transform="matrix(0.925313,-0.379205,-0.379205,-0.925313,170.026,152.203)"
               style="font-style:oblique;font-variant:normal;font-size:6.9998px;font-family:Helvetica;-inkscape-font-specification:Helvetica-Oblique;writing-mode:lr-tb;fill:#231f20;fill-opacity:1;fill-rule:nonzero;stroke:none"
               id="text76"><tspan
                 x="0"
                 y="0"
                 id="tspan74">r</tspan></text>
            <text
               xml:space="preserve"
               transform="matrix(0.91687,-0.399187,-0.399187,-0.91687,172.183,151.328)"
               style="font-style:oblique;font-variant:normal;font-size:7.00013px;font-family:Helvetica;-inkscape-font-specification:Helvetica-Oblique;writing-mode:lr-tb;fill:#231f20;fill-opacity:1;fill-rule:nonzero;stroke:none"
               id="text80"><tspan
                 x="0"
                 y="0"
                 id="tspan78">b</tspan></text>
            <text
               xml:space="preserve"
               transform="matrix(0.909092,-0.416596,-0.416596,-0.909092,175.745,149.765)"
               style="font-style:oblique;font-variant:normal;font-size:6.99996px;font-family:Helvetica;-inkscape-font-specification:Helvetica-Oblique;writing-mode:lr-tb;fill:#231f20;fill-opacity:1;fill-rule:nonzero;stroke:none"
               id="text84"><tspan
                 x="0"
                 y="0"
                 id="tspan82">i</tspan></text>
            <text
               xml:space="preserve"
               transform="matrix(0.903917,-0.427708,-0.427708,-0.903917,177.158,149.12)"
               style="font-style:oblique;font-variant:normal;font-size:6.99977px;font-family:Helvetica;-inkscape-font-specification:Helvetica-Oblique;writing-mode:lr-tb;fill:#231f20;fill-opacity:1;fill-rule:nonzero;stroke:none"
               id="text88"><tspan
                 x="0"
                 y="0"
                 id="tspan86">t</tspan></text>
          </g>
          <path
             d="M 1162.51,1604.42 V 226.582"
             style="fill:none;stroke:#231f20;stroke-width:5;stroke-linecap:butt;stroke-linejoin:miter;stroke-miterlimit:4;stroke-dasharray:none;stroke-opacity:1"
             id="path90" />
          <path
             d="m 1162.51,231.68 18.01,10.961 0.41,-0.621 -11.66,-29.372 c -2.26,-10.238 -4.51,-20.468 -6.76,-30.707 -2.26,10.239 -4.51,20.469 -6.76,30.707 l -11.67,29.372 0.3,0.621 18.13,-10.961"
             style="fill:#231f20;fill-opacity:1;fill-rule:nonzero;stroke:none"
             id="path92" />
          <path
             d="m 1162.51,182.738 c -8.47,0 -15.32,-6.859 -15.32,-15.316 0,-8.453 6.85,-15.32 15.32,-15.32 8.46,0 15.31,6.867 15.31,15.32 0,8.457 -6.85,15.316 -15.31,15.316"
             style="fill:#231f20;fill-opacity:1;fill-rule:nonzero;stroke:none"
             id="path94" />
          <path
             d="m 1162.51,182.738 c -8.47,0 -15.32,-6.859 -15.32,-15.316 0,-8.453 6.85,-15.32 15.32,-15.32 8.46,0 15.31,6.867 15.31,15.32 0,8.457 -6.85,15.316 -15.31,15.316 z"
             style="fill:none;stroke:#231f20;stroke-width:5;stroke-linecap:butt;stroke-linejoin:miter;stroke-miterlimit:4;stroke-dasharray:none;stroke-opacity:1"
             id="path96" />
          <path
             d="M 298.336,776.617 C 415,916.637 571.672,1036.64 721.672,1036.64 c 150,0 136.664,-3.34 260,30 123.328,33.32 210.008,104.41 329.998,103.32 185.42,-1.66 269.17,-163.53 364.17,-228.534 91.57,-62.656 137.92,-14.586 211.25,-61.25 73.33,-46.664 97.92,-126.899 97.92,-126.899"
             style="fill:none;stroke:#231f20;stroke-width:5;stroke-linecap:butt;stroke-linejoin:miter;stroke-miterlimit:4;stroke-dasharray:none;stroke-opacity:1"
             id="path98" />
          <g
             id="g100"
             transform="scale(10)">
            <text
               xml:space="preserve"
               transform="matrix(1,-0.0011,-0.00109999,-0.999999,129.081,118.668)"
               style="font-style:oblique;font-variant:normal;font-size:6.9999px;font-family:Helvetica;-inkscape-font-specification:Helvetica-Oblique;writing-mode:lr-tb;fill:#231f20;fill-opacity:1;fill-rule:nonzero;stroke:none"
               id="text104"><tspan
                 x="0"
                 y="0"
                 id="tspan102">G</tspan></text>
            <text
               xml:space="preserve"
               transform="matrix(0.988731,-0.149705,-0.149705,-0.988731,134.389,118.619)"
               style="font-style:oblique;font-variant:normal;font-size:6.99978px;font-family:Helvetica;-inkscape-font-specification:Helvetica-Oblique;writing-mode:lr-tb;fill:#231f20;fill-opacity:1;fill-rule:nonzero;stroke:none"
               id="text108"><tspan
                 x="0"
                 y="0"
                 id="tspan106">e</tspan></text>
            <text
               xml:space="preserve"
               transform="matrix(0.960495,-0.278298,-0.278298,-0.960495,138.139,118.059)"
               style="font-style:oblique;font-variant:normal;font-size:7.00004px;font-family:Helvetica;-inkscape-font-specification:Helvetica-Oblique;writing-mode:lr-tb;fill:#231f20;fill-opacity:1;fill-rule:nonzero;stroke:none"
               id="text112"><tspan
                 x="0"
                 y="0"
                 id="tspan110">o</tspan></text>
            <text
               xml:space="preserve"
               transform="matrix(0.930776,-0.365591,-0.36559,-0.930776,141.824,116.936)"
               style="font-style:oblique;font-variant:normal;font-size:7.00008px;font-family:Helvetica;-inkscape-font-specification:Helvetica-Oblique;writing-mode:lr-tb;fill:#231f20;fill-opacity:1;fill-rule:nonzero;stroke:none"
               id="text116"><tspan
                 x="0"
                 y="0"
                 id="tspan114">i</tspan></text>
            <text
               xml:space="preserve"
               transform="matrix(0.895086,-0.445893,-0.445893,-0.895086,143.266,116.424)"
               style="font-style:oblique;font-variant:normal;font-size:7.00011px;font-family:Helvetica;-inkscape-font-specification:Helvetica-Oblique;writing-mode:lr-tb;fill:#231f20;fill-opacity:1;fill-rule:nonzero;stroke:none"
               id="text120"><tspan
                 x="0"
                 y="0"
                 id="tspan118">d</tspan></text>
          </g>
          <path
             d="m 340,886.637 c 75,68.328 263.336,166.663 383.336,165.003 120,-1.68 148.305,-22.72 190,-23.34 113.334,-1.66 368.334,93.34 488.334,81.66 120,-11.66 278.34,-119.995 336.67,-144.995 58.33,-25 208.33,-43.328 208.33,-43.328"
             style="fill:none;stroke:#231f20;stroke-width:7.5;stroke-linecap:round;stroke-linejoin:miter;stroke-miterlimit:4;stroke-dasharray:50, 30;stroke-dashoffset:0;stroke-opacity:1"
             id="path122" />
          <path
             d="m 386.301,1364.29 -15.621,23.64 -23.637,-15.62 15.613,-23.64 23.645,15.62"
             style="fill:#231f20;fill-opacity:1;fill-rule:nonzero;stroke:none"
             id="path124" />
          <path
             d="m 386.301,1364.29 -15.621,23.64 -23.637,-15.62 15.613,-23.64 z"
             style="fill:none;stroke:#231f20;stroke-width:10;stroke-linecap:round;stroke-linejoin:miter;stroke-miterlimit:4;stroke-dasharray:50, 30;stroke-dashoffset:0;stroke-opacity:1"
             id="path126" />
          <path
             d="m 366.672,1368.3 195,-298.34"
             style="fill:#231f20;fill-opacity:1;fill-rule:nonzero;stroke:none"
             id="path128" />
          <path
             d="m 366.672,1368.3 195,-298.34"
             style="fill:none;stroke:#231f20;stroke-width:5;stroke-linecap:round;stroke-linejoin:miter;stroke-miterlimit:4;stroke-dasharray:none;stroke-opacity:1"
             id="path130" />
          <path
             d="m 558.926,1074.25 9.086,19.03 0.679,-0.3 6.309,-30.97 c 3.715,-9.8 7.426,-19.6 11.145,-29.4 -7.489,7.34 -14.973,14.68 -22.457,22.01 l -25.836,18.2 -0.079,0.69 21.153,0.74"
             style="fill:#231f20;fill-opacity:1;fill-rule:nonzero;stroke:none"
             id="path132" />
          <path
             d="M 1809.62,1054.33 1757.95,1011"
             style="fill:#231f20;fill-opacity:1;fill-rule:nonzero;stroke:none"
             id="path134" />
          <path
             d="M 1809.62,1054.33 1757.95,1011"
             style="fill:none;stroke:#231f20;stroke-width:5;stroke-linecap:butt;stroke-linejoin:miter;stroke-miterlimit:4;stroke-dasharray:none;stroke-opacity:1"
             id="path136" />
          <path
             d="m 1761.85,1014.24 19.96,-6.76 -0.21,-0.71 -30.01,-9.942 c -9.29,-4.848 -18.57,-9.703 -27.86,-14.551 6.4,8.301 12.78,16.602 19.19,24.903 l 15,27.82 0.66,0.16 3.27,-20.92"
             style="fill:#231f20;fill-opacity:1;fill-rule:nonzero;stroke:none"
             id="path138" />
          <path
             d="m 2091.52,792.77 -47.37,48.007"
             style="fill:#231f20;fill-opacity:1;fill-rule:nonzero;stroke:none"
             id="path140" />
          <path
             d="m 2091.52,792.77 -47.37,48.007"
             style="fill:none;stroke:#231f20;stroke-width:5;stroke-linecap:butt;stroke-linejoin:miter;stroke-miterlimit:4;stroke-dasharray:none;stroke-opacity:1"
             id="path142" />
          <path
             d="m 2047.71,837.16 -5.14,-20.449 -0.72,0.148 -12.33,29.102 c -5.58,8.871 -11.17,17.73 -16.77,26.598 8.8,-5.704 17.59,-11.403 26.38,-17.102 l 28.95,-12.711 0.21,-0.652 -20.58,-4.934"
             style="fill:#231f20;fill-opacity:1;fill-rule:nonzero;stroke:none"
             id="path144" />
          <path
             d="m 196.918,608.539 52,42.93"
             style="fill:#231f20;fill-opacity:1;fill-rule:nonzero;stroke:none"
             id="path146" />
          <path
             d="m 196.918,608.539 52,42.93"
             style="fill:none;stroke:#231f20;stroke-width:5;stroke-linecap:butt;stroke-linejoin:miter;stroke-miterlimit:4;stroke-dasharray:none;stroke-opacity:1"
             id="path148" />
          <path
             d="m 245,648.25 -19.91,6.93 0.215,0.699 30.078,9.711 c 9.324,4.769 18.652,9.551 27.976,14.332 -6.461,-8.25 -12.918,-16.5 -19.375,-24.762 L 248.762,627.461 248.09,627.309 245,648.25"
             style="fill:#231f20;fill-opacity:1;fill-rule:nonzero;stroke:none"
             id="path150" />
          <g
             id="g152"
             transform="scale(10)">
            <text
               xml:space="preserve"
               transform="matrix(1,0,-7e-8,-1,0,53.493)"
               style="font-style:oblique;font-variant:normal;font-size:7px;font-family:Helvetica;-inkscape-font-specification:Helvetica-Oblique;writing-mode:lr-tb;fill:#231f20;fill-opacity:1;fill-rule:nonzero;stroke:none"
               id="text164"><tspan
                 x="0 5.4461932 9.3383865 13.23058 14.784774 18.676968 20.623159 25.677353 29.569548 33.461739 37.353935 38.908127 42.80032 44.746513 46.300709 50.192902"
                 y="0"
                 sodipodi:role="line"
                 id="tspan154">Geoid Undulation</tspan><tspan
                 x="189.60699 194.27621 198.16844"
                 y="-59.503899"
                 sodipodi:role="line"
                 id="tspan156">Sea</tspan><tspan
                 x="183.77303 188.4422 192.3344 194.66557 196.61176 200.50395 204.00414"
                 y="-51.503899"
                 sodipodi:role="line"
                 id="tspan158">Surface</tspan><tspan
                 x="202.17502 206.45218 210.34435 214.2365 218.12866 222.02083 224.35199 228.24414 232.13631 236.02847"
                 y="-19.940201"
                 sodipodi:role="line"
                 id="tspan160">Topography</tspan><tspan
                 x="202.17502 204.50621 208.39839 212.29057 214.23676 216.18294 218.12912 222.02132 223.9675 227.46768 230.96786 234.86005 236.41423 240.30641"
                 y="-11.9402"
                 sodipodi:role="line"
                 id="tspan162">(not to scale)</tspan></text>
            <text
               xml:space="preserve"
               transform="matrix(0.673702,0.739003,0.739003,-0.673702,45.3238,69.2879)"
               style="font-style:oblique;font-variant:normal;font-size:6.99987px;font-family:Helvetica;-inkscape-font-specification:Helvetica-Oblique;writing-mode:lr-tb;fill:#231f20;fill-opacity:1;fill-rule:nonzero;stroke:none"
               id="text170"><tspan
                 x="0 5.0542088 8.9464388 10.892706 14.784936 17.116196 21.008427 24.900658 28.400894"
                 y="0"
                 sodipodi:role="line"
                 id="tspan166">Reference</tspan><tspan
                 x="0 4.6692224 6.2235026 7.7777829 9.3320637 13.2243 16.724545 20.616781 22.171062"
                 y="7.9999995"
                 sodipodi:role="line"
                 id="tspan168">Ellipsoid</tspan></text>
            <text
               xml:space="preserve"
               transform="matrix(1,0,-7e-8,-1,103.188,8.57617)"
               style="font-style:oblique;font-variant:normal;font-size:7px;font-family:Helvetica;-inkscape-font-specification:Helvetica-Oblique;writing-mode:lr-tb;fill:#231f20;fill-opacity:1;fill-rule:nonzero;stroke:none"
               id="text176"><tspan
                 x="0 5.0542154 8.9464302 12.838646 14.784862 18.677076 21.008291 22.954508 26.846722"
                 y="0"
                 sodipodi:role="line"
                 id="tspan172">Center of</tspan><tspan
                 x="6.0339799 11.865066 15.757152 19.257238"
                 y="8"
                 sodipodi:role="line"
                 id="tspan174">Mass</tspan></text>
            <text
               xml:space="preserve"
               transform="matrix(0.626681,0.779276,0.779276,-0.626681,32.2773,69.3121)"
               style="font-style:oblique;font-variant:normal;font-size:9.00108px;font-family:Helvetica;-inkscape-font-specification:Helvetica-Oblique;writing-mode:lr-tb;fill:#231f20;fill-opacity:1;fill-rule:nonzero;stroke:#231f20;stroke-width:0.25;stroke-linecap:butt;stroke-linejoin:miter;stroke-miterlimit:4;stroke-dasharray:none;stroke-opacity:1"
               id="text180"><tspan
                 x="0"
                 y="0"
                 id="tspan178">{</tspan></text>
          </g>
          <g
             id="g182"
             transform="scale(10)">
            <text
               xml:space="preserve"
               transform="matrix(0.968732,-0.248108,-0.248108,-0.968732,195.628,85.4531)"
               style="font-style:oblique;font-variant:normal;font-size:8.9987px;font-family:Helvetica;-inkscape-font-specification:Helvetica-Oblique;writing-mode:lr-tb;fill:#231f20;fill-opacity:1;fill-rule:nonzero;stroke:none"
               id="text186"><tspan
                 x="0"
                 y="0"
                 id="tspan184">}</tspan></text>
            <text
               xml:space="preserve"
               transform="matrix(1,0,1e-8,-1,119.835,62.8262)"
               style="font-style:oblique;font-variant:normal;font-size:9px;font-family:Helvetica;-inkscape-font-specification:Helvetica-Oblique;writing-mode:lr-tb;fill:#231f20;fill-opacity:1;fill-rule:nonzero;stroke:none"
               id="text190"><tspan
                 x="0"
                 y="0"
                 id="tspan188">r</tspan></text>
            <text
               xml:space="preserve"
               transform="matrix(0.851335,0.524622,0.524622,-0.851335,50.2789,120.829)"
               style="font-style:oblique;font-variant:normal;font-size:6.99911px;font-family:Helvetica;-inkscape-font-specification:Helvetica-Oblique;writing-mode:lr-tb;fill:#231f20;fill-opacity:1;fill-rule:nonzero;stroke:none"
               id="text194"><tspan
                 x="0"
                 y="0"
                 id="tspan192">h</tspan></text>
          </g>
        </g>
      </g>
    </g>
  </g>
</svg>
