<?xml version="1.0" encoding="UTF-8" standalone="no"?>
<!-- Created with Inkscape (http://www.inkscape.org/) -->

<svg
   version="1.1"
   id="svg2"
   width="453.33334"
   height="225.33333"
   viewBox="0 0 453.33334 225.33333"
   sodipodi:docname="bathysketch.eps"
   xmlns:inkscape="http://www.inkscape.org/namespaces/inkscape"
   xmlns:sodipodi="http://sodipodi.sourceforge.net/DTD/sodipodi-0.dtd"
   xmlns="http://www.w3.org/2000/svg"
   xmlns:svg="http://www.w3.org/2000/svg">
  <defs
     id="defs6" />
  <sodipodi:namedview
     id="namedview4"
     pagecolor="#ffffff"
     bordercolor="#000000"
     borderopacity="0.25"
     inkscape:showpageshadow="2"
     inkscape:pageopacity="0.0"
     inkscape:pagecheckerboard="0"
     inkscape:deskcolor="#d1d1d1" />
  <g
     id="g8"
     inkscape:groupmode="layer"
     inkscape:label="ink_ext_XXXXXX"
     transform="matrix(1.3333333,0,0,-1.3333333,0,225.33333)">
    <g
       id="g10"
       transform="scale(0.1)">
      <path
         d="m 3340.55,1159.45 c -37.4,2.12 -53.63,30.34 -81.85,64.21 -28.23,33.87 -11.29,372.55 -45.16,372.55 -33.87,0 -117.83,-1490.222 -168.64,-1490.222 -50.1,0 -16.93,293.532 -39.51,321.75 -22.58,28.223 -213.79,0 -264.6,39.512 -50.81,38.809 -50.81,282.25 -95.26,282.25 -45.15,0 -67.73,-259.672 -129.82,-315.41 -62.1,-56.449 -314.71,-23.289 -371.15,44.449 -56.46,67.742 -89.62,282.25 -101.62,338.695 -11.27,56.457 -55.73,67.735 -72.67,107.246 -16.93,40.227 16.94,225.8 -16.93,225.8 -33.16,0 -91.73,-352.8 -78.33,-371.854 -2.82,-12 -14.11,4.23 -28.23,-33.867 -14.1,-38.11 10.59,-85.387 -28.22,-79.739 -39.5,5.641 -28.21,429.02 -50.79,429.02 -22.58,0 -62.1,-626.59 -118.55,-683.039 -56.45,-56.442 -449.46,-50.813 -512.26,-33.871 -62.09,16.941 -230.03,158.058 -269.546,214.511 -38.809,56.438 -157.351,671.729 -185.574,711.949 -28.227,39.53 -377.492,90.32 -456.527,134.77 -78.317,45.16 -157.3442,186.28 -201.7974,241.32 0,-5.64 -19.75388,-1031.601 0,-1076.039 19.7578,-45.171 64.2149,14.809 83.9644,59.27 19.758,45.16 4.942,508.739 34.575,543.309 29.64,34.57 431.832,55.03 466.402,19.77 35.285,-34.59 62.094,-139.02 41.633,-174.3 -20.461,-34.57 8.465,-20.47 -1.414,-69.849 -10.586,-49.387 74.09,-423.371 124.187,-467.821 49.395,-45.148 292.127,-284.351 620.227,-239.199 327.39,45.16 377.5,134.777 590.59,134.777 213.8,0 242.72,-79.738 451.59,-69.859 208.86,9.883 417,69.16 471.34,9.883 54.32,-59.973 -4.95,-249.7931 54.32,-274.4806 59.97,-23.9922 124.19,-59.2695 154.52,-4.2305 29.64,54.3201 64.22,945.4991 134.08,985.7191 69.15,40.22 33.86,24.7 88.9,24.7 55.04,0 -24.7,74.79 2.12,78.32"
         style="fill:#d3d2d2;fill-opacity:1;fill-rule:nonzero;stroke:none"
         id="path12" />
      <path
         d="M 232.375,1412.76 H 3198.02"
         style="fill:none;stroke:#ffffff;stroke-width:2.15;stroke-linecap:butt;stroke-linejoin:miter;stroke-miterlimit:4;stroke-dasharray:none;stroke-opacity:1"
         id="path14" />
      <path
         d="M 293.844,1412.76 H 3184.93"
         style="fill:none;stroke:#666364;stroke-width:2.5;stroke-linecap:butt;stroke-linejoin:miter;stroke-miterlimit:4;stroke-dasharray:none;stroke-opacity:1"
         id="path16" />
      <path
         d="m 3260.1,1412.76 h 129.13"
         style="fill:none;stroke:#666364;stroke-width:2.15;stroke-linecap:butt;stroke-linejoin:miter;stroke-miterlimit:4;stroke-dasharray:none;stroke-opacity:1"
         id="path18" />
      <path
         d="m 3238.62,1412.76 h 150.61"
         style="fill:none;stroke:#666364;stroke-width:2.5;stroke-linecap:butt;stroke-linejoin:miter;stroke-miterlimit:4;stroke-dasharray:none;stroke-opacity:1"
         id="path20" />
      <path
         d="M 1592.77,55.1797 H 1015.59"
         style="fill:none;stroke:#231f20;stroke-width:5;stroke-linecap:butt;stroke-linejoin:miter;stroke-miterlimit:4;stroke-dasharray:none;stroke-opacity:1"
         id="path22" />
      <path
         d="m 986.02,55.1797 c 13.921,5.1601 31.18,13.9687 41.88,23.3008 l -8.43,-23.3008 8.43,-23.3008 c -10.7,9.3203 -27.959,18.1406 -41.88,23.3008"
         style="fill:#231f20;fill-opacity:1;fill-rule:nonzero;stroke:none"
         id="path24" />
      <path
         d="m 2138.76,55.1797 h 860.27"
         style="fill:none;stroke:#231f20;stroke-width:5;stroke-linecap:butt;stroke-linejoin:miter;stroke-miterlimit:4;stroke-dasharray:none;stroke-opacity:1"
         id="path26" />
      <path
         d="M 3028.61,55.1602 C 3014.68,50 2997.42,41.1992 2986.7,31.8906 l 8.45,23.2891 -8.41,23.3086 c 10.7,-9.3399 27.95,-18.1485 41.87,-23.3281"
         style="fill:#231f20;fill-opacity:1;fill-rule:nonzero;stroke:none"
         id="path28" />
      <path
         d="m 505.445,1413.46 1.407,-0.7 -1.407,0.7"
         style="fill:#231f20;fill-opacity:1;fill-rule:nonzero;stroke:none"
         id="path30" />
      <path
         d="m 505.445,1413.46 1.407,-0.7 -1.407,0.7"
         style="fill:#231f20;fill-opacity:1;fill-rule:nonzero;stroke:none"
         id="path32" />
      <path
         d="M 180.156,1569.4 H 312.109"
         style="fill:none;stroke:#231f20;stroke-width:5;stroke-linecap:butt;stroke-linejoin:miter;stroke-miterlimit:4;stroke-dasharray:none;stroke-opacity:1"
         id="path34" />
      <path
         d="m 324.824,1569.4 c -5.98,-2.22 -13.406,-6.01 -18.008,-10.02 l 3.625,10.02 -3.625,10.02 c 4.602,-4.01 12.028,-7.79 18.008,-10.02"
         style="fill:#231f20;fill-opacity:1;fill-rule:nonzero;stroke:none"
         id="path36" />
      <path
         d="m 167.441,1569.4 c 5.981,2.23 13.411,6.01 18.008,10.02 l -3.621,-10.02 3.621,-10.02 c -4.597,4.01 -12.027,7.8 -18.008,10.02"
         style="fill:#231f20;fill-opacity:1;fill-rule:nonzero;stroke:none"
         id="path38" />
      <path
         d="m 250.938,1570.88 114.335,55.53"
         style="fill:none;stroke:#231f20;stroke-width:5;stroke-linecap:butt;stroke-linejoin:miter;stroke-miterlimit:4;stroke-dasharray:none;stroke-opacity:1"
         id="path40" />
      <path
         d="M 463.852,1474.3 H 627.184"
         style="fill:#231f20;fill-opacity:1;fill-rule:nonzero;stroke:none"
         id="path42" />
      <path
         d="M 463.852,1474.3 H 627.184"
         style="fill:none;stroke:#231f20;stroke-width:5;stroke-linecap:butt;stroke-linejoin:miter;stroke-miterlimit:4;stroke-dasharray:none;stroke-opacity:1"
         id="path44" />
      <path
         d="M 531.879,1377.27 H 633.148"
         style="fill:#231f20;fill-opacity:1;fill-rule:nonzero;stroke:none"
         id="path46" />
      <path
         d="M 531.879,1377.27 H 633.148"
         style="fill:none;stroke:#231f20;stroke-width:5;stroke-linecap:butt;stroke-linejoin:miter;stroke-miterlimit:4;stroke-dasharray:none;stroke-opacity:1"
         id="path48" />
      <g
         id="g50"
         transform="scale(10)">
        <text
           xml:space="preserve"
           transform="matrix(1,0,-7e-8,-1,37.6426,162.967)"
           style="font-style:oblique;font-variant:normal;font-size:7px;font-family:Helvetica;-inkscape-font-specification:Helvetica-Oblique;writing-mode:lr-tb;fill:#231f20;fill-opacity:1;fill-rule:nonzero;stroke:none"
           id="text72"><tspan
             x="0 4.6692004 8.5614004 12.453601 14.784801"
             y="0"
             sodipodi:role="line"
             id="tspan52">Shore</tspan><tspan
             x="27.549601 32.603794 34.157986 38.050179 41.942368 43.888561 50.496754 54.388947 56.335136 60.227329"
             y="17.7363"
             sodipodi:role="line"
             id="tspan54">High Water</tspan><tspan
             x="28.015224 31.907429 35.799629 40.853832 42.800037 49.408241 53.300442 55.246647 59.138847"
             y="28.786301"
             sodipodi:role="line"
             id="tspan56">Low Water</tspan><tspan
             x="106.03043 110.69961 114.59179 118.48398 120.43016 124.32234 128.21452 131.71471 135.6069"
             y="18.334299"
             sodipodi:role="line"
             id="tspan58">Sea Level</tspan><tspan
             x="98.844482 104.29068 109.34488 114.01408 118.68327"
             y="44.099499"
             sodipodi:role="line"
             id="tspan60">OCEAN</tspan><tspan
             x="-11.976515 -7.3073459 -2.2531769 2.415992 6.3081608"
             y="37.320202"
             sodipodi:role="line"
             id="tspan62">SHELF</tspan><tspan
             x="-11.976515 -9.6453428 -4.1991711 -1.8679993 2.0241725 5.5243444 9.4165163 10.970688"
             y="45.820202"
             sodipodi:role="line"
             id="tspan64">(Gravel,</tspan><tspan
             x="-11.976515 -7.3073006 -3.4150858 0.47712874"
             y="54.320202"
             sodipodi:role="line"
             id="tspan66">Sand</tspan><tspan
             x="-11.976515 -7.3073587 -3.8072026 -1.8610466 1.6391096 3.1932659 7.085422 10.977578"
             y="62.820202"
             sodipodi:role="line"
             id="tspan68">Av slope</tspan><tspan
             x="-11.976515 -8.0843105 -6.1381054 -4.5839009 -0.69169611 1.2545086 5.1467133 9.0389185 12.931123"
             y="71.320198"
             sodipodi:role="line"
             id="tspan70">1 in 500)</tspan></text>
        <text
           xml:space="preserve"
           transform="matrix(0.173603,-0.984816,-0.984816,-0.173603,66.6215,101.186)"
           style="font-style:oblique;font-variant:normal;font-size:6.99969px;font-family:Helvetica;-inkscape-font-specification:Helvetica-Oblique;writing-mode:lr-tb;fill:#231f20;fill-opacity:1;fill-rule:nonzero;stroke:none"
           id="text76"><tspan
             x="0 4.669076 8.5611858 14.007228 18.676304"
             y="0"
             sodipodi:role="line"
             id="tspan74">SLOPE</tspan></text>
        <text
           xml:space="preserve"
           transform="matrix(1,0,-7e-8,-1,45.2219,64.8281)"
           style="font-style:oblique;font-variant:normal;font-size:7px;font-family:Helvetica;-inkscape-font-specification:Helvetica-Oblique;writing-mode:lr-tb;fill:#231f20;fill-opacity:1;fill-rule:nonzero;stroke:none"
           id="text84"><tspan
             x="0 2.331172 8.162344 12.054516"
             y="0"
             sodipodi:role="line"
             id="tspan78">(Mud</tspan><tspan
             x="0 3.8921504 7.3923011 9.3384514 12.838602 14.392753 18.284903 22.177053"
             y="8.5"
             sodipodi:role="line"
             id="tspan80">av slope</tspan><tspan
             x="0 3.892205 5.8384099 7.3926153 11.284821 13.231025 17.12323 21.015436"
             y="17"
             sodipodi:role="line"
             id="tspan82">1 in 20)</tspan></text>
        <text
           xml:space="preserve"
           transform="matrix(0,1,1,-7e-8,8.43789,109.389)"
           style="font-style:oblique;font-variant:normal;font-size:7px;font-family:Helvetica;-inkscape-font-specification:Helvetica-Oblique;writing-mode:lr-tb;fill:#231f20;fill-opacity:1;fill-rule:nonzero;stroke:none"
           id="text88"><tspan
             x="0 5.0541458 10.500292 15.554438 19.831583 21.777729 26.831875 31.50102 36.555168"
             y="0"
             sodipodi:role="line"
             id="tspan86">CONTINENT</tspan></text>
        <text
           xml:space="preserve"
           transform="matrix(0.818503,-0.574502,-0.574502,-0.818503,84.1594,48.1469)"
           style="font-style:oblique;font-variant:normal;font-size:6.99967px;font-family:Helvetica;-inkscape-font-specification:Helvetica-Oblique;writing-mode:lr-tb;fill:#231f20;fill-opacity:1;fill-rule:nonzero;stroke:none"
           id="text92"><tspan
             x="0 5.0541081 7.0003633 11.66949"
             y="0"
             sodipodi:role="line"
             id="tspan90">RISE</tspan></text>
        <text
           xml:space="preserve"
           transform="matrix(1,0,-7e-8,-1,122.354,28.068)"
           style="font-style:oblique;font-variant:normal;font-size:7px;font-family:Helvetica;-inkscape-font-specification:Helvetica-Oblique;writing-mode:lr-tb;fill:#231f20;fill-opacity:1;fill-rule:nonzero;stroke:none"
           id="text106"><tspan
             x="0 4.6692281 9.3384562 14.007685 15.953913"
             y="0"
             sodipodi:role="line"
             id="tspan94">BASIN</tspan><tspan
             x="47.026199 52.857384 54.80357 59.857754 62.188934 67.635117 72.689301 77.35849 82.027672"
             y="-14.1738"
             sodipodi:role="line"
             id="tspan96">MID-OCEAN</tspan><tspan
             x="55.96917 61.023376 62.969582 68.023788 73.469994"
             y="-5.6738"
             sodipodi:role="line"
             id="tspan98">RIDGE</tspan><tspan
             x="48.893002 53.947235 58.616474 63.285709 67.954948 69.901184 74.570419 79.239655"
             y="26.1469"
             sodipodi:role="line"
             id="tspan100">DEEP SEA</tspan><tspan
             x="-13.1461 -10.814941 -5.7607832 -4.206625 -0.31446677 3.1856916 5.1318498 9.8010082 11.747167 17.193325 21.085484 24.585642 28.4778 31.977959"
             y="9.1602001"
             sodipodi:role="line"
             id="tspan102">(Clay &amp; Oozes)</tspan><tspan
             x="-14.118756 -8.2875881 -6.7334208 -2.8412533 1.0509144 3.382082 7.2742496 8.8284168 10.774585 16.220753 18.55192 22.444088 26.336256 30.228422 31.782591"
             y="17.6602"
             sodipodi:role="line"
             id="tspan104">Mineral Organic</tspan></text>
        <text
           xml:space="preserve"
           transform="matrix(0,1,1,-7e-8,266.173,15.7328)"
           style="font-style:oblique;font-variant:normal;font-size:7px;font-family:Helvetica;-inkscape-font-specification:Helvetica-Oblique;writing-mode:lr-tb;fill:#231f20;fill-opacity:1;fill-rule:nonzero;stroke:none"
           id="text110"><tspan
             x="0 4.6691775 9.3383551 14.007532 19.838709 25.284887 30.339064 35.393242"
             y="0"
             sodipodi:role="line"
             id="tspan108">SEAMOUNT</tspan></text>
        <text
           xml:space="preserve"
           transform="matrix(0.0871992,0.996191,0.996191,-0.0871992,307.043,46.6129)"
           style="font-style:oblique;font-variant:normal;font-size:7.00006px;font-family:Helvetica;-inkscape-font-specification:Helvetica-Oblique;writing-mode:lr-tb;fill:#231f20;fill-opacity:1;fill-rule:nonzero;stroke:none"
           id="text116"><tspan
             x="0 4.2770815 9.3311701 14.000255 19.054344 24.108431"
             y="0"
             sodipodi:role="line"
             id="tspan112">TRENCH</tspan><tspan
             x="28.556503 30.50264 35.171799 39.063953 43.733112 48.787277 53.841438 55.787575 60.456734 65.510895"
             y="11.038301"
             sodipodi:role="line"
             id="tspan114">ISLAND ARC</tspan></text>
      </g>
      <path
         d="m 3340.55,1159.45 c -37.4,2.11 -53.63,30.34 -81.85,64.2 -28.23,33.87 -11.29,372.56 -45.16,372.56 -33.87,0 -117.83,-1490.222 -168.63,-1490.222 -50.1,0 -16.94,293.524 -39.51,321.742 -22.58,28.219 -213.79,0 -264.61,39.508 -50.8,38.813 -50.8,282.254 -95.26,282.254 -45.15,0 -67.73,-259.672 -129.82,-315.414 -62.09,-56.449 -314.71,-23.289 -371.15,44.453 -56.45,67.75 -89.61,282.25 -101.61,338.696 -11.28,56.464 -55.74,67.734 -72.67,107.246 -16.94,40.234 16.93,225.797 -16.94,225.797 -33.16,0 -91.73,-352.79 -78.32,-371.852 -2.83,-11.992 -14.12,4.238 -28.24,-33.867 -14.1,-38.11 10.59,-85.379 -28.22,-79.731 -39.5,5.641 -28.2,429.01 -50.79,429.01 -22.58,0 -62.1,-626.592 -118.55,-683.041 -56.45,-56.437 -449.46,-50.801 -512.26,-33.859 -62.09,16.929 -230.03,158.058 -269.546,214.511 -38.809,56.438 -157.351,671.719 -185.574,711.939 -28.227,39.53 -377.492,90.33 -456.527,134.78 -78.317,45.16 -157.3442,186.27 -201.7974,241.31"
         style="fill:none;stroke:#363639;stroke-width:5;stroke-linecap:butt;stroke-linejoin:miter;stroke-miterlimit:4;stroke-dasharray:none;stroke-opacity:1"
         id="path118" />
    </g>
  </g>
</svg>
