<?xml version="1.0" encoding="UTF-8" standalone="no"?>
<!-- Created with Inkscape (http://www.inkscape.org/) -->

<svg
   version="1.1"
   id="svg2"
   width="446.66666"
   height="289.33334"
   viewBox="0 0 446.66666 289.33334"
   sodipodi:docname="Sonar.eps"
   xmlns:inkscape="http://www.inkscape.org/namespaces/inkscape"
   xmlns:sodipodi="http://sodipodi.sourceforge.net/DTD/sodipodi-0.dtd"
   xmlns="http://www.w3.org/2000/svg"
   xmlns:svg="http://www.w3.org/2000/svg">
  <defs
     id="defs6">
    <clipPath
       clipPathUnits="userSpaceOnUse"
       id="clipPath18">
      <path
         d="M 0,2.89844 H 3340 V 2162.8984 H 0 Z"
         id="path16" />
    </clipPath>
  </defs>
  <sodipodi:namedview
     id="namedview4"
     pagecolor="#ffffff"
     bordercolor="#000000"
     borderopacity="0.25"
     inkscape:showpageshadow="2"
     inkscape:pageopacity="0.0"
     inkscape:pagecheckerboard="0"
     inkscape:deskcolor="#d1d1d1" />
  <g
     id="g8"
     inkscape:groupmode="layer"
     inkscape:label="ink_ext_XXXXXX"
     transform="matrix(1.3333333,0,0,-1.3333333,0,289.33333)">
    <g
       id="g10"
       transform="scale(0.1)">
      <g
         id="g12">
        <g
           id="g14"
           clip-path="url(#clipPath18)">
          <path
             d="m 316.871,2040.61 h 707.508 v 102.5 H 316.871 Z"
             style="fill:none;stroke:#231f20;stroke-width:7.5;stroke-linecap:butt;stroke-linejoin:miter;stroke-miterlimit:4;stroke-dasharray:none;stroke-opacity:1"
             id="path20" />
          <path
             d="m 228.121,1914.98 h 885.008 v 125 H 228.121 Z"
             style="fill:none;stroke:#231f20;stroke-width:7.5;stroke-linecap:butt;stroke-linejoin:miter;stroke-miterlimit:4;stroke-dasharray:none;stroke-opacity:1"
             id="path22" />
          <path
             d="m 1205.71,1914.36 v -575 c 0,0 2.5,-87.5 -45,-130 -47.5,-42.5 -87.5,-47.51 -87.5,-47.51 H 268.027 c 0,0 -40,5.01 -87.5,47.51 -47.5,42.5 -45,130 -45,130 v 575 z"
             style="fill:none;stroke:#231f20;stroke-width:7.5;stroke-linecap:butt;stroke-linejoin:miter;stroke-miterlimit:4;stroke-dasharray:none;stroke-opacity:1"
             id="path24" />
          <path
             d="M 670.664,27.0586 V 1157.06"
             style="fill:none;stroke:#231f20;stroke-width:7.5;stroke-linecap:butt;stroke-linejoin:miter;stroke-miterlimit:4;stroke-dasharray:120, 120;stroke-dashoffset:0;stroke-opacity:1"
             id="path26" />
          <path
             d="M 925.664,1160.66 670.664,28.1602"
             style="fill:none;stroke:#231f20;stroke-width:5;stroke-linecap:butt;stroke-linejoin:miter;stroke-miterlimit:4;stroke-dasharray:none;stroke-opacity:1"
             id="path28" />
          <path
             d="m 818.164,685.66 19.981,6.719 0.265,-0.688 -17.84,-26.089 c -4.441,-9.493 -8.89,-18.981 -13.332,-28.481 0.055,10.488 0.102,20.969 0.157,31.449 l -4.934,31.219 0.434,0.539 15.269,-14.668"
             style="fill:#231f20;fill-opacity:1;fill-rule:nonzero;stroke:none"
             id="path30" />
          <path
             d="M 415.57,1160.66 670.57,28.1602"
             style="fill:none;stroke:#231f20;stroke-width:5;stroke-linecap:butt;stroke-linejoin:miter;stroke-miterlimit:4;stroke-dasharray:none;stroke-opacity:1"
             id="path32" />
          <path
             d="m 526.914,661.852 19.981,-6.723 0.265,0.691 -17.84,26.09 c -4.441,9.488 -8.89,18.981 -13.332,28.481 0.055,-10.493 0.102,-20.973 0.157,-31.45 l -4.934,-31.222 0.434,-0.539 15.269,14.672"
             style="fill:#231f20;fill-opacity:1;fill-rule:nonzero;stroke:none"
             id="path34" />
          <path
             d="M 1323.34,22.4805 H 0"
             style="fill:none;stroke:#231f20;stroke-width:7.5;stroke-linecap:butt;stroke-linejoin:miter;stroke-miterlimit:4;stroke-dasharray:none;stroke-opacity:1"
             id="path36" />
          <path
             d="m 352.379,1557.2 h 645.293 v 232.23 H 352.379 Z"
             style="fill:none;stroke:#231f20;stroke-width:7.5;stroke-linecap:butt;stroke-linejoin:miter;stroke-miterlimit:4;stroke-dasharray:none;stroke-opacity:1"
             id="path38" />
          <path
             d="m 227.367,1310.82 h 363.75 v 150 h -363.75 z"
             style="fill:none;stroke:#231f20;stroke-width:7.5;stroke-linecap:butt;stroke-linejoin:miter;stroke-miterlimit:4;stroke-dasharray:none;stroke-opacity:1"
             id="path40" />
          <path
             d="m 331.742,1162.06 h 155 v 62.5078 h -155 z"
             style="fill:none;stroke:#231f20;stroke-width:7.5;stroke-linecap:butt;stroke-linejoin:miter;stroke-miterlimit:4;stroke-dasharray:none;stroke-opacity:1"
             id="path42" />
          <path
             d="m 738.93,1309.57 h 363.762 v 150 H 738.93 Z"
             style="fill:none;stroke:#231f20;stroke-width:7.5;stroke-linecap:butt;stroke-linejoin:miter;stroke-miterlimit:4;stroke-dasharray:none;stroke-opacity:1"
             id="path44" />
          <path
             d="m 843.305,1162.06 h 155 v 62.5078 h -155 z"
             style="fill:none;stroke:#231f20;stroke-width:7.5;stroke-linecap:butt;stroke-linejoin:miter;stroke-miterlimit:4;stroke-dasharray:none;stroke-opacity:1"
             id="path46" />
          <path
             d="m 1563.34,399.141 h 1306.67 v 1760.01 H 1563.34 Z"
             style="fill:none;stroke:#231f20;stroke-width:7.5;stroke-linecap:butt;stroke-linejoin:miter;stroke-miterlimit:4;stroke-dasharray:none;stroke-opacity:1"
             id="path48" />
          <path
             d="m 1692.1,10.9609 h 382.887 v 168.18 H 1692.1 Z"
             style="fill:none;stroke:#231f20;stroke-width:7.5;stroke-linecap:butt;stroke-linejoin:miter;stroke-miterlimit:4;stroke-dasharray:none;stroke-opacity:1"
             id="path50" />
          <path
             d="m 2347.72,3.75 h 392.352 V 182.48 H 2347.72 Z"
             style="fill:none;stroke:#231f20;stroke-width:7.5;stroke-linecap:butt;stroke-linejoin:miter;stroke-miterlimit:4;stroke-dasharray:none;stroke-opacity:1"
             id="path52" />
          <path
             d="m 1738.16,552.48 h 608.512 V 869.14 H 1738.16 Z"
             style="fill:none;stroke:#231f20;stroke-width:7.5;stroke-linecap:butt;stroke-linejoin:miter;stroke-miterlimit:4;stroke-dasharray:none;stroke-opacity:1"
             id="path54" />
          <path
             d="m 1873.34,1959.15 h 649.988 v 86.668 H 1873.34 Z"
             style="fill:none;stroke:#231f20;stroke-width:7.5;stroke-linecap:butt;stroke-linejoin:miter;stroke-miterlimit:4;stroke-dasharray:none;stroke-opacity:1"
             id="path56" />
          <path
             d="m 1839.28,1792.82 c 62.48,0 113.13,14.77 113.13,33 0,18.22 -50.65,32.99 -113.13,32.99 -62.48,0 -113.15,-14.77 -113.15,-32.99 0,-18.23 50.67,-33 113.15,-33 z"
             style="fill:none;stroke:#231f20;stroke-width:7.5;stroke-linecap:butt;stroke-linejoin:miter;stroke-miterlimit:4;stroke-dasharray:none;stroke-opacity:1"
             id="path58" />
          <path
             d="m 1769.2,961.93 c -26.23,-6.051 -43.07,-15.41 -43.07,-25.91 0,-18.231 50.67,-33 113.15,-33 62.48,0 113.13,14.769 113.13,33"
             style="fill:none;stroke:#231f20;stroke-width:7.5;stroke-linecap:butt;stroke-linejoin:miter;stroke-miterlimit:4;stroke-dasharray:none;stroke-opacity:1"
             id="path60" />
          <path
             d="m 2504.79,1855.03 c -7.91,0.52 -16.14,0.79 -24.58,0.79 -62.48,0 -113.14,-14.78 -113.14,-33 0,-18.23 50.66,-33 113.14,-33 7.56,0 14.96,0.21 22.1,0.63"
             style="fill:none;stroke:#231f20;stroke-width:7.5;stroke-linecap:butt;stroke-linejoin:miter;stroke-miterlimit:4;stroke-dasharray:none;stroke-opacity:1"
             id="path62" />
          <path
             d="m 2367.07,932.48 c 0,-18.23 50.66,-33 113.14,-33 6.9,0 13.66,0.18 20.22,0.52"
             style="fill:none;stroke:#231f20;stroke-width:7.5;stroke-linecap:butt;stroke-linejoin:miter;stroke-miterlimit:4;stroke-dasharray:none;stroke-opacity:1"
             id="path64" />
          <path
             d="m 2502.08,934.141 h -688.74 c 0,0 -23.75,3.757 -31.25,7.5 -7.5,3.757 -15,16.257 -15,16.257 v 831.252 c 0,0 13.75,-11.25 20,-15 6.25,-3.75 18.75,-3.75 32.5,-3.75 13.75,0 682.49,0 682.49,0 z"
             style="fill:none;stroke:#231f20;stroke-width:7.5;stroke-linecap:butt;stroke-linejoin:miter;stroke-miterlimit:4;stroke-dasharray:none;stroke-opacity:1"
             id="path66" />
          <path
             d="m 1922.92,1802.07 h 467.5"
             style="fill:none;stroke:#231f20;stroke-width:7.5;stroke-linecap:butt;stroke-linejoin:miter;stroke-miterlimit:4;stroke-dasharray:none;stroke-opacity:1"
             id="path68" />
          <path
             d="m 2591.36,1831.54 c 15.62,0 28.28,23.74 28.28,53.03 0,29.29 -12.66,53.03 -28.28,53.03 -15.63,0 -28.29,-23.74 -28.29,-53.03 0,-29.29 12.66,-53.03 28.29,-53.03 z"
             style="fill:none;stroke:#231f20;stroke-width:7.5;stroke-linecap:butt;stroke-linejoin:miter;stroke-miterlimit:4;stroke-dasharray:none;stroke-opacity:1"
             id="path70" />
          <path
             d="m 2591.36,820.27 c 15.62,0 28.28,23.75 28.28,53.039 0,29.281 -12.66,53.031 -28.28,53.031 -15.63,0 -28.29,-23.75 -28.29,-53.031 0,-29.289 12.66,-53.039 28.29,-53.039 z"
             style="fill:none;stroke:#231f20;stroke-width:7.5;stroke-linecap:butt;stroke-linejoin:miter;stroke-miterlimit:4;stroke-dasharray:none;stroke-opacity:1"
             id="path72" />
          <path
             d="m 2599.17,1937.6 h -66.8 c -15.61,0 -28.28,-23.74 -28.28,-53.03 V 873.309 c 0,-29.289 12.66,-53.039 28.28,-53.039 h 61.17"
             style="fill:none;stroke:#231f20;stroke-width:7.5;stroke-linecap:butt;stroke-linejoin:miter;stroke-miterlimit:4;stroke-dasharray:none;stroke-opacity:1"
             id="path74" />
          <path
             d="M 2561.67,1875.82 V 867.48"
             style="fill:none;stroke:#231f20;stroke-width:7.5;stroke-linecap:butt;stroke-linejoin:miter;stroke-miterlimit:4;stroke-dasharray:none;stroke-opacity:1"
             id="path76" />
          <path
             d="M 2578.33,1834.15 V 919.141"
             style="fill:none;stroke:#231f20;stroke-width:7.5;stroke-linecap:butt;stroke-linejoin:miter;stroke-miterlimit:4;stroke-dasharray:none;stroke-opacity:1"
             id="path78" />
          <path
             d="M 2619.64,1884.57 V 873.309"
             style="fill:none;stroke:#231f20;stroke-width:7.5;stroke-linecap:butt;stroke-linejoin:miter;stroke-miterlimit:4;stroke-dasharray:none;stroke-opacity:1"
             id="path80" />
          <path
             d="m 2606.67,1837.48 v -920"
             style="fill:none;stroke:#231f20;stroke-width:7.5;stroke-linecap:butt;stroke-linejoin:miter;stroke-miterlimit:4;stroke-dasharray:none;stroke-opacity:1"
             id="path82" />
          <path
             d="m 2586.67,1558.94 h 89.3672 v 86.9648 H 2586.67 Z"
             style="fill:#ffffff;fill-opacity:1;fill-rule:nonzero;stroke:none"
             id="path84" />
          <path
             d="m 2586.67,1558.94 h 89.3672 v 86.9648 H 2586.67 Z"
             style="fill:none;stroke:#231f20;stroke-width:7.5;stroke-linecap:round;stroke-linejoin:round;stroke-miterlimit:4;stroke-dasharray:none;stroke-opacity:1"
             id="path86" />
          <path
             d="m 1873.34,2045.82 67.08,37.08 h 650 v -86.67 l -67.09,-37.08"
             style="fill:none;stroke:#231f20;stroke-width:7.5;stroke-linecap:butt;stroke-linejoin:miter;stroke-miterlimit:4;stroke-dasharray:none;stroke-opacity:1"
             id="path88" />
          <path
             d="m 2587.92,2080.82 -66.25,-37.5"
             style="fill:none;stroke:#231f20;stroke-width:7.5;stroke-linecap:butt;stroke-linejoin:miter;stroke-miterlimit:4;stroke-dasharray:none;stroke-opacity:1"
             id="path90" />
          <path
             d="m 2713.51,1664.84 v -79.65 l -37.47,-26.25 v 91.25"
             style="fill:#ffffff;fill-opacity:1;fill-rule:nonzero;stroke:none"
             id="path92" />
          <path
             d="m 2713.51,1664.84 v -79.65 l -37.47,-26.25 v 91.25"
             style="fill:none;stroke:#231f20;stroke-width:7.5;stroke-linecap:round;stroke-linejoin:round;stroke-miterlimit:4;stroke-dasharray:none;stroke-opacity:1"
             id="path94" />
          <path
             d="m 2676.04,1645.91 37.47,19.91 h -90.63 l -36.21,-19.91 h 89.37"
             style="fill:#ffffff;fill-opacity:1;fill-rule:nonzero;stroke:none"
             id="path96" />
          <path
             d="m 2676.04,1645.91 37.47,19.91 h -90.63 l -36.21,-19.91 z"
             style="fill:none;stroke:#231f20;stroke-width:7.5;stroke-linecap:round;stroke-linejoin:round;stroke-miterlimit:4;stroke-dasharray:none;stroke-opacity:1"
             id="path98" />
          <path
             d="m 1738.16,869.141 53.95,32.918"
             style="fill:none;stroke:#231f20;stroke-width:7.5;stroke-linecap:butt;stroke-linejoin:miter;stroke-miterlimit:4;stroke-dasharray:none;stroke-opacity:1"
             id="path100" />
          <path
             d="m 2346.67,869.141 60,39.168"
             style="fill:none;stroke:#231f20;stroke-width:7.5;stroke-linecap:butt;stroke-linejoin:miter;stroke-miterlimit:4;stroke-dasharray:none;stroke-opacity:1"
             id="path102" />
          <path
             d="m 2346.67,552.48 30.32,20.36"
             style="fill:none;stroke:#231f20;stroke-width:7.5;stroke-linecap:butt;stroke-linejoin:miter;stroke-miterlimit:4;stroke-dasharray:none;stroke-opacity:1"
             id="path104" />
          <path
             d="m 2377.48,558.52 h 348.141 V 715.192 H 2377.48 Z"
             style="fill:none;stroke:#231f20;stroke-width:7.5;stroke-linecap:butt;stroke-linejoin:miter;stroke-miterlimit:4;stroke-dasharray:none;stroke-opacity:1"
             id="path106" />
          <path
             d="m 2377.48,715.191 113.33,74.579 h 348.13 V 633.102 L 2725.62,558.52"
             style="fill:none;stroke:#231f20;stroke-width:7.5;stroke-linecap:butt;stroke-linejoin:miter;stroke-miterlimit:4;stroke-dasharray:none;stroke-opacity:1"
             id="path108" />
          <path
             d="M 2838.94,789.77 2725.62,715.191"
             style="fill:none;stroke:#231f20;stroke-width:7.5;stroke-linecap:butt;stroke-linejoin:miter;stroke-miterlimit:4;stroke-dasharray:none;stroke-opacity:1"
             id="path110" />
          <g
             id="g112"
             transform="scale(10)">
            <text
               xml:space="preserve"
               transform="matrix(1,0,0,-1,236.206,11.4559)"
               style="font-style:oblique;font-variant:normal;font-size:7px;font-family:Helvetica;-inkscape-font-specification:Helvetica-Oblique;writing-mode:lr-tb;fill:#231f20;fill-opacity:1;fill-rule:nonzero;stroke:none"
               id="text124"><tspan
                 x="0 4.2771602 6.6083202 10.500481 14.392641 17.892801 23.723961 25.278122 27.224281 29.170443 33.062603"
                 y="0"
                 sodipodi:role="line"
                 id="tspan114">Transmitter</tspan><tspan
                 x="1.16211 3.1082695 5.4394288 9.3315887 13.223748 16.723907 20.616066 24.508226 28.008385 31.900545"
                 y="8.5"
                 sodipodi:role="line"
                 id="tspan116">transducer</tspan><tspan
                 x="-61.846889 -56.792774 -52.900658 -49.400539 -45.508423 -43.954304 -40.454189 -36.562069"
                 y="0"
                 sodipodi:role="line"
                 id="tspan118">Receiver</tspan><tspan
                 x="-64.573059 -62.6269 -60.295742 -56.403584 -52.511421 -49.011261 -45.119102 -41.226944 -37.726784 -33.834625"
                 y="8.5"
                 sodipodi:role="line"
                 id="tspan120">transducer</tspan><tspan
                 x="5.1261401 10.572282 14.072425 17.572567 19.126709 20.680851 22.234993 26.127136 28.073278 31.96542"
                 y="-49.376202"
                 sodipodi:role="line"
                 id="tspan122">Oscillator</tspan></text>
          </g>
          <path
             d="M 2486.67,903.309 V 785.191"
             style="fill:none;stroke:#231f20;stroke-width:7.5;stroke-linecap:butt;stroke-linejoin:miter;stroke-miterlimit:4;stroke-dasharray:none;stroke-opacity:1"
             id="path126" />
          <g
             id="g128"
             transform="scale(10)">
            <text
               xml:space="preserve"
               transform="matrix(1,0,0,-1,175.398,72.5422)"
               style="font-style:oblique;font-variant:normal;font-size:7px;font-family:Helvetica;-inkscape-font-specification:Helvetica-Oblique;writing-mode:lr-tb;fill:#231f20;fill-opacity:1;fill-rule:nonzero;stroke:none"
               id="text134"><tspan
                 x="0 4.6691489 6.2232976 10.115446 13.615595 15.561744 17.892893 21.785042 27.61619 31.508339 35.008488 38.900635 42.792786 46.684933 48.239082 51.739231 55.631382"
                 y="0"
                 sodipodi:role="line"
                 id="tspan130">Electromechanical</tspan><tspan
                 x="21.007 24.899128 27.230255 28.784384 32.284512"
                 y="8.5"
                 sodipodi:role="line"
                 id="tspan132">drive</tspan></text>
          </g>
          <path
             d="M 2652.3,1245.19 V 802.691 h -110 v -57.5"
             style="fill:none;stroke:#231f20;stroke-width:7.5;stroke-linecap:butt;stroke-linejoin:miter;stroke-miterlimit:4;stroke-dasharray:30, 20;stroke-dashoffset:0;stroke-opacity:1"
             id="path136" />
          <path
             d="m 2654.17,1555.82 v -217.5"
             style="fill:none;stroke:#231f20;stroke-width:7.5;stroke-linecap:butt;stroke-linejoin:miter;stroke-miterlimit:4;stroke-dasharray:30, 20;stroke-dashoffset:0;stroke-opacity:1"
             id="path138" />
          <path
             d="m 2654.17,1343.41 18.02,10.96 0.4,-0.62 -11.66,-29.37 c -2.26,-10.24 -4.51,-20.47 -6.76,-30.71 -2.25,10.24 -4.5,20.47 -6.76,30.71 l -11.66,29.37 0.3,0.62 18.12,-10.96"
             style="fill:#231f20;fill-opacity:1;fill-rule:nonzero;stroke:none"
             id="path140" />
          <path
             d="m 2539.17,555.82 v -240"
             style="fill:none;stroke:#231f20;stroke-width:7.5;stroke-linecap:butt;stroke-linejoin:miter;stroke-miterlimit:4;stroke-dasharray:30, 20;stroke-dashoffset:0;stroke-opacity:1"
             id="path142" />
          <path
             d="m 2539.17,320.91 18.02,10.949 0.4,-0.621 -11.66,-29.367 c -2.26,-10.23 -4.51,-20.473 -6.76,-30.699 -2.25,10.226 -4.5,20.469 -6.76,30.699 l -11.66,29.367 0.3,0.621 18.12,-10.949"
             style="fill:#231f20;fill-opacity:1;fill-rule:nonzero;stroke:none"
             id="path144" />
          <path
             d="m 2539.17,243.32 v -55"
             style="fill:none;stroke:#231f20;stroke-width:7.5;stroke-linecap:butt;stroke-linejoin:miter;stroke-miterlimit:4;stroke-dasharray:30, 20;stroke-dashoffset:0;stroke-opacity:1"
             id="path146" />
          <path
             d="m 1886.67,178.32 v 130"
             style="fill:none;stroke:#231f20;stroke-width:7.5;stroke-linecap:butt;stroke-linejoin:miter;stroke-miterlimit:4;stroke-dasharray:30, 20;stroke-dashoffset:0;stroke-opacity:1"
             id="path148" />
          <path
             d="m 1886.67,303.219 -18.02,-10.957 -0.41,0.609 11.67,29.367 c 2.26,10.242 4.5,20.481 6.76,30.711 2.26,-10.23 4.5,-20.469 6.75,-30.711 l 11.68,-29.367 -0.31,-0.609 -18.12,10.957"
             style="fill:#231f20;fill-opacity:1;fill-rule:nonzero;stroke:none"
             id="path150" />
          <path
             d="m 1886.67,385.82 v 85 h -227.5 v 1557.5 l 85,5"
             style="fill:none;stroke:#231f20;stroke-width:7.5;stroke-linecap:butt;stroke-linejoin:miter;stroke-miterlimit:4;stroke-dasharray:30, 20;stroke-dashoffset:0;stroke-opacity:1"
             id="path152" />
          <path
             d="m 1739.06,2033.07 -11.99,17.33 0.59,0.45 30.02,-9.92 c 10.35,-1.65 20.69,-3.3 31.04,-4.95 -10.09,-2.84 -20.17,-5.69 -30.26,-8.54 l -28.64,-13.37 -0.62,0.27 9.86,18.73"
             style="fill:#231f20;fill-opacity:1;fill-rule:nonzero;stroke:none"
             id="path154" />
          <path
             d="m 1809.17,2030.82 h 57.5"
             style="fill:none;stroke:#231f20;stroke-width:7.5;stroke-linecap:butt;stroke-linejoin:miter;stroke-miterlimit:4;stroke-dasharray:30, 20;stroke-dashoffset:0;stroke-opacity:1"
             id="path156" />
          <path
             d="m 2559.17,2023.32 h 92.5"
             style="fill:none;stroke:#231f20;stroke-width:7.5;stroke-linecap:butt;stroke-linejoin:miter;stroke-miterlimit:4;stroke-dasharray:30, 20;stroke-dashoffset:0;stroke-opacity:1"
             id="path158" />
          <path
             d="m 2646.57,2023.32 -10.95,18.01 0.61,0.41 29.38,-11.67 c 10.23,-2.25 20.46,-4.5 30.71,-6.75 -10.25,-2.26 -20.48,-4.51 -30.71,-6.76 l -29.38,-11.67 -0.61,0.31 10.95,18.12"
             style="fill:#231f20;fill-opacity:1;fill-rule:nonzero;stroke:none"
             id="path160" />
          <path
             d="m 2721.67,2023.32 h 45 v -285 h -110"
             style="fill:none;stroke:#231f20;stroke-width:7.5;stroke-linecap:butt;stroke-linejoin:miter;stroke-miterlimit:4;stroke-dasharray:30, 20;stroke-dashoffset:0;stroke-opacity:1"
             id="path162" />
          <path
             d="m 2661.77,1738.32 10.95,-18.02 -0.61,-0.41 -29.38,11.67 c -10.24,2.25 -20.46,4.5 -30.71,6.76 10.25,2.25 20.47,4.5 30.71,6.75 l 29.38,11.67 0.61,-0.31 -10.95,-18.11"
             style="fill:#231f20;fill-opacity:1;fill-rule:nonzero;stroke:none"
             id="path164" />
          <g
             id="g166"
             transform="scale(10)">
            <text
               xml:space="preserve"
               transform="matrix(1,0,0,-1,202.719,197.845)"
               style="font-style:oblique;font-variant:normal;font-size:7px;font-family:Helvetica;-inkscape-font-specification:Helvetica-Oblique;writing-mode:lr-tb;fill:#231f20;fill-opacity:1;fill-rule:nonzero;stroke:none"
               id="text170"><tspan
                 x="0 4.6691351 6.2232699 10.115405 13.61554 15.561674 17.892809 21.784945 25.67708 27.231215 30.73135"
                 y="0"
                 sodipodi:role="line"
                 id="tspan168">Electronics</tspan></text>
          </g>
          <path
             d="m 2605.42,1483.32 -34.38,-35 c 0,0 -78.12,0 -87.5,0 -9.37,0 -14.37,17.5 -16.87,23.75 -2.5,6.25 -3.75,10 -3.75,10 l 15.62,-10 h 91.88 l 35,18.12 v -6.87"
             style="fill:#ffffff;fill-opacity:1;fill-rule:nonzero;stroke:none"
             id="path172" />
          <path
             d="m 2605.42,1483.32 -34.38,-35 c 0,0 -78.12,0 -87.5,0 -9.37,0 -14.37,17.5 -16.87,23.75 -2.5,6.25 -3.75,10 -3.75,10 l 15.62,-10 h 91.88 l 35,18.12 z"
             style="fill:none;stroke:#231f20;stroke-width:7.5;stroke-linecap:butt;stroke-linejoin:miter;stroke-miterlimit:4;stroke-dasharray:none;stroke-opacity:1"
             id="path174" />
          <path
             d="m 2039.8,1453.94 c 5,0 10,-0.62 15,0.63 2.5,1.25 5.62,3.12 8.12,4.37 8.12,3.13 16.25,5 25,5.63 14.38,0.62 28.12,1.25 42.5,-0.63 5,-0.62 7.5,-6.25 8.75,-10.62 3.13,-16.88 4.37,-32.5 13.13,-47.5 1.24,-2.5 2.5,-5 3.74,-7.5 0.63,-2.5 3.13,-4.38 3.76,-6.88 3.12,-11.25 3.12,-21.87 6.24,-33.12 0.63,-3.13 1.26,-5.63 1.88,-8.75 0.62,-2.5 0.62,-5.63 1.88,-8.13 0.62,-2.5 3.12,-4.37 5,-6.87 1.24,-0.63 1.87,-3.75 3.12,-5 6.25,-8.75 6.25,-17.5 10.62,-26.25 5,-10 6.26,-21.25 11.88,-30.63 0,1.25 0.62,3.13 1.25,4.38 3.75,6.25 5.63,13.12 8.13,19.37 2.5,7.5 5.62,15.63 6.87,23.75 0.63,1.88 3.75,4.38 5,6.88 3.75,10 6.87,20 10.63,30 0.62,1.87 2.5,4.37 3.74,6.25 0.63,1.25 1.26,2.5 1.88,3.75 1.88,2.5 4.38,5 6.88,7.5 0,0.62 0,1.25 0,1.87 1.24,1.88 1.87,3.75 3.12,5.63 0.62,1.87 2.5,4.37 3.75,6.87 1.25,3.75 1.87,6.88 3.13,10.63 0.62,3.75 -0.63,8.12 0,11.87 2.5,10 4.37,19.38 6.87,28.75 1.25,2.5 3.13,4.38 3.75,6.88 0,1.87 0,3.75 1.25,5.62 4.37,7.5 3.75,16.88 9.37,23.13 3.13,4.37 8.13,6.87 11.88,10.62 1.25,1.25 2.5,3.75 3.75,5.63 6.25,6.87 13.75,12.5 20,20 2.5,3.75 7.5,4.37 11.87,6.87 1.88,1.25 2.5,4.38 5,6.25 4.38,2.5 8.76,5 13.76,5.63 6.87,1.25 13.74,1.87 20,0 4.37,-1.88 6.87,-7.5 9.37,-11.88 1.25,-3.12 3.75,-5 4.37,-8.12 1.26,-1.88 3.13,-3.13 4.38,-5.63 1.25,-1.87 4.38,-3.12 5.62,-5 1.88,-4.37 5,-5.62 7.5,-9.37 1.88,-1.88 4.38,-4.38 8.13,-3.75 0,-1.88 1.87,-1.88 2.5,-2.5 6.25,-4.38 13.13,-4.38 20.63,-5 6.24,-0.63 12.5,0.62 18.12,-1.25 1.88,-0.63 3.12,-2.5 5.62,-3.13 0,-1.25 1.88,-1.25 1.88,-2.5 0.62,0 1.88,0 2.5,0 0.62,-1.87 3.12,-1.87 3.12,-3.75 1.88,0.63 2.5,-1.87 3.76,-1.25 0,-1.25 1.24,-0.62 1.24,-1.87 0.63,0.62 1.26,1.25 1.88,1.25 1.88,-0.63 3.75,-2.5 4.38,-4.38 v 30 c -0.63,1.88 -2.5,3.75 -4.38,4.38 -0.62,0 -1.25,-0.63 -1.88,-1.25 0,1.25 -1.24,0.62 -1.24,1.87 -1.26,-0.62 -1.88,1.88 -3.76,1.25 0,1.88 -2.5,1.88 -3.12,3.75 -0.62,0 -1.88,0 -2.5,0 0,1.25 -1.88,1.25 -1.88,2.5 -2.5,0.63 -3.74,2.5 -5.62,3.13 -5.62,1.87 -11.88,0.62 -18.12,1.25 -7.5,0.62 -14.38,0.62 -20.63,5 -0.63,0.62 -2.5,0.62 -2.5,2.5 -3.75,-0.63 -6.25,1.87 -8.13,3.75 -2.5,3.75 -5.62,5 -7.5,9.37 -1.24,1.88 -4.37,3.13 -5.62,5 -1.25,2.5 -3.12,3.75 -4.38,5.63 -0.62,3.12 -3.12,5 -4.37,8.12 -2.5,4.38 -5,10 -9.37,11.88 -6.26,1.87 -13.13,1.25 -20,0 -5,-0.63 -9.38,-3.13 -13.76,-5.63 -2.5,-1.87 -3.12,-5 -5,-6.25 -4.37,-2.5 -9.37,-3.12 -11.87,-6.87 -6.25,-7.5 -13.75,-13.13 -20,-20 -1.25,-1.88 -2.5,-4.38 -3.75,-5.63 -3.75,-3.75 -8.75,-6.25 -11.88,-10.62 -5.62,-6.25 -5,-15.63 -9.37,-23.13 -1.25,-1.87 -1.25,-3.75 -1.25,-5.62 -0.62,-2.5 -2.5,-4.38 -3.75,-6.88 -2.5,-9.37 -4.37,-18.75 -6.87,-28.75 -0.63,-3.75 0.62,-8.12 0,-11.87 -1.26,-3.75 -1.88,-6.88 -3.13,-10.63 -1.25,-2.5 -3.13,-5 -3.75,-6.87 -1.25,-1.88 -1.88,-3.75 -3.12,-5.63 0,-0.62 0,-1.25 0,-1.87 -2.5,-2.5 -5,-5 -6.88,-7.5 -0.62,-1.25 -1.25,-2.5 -1.88,-3.75 -1.24,-1.88 -3.12,-4.38 -3.74,-6.25 -3.76,-10 -6.88,-20 -10.63,-30 -1.25,-2.5 -4.37,-5 -5,-6.88 -1.25,-8.12 -4.37,-16.25 -6.87,-23.75 -2.5,-6.25 -4.38,-13.12 -8.13,-19.37 -0.63,-1.25 -1.25,-3.13 -1.25,-4.38 -5.62,9.38 -6.88,20.63 -11.88,30.63 -4.37,8.75 -4.37,17.5 -10.62,26.25 -1.25,1.25 -1.88,4.37 -3.12,5 -1.88,2.5 -4.38,4.37 -5,6.87 -1.26,2.5 -1.26,5.63 -1.88,8.13 -0.62,3.12 -1.25,5.62 -1.88,8.75 -3.12,11.25 -3.12,21.87 -6.24,33.12 -0.63,2.5 -3.13,4.38 -3.76,6.88 -1.24,2.5 -2.5,5 -3.74,7.5 -8.76,15 -10,30.62 -13.13,47.5 -1.25,4.37 -3.75,10 -8.75,10.62 -14.38,1.88 -28.12,1.25 -42.5,0.63 -8.75,-0.63 -16.88,-2.5 -25,-5.63 -2.5,-1.25 -5.62,-3.12 -8.12,-4.37 -5,-1.25 -10,-0.63 -15,-0.63 v -30"
             style="fill:#231f20;fill-opacity:1;fill-rule:nonzero;stroke:none"
             id="path176" />
          <path
             d="m 1774.8,1392.69 c 1.24,1.88 3.74,3.13 5,3.75 3.74,1.25 6.24,3.75 8.74,6.25 9.38,13.13 22.5,21.25 33.76,31.88 1.24,1.25 3.12,0.62 4.37,1.25 6.87,5 12.5,10.62 17.5,17.5 8.75,0.62 16.87,0 25.63,-2.5 0.62,0 2.5,-1.25 3.74,-2.5 0.63,0 1.88,0 2.5,0 v 30 c -0.62,0 -1.87,0 -2.5,0 -1.24,1.25 -3.12,2.5 -3.74,2.5 -8.76,2.5 -16.88,3.12 -25.63,2.5 -5,-6.88 -10.63,-12.5 -17.5,-17.5 -1.25,-0.63 -3.13,0 -4.37,-1.25 -11.26,-10.63 -24.38,-18.75 -33.76,-31.88 -2.5,-2.5 -5,-5 -8.74,-6.25 -1.26,-0.62 -3.76,-1.87 -5,-3.75 v -30"
             style="fill:#231f20;fill-opacity:1;fill-rule:nonzero;stroke:none"
             id="path178" />
          <path
             d="m 1856.67,1428.32 h 242.797 v 76.875 H 1856.67 Z"
             style="fill:#ffffff;fill-opacity:1;fill-rule:nonzero;stroke:none"
             id="path180" />
          <g
             id="g182"
             transform="scale(10)">
            <text
               xml:space="preserve"
               transform="matrix(1,0,0,-1,186.017,144.555)"
               style="font-style:oblique;font-variant:normal;font-size:7px;font-family:Helvetica;-inkscape-font-specification:Helvetica-Oblique;writing-mode:lr-tb;fill:#231f20;fill-opacity:1;fill-rule:nonzero;stroke:none"
               id="text186"><tspan
                 x="0 4.6692319 8.5614634 10.507695 12.453927 16.346159"
                 y="0"
                 sodipodi:role="line"
                 id="tspan184">Bottom</tspan></text>
          </g>
          <path
             d="m 1839.28,1816.39 c 20.1,0 36.38,4.22 36.38,9.43 0,5.2 -16.28,9.42 -36.38,9.42 -20.1,0 -36.39,-4.22 -36.39,-9.42 0,-5.21 16.29,-9.43 36.39,-9.43"
             style="fill:#231f20;fill-opacity:1;fill-rule:nonzero;stroke:none"
             id="path188" />
          <path
             d="m 2504.69,1831.86 c -6.58,1.7 -15.68,2.76 -25.73,2.76 -20.09,0 -36.39,-4.22 -36.39,-9.43 0,-5.21 16.3,-9.43 36.39,-9.43 10.05,0 19.15,1.06 25.73,2.76"
             style="fill:#231f20;fill-opacity:1;fill-rule:nonzero;stroke:none"
             id="path190" />
          <path
             d="m 2594.17,1876.24 c 1.95,0 3.54,3.17 3.54,7.08 0,3.9 -1.59,7.07 -3.54,7.07 -1.95,0 -3.54,-3.17 -3.54,-7.07 0,-3.91 1.59,-7.08 3.54,-7.08"
             style="fill:#231f20;fill-opacity:1;fill-rule:nonzero;stroke:none"
             id="path192" />
          <path
             d="m 2593.86,859.988 c 1.95,0 3.53,3.172 3.53,7.071 0,3.91 -1.58,7.082 -3.53,7.082 -1.96,0 -3.54,-3.172 -3.54,-7.082 0,-3.899 1.58,-7.071 3.54,-7.071"
             style="fill:#231f20;fill-opacity:1;fill-rule:nonzero;stroke:none"
             id="path194" />
          <g
             id="g196"
             transform="scale(10)">
            <text
               xml:space="preserve"
               transform="matrix(1,0,0,-1,94.8043,106.082)"
               style="font-style:oblique;font-variant:normal;font-size:7px;font-family:Helvetica;-inkscape-font-specification:Helvetica-Oblique;writing-mode:lr-tb;fill:#231f20;fill-opacity:1;fill-rule:nonzero;stroke:none"
               id="text218"><tspan
                 x="0 4.2771602 6.6083202 10.500481 14.392641 17.892801 23.723961 25.278122 27.224281 29.170443 33.062603"
                 y="0"
                 sodipodi:role="line"
                 id="tspan198">Transmitter</tspan><tspan
                 x="1.16172 3.1078794 5.4390388 9.3311987 13.223358 16.723516 20.615677 24.507835 28.007996 31.900156"
                 y="8.5"
                 sodipodi:role="line"
                 id="tspan200">transducer</tspan><tspan
                 x="-85.778481 -80.724365 -76.832245 -73.33213 -69.44001 -67.885895 -64.38578 -60.49366"
                 y="0.41406"
                 sodipodi:role="line"
                 id="tspan202">Receiver</tspan><tspan
                 x="-88.505043 -86.558884 -84.227722 -80.335564 -76.443405 -72.943245 -69.051086 -65.15892 -61.658764 -57.766605"
                 y="8.9140596"
                 sodipodi:role="line"
                 id="tspan204">transducer</tspan><tspan
                 x="-67.490936 -62.821774 -56.990604 -53.098434 -51.544266 -49.990097 -48.04393 -46.489761 -42.597595 -17.306141 -11.859998 -8.3598557 -4.8597131 -3.3055708 -1.7514286 -0.19728626 3.6948559 5.6409984 9.5331402"
                 y="-30.262541"
                 sodipodi:role="line"
                 id="tspan206">AmplifierOscillator</tspan><tspan
                 x="-48.933441 -44.656284 -43.102131 -37.270977 -33.378822 -31.04767 -29.493517 -25.601362 -23.655209 -19.763054 -17.4319 -13.931746 -10.039593 -8.4854383"
                 y="-64.845741"
                 sodipodi:role="line"
                 id="tspan208">Time-interval </tspan><tspan
                 x="-48.160004 -42.653149 -39.085297 -35.517445 -32.341591 -28.773737 -26.766884 -23.199032 -17.692179 -14.124325 -10.556472 -8.9346189"
                 y="-58.845741"
                 sodipodi:role="line"
                 id="tspan210">Measurement,</tspan><tspan
                 x="-57.106091 -52.051945 -50.497799 -46.997654 -43.105507 -41.551361 -37.659218 -34.159073 -32.212925 -30.266779 -25.212633 -21.320488 -17.820343 -13.928197 -11.597051 -7.704905 -6.1507592 -2.2586133"
                 y="-52.845741"
                 sodipodi:role="line"
                 id="tspan212">Display, Recording</tspan><tspan
                 x="105.24691 109.9161 111.8623 114.19349 115.74768 119.63988 121.58607 125.08626 128.97845 132.87065 135.20184"
                 y="8.16716"
                 sodipodi:role="line"
                 id="tspan214">Strip chart</tspan><tspan
                 x="109.8016 114.47079 118.36297 120.69415 122.64034 126.53252 130.03271"
                 y="-62.83284"
                 sodipodi:role="line"
                 id="tspan216">Surface</tspan></text>
          </g>
          <path
             d="m 2917.51,1558.94 -193.34,50"
             style="fill:none;stroke:#231f20;stroke-width:5;stroke-linecap:butt;stroke-linejoin:miter;stroke-miterlimit:4;stroke-dasharray:none;stroke-opacity:1"
             id="path220" />
          <path
             d="m 2726.67,1608.31 3.04,-10.09 -0.35,-0.12 -12.76,9.32 c -4.67,2.37 -9.34,4.74 -14.01,7.12 5.23,-0.2 10.47,-0.39 15.7,-0.58 l 15.68,1.97 0.26,-0.22 -7.56,-7.4"
             style="fill:#231f20;fill-opacity:1;fill-rule:nonzero;stroke:none"
             id="path222" />
          <path
             d="m 2911.12,1405.82 -321.11,40"
             style="fill:none;stroke:#231f20;stroke-width:5;stroke-linecap:butt;stroke-linejoin:miter;stroke-miterlimit:4;stroke-dasharray:none;stroke-opacity:1"
             id="path224" />
          <path
             d="m 2592.55,1445.53 4.35,-9.6 -0.33,-0.16 -13.87,7.54 c -4.96,1.72 -9.9,3.45 -14.85,5.18 5.22,0.51 10.43,1.02 15.65,1.53 l 15.27,4.04 0.29,-0.19 -6.51,-8.34"
             style="fill:#231f20;fill-opacity:1;fill-rule:nonzero;stroke:none"
             id="path226" />
          <path
             d="m 2893.33,1219.15 h -350"
             style="fill:none;stroke:#231f20;stroke-width:5;stroke-linecap:butt;stroke-linejoin:miter;stroke-miterlimit:4;stroke-dasharray:none;stroke-opacity:1"
             id="path228" />
          <path
             d="m 2545.89,1219.15 5.47,-9.01 -0.31,-0.2 -14.68,5.83 c -5.12,1.13 -10.24,2.25 -15.35,3.38 5.11,1.12 10.23,2.25 15.35,3.37 l 14.68,5.84 0.31,-0.15 -5.47,-9.06"
             style="fill:#231f20;fill-opacity:1;fill-rule:nonzero;stroke:none"
             id="path230" />
          <path
             d="m 2903.33,1825.82 -286.66,-43.34"
             style="fill:none;stroke:#231f20;stroke-width:5;stroke-linecap:butt;stroke-linejoin:miter;stroke-miterlimit:4;stroke-dasharray:none;stroke-opacity:1"
             id="path232" />
          <path
             d="m 2619.19,1782.86 6.76,-8.09 -0.27,-0.25 -15.4,3.58 c -5.22,0.35 -10.46,0.7 -15.68,1.04 4.89,1.88 9.78,3.76 14.68,5.64 l 13.64,7.96 0.33,-0.1 -4.06,-9.78"
             style="fill:#231f20;fill-opacity:1;fill-rule:nonzero;stroke:none"
             id="path234" />
          <g
             id="g236"
             transform="scale(10)">
            <text
               xml:space="preserve"
               transform="matrix(1,0,0,-1,292.795,180.87)"
               style="font-style:oblique;font-variant:normal;font-size:7px;font-family:Helvetica;-inkscape-font-specification:Helvetica-Oblique;writing-mode:lr-tb;fill:#231f20;fill-opacity:1;fill-rule:nonzero;stroke:none"
               id="text256"><tspan
                 x="0 5.0541835 8.9463673 12.838551 14.784734 18.676918 22.177101 24.123283 26.069468 29.961651 33.853836 37.746017"
                 y="0"
                 sodipodi:role="line"
                 id="tspan238">Contact bank</tspan><tspan
                 x="0 4.2771616 8.169323 10.500484 14.392646 16.723808 20.223969 24.116131 28.008291 29.954453 33.846615 37.346775"
                 y="22.997299"
                 sodipodi:role="line"
                 id="tspan240">Zero-contact</tspan><tspan
                 x="0 3.5001144 8.5542288 10.108343 12.054458 15.554572"
                 y="28.997299"
                 sodipodi:role="line"
                 id="tspan242">switch</tspan><tspan
                 x="0 4.6691628 6.2233257 7.7774887 11.669652 13.223815 17.115978"
                 y="39.5891"
                 sodipodi:role="line"
                 id="tspan244">Sliding</tspan><tspan
                 x="0 3.5001719 7.392344 11.284515 13.230688 17.12286 20.623032"
                 y="45.5891"
                 sodipodi:role="line"
                 id="tspan246">contact</tspan><tspan
                 x="-1.30586 3.3632762 7.2554126 11.147549 12.701685 16.593821 20.093958"
                 y="58.8731"
                 sodipodi:role="line"
                 id="tspan248">Endless</tspan><tspan
                 x="-1.30586 1.0253142 2.5794885 6.4716625 10.363837 14.256011"
                 y="64.8731"
                 sodipodi:role="line"
                 id="tspan250">ribbon</tspan><tspan
                 x="-270.61386 -266.72174 -262.82959 -260.88345 -257.38333 -252.32919"
                 y="132.08009"
                 sodipodi:role="line"
                 id="tspan252">33 kHz</tspan><tspan
                 x="-278.59393 -275.09378 -271.2016 -267.30945 -263.41727 -259.52512 -257.57895 -253.68678 -249.79462 -248.24046 -244.7403"
                 y="140.58009"
                 sodipodi:role="line"
                 id="tspan254">sound pulse</tspan></text>
          </g>
        </g>
      </g>
    </g>
  </g>
</svg>
