<?xml version="1.0" encoding="UTF-8" standalone="no"?>
<!-- Created with Inkscape (http://www.inkscape.org/) -->

<svg
   version="1.1"
   id="svg2"
   width="444"
   height="265.33334"
   viewBox="0 0 444 265.33334"
   sodipodi:docname="Cp.eps"
   xmlns:inkscape="http://www.inkscape.org/namespaces/inkscape"
   xmlns:sodipodi="http://sodipodi.sourceforge.net/DTD/sodipodi-0.dtd"
   xmlns="http://www.w3.org/2000/svg"
   xmlns:svg="http://www.w3.org/2000/svg">
  <defs
     id="defs6">
    <clipPath
       clipPathUnits="userSpaceOnUse"
       id="clipPath18">
      <path
         d="M 0,1990 H 3329 V 0 H 0 Z"
         id="path16" />
    </clipPath>
  </defs>
  <sodipodi:namedview
     id="namedview4"
     pagecolor="#ffffff"
     bordercolor="#000000"
     borderopacity="0.25"
     inkscape:showpageshadow="2"
     inkscape:pageopacity="0.0"
     inkscape:pagecheckerboard="0"
     inkscape:deskcolor="#d1d1d1" />
  <g
     id="g8"
     inkscape:groupmode="layer"
     inkscape:label="ink_ext_XXXXXX"
     transform="matrix(1.3333333,0,0,-1.3333333,0,265.33333)">
    <g
       id="g10"
       transform="scale(0.1)">
      <g
         id="g12">
        <g
           id="g14"
           clip-path="url(#clipPath18)">
          <path
             d="m 1046.15,233.73 v 34.008"
             style="fill:none;stroke:#231f20;stroke-width:2.835;stroke-linecap:butt;stroke-linejoin:miter;stroke-miterlimit:10;stroke-dasharray:none;stroke-opacity:1"
             id="path20" />
          <path
             d="m 1793.08,233.73 v 34.008"
             style="fill:none;stroke:#231f20;stroke-width:2.835;stroke-linecap:butt;stroke-linejoin:miter;stroke-miterlimit:10;stroke-dasharray:none;stroke-opacity:1"
             id="path22" />
          <path
             d="m 672.539,233.73 v 17"
             style="fill:none;stroke:#231f20;stroke-width:2.835;stroke-linecap:butt;stroke-linejoin:miter;stroke-miterlimit:10;stroke-dasharray:none;stroke-opacity:1"
             id="path24" />
          <path
             d="m 1419.47,233.73 v 17"
             style="fill:none;stroke:#231f20;stroke-width:2.835;stroke-linecap:butt;stroke-linejoin:miter;stroke-miterlimit:10;stroke-dasharray:none;stroke-opacity:1"
             id="path26" />
          <path
             d="m 2166.68,233.73 v 17"
             style="fill:none;stroke:#231f20;stroke-width:2.835;stroke-linecap:butt;stroke-linejoin:miter;stroke-miterlimit:10;stroke-dasharray:none;stroke-opacity:1"
             id="path28" />
          <path
             d="m 299.215,340.031 h 20.691"
             style="fill:none;stroke:#231f20;stroke-width:2.835;stroke-linecap:butt;stroke-linejoin:miter;stroke-miterlimit:10;stroke-dasharray:none;stroke-opacity:1"
             id="path30" />
          <path
             d="m 450.871,233.73 -2.273,2.829 -37.7,50.461 -37.132,52.152 -0.567,0.859 -35.433,53.289 -33.45,53.289 -5.101,8.782"
             style="fill:none;stroke:#231f20;stroke-width:2.5;stroke-linecap:butt;stroke-linejoin:miter;stroke-miterlimit:10;stroke-dasharray:none;stroke-opacity:1"
             id="path32" />
          <path
             d="m 551.781,233.73 -28.633,38.551 -10.769,14.739 -36.852,53.011 -26.929,41.379 -7.934,11.91 -32.879,53.289 -31.183,53.289 -2.836,5.391 -26.078,47.91 -27.215,53.289 -21.258,44.782"
             style="fill:none;stroke:#231f20;stroke-width:2.835;stroke-linecap:butt;stroke-linejoin:miter;stroke-miterlimit:10;stroke-dasharray:none;stroke-opacity:1"
             id="path34" />
          <path
             d="m 653.828,233.73 -38.265,53.29 -17.575,26.082 -18.425,26.929 -34.016,53.289 -22.399,37.129 -9.632,16.16 -30.047,53.289 -28.352,53.301 -6.519,13.321 -20.121,39.968 -24.664,53.293 -23.247,53.289 -6.8,17 -14.743,36.289 -19.843,53.289 -18.707,53.293 -17.289,53.289 -3.969,13.321"
             style="fill:none;stroke:#231f20;stroke-width:2.5;stroke-linecap:butt;stroke-linejoin:miter;stroke-miterlimit:10;stroke-dasharray:none;stroke-opacity:1"
             id="path36" />
          <path
             d="m 757.297,233.73 -9.922,14.45 -27.215,38.84 -35.148,53.011 -12.473,20.117 -20.691,33.172 -30.899,53.289 -22.961,41.961 -6.238,11.328 -27.215,53.301 -25.512,53.289 -15.875,35.141 -8.214,18.152 -22.11,53.289 -20.41,53.289 -19.277,53.289 -4.539,13.602 -13.321,39.691 -16.437,53.289 -15.027,53.29 -14.172,53.3 -12.754,53.29 -3.121,13.32 -8.786,39.97 -10.777,53.29 -9.914,53.29 -9.074,53.29 -8.223,53.3 -7.367,53.29 -7.09,53.29 -5.953,53.29 -5.668,53.29 -1.699,18.43"
             style="fill:none;stroke:#231f20;stroke-width:2.5;stroke-linecap:butt;stroke-linejoin:miter;stroke-miterlimit:10;stroke-dasharray:none;stroke-opacity:1"
             id="path38" />
          <path
             d="m 827.875,1938.77 v -53.29 l 0.285,-53.29 0.567,-53.29 0.566,-53.29 1.133,-53.29 1.137,-53.3 1.699,-53.29 1.984,-53.29 2.551,-53.29 3.117,-53.29 3.688,-53.29 4.25,-53.3 4.82,-53.29 5.668,-53.29 6.519,-53.29 7.657,-53.29 8.218,-53.29 9.637,-53.3 5.387,-26.649 5.387,-26.641 11.902,-53.289 13.043,-53.293 14.742,-53.289 15.875,-53.289 13.602,-41.101 3.968,-12.188 19.282,-53.293 20.981,-53.289 22.96,-53.301 7.65,-16.437 17.01,-36.852 26.64,-53.289 28.63,-53.289 2.27,-3.972 28.63,-49.039 32.88,-53.29"
             style="fill:none;stroke:#231f20;stroke-width:2.835;stroke-linecap:butt;stroke-linejoin:miter;stroke-miterlimit:10;stroke-dasharray:none;stroke-opacity:1"
             id="path40" />
          <path
             d="m 967.91,233.73 -35.433,53.29 -32.883,53.011 -2.836,5.098 -28.063,48.191 -28.914,53.289 -17.855,35.141 -9.356,18.148 -24.949,53.301 -23.523,53.289 -16.723,41.672 -4.82,11.621 -19.844,53.289 -18.422,53.289 -17.012,53.289 -14.738,49.883 -0.848,3.41 -14.461,53.289 -12.757,53.29 -11.903,53.29 -10.773,53.3 -9.922,53.29 -8.785,53.29 -5.102,35.72 -2.836,17.57 -6.8,53.29 -6.52,53.3 -5.387,53.29 -5.105,53.29 -4.531,53.29 -3.688,53.29 -3.402,53.29 -3.117,53.29 -2.555,53.29 -1.981,53.29 -1.98,53.29 -1.422,53.3 -1.133,53.29"
             style="fill:none;stroke:#231f20;stroke-width:2.5;stroke-linecap:butt;stroke-linejoin:miter;stroke-miterlimit:10;stroke-dasharray:none;stroke-opacity:1"
             id="path42" />
          <path
             d="m 686.711,1938.77 0.848,-53.29 0.855,-53.29 1.133,-53.29 1.414,-53.29 1.699,-53.29 2.274,-53.3 2.546,-53.29 2.836,-53.29 3.399,-53.29 4.254,-53.29 4.535,-53.29 5.105,-53.3 6.235,-53.29 6.804,-53.29 7.653,-53.29 8.508,-53.29 0.566,-2.55 9.07,-50.74 10.774,-53.3 11.902,-53.29 13.039,-53.289 14.457,-53.293 15.309,-52.16 0.281,-1.129 17.289,-53.289 18.996,-53.289 20.41,-53.293 17.856,-42.808 4.254,-10.481 24.097,-53.301 25.789,-53.289 20.411,-39.398 7.367,-13.891 29.774,-53.289 32.03,-53.011 5.67,-9.071 28.35,-44.219"
             style="fill:none;stroke:#231f20;stroke-width:2.835;stroke-linecap:butt;stroke-linejoin:miter;stroke-miterlimit:10;stroke-dasharray:none;stroke-opacity:1"
             id="path44" />
          <path
             d="m 862.172,233.73 -36.277,53.29 -3.969,5.671 -30.332,47.34 -32.031,53.289 -12.188,22.102 -17.863,31.187 -28.063,53.289 -26.078,53.301 -2.832,5.942 -21.543,47.347 -22.965,53.293 -20.976,53.289 -9.067,24.942 -10.488,28.347 -18.145,53.289 -16.722,53.293 -15.309,53.289 -14.176,52.731 v 0.559 l -13.035,53.3 -11.906,53.29 -10.769,53.29 -9.922,53.29 -8.789,53.29 -8.223,53.29 -7.367,53.3 -4.539,37.41 -1.981,15.88 -5.953,53.29 -5.387,53.29 -4.816,53.29 -4.254,53.29 -3.687,53.29 -3.114,53.29 -3.121,53.29 -2.265,53.29 -2.27,53.3 -1.699,53.29"
             style="fill:none;stroke:#231f20;stroke-width:2.5;stroke-linecap:butt;stroke-linejoin:miter;stroke-miterlimit:10;stroke-dasharray:none;stroke-opacity:1"
             id="path46" />
          <path
             d="m 970.461,1938.77 -0.566,-53.29 -0.567,-53.29 v -53.29 l -0.285,-53.29 0.285,-53.29 0.567,-53.3 0.847,-53.29 0.567,-36.28 0.566,-17.01 1.422,-53.29 1.98,-53.29 2.551,-53.29 3.402,-53.3 3.688,-53.29 4.535,-53.29 5.387,-53.29 6.52,-53.29 7.09,-53.29 8.5,-53.3 9.35,-53.29 10.78,-53.289 9.07,-40.543 2.83,-12.75 13.32,-53.289 14.75,-53.289 16.44,-53.289 18.14,-53.293 9.07,-24.66 10.77,-28.629 21.54,-53.301 23.25,-53.289 19.28,-39.968 6.23,-13.321 27.5,-53.289 29.76,-53.011 11.06,-18.989 20.69,-34.301"
             style="fill:none;stroke:#231f20;stroke-width:2.835;stroke-linecap:butt;stroke-linejoin:miter;stroke-miterlimit:10;stroke-dasharray:none;stroke-opacity:1"
             id="path48" />
          <path
             d="m 1400.2,233.73 -30.62,53.29 -24.66,46.199 -3.68,6.812 -26.37,53.289 -24.09,53.289 -20.69,49.039 -1.71,4.25 -20.41,53.301 -18.42,53.289 -16.72,53.293 -15.31,53.289 -1.98,8.211 -11.63,45.078 -11.9,53.289 -10.77,53.293 -9.36,53.289 -8.5,53.29 -7.09,53.29 -5.95,53.3 -5.11,53.28 -4.24,53.3 -0.29,1.7 -3.12,51.59 -2.83,53.29 -1.99,53.3 -1.7,53.29 -0.85,53.29 -0.57,53.29 -0.28,53.29 v 53.29 l 0.57,53.29 0.57,53.29 0.56,53.29 1.14,53.29 0.85,53.3 1.13,53.29"
             style="fill:none;stroke:#231f20;stroke-width:2.835;stroke-linecap:butt;stroke-linejoin:miter;stroke-miterlimit:10;stroke-dasharray:none;stroke-opacity:1"
             id="path50" />
          <path
             d="m 1259.32,1938.77 -1.71,-53.29 -1.7,-53.29 -1.41,-53.29 -1.71,-53.29 -1.41,-53.29 -1.14,-53.3 -1.13,-53.29 -0.57,-53.29 -0.57,-53.29 v -53.29 l 0.57,-53.29 1.14,-53.3 1.41,-53.29 2.27,-53.29 3.12,-53.29 3.97,-53.29 4.82,-53.29 4.82,-43.941 1.13,-9.359 7.09,-53.29 8.22,-53.289 9.35,-53.293 11.06,-53.289 12.19,-53.289 13.88,-53.289 11.91,-40.82 3.69,-12.473 17.29,-53.289 18.99,-53.301 20.97,-53.289 13.61,-31.738 9.36,-21.551 24.94,-53.289 27.49,-53.011 13.05,-23.809 16.44,-29.481"
             style="fill:none;stroke:#231f20;stroke-width:2.835;stroke-linecap:butt;stroke-linejoin:miter;stroke-miterlimit:10;stroke-dasharray:none;stroke-opacity:1"
             id="path52" />
          <path
             d="m 1621.87,233.73 -28.35,53.29 -24.66,50.171 -1.42,2.84 -23.81,53.289 -21.55,53.289 -19.83,53.289 -7.94,23.801 -9.93,29.5 -15.87,53.289 -14.17,53.293 -12.76,53.289 -11.05,53.289 -9.64,53.289 -1.42,8.782 -6.8,44.511 -6.81,53.289 -5.66,53.29 -4.82,53.29 -3.69,53.3 -2.55,53.29 -1.98,53.29 -1.13,53.29 -0.57,53.29 0.28,53.3 0.57,53.29 0.85,53.29 1.41,53.29 1.71,53.29 1.98,53.29 1.98,53.29 2.27,53.29 2.27,53.29 2.26,53.29 2.28,53.3 2.26,53.29"
             style="fill:none;stroke:#231f20;stroke-width:2.835;stroke-linecap:butt;stroke-linejoin:miter;stroke-miterlimit:10;stroke-dasharray:none;stroke-opacity:1"
             id="path54" />
          <path
             d="m 1552.98,1938.77 -2.83,-53.29 -2.84,-53.29 -3.11,-53.29 -3.12,-53.29 -2.84,-53.29 -3.11,-53.3 -2.56,-53.29 -2.83,-53.29 -2.27,-53.29 -1.98,-53.29 -1.7,-53.29 -1.14,-53.3 -0.85,-53.29 v -53.29 l 0.85,-53.29 1.42,-53.29 2.55,-53.29 3.4,-53.3 4.54,-53.29 5.39,-53.289 7.08,-53.293 8.22,-53.289 9.64,-53.289 3.97,-18.711 7.37,-34.578 13.04,-53.293 14.74,-53.289 16.44,-53.301 18.42,-53.289 4.83,-12.187 15.87,-41.102 22.4,-53.289 24.93,-53.011 11.63,-22.961 15.3,-30.329"
             style="fill:none;stroke:#231f20;stroke-width:2.5;stroke-linecap:butt;stroke-linejoin:miter;stroke-miterlimit:10;stroke-dasharray:none;stroke-opacity:1"
             id="path56" />
          <path
             d="m 1846.66,233.73 -25.81,53.29 -23.52,53.011 -4.25,10.758 -17.01,42.531 -19.28,53.289 -17,53.289 -15.31,53.301 -5.95,24.371 -7.37,28.918 -11.62,53.293 -10.21,53.289 -8.22,53.289 -7.09,53.289 -5.67,53.293 -4.24,53.289 -3.41,53.29 -1.98,53.29 -1.14,53.3 -0.28,53.29 0.28,53.29 1.14,53.29 1.98,53.29 2.27,53.3 2.84,53.29 2.83,53.29 3.41,53.29 3.68,53.29 3.68,53.29 3.69,53.29 3.97,53.29 3.68,53.29 3.69,53.29 3.68,53.3 3.4,53.29"
             style="fill:none;stroke:#231f20;stroke-width:2.5;stroke-linecap:butt;stroke-linejoin:miter;stroke-miterlimit:10;stroke-dasharray:none;stroke-opacity:1"
             id="path58" />
          <path
             d="m 1850.9,1938.77 -3.96,-53.29 -4.25,-53.29 -4.26,-53.29 -4.54,-53.29 -4.81,-53.29 -4.53,-53.3 -4.54,-53.29 -4.54,-53.29 -4.53,-53.29 -3.97,-53.29 -3.97,-53.29 -3.4,-53.3 -2.84,-53.29 -2.26,-53.29 -1.42,-40.82 -0.29,-12.47 -1.13,-53.29 v -53.29 l 0.85,-53.3 0.57,-14.45 1.42,-38.84 3.11,-53.289 4.25,-53.293 5.67,-53.289 7.09,-53.289 8.78,-53.289 10.21,-53.293 12.2,-53.289 13.88,-53.301 8.23,-26.929 7.64,-26.36 17.86,-53.289 20.13,-53.289 22.11,-53.011 6.81,-14.739 17.85,-38.551"
             style="fill:none;stroke:#231f20;stroke-width:2.5;stroke-linecap:butt;stroke-linejoin:miter;stroke-miterlimit:10;stroke-dasharray:none;stroke-opacity:1"
             id="path60" />
          <path
             d="m 2074.57,233.73 -23.26,53.29 -20.97,53.011 -13.04,37.981 -5.66,15.308 -16.45,53.289 -14.46,53.289 -12.75,53.301 -10.78,53.289 -9.06,53.293 -5.67,41.949 -1.42,11.34 -5.96,53.289 -4.25,53.289 -3.11,53.293 -1.71,53.289 -0.56,53.29 0.28,53.29 1.41,53.3 2,53.29 3.11,53.29 3.4,53.29 3.96,53.29 2.85,32.6 1.7,20.7 5.1,53.29 5.1,53.29 5.39,53.29 5.38,53.29 5.68,53.29 5.38,53.29 5.38,53.29 5.39,53.29 5.1,53.29 4.82,53.3 4.54,53.29"
             style="fill:none;stroke:#231f20;stroke-width:2.5;stroke-linecap:butt;stroke-linejoin:miter;stroke-miterlimit:10;stroke-dasharray:none;stroke-opacity:1"
             id="path62" />
          <path
             d="m 2152.8,1938.77 -5.11,-53.29 -5.38,-53.29 -5.96,-53.29 -5.95,-53.29 -6.23,-53.29 -6.24,-53.3 -6.52,-53.29 -6.51,-53.29 -6.25,-53.29 -6.23,-53.29 -0.57,-4.25 -5.39,-49.04 -5.66,-53.3 -5.39,-53.29 -4.54,-53.29 -4.25,-53.29 -3.39,-53.29 -2.56,-53.29 -1.7,-53.3 -0.57,-53.29 0.57,-53.289 1.7,-53.293 2.84,-53.289 4.53,-53.289 5.96,-53.289 7.65,-53.293 9.35,-53.289 0.85,-3.969 10.49,-49.332 13.32,-53.289 15.03,-53.289 17.58,-53.289 18.41,-49.89 1.14,-3.121 22.12,-53.29"
             style="fill:none;stroke:#231f20;stroke-width:2.835;stroke-linecap:butt;stroke-linejoin:miter;stroke-miterlimit:10;stroke-dasharray:none;stroke-opacity:1"
             id="path64" />
          <path
             d="m 2305.87,233.73 -20.69,53.29 -18.43,53.011 -16.16,53.289 -9.35,36 -4.54,17.289 -11.9,53.289 -9.92,53.301 -7.94,53.289 -6.24,53.293 -4.82,53.289 -3.11,53.289 -1.71,53.289 -0.28,53.293 0.86,53.289 1.97,53.29 3.12,53.29 3.69,53.3 4.82,53.29 5.11,53.29 5.94,53.29 6.53,53.29 6.79,53.3 6.81,53.29 4.82,34.87 2.54,18.42 7.38,53.29 7.37,53.29 7.36,53.29 7.38,53.29 6.8,53.29 6.8,53.29 6.52,53.29 6.23,53.3 5.69,53.29"
             style="fill:none;stroke:#231f20;stroke-width:2.5;stroke-linecap:butt;stroke-linejoin:miter;stroke-miterlimit:10;stroke-dasharray:none;stroke-opacity:1"
             id="path66" />
          <path
             d="m 2458.66,1938.77 -6.24,-53.29 -6.81,-53.29 -7.08,-53.29 -7.66,-53.29 -7.94,-53.29 -7.93,-53.3 -8.22,-53.29 -8.5,-53.29 -7.66,-48.47 -0.57,-4.82 -8.49,-53.29 -7.95,-53.29 -7.93,-53.3 -7.66,-53.29 -7.08,-53.29 -6.52,-53.29 -5.95,-53.29 -5.11,-53.29 -4.25,-53.3 -3.4,-53.29 -1.98,-53.289 -1.14,-53.293 0.29,-53.289 1.98,-53.289 3.12,-53.289 5.1,-53.293 6.52,-53.289 8.5,-53.301 10.78,-53.289 12.47,-53.289 14.74,-53.289 4.53,-14.461 12.48,-38.55 19.28,-53.29"
             style="fill:none;stroke:#231f20;stroke-width:2.5;stroke-linecap:butt;stroke-linejoin:miter;stroke-miterlimit:10;stroke-dasharray:none;stroke-opacity:1"
             id="path68" />
          <path
             d="m 2540.01,233.73 -18.15,53.29 -15.59,53.011 -13.6,53.289 -11.05,53.289 -9.36,53.289 -6.8,51.883 -0.28,1.418 -5.39,53.289 -3.4,53.293 -1.99,53.289 -0.28,53.289 0.86,53.289 2.25,53.293 3.69,53.289 4.54,53.008 v 0.282 l 5.67,53.3 6.23,53.29 7.37,53.29 7.66,53.29 8.21,53.29 8.8,53.29 9.07,53.3 9.06,53.29 9.36,53.29 3.12,17.57 6.24,35.72 9.35,53.29 9.35,53.29 8.79,53.29 8.78,53.29 8.23,53.29 7.94,53.3 7.37,53.29 7.08,53.29"
             style="fill:none;stroke:#231f20;stroke-width:2.5;stroke-linecap:butt;stroke-linejoin:miter;stroke-miterlimit:10;stroke-dasharray:none;stroke-opacity:1"
             id="path70" />
          <path
             d="m 2768.2,1938.77 -3.97,-28.34 -3.39,-24.95 -8.24,-53.29 -8.49,-53.29 -9.08,-53.29 -9.63,-53.29 -9.64,-53.3 -10.21,-53.29 -10.2,-53.29 -5.95,-30.05 -4.54,-23.24 -10.21,-53.29 -10.49,-53.29 -10.2,-53.3 -9.64,-53.29 -9.63,-53.29 -9.08,-53.29 -8.51,-53.29 -2.25,-16.72 -5.39,-36.57 -6.81,-53.3 -5.95,-53.29 -4.81,-53.289 -3.69,-53.293 -2.27,-53.289 -1.13,-53.289 0.57,-53.289 2.26,-53.293 3.98,-53.289 5.66,-53.301 7.94,-53.289 9.64,-52.437 v -0.852 l 12.18,-53.289 14.46,-53.011 16.73,-53.29"
             style="fill:none;stroke:#231f20;stroke-width:2.5;stroke-linecap:butt;stroke-linejoin:miter;stroke-miterlimit:10;stroke-dasharray:none;stroke-opacity:1"
             id="path72" />
          <path
             d="m 2776.99,233.73 -12.76,44.219 -2.55,9.071 -13.04,53.011 -10.77,53.289 -8.51,53.289 -6.23,53.289 -4.53,53.301 -2.56,53.289 -0.85,53.293 0.85,53.289 2.56,53.289 3.68,53.289 5.1,53.293 6.24,53.289 7.08,53.29 8.22,53.29 9.07,53.3 6.24,34.86 3.4,18.43 10.21,53.29 10.77,53.29 11.05,53.29 11.34,53.3 11.34,53.29 11.34,53.29 5.09,23.81 6.54,29.48 11.04,53.29 11.07,53.29 10.77,53.29 10.2,53.29 9.93,53.29 9.06,53.29 6.24,37.42 2.55,15.88 8.22,53.29"
             style="fill:none;stroke:#231f20;stroke-width:2.835;stroke-linecap:butt;stroke-linejoin:miter;stroke-miterlimit:10;stroke-dasharray:none;stroke-opacity:1"
             id="path74" />
          <path
             d="m 3081.15,1938.77 -8.51,-53.29 -9.35,-53.29 -0.29,-1.42 -9.64,-51.87 -10.77,-53.29 -11.05,-53.29 -11.34,-53.3 -12.19,-53.29 -12.19,-53.29 -7.65,-32.88 -4.53,-20.41 -12.47,-53.29 -12.77,-53.29 -12.47,-53.3 -12.18,-53.29 -11.92,-53.29 -8.21,-38.26 -3.12,-15.03 -11.06,-53.29 -10.21,-53.29 -9.63,-53.3 -8.5,-53.29 -7.66,-53.289 -6.24,-53.293 -5.1,-53.289 -3.96,-53.289 -1.99,-53.289 -0.84,-53.293 1.41,-53.289 2.84,-53.301 5.09,-53.289 7.09,-53.289 9.36,-53.289 11.62,-53.011 13.89,-53.29"
             style="fill:none;stroke:#231f20;stroke-width:2.5;stroke-linecap:butt;stroke-linejoin:miter;stroke-miterlimit:10;stroke-dasharray:none;stroke-opacity:1"
             id="path76" />
          <path
             d="m 3017.08,233.73 -12.76,53.29 -10.2,53.011 -5.95,39.399 -1.98,13.89 -5.68,53.289 -3.68,53.289 -1.42,53.301 v 53.289 l 2.27,53.293 3.4,53.289 5.11,53.289 1.98,16.442 4.54,36.847 7.93,53.293 8.79,53.289 9.92,53.29 11.06,53.29 11.33,53.3 12.19,53.29 9.07,37.7 3.68,15.59 13.33,53.29 13.33,53.29 13.6,53.3 13.6,53.29 13.61,53.29 3.69,14.17 9.64,39.12 13.32,53.29 12.76,53.29 12.46,53.29 11.91,53.29 11.34,53.29 3.12,16.16 7.37,37.13 10.2,53.3 9.07,53.29"
             style="fill:none;stroke:#231f20;stroke-width:2.5;stroke-linecap:butt;stroke-linejoin:miter;stroke-miterlimit:10;stroke-dasharray:none;stroke-opacity:1"
             id="path78" />
          <path
             d="m 3287.22,1464.82 -1.7,-5.67 -14.46,-53.29 -14.74,-53.29 -14.73,-53.3 -14.74,-53.29 -14.18,-53.29 -0.28,-0.57 -13.89,-52.72 -13.32,-53.29 -13.04,-53.29 -12.19,-53.3 -11.06,-53.29 -10.49,-53.289 -0.56,-4.531 -8.51,-48.762 -7.94,-53.289 -6.51,-53.289 -5.11,-53.289 -3.4,-53.293 -1.7,-53.289 0.29,-53.301 2.26,-53.289 4.26,-53.289 6.51,-53.289 8.79,-53.011 11.06,-51.309"
             style="fill:none;stroke:#231f20;stroke-width:2.5;stroke-linecap:butt;stroke-linejoin:miter;stroke-miterlimit:10;stroke-dasharray:none;stroke-opacity:1"
             id="path80" />
          <path
             d="m 3260.01,233.73 -9.92,53.29 -7.37,53.011 -5.11,53.289 -3.11,53.289 -0.57,53.289 1.13,53.301 3.13,53.289 4.81,53.293 6.52,53.289 7.94,53.289 9.35,53.289 10.49,53.293 9.92,45.348"
             style="fill:none;stroke:#231f20;stroke-width:2.5;stroke-linecap:butt;stroke-linejoin:miter;stroke-miterlimit:10;stroke-dasharray:none;stroke-opacity:1"
             id="path82" />
          <path
             d="m 858.492,659.781 -18.996,53.289 -17.289,53.289"
             style="fill:none;stroke:#f0f0f0;stroke-width:5.669;stroke-linecap:butt;stroke-linejoin:miter;stroke-miterlimit:10;stroke-dasharray:none;stroke-opacity:1"
             id="path84" />
          <path
             d="m 1454.34,659.781 -12.76,53.289 -11.05,53.289"
             style="fill:none;stroke:#f0f0f0;stroke-width:5.669;stroke-linecap:butt;stroke-linejoin:miter;stroke-miterlimit:10;stroke-dasharray:none;stroke-opacity:1"
             id="path86" />
          <path
             d="m 2074,659.781 -5.96,53.289 -4.53,53.289"
             style="fill:none;stroke:#f0f0f0;stroke-width:5.669;stroke-linecap:butt;stroke-linejoin:miter;stroke-miterlimit:10;stroke-dasharray:none;stroke-opacity:1"
             id="path88" />
          <path
             d="m 2715.19,659.781 0.85,53.289 2.56,53.289"
             style="fill:none;stroke:#f0f0f0;stroke-width:5.669;stroke-linecap:butt;stroke-linejoin:miter;stroke-miterlimit:10;stroke-dasharray:none;stroke-opacity:1"
             id="path90" />
          <path
             d="m 407.785,446.609 -31.183,53.289 -2.836,5.391 -26.078,47.91"
             style="fill:none;stroke:#f0f0f0;stroke-width:5.669;stroke-linecap:butt;stroke-linejoin:miter;stroke-miterlimit:10;stroke-dasharray:none;stroke-opacity:1"
             id="path92" />
          <path
             d="m 551.781,233.73 -28.633,38.551 -10.769,14.739 -36.852,53.011 -26.929,41.379 -7.934,11.91 -32.879,53.289"
             style="fill:none;stroke:#231f20;stroke-width:7.5;stroke-linecap:butt;stroke-linejoin:miter;stroke-miterlimit:10;stroke-dasharray:none;stroke-opacity:1"
             id="path94" />
          <path
             d="m 347.688,553.199 -27.215,53.289 -21.258,44.782"
             style="fill:none;stroke:#231f20;stroke-width:7.5;stroke-linecap:butt;stroke-linejoin:miter;stroke-miterlimit:10;stroke-dasharray:none;stroke-opacity:1"
             id="path96" />
          <path
             d="m 858.492,659.781 20.41,-53.293 17.856,-42.808 4.254,-10.481 24.097,-53.301 25.789,-53.289 20.411,-39.41 7.375,-13.879 29.766,-53.289 32.03,-53.011 5.67,-9.071 25.52,-41.39"
             style="fill:none;stroke:#231f20;stroke-width:7.5;stroke-linecap:butt;stroke-linejoin:miter;stroke-miterlimit:10;stroke-dasharray:none;stroke-opacity:1"
             id="path98" />
          <path
             d="m 1621.87,233.73 -28.35,53.29 -24.66,50.171 -1.42,2.84 -23.81,53.289 -21.55,53.289 -19.83,53.289 -7.94,23.801 -9.93,29.5 -15.87,53.289 -14.17,53.293"
             style="fill:none;stroke:#231f20;stroke-width:7.5;stroke-linecap:butt;stroke-linejoin:miter;stroke-miterlimit:10;stroke-dasharray:none;stroke-opacity:1"
             id="path100" />
          <path
             d="m 2074,659.781 7.65,-53.293 9.35,-53.289 0.85,-3.98 10.49,-49.321 13.32,-53.289 15.03,-53.289 17.58,-53.289 18.41,-49.902 1.14,-3.109 22.12,-53.29"
             style="fill:none;stroke:#231f20;stroke-width:7.5;stroke-linecap:butt;stroke-linejoin:miter;stroke-miterlimit:10;stroke-dasharray:none;stroke-opacity:1"
             id="path102" />
          <path
             d="m 2776.99,233.73 -12.76,44.219 -2.55,9.071 -13.04,53.011 -10.77,53.289 -8.51,53.289 -6.23,53.289 -4.53,53.301 -2.56,53.289 -0.85,53.293"
             style="fill:none;stroke:#231f20;stroke-width:7.5;stroke-linecap:butt;stroke-linejoin:miter;stroke-miterlimit:10;stroke-dasharray:none;stroke-opacity:1"
             id="path104" />
          <path
             d="m 822.207,766.359 -0.281,1.129 -15.309,52.16 -14.457,53.293 -13.039,53.289 -11.902,53.29 -10.774,53.3 -9.07,50.74 -0.566,2.55 -8.508,53.29 -7.653,53.29 -6.804,53.29 -6.235,53.29 -5.105,53.3 -4.535,53.29 -4.254,53.29 -3.399,53.29 -2.836,53.29 -2.546,53.29 -2.274,53.29 -1.699,53.29 -1.414,53.29 -1.133,53.3 -0.855,53.29 -0.848,53.29"
             style="fill:none;stroke:#231f20;stroke-width:7.5;stroke-linecap:butt;stroke-linejoin:miter;stroke-miterlimit:10;stroke-dasharray:none;stroke-opacity:1"
             id="path106" />
          <path
             d="m 1405.58,1938.77 -2.26,-53.29 -2.27,-53.29 -2.27,-53.29 -2.27,-53.29 -2.27,-53.29 -1.98,-53.3 -1.98,-53.29 -1.71,-53.29 -1.41,-53.29 -0.85,-53.29 -0.57,-53.29 -0.28,-53.3 0.57,-53.29 1.13,-53.29 1.98,-53.29 2.55,-53.29 3.69,-53.29 4.82,-53.3 5.67,-53.29 6.8,-53.289 6.8,-44.511 1.42,-8.782 9.64,-53.289"
             style="fill:none;stroke:#231f20;stroke-width:7.5;stroke-linecap:butt;stroke-linejoin:miter;stroke-miterlimit:10;stroke-dasharray:none;stroke-opacity:1"
             id="path108" />
          <path
             d="m 2063.51,766.359 -2.84,53.289 -1.7,53.293 -0.57,53.289 0.57,53.29 1.7,53.3 2.56,53.29 3.39,53.29 4.25,53.29 4.54,53.29 5.39,53.29 5.66,53.3 5.39,49.03 0.57,4.26 6.23,53.29 6.25,53.29 6.51,53.29 6.52,53.29 6.24,53.29 6.23,53.29 5.95,53.29 5.96,53.3 5.38,53.29 5.11,53.29"
             style="fill:none;stroke:#231f20;stroke-width:7.5;stroke-linecap:butt;stroke-linejoin:miter;stroke-miterlimit:10;stroke-dasharray:none;stroke-opacity:1"
             id="path110" />
          <path
             d="m 2924.39,1938.77 -8.22,-53.29 -2.55,-15.87 -6.24,-37.42 -9.06,-53.29 -9.93,-53.29 -10.2,-53.29 -10.77,-53.3 -11.07,-53.29 -11.04,-53.29 -6.54,-29.48 -5.09,-23.81 -11.34,-53.29 -11.34,-53.29 -11.34,-53.3 -11.05,-53.29 -10.77,-53.29 -10.21,-53.29 -3.4,-18.42 -6.24,-34.87 -9.06,-53.29 -8.23,-53.3 -7.08,-53.29 -6.24,-53.289 -5.1,-53.293 -3.68,-53.289"
             style="fill:none;stroke:#231f20;stroke-width:7.5;stroke-linecap:butt;stroke-linejoin:miter;stroke-miterlimit:10;stroke-dasharray:none;stroke-opacity:1"
             id="path112" />
          <path
             d="m 2838.78,233.73 h 149.391 v 4.82031 H 2838.78 Z"
             style="fill:#f0f0f0;fill-opacity:1;fill-rule:nonzero;stroke:none"
             id="path114" />
          <path
             d="m 3043.44,236.559 -55.28,-1.129 -74.55,2.832 -74.83,2.84 -74.55,2.828 -74.82,2.832 -74.55,3.117 -74.85,2.84 -74.55,3.121 -74.84,2.832 -74.55,3.129 -74.82,2.828 -74.56,3.133 -74.84,3.097 -74.55,3.129 -74.82,2.832 -74.56,3.102 -74.84,3.129 -74.55,3.121 -74.84,2.84 -74.83,3.117 -74.56,3.109 -74.82,2.852 -74.55,3.101 -74.84,2.84 -74.55,3.117 -74.84,2.832 -74.55,2.829 -74.841,2.839 -74.551,3.122 -74.832,2.539 -74.551,2.851 -74.836,2.828 -74.551,2.563 -74.84,2.828 -74.55,2.543 -74.832,2.558 -74.551,2.54 V 236.559 H 3043.44"
             style="fill:#9da2a9;fill-opacity:1;fill-rule:nonzero;stroke:none"
             id="path116" />
          <path
             d="m 3043.44,236.559 -55.28,-1.129 -74.55,2.832 -74.83,2.84 -74.55,2.828 -74.82,2.832 -74.55,3.117 -74.85,2.84 -74.55,3.121 -74.84,2.832 -74.55,3.129 -74.82,2.828 -74.56,3.133 -74.84,3.097 -74.55,3.129 -74.82,2.832 -74.56,3.102 -74.84,3.129 -74.55,3.121 -74.84,2.84 -74.83,3.117 -74.56,3.109 -74.82,2.852 -74.55,3.101 -74.84,2.84 -74.55,3.117 -74.84,2.832 -74.55,2.829 -74.841,2.839 -74.551,3.122 -74.832,2.539 -74.551,2.851 -74.836,2.828 -74.551,2.563 -74.84,2.828 -74.55,2.543 -74.832,2.558 -74.551,2.54 V 236.559 Z"
             style="fill:none;stroke:#231f20;stroke-width:2.5;stroke-linecap:butt;stroke-linejoin:miter;stroke-miterlimit:10;stroke-dasharray:none;stroke-opacity:1"
             id="path118" />
          <g
             id="g120"
             transform="scale(10)">
            <text
               xml:space="preserve"
               transform="matrix(1,0,-3e-8,-1,265.737,69.5121)"
               style="font-style:oblique;font-variant:normal;font-size:6px;font-family:Helvetica;-inkscape-font-specification:Helvetica-Oblique;writing-mode:lr-tb;fill:#231f20;fill-opacity:1;fill-rule:nonzero;stroke:none"
               id="text132"><tspan
                 x="0 3.3360546 5.0041094 8.3401642"
                 y="0"
                 sodipodi:role="line"
                 id="tspan122">4.00</tspan><tspan
                 x="-64.451202 -61.115147 -59.44709 -56.111034"
                 y="1.07227"
                 sodipodi:role="line"
                 id="tspan124">4.05</tspan><tspan
                 x="-126.709 -123.37295 -121.70489 -118.36884"
                 y="1.0730513"
                 sodipodi:role="line"
                 id="tspan126">4.10</tspan><tspan
                 x="-186.6942 -183.35814 -181.69009 -178.35403"
                 y="0.81797326"
                 sodipodi:role="line"
                 id="tspan128">4.15</tspan><tspan
                 x="-233.3075 -229.97145 -228.30339 -224.96733"
                 y="22.296074"
                 sodipodi:role="line"
                 id="tspan130">4.20</tspan></text>
          </g>
          <path
             d="m 3287.22,769.469 h 41.05"
             style="fill:none;stroke:#231f20;stroke-width:5;stroke-linecap:butt;stroke-linejoin:miter;stroke-miterlimit:10;stroke-dasharray:none;stroke-opacity:1"
             id="path134" />
          <path
             d="m 3287.22,343.141 h 20.7"
             style="fill:none;stroke:#231f20;stroke-width:5;stroke-linecap:butt;stroke-linejoin:miter;stroke-miterlimit:10;stroke-dasharray:none;stroke-opacity:1"
             id="path136" />
          <path
             d="m 3287.22,449.719 h 20.7"
             style="fill:none;stroke:#231f20;stroke-width:5;stroke-linecap:butt;stroke-linejoin:miter;stroke-miterlimit:10;stroke-dasharray:none;stroke-opacity:1"
             id="path138" />
          <path
             d="m 3287.22,556.301 h 20.7"
             style="fill:none;stroke:#231f20;stroke-width:5;stroke-linecap:butt;stroke-linejoin:miter;stroke-miterlimit:10;stroke-dasharray:none;stroke-opacity:1"
             id="path140" />
          <path
             d="m 3287.22,662.879 h 20.7"
             style="fill:none;stroke:#231f20;stroke-width:5;stroke-linecap:butt;stroke-linejoin:miter;stroke-miterlimit:10;stroke-dasharray:none;stroke-opacity:1"
             id="path142" />
          <path
             d="m 3287.22,876.051 h 20.7"
             style="fill:none;stroke:#231f20;stroke-width:5;stroke-linecap:butt;stroke-linejoin:miter;stroke-miterlimit:10;stroke-dasharray:none;stroke-opacity:1"
             id="path144" />
          <path
             d="m 3287.22,982.629 h 20.7"
             style="fill:none;stroke:#231f20;stroke-width:5;stroke-linecap:butt;stroke-linejoin:miter;stroke-miterlimit:10;stroke-dasharray:none;stroke-opacity:1"
             id="path146" />
          <path
             d="m 3287.22,1089.21 h 20.7"
             style="fill:none;stroke:#231f20;stroke-width:5;stroke-linecap:butt;stroke-linejoin:miter;stroke-miterlimit:10;stroke-dasharray:none;stroke-opacity:1"
             id="path148" />
          <path
             d="m 3287.22,1195.8 h 20.7"
             style="fill:none;stroke:#231f20;stroke-width:5;stroke-linecap:butt;stroke-linejoin:miter;stroke-miterlimit:10;stroke-dasharray:none;stroke-opacity:1"
             id="path150" />
          <path
             d="m 3286.5,1302.38 h 41.77"
             style="fill:none;stroke:#231f20;stroke-width:5;stroke-linecap:butt;stroke-linejoin:miter;stroke-miterlimit:10;stroke-dasharray:none;stroke-opacity:1"
             id="path152" />
          <path
             d="m 3287.22,1408.96 h 20.7"
             style="fill:none;stroke:#231f20;stroke-width:5;stroke-linecap:butt;stroke-linejoin:miter;stroke-miterlimit:10;stroke-dasharray:none;stroke-opacity:1"
             id="path154" />
          <path
             d="m 3287.22,1515.54 h 20.7"
             style="fill:none;stroke:#231f20;stroke-width:5;stroke-linecap:butt;stroke-linejoin:miter;stroke-miterlimit:10;stroke-dasharray:none;stroke-opacity:1"
             id="path156" />
          <path
             d="m 3287.22,1622.12 h 20.7"
             style="fill:none;stroke:#231f20;stroke-width:5;stroke-linecap:butt;stroke-linejoin:miter;stroke-miterlimit:10;stroke-dasharray:none;stroke-opacity:1"
             id="path158" />
          <path
             d="m 3287.22,1728.71 h 20.7"
             style="fill:none;stroke:#231f20;stroke-width:5;stroke-linecap:butt;stroke-linejoin:miter;stroke-miterlimit:10;stroke-dasharray:none;stroke-opacity:1"
             id="path160" />
          <path
             d="m 3287.22,236.559 h 41.05"
             style="fill:none;stroke:#231f20;stroke-width:5;stroke-linecap:butt;stroke-linejoin:miter;stroke-miterlimit:10;stroke-dasharray:none;stroke-opacity:1"
             id="path162" />
          <path
             d="m 3285.78,1835.29 h 41.76"
             style="fill:none;stroke:#231f20;stroke-width:5;stroke-linecap:butt;stroke-linejoin:miter;stroke-miterlimit:10;stroke-dasharray:none;stroke-opacity:1"
             id="path164" />
          <path
             d="M 297.766,872.941 H 256.719"
             style="fill:none;stroke:#231f20;stroke-width:5;stroke-linecap:butt;stroke-linejoin:miter;stroke-miterlimit:10;stroke-dasharray:none;stroke-opacity:1"
             id="path166" />
          <path
             d="M 297.766,446.609 H 277.07"
             style="fill:none;stroke:#231f20;stroke-width:5;stroke-linecap:butt;stroke-linejoin:miter;stroke-miterlimit:10;stroke-dasharray:none;stroke-opacity:1"
             id="path168" />
          <path
             d="M 297.766,553.199 H 277.07"
             style="fill:none;stroke:#231f20;stroke-width:5;stroke-linecap:butt;stroke-linejoin:miter;stroke-miterlimit:10;stroke-dasharray:none;stroke-opacity:1"
             id="path170" />
          <path
             d="M 297.766,659.781 H 277.07"
             style="fill:none;stroke:#231f20;stroke-width:5;stroke-linecap:butt;stroke-linejoin:miter;stroke-miterlimit:10;stroke-dasharray:none;stroke-opacity:1"
             id="path172" />
          <path
             d="M 297.766,766.359 H 277.07"
             style="fill:none;stroke:#231f20;stroke-width:5;stroke-linecap:butt;stroke-linejoin:miter;stroke-miterlimit:10;stroke-dasharray:none;stroke-opacity:1"
             id="path174" />
          <path
             d="M 297.766,979.52 H 277.07"
             style="fill:none;stroke:#231f20;stroke-width:5;stroke-linecap:butt;stroke-linejoin:miter;stroke-miterlimit:10;stroke-dasharray:none;stroke-opacity:1"
             id="path176" />
          <path
             d="M 297.766,1086.11 H 277.07"
             style="fill:none;stroke:#231f20;stroke-width:5;stroke-linecap:butt;stroke-linejoin:miter;stroke-miterlimit:10;stroke-dasharray:none;stroke-opacity:1"
             id="path178" />
          <path
             d="M 297.766,1192.69 H 277.07"
             style="fill:none;stroke:#231f20;stroke-width:5;stroke-linecap:butt;stroke-linejoin:miter;stroke-miterlimit:10;stroke-dasharray:none;stroke-opacity:1"
             id="path180" />
          <path
             d="M 297.766,1299.27 H 277.07"
             style="fill:none;stroke:#231f20;stroke-width:5;stroke-linecap:butt;stroke-linejoin:miter;stroke-miterlimit:10;stroke-dasharray:none;stroke-opacity:1"
             id="path182" />
          <path
             d="M 298.492,1405.86 H 256.719"
             style="fill:none;stroke:#231f20;stroke-width:5;stroke-linecap:butt;stroke-linejoin:miter;stroke-miterlimit:10;stroke-dasharray:none;stroke-opacity:1"
             id="path184" />
          <path
             d="M 297.766,1512.44 H 277.07"
             style="fill:none;stroke:#231f20;stroke-width:5;stroke-linecap:butt;stroke-linejoin:miter;stroke-miterlimit:10;stroke-dasharray:none;stroke-opacity:1"
             id="path186" />
          <path
             d="M 297.766,1619.02 H 277.07"
             style="fill:none;stroke:#231f20;stroke-width:5;stroke-linecap:butt;stroke-linejoin:miter;stroke-miterlimit:10;stroke-dasharray:none;stroke-opacity:1"
             id="path188" />
          <path
             d="M 297.766,1725.61 H 277.07"
             style="fill:none;stroke:#231f20;stroke-width:5;stroke-linecap:butt;stroke-linejoin:miter;stroke-miterlimit:10;stroke-dasharray:none;stroke-opacity:1"
             id="path190" />
          <path
             d="M 297.766,1832.19 H 277.07"
             style="fill:none;stroke:#231f20;stroke-width:5;stroke-linecap:butt;stroke-linejoin:miter;stroke-miterlimit:10;stroke-dasharray:none;stroke-opacity:1"
             id="path192" />
          <g
             id="g194"
             transform="scale(10)">
            <text
               xml:space="preserve"
               transform="matrix(1,0,-7e-8,-1,17.4359,31.9422)"
               style="font-style:oblique;font-variant:normal;font-size:7px;font-family:Helvetica;-inkscape-font-specification:Helvetica-Oblique;writing-mode:lr-tb;fill:#231f20;fill-opacity:1;fill-rule:nonzero;stroke:none"
               id="text198"><tspan
                 x="0"
                 y="0"
                 id="tspan196">0</tspan></text>
            <text
               xml:space="preserve"
               transform="matrix(1,0,0,-1,22.0281,34.9422)"
               style="font-style:oblique;font-variant:normal;font-size:4px;font-family:Helvetica;-inkscape-font-specification:Helvetica-Oblique;writing-mode:lr-tb;fill:#231f20;fill-opacity:1;fill-rule:nonzero;stroke:none"
               id="text202"><tspan
                 x="0"
                 y="0"
                 id="tspan200">o</tspan></text>
            <text
               xml:space="preserve"
               transform="matrix(1,0,-7e-8,-1,13.5441,84.9039)"
               style="font-style:oblique;font-variant:normal;font-size:7px;font-family:Helvetica;-inkscape-font-specification:Helvetica-Oblique;writing-mode:lr-tb;fill:#231f20;fill-opacity:1;fill-rule:nonzero;stroke:none"
               id="text206"><tspan
                 x="0 3.8922031"
                 y="0"
                 sodipodi:role="line"
                 id="tspan204">10</tspan></text>
            <text
               xml:space="preserve"
               transform="matrix(1,0,0,-1,22.0281,87.9039)"
               style="font-style:oblique;font-variant:normal;font-size:4px;font-family:Helvetica;-inkscape-font-specification:Helvetica-Oblique;writing-mode:lr-tb;fill:#231f20;fill-opacity:1;fill-rule:nonzero;stroke:none"
               id="text210"><tspan
                 x="0"
                 y="0"
                 id="tspan208">o</tspan></text>
            <text
               xml:space="preserve"
               transform="matrix(1,0,-7e-8,-1,13.5441,138.417)"
               style="font-style:oblique;font-variant:normal;font-size:7px;font-family:Helvetica;-inkscape-font-specification:Helvetica-Oblique;writing-mode:lr-tb;fill:#231f20;fill-opacity:1;fill-rule:nonzero;stroke:none"
               id="text214"><tspan
                 x="0 3.8922031"
                 y="0"
                 sodipodi:role="line"
                 id="tspan212">20</tspan></text>
            <text
               xml:space="preserve"
               transform="matrix(1,0,0,-1,22.0281,141.417)"
               style="font-style:oblique;font-variant:normal;font-size:4px;font-family:Helvetica;-inkscape-font-specification:Helvetica-Oblique;writing-mode:lr-tb;fill:#231f20;fill-opacity:1;fill-rule:nonzero;stroke:none"
               id="text218"><tspan
                 x="0"
                 y="0"
                 id="tspan216">o</tspan></text>
            <text
               xml:space="preserve"
               transform="matrix(1,0,-7e-8,-1,13.793,192.139)"
               style="font-style:oblique;font-variant:normal;font-size:7px;font-family:Helvetica;-inkscape-font-specification:Helvetica-Oblique;writing-mode:lr-tb;fill:#231f20;fill-opacity:1;fill-rule:nonzero;stroke:none"
               id="text222"><tspan
                 x="0 3.8922031"
                 y="0"
                 sodipodi:role="line"
                 id="tspan220">30</tspan></text>
            <text
               xml:space="preserve"
               transform="matrix(1,0,0,-1,22.277,195.139)"
               style="font-style:oblique;font-variant:normal;font-size:4px;font-family:Helvetica;-inkscape-font-specification:Helvetica-Oblique;writing-mode:lr-tb;fill:#231f20;fill-opacity:1;fill-rule:nonzero;stroke:none"
               id="text226"><tspan
                 x="0"
                 y="0"
                 id="tspan224">o</tspan></text>
            <text
               xml:space="preserve"
               transform="matrix(0,1,1,-7e-8,5.51719,72.482)"
               style="font-style:oblique;font-variant:normal;font-size:7px;font-family:Helvetica;-inkscape-font-specification:Helvetica-Oblique;writing-mode:lr-tb;fill:#231f20;fill-opacity:1;fill-rule:nonzero;stroke:none"
               id="text230"><tspan
                 x="0 4.2771945 8.1693888 14.000583 17.892776 21.784971 24.116165 28.00836 29.954554 33.846748 36.177944 40.070137 43.962524 46.993698 52.047802 55.939907 57.494011 60.994114 62.548218 66.440323 69.940422"
                 y="0"
                 sodipodi:role="line"
                 id="tspan228">Temperature (Celsius)</tspan></text>
          </g>
          <path
             d="M 297.766,340.031 H 256.719"
             style="fill:none;stroke:#231f20;stroke-width:5;stroke-linecap:butt;stroke-linejoin:miter;stroke-miterlimit:10;stroke-dasharray:none;stroke-opacity:1"
             id="path232" />
          <path
             d="M 299.215,1938.77 H 257.441"
             style="fill:none;stroke:#231f20;stroke-width:5;stroke-linecap:butt;stroke-linejoin:miter;stroke-miterlimit:10;stroke-dasharray:none;stroke-opacity:1"
             id="path234" />
          <path
             d="m 1046.15,1938.77 v 42.52"
             style="fill:none;stroke:#231f20;stroke-width:5;stroke-linecap:butt;stroke-linejoin:miter;stroke-miterlimit:10;stroke-dasharray:none;stroke-opacity:1"
             id="path236" />
          <path
             d="m 1793.08,1938.77 v 42.52"
             style="fill:none;stroke:#231f20;stroke-width:5;stroke-linecap:butt;stroke-linejoin:miter;stroke-miterlimit:10;stroke-dasharray:none;stroke-opacity:1"
             id="path238" />
          <path
             d="m 2540.01,1938.77 v 42.52"
             style="fill:none;stroke:#231f20;stroke-width:5;stroke-linecap:butt;stroke-linejoin:miter;stroke-miterlimit:10;stroke-dasharray:none;stroke-opacity:1"
             id="path240" />
          <path
             d="m 672.539,1938.77 v 17.29"
             style="fill:none;stroke:#231f20;stroke-width:5;stroke-linecap:butt;stroke-linejoin:miter;stroke-miterlimit:10;stroke-dasharray:none;stroke-opacity:1"
             id="path242" />
          <path
             d="m 1419.47,1938.77 v 21.26"
             style="fill:none;stroke:#231f20;stroke-width:5;stroke-linecap:butt;stroke-linejoin:miter;stroke-miterlimit:10;stroke-dasharray:none;stroke-opacity:1"
             id="path244" />
          <path
             d="m 2166.68,1938.77 v 21.26"
             style="fill:none;stroke:#231f20;stroke-width:5;stroke-linecap:butt;stroke-linejoin:miter;stroke-miterlimit:10;stroke-dasharray:none;stroke-opacity:1"
             id="path246" />
          <path
             d="m 2913.62,1938.77 v 21.26"
             style="fill:none;stroke:#231f20;stroke-width:5;stroke-linecap:butt;stroke-linejoin:miter;stroke-miterlimit:10;stroke-dasharray:none;stroke-opacity:1"
             id="path248" />
          <path
             d="m 299.215,1938.77 v 42.52"
             style="fill:none;stroke:#231f20;stroke-width:5;stroke-linecap:butt;stroke-linejoin:miter;stroke-miterlimit:10;stroke-dasharray:none;stroke-opacity:1"
             id="path250" />
          <path
             d="m 3287.22,1938.77 v 42.52"
             style="fill:none;stroke:#231f20;stroke-width:5;stroke-linecap:butt;stroke-linejoin:miter;stroke-miterlimit:10;stroke-dasharray:none;stroke-opacity:1"
             id="path252" />
          <path
             d="m 1046.15,236.559 v -42.52"
             style="fill:none;stroke:#231f20;stroke-width:5;stroke-linecap:butt;stroke-linejoin:miter;stroke-miterlimit:10;stroke-dasharray:none;stroke-opacity:1"
             id="path254" />
          <path
             d="m 1793.08,236.559 v -42.52"
             style="fill:none;stroke:#231f20;stroke-width:5;stroke-linecap:butt;stroke-linejoin:miter;stroke-miterlimit:10;stroke-dasharray:none;stroke-opacity:1"
             id="path256" />
          <path
             d="m 2540.01,236.559 v -42.52"
             style="fill:none;stroke:#231f20;stroke-width:5;stroke-linecap:butt;stroke-linejoin:miter;stroke-miterlimit:10;stroke-dasharray:none;stroke-opacity:1"
             id="path258" />
          <path
             d="M 672.539,236.559 V 219.27"
             style="fill:none;stroke:#231f20;stroke-width:5;stroke-linecap:butt;stroke-linejoin:miter;stroke-miterlimit:10;stroke-dasharray:none;stroke-opacity:1"
             id="path260" />
          <path
             d="M 1419.48,236.559 V 215.301"
             style="fill:none;stroke:#231f20;stroke-width:5;stroke-linecap:butt;stroke-linejoin:miter;stroke-miterlimit:10;stroke-dasharray:none;stroke-opacity:1"
             id="path262" />
          <path
             d="M 2166.68,236.559 V 215.301"
             style="fill:none;stroke:#231f20;stroke-width:5;stroke-linecap:butt;stroke-linejoin:miter;stroke-miterlimit:10;stroke-dasharray:none;stroke-opacity:1"
             id="path264" />
          <path
             d="M 2913.62,236.559 V 215.301"
             style="fill:none;stroke:#231f20;stroke-width:5;stroke-linecap:butt;stroke-linejoin:miter;stroke-miterlimit:10;stroke-dasharray:none;stroke-opacity:1"
             id="path266" />
          <path
             d="m 299.215,236.559 v -42.52"
             style="fill:none;stroke:#231f20;stroke-width:5;stroke-linecap:butt;stroke-linejoin:miter;stroke-miterlimit:10;stroke-dasharray:none;stroke-opacity:1"
             id="path268" />
          <path
             d="m 3287.22,236.559 v -42.52"
             style="fill:none;stroke:#231f20;stroke-width:5;stroke-linecap:butt;stroke-linejoin:miter;stroke-miterlimit:10;stroke-dasharray:none;stroke-opacity:1"
             id="path270" />
          <path
             d="m 299.215,236.559 h 2988 v 1702.21 h -2988 z"
             style="fill:none;stroke:#231f20;stroke-width:5;stroke-linecap:butt;stroke-linejoin:miter;stroke-miterlimit:10;stroke-dasharray:none;stroke-opacity:1"
             id="path272" />
          <g
             id="g274"
             transform="scale(10)">
            <text
               xml:space="preserve"
               transform="matrix(1,0,-7e-8,-1,27.9754,12.9148)"
               style="font-style:oblique;font-variant:normal;font-size:7px;font-family:Helvetica;-inkscape-font-specification:Helvetica-Oblique;writing-mode:lr-tb;fill:#231f20;fill-opacity:1;fill-rule:nonzero;stroke:none"
               id="text280"><tspan
                 x="0 72.746513 76.638718 147.43909 151.3313 222.13243 226.02464 296.85471 300.74689"
                 y="0"
                 sodipodi:role="line"
                 id="tspan276">010203040</tspan><tspan
                 x="140.05 144.71916 148.61131 150.16547 151.71962 155.61177 157.16592 159.11208"
                 y="11.3387"
                 sodipodi:role="line"
                 id="tspan278">Salinity</tspan></text>
          </g>
        </g>
      </g>
    </g>
  </g>
</svg>
