<?xml version="1.0" encoding="UTF-8" standalone="no"?>
<!-- Created with Inkscape (http://www.inkscape.org/) -->

<svg
   version="1.1"
   id="svg2"
   width="337.33334"
   height="140"
   viewBox="0 0 337.33334 140"
   sodipodi:docname="bigpicture.eps"
   xmlns:inkscape="http://www.inkscape.org/namespaces/inkscape"
   xmlns:sodipodi="http://sodipodi.sourceforge.net/DTD/sodipodi-0.dtd"
   xmlns="http://www.w3.org/2000/svg"
   xmlns:svg="http://www.w3.org/2000/svg">
  <defs
     id="defs6">
    <clipPath
       clipPathUnits="userSpaceOnUse"
       id="clipPath18">
      <path
         d="M 10,10 H 2520 V 1049.17 H 10 Z"
         id="path16" />
    </clipPath>
  </defs>
  <sodipodi:namedview
     id="namedview4"
     pagecolor="#ffffff"
     bordercolor="#000000"
     borderopacity="0.25"
     inkscape:showpageshadow="2"
     inkscape:pageopacity="0.0"
     inkscape:pagecheckerboard="0"
     inkscape:deskcolor="#d1d1d1" />
  <g
     id="g8"
     inkscape:groupmode="layer"
     inkscape:label="ink_ext_XXXXXX"
     transform="matrix(1.3333333,0,0,-1.3333333,0,140)">
    <g
       id="g10"
       transform="scale(0.1)">
      <g
         id="g12">
        <g
           id="g14"
           clip-path="url(#clipPath18)">
          <path
             d="m 763.75,513.754 c 0,-82.832 -167.895,-150 -375,-150 -207.105,0 -375,67.168 -375,150 0,82.848 167.895,150 375,150 207.105,0 375,-67.152 375,-150 z"
             style="fill:none;stroke:#231f20;stroke-width:7.5;stroke-linecap:butt;stroke-linejoin:miter;stroke-miterlimit:4;stroke-dasharray:none;stroke-opacity:1"
             id="path20" />
          <path
             d="m 1062.09,895.422 c 0,-82.844 -167.899,-150 -375.004,-150 -207.106,0 -375,67.156 -375,150 0,82.84 167.894,149.998 375,149.998 207.105,0 375.004,-67.158 375.004,-149.998 z"
             style="fill:none;stroke:#231f20;stroke-width:7.5;stroke-linecap:butt;stroke-linejoin:miter;stroke-miterlimit:4;stroke-dasharray:none;stroke-opacity:1"
             id="path22" />
          <path
             d="m 1653.76,513.754 c 0,-82.832 -167.9,-150 -375.01,-150 -207.1,0 -375,67.168 -375,150 0,82.848 167.9,150 375,150 207.11,0 375.01,-67.152 375.01,-150 z"
             style="fill:none;stroke:#231f20;stroke-width:7.5;stroke-linecap:butt;stroke-linejoin:miter;stroke-miterlimit:4;stroke-dasharray:none;stroke-opacity:1"
             id="path24" />
          <path
             d="m 2518.76,513.754 c 0,-82.832 -167.89,-150 -375,-150 -207.11,0 -375,67.168 -375,150 0,82.848 167.89,150 375,150 207.11,0 375,-67.152 375,-150 z"
             style="fill:none;stroke:#231f20;stroke-width:7.5;stroke-linecap:butt;stroke-linejoin:miter;stroke-miterlimit:4;stroke-dasharray:none;stroke-opacity:1"
             id="path26" />
          <path
             d="M 1062.09,163.754 C 1062.09,80.9219 894.191,13.75 687.086,13.75 c -207.106,0 -375,67.1719 -375,150.004 0,82.851 167.894,150 375,150 207.105,0 375.004,-67.149 375.004,-150 z"
             style="fill:none;stroke:#231f20;stroke-width:7.5;stroke-linecap:butt;stroke-linejoin:miter;stroke-miterlimit:4;stroke-dasharray:none;stroke-opacity:1"
             id="path28" />
          <path
             d="m 570.418,752.09 -9.125,-70.297"
             style="fill:none;stroke:#231f20;stroke-width:7.5;stroke-linecap:butt;stroke-linejoin:miter;stroke-miterlimit:4;stroke-dasharray:none;stroke-opacity:1"
             id="path30" />
          <path
             d="m 554.141,648.414 c -2.176,14.988 -7.274,34.094 -14.293,46.766 l 21.445,-13.387 25.051,3.426 c -11.59,-8.68 -24.078,-24.024 -32.203,-36.805"
             style="fill:#231f20;fill-opacity:1;fill-rule:nonzero;stroke:none"
             id="path32" />
          <path
             d="m 943.75,785.422 76.81,-126.984"
             style="fill:none;stroke:#231f20;stroke-width:7.5;stroke-linecap:butt;stroke-linejoin:miter;stroke-miterlimit:4;stroke-dasharray:none;stroke-opacity:1"
             id="path34" />
          <path
             d="m 1036.52,628.266 c -11.29,10.082 -27.48,21.441 -41.008,26.636 l 25.048,3.536 16.98,18.718 c -3.29,-14.101 -3.01,-33.871 -1.02,-48.89"
             style="fill:#231f20;fill-opacity:1;fill-rule:nonzero;stroke:none"
             id="path36" />
          <path
             d="m 573.75,305.414 -14.383,40.879"
             style="fill:none;stroke:#231f20;stroke-width:7.5;stroke-linecap:butt;stroke-linejoin:miter;stroke-miterlimit:4;stroke-dasharray:none;stroke-opacity:1"
             id="path38" />
          <path
             d="m 550.09,375.004 c 9.383,-11.875 23.348,-25.879 35.762,-33.34 l -25.266,0.859 -19.981,-15.488 c 5.696,13.32 8.84,32.852 9.485,47.969"
             style="fill:#231f20;fill-opacity:1;fill-rule:nonzero;stroke:none"
             id="path40" />
          <path
             d="m 953.75,265.414 52.38,108.359"
             style="fill:none;stroke:#231f20;stroke-width:7.5;stroke-linecap:butt;stroke-linejoin:miter;stroke-miterlimit:4;stroke-dasharray:none;stroke-opacity:1"
             id="path42" />
          <path
             d="m 1021.12,404.77 c -1.77,-15.04 -1.79,-34.825 1.7,-48.887 l -17.25,18.496 -25.086,3.164 c 13.446,5.391 29.476,16.973 40.636,27.227"
             style="fill:#231f20;fill-opacity:1;fill-rule:nonzero;stroke:none"
             id="path44" />
          <path
             d="M 763.57,513.754 H 869.613"
             style="fill:none;stroke:#231f20;stroke-width:7.5;stroke-linecap:butt;stroke-linejoin:miter;stroke-miterlimit:4;stroke-dasharray:none;stroke-opacity:1"
             id="path46" />
          <path
             d="m 903.75,513.754 c -14.199,-5.274 -31.816,-14.258 -42.734,-23.77 l 8.597,23.77 -8.597,23.773 c 10.918,-9.519 28.535,-18.5 42.734,-23.773"
             style="fill:#231f20;fill-opacity:1;fill-rule:nonzero;stroke:none"
             id="path48" />
          <path
             d="m 1653.76,513.754 h 80.86"
             style="fill:none;stroke:#231f20;stroke-width:7.5;stroke-linecap:butt;stroke-linejoin:miter;stroke-miterlimit:4;stroke-dasharray:none;stroke-opacity:1"
             id="path50" />
          <path
             d="m 1768.76,513.754 c -14.2,-5.274 -31.82,-14.258 -42.73,-23.77 l 8.59,23.77 -8.59,23.773 c 10.91,-9.519 28.53,-18.5 42.73,-23.773"
             style="fill:#231f20;fill-opacity:1;fill-rule:nonzero;stroke:none"
             id="path52" />
          <g
             id="g54"
             transform="scale(10)">
            <text
               xml:space="preserve"
               transform="matrix(1,0,-7e-8,-1,23.1254,53.375)"
               style="font-style:oblique;font-variant:normal;font-size:7px;font-family:Helvetica;-inkscape-font-specification:Helvetica-Oblique;writing-mode:lr-tb;fill:#231f20;fill-opacity:1;fill-rule:nonzero;stroke:none"
               id="text66"><tspan
                 x="0 5.0541301 8.9462605 14.77739 18.669521 21.00065 22.554781 26.054911 29.947041"
                 y="0"
                 sodipodi:role="line"
                 id="tspan56">Numerical</tspan><tspan
                 x="4.4691401 10.300281 14.192422 18.084562 21.976704 23.530844"
                 y="8.5"
                 sodipodi:role="line"
                 id="tspan58">Models</tspan><tspan
                 x="38.191441 43.24564 47.13784 49.084038"
                 y="-34.167198"
                 sodipodi:role="line"
                 id="tspan60">Data</tspan><tspan
                 x="81.988739 87.042915 90.935089 94.827263 98.719429 101.05061 104.55078 106.49695 110.38912 114.2813 118.17347 119.72765 123.61982 175.69183 180.36101 182.69218 186.58435 190.47652 192.03069 195.53085 197.47702 199.03119 202.92336"
                 y="3.7925999"
                 sodipodi:role="line"
                 id="tspan62">UnderstandingPrediction</tspan><tspan
                 x="34.691841 38.968971 42.861107 46.753239 50.64537 52.976505"
                 y="38.9762"
                 sodipodi:role="line"
                 id="tspan64">Theory</tspan></text>
          </g>
        </g>
      </g>
    </g>
  </g>
</svg>
