<?xml version="1.0" encoding="UTF-8" standalone="no"?>
<!-- Created with Inkscape (http://www.inkscape.org/) -->

<svg
   version="1.1"
   id="svg2"
   width="449.33334"
   height="218.66667"
   viewBox="0 0 449.33334 218.66667"
   sodipodi:docname="zonalsalinity.eps"
   xmlns:inkscape="http://www.inkscape.org/namespaces/inkscape"
   xmlns:sodipodi="http://sodipodi.sourceforge.net/DTD/sodipodi-0.dtd"
   xmlns="http://www.w3.org/2000/svg"
   xmlns:svg="http://www.w3.org/2000/svg">
  <defs
     id="defs6">
    <clipPath
       clipPathUnits="userSpaceOnUse"
       id="clipPath18">
      <path
         d="M 0,1637 H 3370 V 0 H 0 Z"
         id="path16" />
    </clipPath>
  </defs>
  <sodipodi:namedview
     id="namedview4"
     pagecolor="#ffffff"
     bordercolor="#000000"
     borderopacity="0.25"
     inkscape:showpageshadow="2"
     inkscape:pageopacity="0.0"
     inkscape:pagecheckerboard="0"
     inkscape:deskcolor="#d1d1d1" />
  <g
     id="g8"
     inkscape:groupmode="layer"
     inkscape:label="ink_ext_XXXXXX"
     transform="matrix(1.3333333,0,0,-1.3333333,0,218.66667)">
    <g
       id="g10"
       transform="scale(0.1)">
      <g
         id="g12">
        <g
           id="g14"
           clip-path="url(#clipPath18)">
          <path
             d="m 463.156,915.559 30.805,-9.012 30.551,-5.012 30.804,-98.672 30.801,-52.832 30.559,43.809 30.801,-25.293 30.804,-24.277 30.555,-37.325 30.805,10.762 30.804,11.035 30.551,13.008 30.805,14.023 30.801,13.282 30.558,21.035 30.801,27.797 30.805,35.312 30.55,48.336 30.814,63.11 30.8,68.875 30.8,53.34 30.56,53.09 30.8,43.33 30.81,24.29 30.55,19.04 30.81,36.81 30.8,27.55 30.55,10.27 30.81,17.53 30.8,35.05 30.55,19.04 30.81,-25.29 30.8,-55.1 30.55,-77.64 30.81,-70.37 30.8,-78.14 30.56,-53.34 30.8,-65.117 30.8,-29.55 30.56,-31.551 30.8,-60.864 30.81,-73.367 30.55,-207.871 30.8,-137.25 30.81,-71.879 30.55,80.649 30.81,221.136 30.8,163.536 30.55,157.031 30.8,92.167 30.82,61.85 30.8,87.66 30.54,77.38 30.8,26.04 30.81,-0.25 30.55,-24.78 30.81,6.5 30.81,-31.55 30.55,-47.33 30.8,-34.82 30.81,-38.56 30.56,-94.42 30.79,-53.34 30.81,-63.11 30.56,-14.527 30.8,-17.527 30.8,4.257 30.55,8.012 30.81,37.317 30.8,1.503 30.55,10.012 30.81,-28.543 30.8,-20.039 30.55,-31.555 30.81,29.801 30.81,56.098 30.55,1.754 30.81,-18.031 30.8,-5.758 30.55,-22.039 30.8,-8.766 30.81,21.785 30.8,-54.594 30.55,79.137 30.81,-25.793"
             style="fill:none;stroke:#231f20;stroke-width:7.5;stroke-linecap:butt;stroke-linejoin:miter;stroke-miterlimit:10;stroke-dasharray:none;stroke-opacity:1"
             id="path20" />
          <path
             d="m 501.469,1059.81 15.527,-4.76 15.281,-11.01 15.278,-17.04 15.527,-13.02 15.273,-18.031 15.278,-9.011 15.527,-3.258 15.278,-9.016 15.273,-4.512 15.527,2.008 15.282,6.012 15.277,3.754 15.527,6.012 15.274,5.761 15.277,3.75 15.527,2.512 15.278,1.249 15.273,0.75 15.527,0.75 15.282,1 15.277,1 15.527,0.51 15.274,1.75 15.277,1.5 15.528,1.25 15.277,7.01 15.273,2.76 15.528,13.02 15.281,8.27 15.277,7.76 15.528,8.01 15.281,11.02 15.27,18.79 15.53,16.28 15.28,22.29 15.53,21.78 15.27,24.8 15.28,19.53 15.53,22.54 15.27,19.28 15.28,16.53 15.53,9.27 15.27,25.55 15.28,11.27 15.53,14.52 15.27,9.52 15.28,11.77 15.53,8.01 15.28,7.76 15.27,5.01 15.53,3.01 15.28,1.25 15.27,2.51 15.53,1 15.28,0.25 15.27,-1.25 15.53,-1.76 15.28,-5.51 15.27,-6.01 15.53,-5.01 15.28,-8.01 15.27,-10.27 15.53,-11.02 15.28,-13.77 15.28,-13.78 15.52,-14.77 15.28,-15.78 15.27,-13.02 15.53,-14.02 15.28,-5.52 15.27,-6.26 15.53,-13.77 15.28,3.75 15.28,12.28 15.53,5.51 15.27,-9.02 15.28,-14.28 15.52,-19.28 15.28,-23.54 15.27,-31.8 15.53,-28.81 15.28,0.25 15.28,-18.03 15.53,-6.26 15.28,1.01 15.27,5.25 15.53,1.01 15.27,19.28 15.27,26.55 15.54,13.27 15.27,5.76 15.28,8.26 15.53,7.76 15.27,38.07 15.28,13.28 15.53,18.03 15.27,27.8 15.54,24.54 15.26,16.78 15.29,42.32 15.52,15.78 15.29,16.78 15.26,-2.25 15.54,-2.01 15.27,-13.52 15.27,-22.04 15.53,-14.53 15.28,-21.28 15.28,23.29 15.53,1.25 15.28,2.5 15.27,-13.27 15.53,-3 15.27,-21.79 15.28,-50.84 15.52,-34.06 15.28,-20.29 15.28,-44.32 15.53,-28.05 15.27,-57.85 15.28,-50.59 15.53,-39.823 15.28,-27.547 15.28,-27.047 15.52,-24.293 15.28,2.508 15.27,-8.27 15.53,7.516 15.27,6.262 15.29,-11.52 15.51,12.52 15.29,-12.52 15.27,5.008 15.53,0.5 15.28,5.762 15.27,36.062 15.53,15.027 15.28,31.551 15.28,14.278 15.52,36.316 15.28,-18.29 15.27,-47.077 15.53,72.377 15.27,31.3 15.29,-80.884 15.52,-41.074 15.28,-179.309 15.27,-209.383 15.54,-5.5 15.27,-65.859 15.28,-72.391 15.52,-17.031 15.28,77.152 15.28,-81.41 15.53,-38.32 15.27,-6.75 15.53,-4.52 15.28,26.571 15.27,11.007 15.53,15.02 15.27,23.051 15.28,11.761 15.54,8.278 15.27,2.992 15.27,-1.492 15.53,1.992"
             style="fill:none;stroke:#231f20;stroke-width:7.5;stroke-linecap:butt;stroke-linejoin:miter;stroke-miterlimit:10;stroke-dasharray:11.3391, 28.347;stroke-dashoffset:0;stroke-opacity:1"
             id="path22" />
          <path
             d="M 455.641,430.461 H 587.875"
             style="fill:none;stroke:#231f20;stroke-width:7.5;stroke-linecap:butt;stroke-linejoin:miter;stroke-miterlimit:10;stroke-dasharray:none;stroke-opacity:1"
             id="path24" />
          <g
             id="g26"
             transform="scale(10)">
            <text
               xml:space="preserve"
               transform="matrix(1,0,-7e-8,-1,65.3988,41.275)"
               style="font-style:oblique;font-variant:normal;font-size:7px;font-family:Helvetica;-inkscape-font-specification:Helvetica-Oblique;writing-mode:lr-tb;fill:#231f20;fill-opacity:1;fill-rule:nonzero;stroke:none"
               id="text30"><tspan
                 x="0 3.8921826 7.392365 11.284548 15.17673 19.068913 21.400095 25.292278 27.238461 28.792643 32.684826 36.577007 38.52319 40.854374 42.800556 46.692738 49.023922 52.916103 56.416286 57.970467 61.862652 63.416832 65.363014 69.255196 71.201378 72.755562 76.647743"
                 y="0"
                 sodipodi:role="line"
                 id="tspan28">evaporation - precipitation</tspan></text>
          </g>
          <path
             d="M 455.641,305.238 H 587.875"
             style="fill:none;stroke:#231f20;stroke-width:7.5;stroke-linecap:butt;stroke-linejoin:miter;stroke-miterlimit:10;stroke-dasharray:11.3391, 28.347;stroke-dashoffset:0;stroke-opacity:1"
             id="path32" />
          <g
             id="g34"
             transform="scale(10)">
            <text
               xml:space="preserve"
               transform="matrix(1,0,-7e-8,-1,65.3988,28.859)"
               style="font-style:oblique;font-variant:normal;font-size:7px;font-family:Helvetica;-inkscape-font-specification:Helvetica-Oblique;writing-mode:lr-tb;fill:#231f20;fill-opacity:1;fill-rule:nonzero;stroke:none"
               id="text38"><tspan
                 x="0 3.500123 7.3922462 8.9463692 10.500492 14.392615 15.946738 17.89286"
                 y="0"
                 sodipodi:role="line"
                 id="tspan36">salinity</tspan></text>
          </g>
          <path
             d="M 770.445,70.1211 V 112.641"
             style="fill:none;stroke:#231f20;stroke-width:5;stroke-linecap:butt;stroke-linejoin:miter;stroke-miterlimit:10;stroke-dasharray:none;stroke-opacity:1"
             id="path40" />
          <path
             d="M 1231.26,70.1211 V 112.641"
             style="fill:none;stroke:#231f20;stroke-width:5;stroke-linecap:butt;stroke-linejoin:miter;stroke-miterlimit:10;stroke-dasharray:none;stroke-opacity:1"
             id="path42" />
          <path
             d="M 1692.06,70.1211 V 112.641"
             style="fill:none;stroke:#231f20;stroke-width:5;stroke-linecap:butt;stroke-linejoin:miter;stroke-miterlimit:10;stroke-dasharray:none;stroke-opacity:1"
             id="path44" />
          <path
             d="m 2152.77,70.1211 0.1,42.5199"
             style="fill:none;stroke:#231f20;stroke-width:5;stroke-linecap:butt;stroke-linejoin:miter;stroke-miterlimit:10;stroke-dasharray:none;stroke-opacity:1"
             id="path46" />
          <path
             d="m 2613.58,70.1211 0.09,42.5199"
             style="fill:none;stroke:#231f20;stroke-width:5;stroke-linecap:butt;stroke-linejoin:miter;stroke-miterlimit:10;stroke-dasharray:none;stroke-opacity:1"
             id="path48" />
          <path
             d="m 770.391,1636.77 v -42.52"
             style="fill:none;stroke:#231f20;stroke-width:5;stroke-linecap:butt;stroke-linejoin:miter;stroke-miterlimit:10;stroke-dasharray:none;stroke-opacity:1"
             id="path50" />
          <path
             d="m 1231.2,1636.77 v -42.52"
             style="fill:none;stroke:#231f20;stroke-width:5;stroke-linecap:butt;stroke-linejoin:miter;stroke-miterlimit:10;stroke-dasharray:none;stroke-opacity:1"
             id="path52" />
          <path
             d="m 1692.01,1636.77 v -42.52"
             style="fill:none;stroke:#231f20;stroke-width:5;stroke-linecap:butt;stroke-linejoin:miter;stroke-miterlimit:10;stroke-dasharray:none;stroke-opacity:1"
             id="path54" />
          <path
             d="m 2152.81,1636.77 v -42.52"
             style="fill:none;stroke:#231f20;stroke-width:5;stroke-linecap:butt;stroke-linejoin:miter;stroke-miterlimit:10;stroke-dasharray:none;stroke-opacity:1"
             id="path56" />
          <path
             d="m 2613.61,1636.77 v -42.52"
             style="fill:none;stroke:#231f20;stroke-width:5;stroke-linecap:butt;stroke-linejoin:miter;stroke-miterlimit:10;stroke-dasharray:none;stroke-opacity:1"
             id="path58" />
          <path
             d="M 309.633,171.75 H 288.488"
             style="fill:none;stroke:#231f20;stroke-width:5;stroke-linecap:butt;stroke-linejoin:miter;stroke-miterlimit:10;stroke-dasharray:none;stroke-opacity:1"
             id="path60" />
          <path
             d="M 309.633,231.102 H 288.488"
             style="fill:none;stroke:#231f20;stroke-width:5;stroke-linecap:butt;stroke-linejoin:miter;stroke-miterlimit:10;stroke-dasharray:none;stroke-opacity:1"
             id="path62" />
          <path
             d="M 309.633,290.199 H 288.488"
             style="fill:none;stroke:#231f20;stroke-width:5;stroke-linecap:butt;stroke-linejoin:miter;stroke-miterlimit:10;stroke-dasharray:none;stroke-opacity:1"
             id="path64" />
          <path
             d="M 309.633,349.559 H 288.488"
             style="fill:none;stroke:#231f20;stroke-width:5;stroke-linecap:butt;stroke-linejoin:miter;stroke-miterlimit:10;stroke-dasharray:none;stroke-opacity:1"
             id="path66" />
          <path
             d="M 309.633,468.012 H 288.488"
             style="fill:none;stroke:#231f20;stroke-width:5;stroke-linecap:butt;stroke-linejoin:miter;stroke-miterlimit:10;stroke-dasharray:none;stroke-opacity:1"
             id="path68" />
          <path
             d="M 309.633,527.371 H 288.488"
             style="fill:none;stroke:#231f20;stroke-width:5;stroke-linecap:butt;stroke-linejoin:miter;stroke-miterlimit:10;stroke-dasharray:none;stroke-opacity:1"
             id="path70" />
          <path
             d="M 309.633,586.73 H 288.488"
             style="fill:none;stroke:#231f20;stroke-width:5;stroke-linecap:butt;stroke-linejoin:miter;stroke-miterlimit:10;stroke-dasharray:none;stroke-opacity:1"
             id="path72" />
          <path
             d="M 309.633,645.832 H 288.488"
             style="fill:none;stroke:#231f20;stroke-width:5;stroke-linecap:butt;stroke-linejoin:miter;stroke-miterlimit:10;stroke-dasharray:none;stroke-opacity:1"
             id="path74" />
          <path
             d="M 309.633,764.543 H 288.492"
             style="fill:none;stroke:#231f20;stroke-width:5;stroke-linecap:butt;stroke-linejoin:miter;stroke-miterlimit:10;stroke-dasharray:none;stroke-opacity:1"
             id="path76" />
          <path
             d="M 309.633,823.648 H 288.492"
             style="fill:none;stroke:#231f20;stroke-width:5;stroke-linecap:butt;stroke-linejoin:miter;stroke-miterlimit:10;stroke-dasharray:none;stroke-opacity:1"
             id="path78" />
          <path
             d="M 309.633,883.004 H 288.492"
             style="fill:none;stroke:#231f20;stroke-width:5;stroke-linecap:butt;stroke-linejoin:miter;stroke-miterlimit:10;stroke-dasharray:none;stroke-opacity:1"
             id="path80" />
          <path
             d="M 309.633,942.355 H 288.492"
             style="fill:none;stroke:#231f20;stroke-width:5;stroke-linecap:butt;stroke-linejoin:miter;stroke-miterlimit:10;stroke-dasharray:none;stroke-opacity:1"
             id="path82" />
          <path
             d="M 309.633,1060.81 H 288.957"
             style="fill:none;stroke:#231f20;stroke-width:5;stroke-linecap:butt;stroke-linejoin:miter;stroke-miterlimit:10;stroke-dasharray:none;stroke-opacity:1"
             id="path84" />
          <path
             d="M 309.633,1119.92 H 288.957"
             style="fill:none;stroke:#231f20;stroke-width:5;stroke-linecap:butt;stroke-linejoin:miter;stroke-miterlimit:10;stroke-dasharray:none;stroke-opacity:1"
             id="path86" />
          <path
             d="M 309.633,1179.27 H 288.957"
             style="fill:none;stroke:#231f20;stroke-width:5;stroke-linecap:butt;stroke-linejoin:miter;stroke-miterlimit:10;stroke-dasharray:none;stroke-opacity:1"
             id="path88" />
          <path
             d="M 309.633,1238.62 H 288.957"
             style="fill:none;stroke:#231f20;stroke-width:5;stroke-linecap:butt;stroke-linejoin:miter;stroke-miterlimit:10;stroke-dasharray:none;stroke-opacity:1"
             id="path90" />
          <path
             d="M 309.633,1357.08 H 288.488"
             style="fill:none;stroke:#231f20;stroke-width:5;stroke-linecap:butt;stroke-linejoin:miter;stroke-miterlimit:10;stroke-dasharray:none;stroke-opacity:1"
             id="path92" />
          <path
             d="M 309.633,1416.44 H 288.488"
             style="fill:none;stroke:#231f20;stroke-width:5;stroke-linecap:butt;stroke-linejoin:miter;stroke-miterlimit:10;stroke-dasharray:none;stroke-opacity:1"
             id="path94" />
          <path
             d="M 309.633,1475.54 H 288.488"
             style="fill:none;stroke:#231f20;stroke-width:5;stroke-linecap:butt;stroke-linejoin:miter;stroke-miterlimit:10;stroke-dasharray:none;stroke-opacity:1"
             id="path96" />
          <path
             d="M 309.633,1534.89 H 288.488"
             style="fill:none;stroke:#231f20;stroke-width:5;stroke-linecap:butt;stroke-linejoin:miter;stroke-miterlimit:10;stroke-dasharray:none;stroke-opacity:1"
             id="path98" />
          <g
             id="g100"
             transform="scale(10)">
            <text
               xml:space="preserve"
               transform="matrix(0,1,1,-7e-8,5.51719,34.4961)"
               style="font-style:oblique;font-variant:normal;font-size:7px;font-family:Helvetica;-inkscape-font-specification:Helvetica-Oblique;writing-mode:lr-tb;fill:#231f20;fill-opacity:1;fill-rule:nonzero;stroke:none"
               id="text104"><tspan
                 x="0 4.6691804 8.1693602 12.061541 15.953721 19.845901 22.177082 26.069262 28.015442 29.569622 33.461803 37.353981 39.300163 41.631344 43.577522 47.469704 49.800884 53.693062 57.193245 58.747425 62.639603 64.193787 66.139961 70.032143 71.978325 73.532501 77.424683 81.316864 83.263046 85.594223 91.425407 93.371582 96.871765 99.20295"
                 y="0"
                 sodipodi:role="line"
                 id="tspan102">Evaporation - precipitation (m/yr)</tspan></text>
          </g>
          <path
             d="M 309.633,112.641 H 3074.74"
             style="fill:none;stroke:#231f20;stroke-width:5;stroke-linecap:butt;stroke-linejoin:miter;stroke-miterlimit:10;stroke-dasharray:none;stroke-opacity:1"
             id="path106" />
          <g
             id="g108"
             transform="scale(10)" />
          <path
             d="M 309.633,1594.25 H 3074.74"
             style="fill:none;stroke:#231f20;stroke-width:5;stroke-linecap:butt;stroke-linejoin:miter;stroke-miterlimit:10;stroke-dasharray:none;stroke-opacity:1"
             id="path110" />
          <path
             d="M 309.633,112.641 V 1594.25"
             style="fill:none;stroke:#231f20;stroke-width:5;stroke-linecap:butt;stroke-linejoin:miter;stroke-miterlimit:10;stroke-dasharray:none;stroke-opacity:1"
             id="path112" />
          <path
             d="m 309.633,408.91 h -42.52"
             style="fill:none;stroke:#231f20;stroke-width:5;stroke-linecap:butt;stroke-linejoin:miter;stroke-miterlimit:10;stroke-dasharray:none;stroke-opacity:1"
             id="path114" />
          <path
             d="m 309.633,705.188 h -42.52"
             style="fill:none;stroke:#231f20;stroke-width:5;stroke-linecap:butt;stroke-linejoin:miter;stroke-miterlimit:10;stroke-dasharray:none;stroke-opacity:1"
             id="path116" />
          <path
             d="m 309.633,1001.46 h -42.52"
             style="fill:none;stroke:#231f20;stroke-width:5;stroke-linecap:butt;stroke-linejoin:miter;stroke-miterlimit:10;stroke-dasharray:none;stroke-opacity:1"
             id="path118" />
          <path
             d="m 309.633,1297.73 h -42.52"
             style="fill:none;stroke:#231f20;stroke-width:5;stroke-linecap:butt;stroke-linejoin:miter;stroke-miterlimit:10;stroke-dasharray:none;stroke-opacity:1"
             id="path120" />
          <path
             d="M 309.633,171.75 H 288.488"
             style="fill:none;stroke:#231f20;stroke-width:5;stroke-linecap:butt;stroke-linejoin:miter;stroke-miterlimit:10;stroke-dasharray:none;stroke-opacity:1"
             id="path122" />
          <path
             d="M 309.633,231.102 H 288.488"
             style="fill:none;stroke:#231f20;stroke-width:5;stroke-linecap:butt;stroke-linejoin:miter;stroke-miterlimit:10;stroke-dasharray:none;stroke-opacity:1"
             id="path124" />
          <path
             d="M 309.633,290.199 H 288.488"
             style="fill:none;stroke:#231f20;stroke-width:5;stroke-linecap:butt;stroke-linejoin:miter;stroke-miterlimit:10;stroke-dasharray:none;stroke-opacity:1"
             id="path126" />
          <path
             d="M 309.633,349.559 H 288.488"
             style="fill:none;stroke:#231f20;stroke-width:5;stroke-linecap:butt;stroke-linejoin:miter;stroke-miterlimit:10;stroke-dasharray:none;stroke-opacity:1"
             id="path128" />
          <path
             d="M 309.633,468.012 H 288.488"
             style="fill:none;stroke:#231f20;stroke-width:5;stroke-linecap:butt;stroke-linejoin:miter;stroke-miterlimit:10;stroke-dasharray:none;stroke-opacity:1"
             id="path130" />
          <path
             d="M 309.633,527.371 H 288.488"
             style="fill:none;stroke:#231f20;stroke-width:5;stroke-linecap:butt;stroke-linejoin:miter;stroke-miterlimit:10;stroke-dasharray:none;stroke-opacity:1"
             id="path132" />
          <path
             d="M 309.633,586.73 H 288.488"
             style="fill:none;stroke:#231f20;stroke-width:5;stroke-linecap:butt;stroke-linejoin:miter;stroke-miterlimit:10;stroke-dasharray:none;stroke-opacity:1"
             id="path134" />
          <path
             d="M 309.633,645.832 H 288.488"
             style="fill:none;stroke:#231f20;stroke-width:5;stroke-linecap:butt;stroke-linejoin:miter;stroke-miterlimit:10;stroke-dasharray:none;stroke-opacity:1"
             id="path136" />
          <path
             d="M 309.633,764.543 H 288.492"
             style="fill:none;stroke:#231f20;stroke-width:5;stroke-linecap:butt;stroke-linejoin:miter;stroke-miterlimit:10;stroke-dasharray:none;stroke-opacity:1"
             id="path138" />
          <path
             d="M 309.633,823.648 H 288.492"
             style="fill:none;stroke:#231f20;stroke-width:5;stroke-linecap:butt;stroke-linejoin:miter;stroke-miterlimit:10;stroke-dasharray:none;stroke-opacity:1"
             id="path140" />
          <path
             d="M 309.633,883.004 H 288.492"
             style="fill:none;stroke:#231f20;stroke-width:5;stroke-linecap:butt;stroke-linejoin:miter;stroke-miterlimit:10;stroke-dasharray:none;stroke-opacity:1"
             id="path142" />
          <path
             d="M 309.633,942.355 H 288.492"
             style="fill:none;stroke:#231f20;stroke-width:5;stroke-linecap:butt;stroke-linejoin:miter;stroke-miterlimit:10;stroke-dasharray:none;stroke-opacity:1"
             id="path144" />
          <path
             d="M 309.633,1060.81 H 288.957"
             style="fill:none;stroke:#231f20;stroke-width:5;stroke-linecap:butt;stroke-linejoin:miter;stroke-miterlimit:10;stroke-dasharray:none;stroke-opacity:1"
             id="path146" />
          <path
             d="M 309.633,1119.92 H 288.957"
             style="fill:none;stroke:#231f20;stroke-width:5;stroke-linecap:butt;stroke-linejoin:miter;stroke-miterlimit:10;stroke-dasharray:none;stroke-opacity:1"
             id="path148" />
          <path
             d="M 309.633,1179.27 H 288.957"
             style="fill:none;stroke:#231f20;stroke-width:5;stroke-linecap:butt;stroke-linejoin:miter;stroke-miterlimit:10;stroke-dasharray:none;stroke-opacity:1"
             id="path150" />
          <path
             d="M 309.633,1238.62 H 288.957"
             style="fill:none;stroke:#231f20;stroke-width:5;stroke-linecap:butt;stroke-linejoin:miter;stroke-miterlimit:10;stroke-dasharray:none;stroke-opacity:1"
             id="path152" />
          <path
             d="M 309.633,1357.08 H 288.488"
             style="fill:none;stroke:#231f20;stroke-width:5;stroke-linecap:butt;stroke-linejoin:miter;stroke-miterlimit:10;stroke-dasharray:none;stroke-opacity:1"
             id="path154" />
          <path
             d="M 309.633,1416.44 H 288.488"
             style="fill:none;stroke:#231f20;stroke-width:5;stroke-linecap:butt;stroke-linejoin:miter;stroke-miterlimit:10;stroke-dasharray:none;stroke-opacity:1"
             id="path156" />
          <path
             d="M 309.633,1475.54 H 288.488"
             style="fill:none;stroke:#231f20;stroke-width:5;stroke-linecap:butt;stroke-linejoin:miter;stroke-miterlimit:10;stroke-dasharray:none;stroke-opacity:1"
             id="path158" />
          <path
             d="M 309.633,1534.89 H 288.488"
             style="fill:none;stroke:#231f20;stroke-width:5;stroke-linecap:butt;stroke-linejoin:miter;stroke-miterlimit:10;stroke-dasharray:none;stroke-opacity:1"
             id="path160" />
          <path
             d="M 3074.74,112.641 V 1594.25"
             style="fill:none;stroke:#231f20;stroke-width:5;stroke-linecap:butt;stroke-linejoin:miter;stroke-miterlimit:10;stroke-dasharray:none;stroke-opacity:1"
             id="path162" />
          <path
             d="m 3074.74,189.281 h 42.35"
             style="fill:none;stroke:#231f20;stroke-width:5;stroke-linecap:butt;stroke-linejoin:miter;stroke-miterlimit:10;stroke-dasharray:none;stroke-opacity:1"
             id="path164" />
          <path
             d="m 3074.74,601.512 h 42.35"
             style="fill:none;stroke:#231f20;stroke-width:5;stroke-linecap:butt;stroke-linejoin:miter;stroke-miterlimit:10;stroke-dasharray:none;stroke-opacity:1"
             id="path166" />
          <path
             d="m 3074.74,1013.73 h 42.34"
             style="fill:none;stroke:#231f20;stroke-width:5;stroke-linecap:butt;stroke-linejoin:miter;stroke-miterlimit:10;stroke-dasharray:none;stroke-opacity:1"
             id="path168" />
          <path
             d="m 3074.74,1426.2 h 42.34"
             style="fill:none;stroke:#231f20;stroke-width:5;stroke-linecap:butt;stroke-linejoin:miter;stroke-miterlimit:10;stroke-dasharray:none;stroke-opacity:1"
             id="path170" />
          <g
             id="g172"
             transform="scale(10)">
            <text
               xml:space="preserve"
               transform="matrix(1,0,-7e-8,-1,15.5641,128.234)"
               style="font-style:oblique;font-variant:normal;font-size:7px;font-family:Helvetica;-inkscape-font-specification:Helvetica-Oblique;writing-mode:lr-tb;fill:#231f20;fill-opacity:1;fill-rule:nonzero;stroke:none"
               id="text188"><tspan
                 x="0 3.8922343 5.8384686"
                 y="0"
                 sodipodi:role="line"
                 id="tspan174">0.5</tspan><tspan
                 x="0 3.8922343 5.8384686"
                 y="-28.0488"
                 sodipodi:role="line"
                 id="tspan176">1.0</tspan><tspan
                 x="-2.33125 -3.8999999e-05 3.8921721 5.8383832"
                 y="118.9692"
                 sodipodi:role="line"
                 id="tspan178">-1.5</tspan><tspan
                 x="-2.33125 -3.8999999e-05 3.8921721 5.8383832"
                 y="89.996201"
                 sodipodi:role="line"
                 id="tspan180">-1.0</tspan><tspan
                 x="-2.33125 -3.8999999e-05 3.8921721 5.8383832"
                 y="59.773899"
                 sodipodi:role="line"
                 id="tspan182">-0.5</tspan><tspan
                 x="0 3.8922343 5.8384686"
                 y="30.7094"
                 sodipodi:role="line"
                 id="tspan184">0.0</tspan><tspan
                 x="8.8796902 11.210872 15.103054"
                 y="127.659"
                 sodipodi:role="line"
                 id="tspan186">-90</tspan></text>
            <text
               xml:space="preserve"
               transform="matrix(1,0,0,-1,35.259,3.575)"
               style="font-style:oblique;font-variant:normal;font-size:4px;font-family:Helvetica;-inkscape-font-specification:Helvetica-Oblique;writing-mode:lr-tb;fill:#231f20;fill-opacity:1;fill-rule:nonzero;stroke:none"
               id="text192"><tspan
                 x="0"
                 y="0"
                 id="tspan190">o</tspan></text>
            <text
               xml:space="preserve"
               transform="matrix(1,0,-7e-8,-1,70.5156,0.575)"
               style="font-style:oblique;font-variant:normal;font-size:7px;font-family:Helvetica;-inkscape-font-specification:Helvetica-Oblique;writing-mode:lr-tb;fill:#231f20;fill-opacity:1;fill-rule:nonzero;stroke:none"
               id="text196"><tspan
                 x="0 2.3311822 6.2233644"
                 y="0"
                 sodipodi:role="line"
                 id="tspan194">-60</tspan></text>
            <text
               xml:space="preserve"
               transform="matrix(1,0,0,-1,81.3305,3.575)"
               style="font-style:oblique;font-variant:normal;font-size:4px;font-family:Helvetica;-inkscape-font-specification:Helvetica-Oblique;writing-mode:lr-tb;fill:#231f20;fill-opacity:1;fill-rule:nonzero;stroke:none"
               id="text200"><tspan
                 x="0"
                 y="0"
                 id="tspan198">o</tspan></text>
            <text
               xml:space="preserve"
               transform="matrix(1,0,-7e-8,-1,116.597,0.575)"
               style="font-style:oblique;font-variant:normal;font-size:7px;font-family:Helvetica;-inkscape-font-specification:Helvetica-Oblique;writing-mode:lr-tb;fill:#231f20;fill-opacity:1;fill-rule:nonzero;stroke:none"
               id="text204"><tspan
                 x="0 2.3311822 6.2233644"
                 y="0"
                 sodipodi:role="line"
                 id="tspan202">-30</tspan></text>
            <text
               xml:space="preserve"
               transform="matrix(1,0,0,-1,127.412,3.575)"
               style="font-style:oblique;font-variant:normal;font-size:4px;font-family:Helvetica;-inkscape-font-specification:Helvetica-Oblique;writing-mode:lr-tb;fill:#231f20;fill-opacity:1;fill-rule:nonzero;stroke:none"
               id="text208"><tspan
                 x="0"
                 y="0"
                 id="tspan206">o</tspan></text>
            <text
               xml:space="preserve"
               transform="matrix(1,0,-7e-8,-1,165.788,0.575)"
               style="font-style:oblique;font-variant:normal;font-size:7px;font-family:Helvetica;-inkscape-font-specification:Helvetica-Oblique;writing-mode:lr-tb;fill:#231f20;fill-opacity:1;fill-rule:nonzero;stroke:none"
               id="text212"><tspan
                 x="0"
                 y="0"
                 id="tspan210">0</tspan></text>
            <text
               xml:space="preserve"
               transform="matrix(1,0,0,-1,170.38,3.575)"
               style="font-style:oblique;font-variant:normal;font-size:4px;font-family:Helvetica;-inkscape-font-specification:Helvetica-Oblique;writing-mode:lr-tb;fill:#231f20;fill-opacity:1;fill-rule:nonzero;stroke:none"
               id="text216"><tspan
                 x="0"
                 y="0"
                 id="tspan214">o</tspan></text>
            <text
               xml:space="preserve"
               transform="matrix(1,0,-7e-8,-1,210.036,0.575)"
               style="font-style:oblique;font-variant:normal;font-size:7px;font-family:Helvetica;-inkscape-font-specification:Helvetica-Oblique;writing-mode:lr-tb;fill:#231f20;fill-opacity:1;fill-rule:nonzero;stroke:none"
               id="text220"><tspan
                 x="0 3.8922031"
                 y="0"
                 sodipodi:role="line"
                 id="tspan218">30</tspan></text>
            <text
               xml:space="preserve"
               transform="matrix(1,0,0,-1,218.52,3.575)"
               style="font-style:oblique;font-variant:normal;font-size:4px;font-family:Helvetica;-inkscape-font-specification:Helvetica-Oblique;writing-mode:lr-tb;fill:#231f20;fill-opacity:1;fill-rule:nonzero;stroke:none"
               id="text224"><tspan
                 x="0"
                 y="0"
                 id="tspan222">o</tspan></text>
            <text
               xml:space="preserve"
               transform="matrix(1,0,-7e-8,-1,256.004,0.575)"
               style="font-style:oblique;font-variant:normal;font-size:7px;font-family:Helvetica;-inkscape-font-specification:Helvetica-Oblique;writing-mode:lr-tb;fill:#231f20;fill-opacity:1;fill-rule:nonzero;stroke:none"
               id="text228"><tspan
                 x="0 3.8922031"
                 y="0"
                 sodipodi:role="line"
                 id="tspan226">60</tspan></text>
            <text
               xml:space="preserve"
               transform="matrix(1,0,0,-1,264.488,3.575)"
               style="font-style:oblique;font-variant:normal;font-size:4px;font-family:Helvetica;-inkscape-font-specification:Helvetica-Oblique;writing-mode:lr-tb;fill:#231f20;fill-opacity:1;fill-rule:nonzero;stroke:none"
               id="text232"><tspan
                 x="0"
                 y="0"
                 id="tspan230">o</tspan></text>
            <text
               xml:space="preserve"
               transform="matrix(1,0,-7e-8,-1,302.222,0.575)"
               style="font-style:oblique;font-variant:normal;font-size:7px;font-family:Helvetica;-inkscape-font-specification:Helvetica-Oblique;writing-mode:lr-tb;fill:#231f20;fill-opacity:1;fill-rule:nonzero;stroke:none"
               id="text236"><tspan
                 x="0 3.8922031"
                 y="0"
                 sodipodi:role="line"
                 id="tspan234">90</tspan></text>
            <text
               xml:space="preserve"
               transform="matrix(1,0,0,-1,310.706,3.575)"
               style="font-style:oblique;font-variant:normal;font-size:4px;font-family:Helvetica;-inkscape-font-specification:Helvetica-Oblique;writing-mode:lr-tb;fill:#231f20;fill-opacity:1;fill-rule:nonzero;stroke:none"
               id="text240"><tspan
                 x="0"
                 y="0"
                 id="tspan238">o</tspan></text>
            <text
               xml:space="preserve"
               transform="matrix(1,0,-7e-8,-1,313.142,16.2941)"
               style="font-style:oblique;font-variant:normal;font-size:7px;font-family:Helvetica;-inkscape-font-specification:Helvetica-Oblique;writing-mode:lr-tb;fill:#231f20;fill-opacity:1;fill-rule:nonzero;stroke:none"
               id="text250"><tspan
                 x="0 3.8922031"
                 y="0"
                 sodipodi:role="line"
                 id="tspan242">30</tspan><tspan
                 x="0 3.8922031"
                 y="-41.220699"
                 sodipodi:role="line"
                 id="tspan244">32</tspan><tspan
                 x="0 3.8922031"
                 y="-82.467201"
                 sodipodi:role="line"
                 id="tspan246">34</tspan><tspan
                 x="0 3.8922031"
                 y="-123.6895"
                 sodipodi:role="line"
                 id="tspan248">36</tspan></text>
          </g>
          <path
             d="M 3074.74,292.211 H 3096"
             style="fill:none;stroke:#231f20;stroke-width:5;stroke-linecap:butt;stroke-linejoin:miter;stroke-miterlimit:10;stroke-dasharray:none;stroke-opacity:1"
             id="path252" />
          <path
             d="M 3074.74,395.398 H 3096"
             style="fill:none;stroke:#231f20;stroke-width:5;stroke-linecap:butt;stroke-linejoin:miter;stroke-miterlimit:10;stroke-dasharray:none;stroke-opacity:1"
             id="path254" />
          <path
             d="M 3074.74,498.328 H 3096"
             style="fill:none;stroke:#231f20;stroke-width:5;stroke-linecap:butt;stroke-linejoin:miter;stroke-miterlimit:10;stroke-dasharray:none;stroke-opacity:1"
             id="path256" />
          <path
             d="M 3074.74,704.699 H 3096"
             style="fill:none;stroke:#231f20;stroke-width:5;stroke-linecap:butt;stroke-linejoin:miter;stroke-miterlimit:10;stroke-dasharray:none;stroke-opacity:1"
             id="path258" />
          <path
             d="M 3074.74,807.617 H 3096"
             style="fill:none;stroke:#231f20;stroke-width:5;stroke-linecap:butt;stroke-linejoin:miter;stroke-miterlimit:10;stroke-dasharray:none;stroke-opacity:1"
             id="path260" />
          <path
             d="M 3074.74,910.805 H 3096"
             style="fill:none;stroke:#231f20;stroke-width:5;stroke-linecap:butt;stroke-linejoin:miter;stroke-miterlimit:10;stroke-dasharray:none;stroke-opacity:1"
             id="path262" />
          <path
             d="M 3074.74,1116.91 H 3096"
             style="fill:none;stroke:#231f20;stroke-width:5;stroke-linecap:butt;stroke-linejoin:miter;stroke-miterlimit:10;stroke-dasharray:none;stroke-opacity:1"
             id="path264" />
          <path
             d="M 3074.74,1220.09 H 3096"
             style="fill:none;stroke:#231f20;stroke-width:5;stroke-linecap:butt;stroke-linejoin:miter;stroke-miterlimit:10;stroke-dasharray:none;stroke-opacity:1"
             id="path266" />
          <path
             d="M 3074.74,1323.02 H 3096"
             style="fill:none;stroke:#231f20;stroke-width:5;stroke-linecap:butt;stroke-linejoin:miter;stroke-miterlimit:10;stroke-dasharray:none;stroke-opacity:1"
             id="path268" />
          <path
             d="M 3074.74,1529.13 H 3096"
             style="fill:none;stroke:#231f20;stroke-width:5;stroke-linecap:butt;stroke-linejoin:miter;stroke-miterlimit:10;stroke-dasharray:none;stroke-opacity:1"
             id="path270" />
          <g
             id="g272"
             transform="scale(10)">
            <text
               xml:space="preserve"
               transform="matrix(0,1,1,-7e-8,335.433,63.9926)"
               style="font-style:oblique;font-variant:normal;font-size:7px;font-family:Helvetica;-inkscape-font-specification:Helvetica-Oblique;writing-mode:lr-tb;fill:#231f20;fill-opacity:1;fill-rule:nonzero;stroke:none"
               id="text276"><tspan
                 x="0 4.6691704 8.5613403 10.115511 11.669681 15.561851 17.11602 19.062191 22.562361 24.506599 27.537771 32.12965 35.62965 40.221821"
                 y="0"
                 sodipodi:role="line"
                 id="tspan274">Salinity (psu)</tspan></text>
          </g>
          <path
             d="m 3074.64,70.1211 0.1,42.5199"
             style="fill:none;stroke:#231f20;stroke-width:5;stroke-linecap:butt;stroke-linejoin:miter;stroke-miterlimit:10;stroke-dasharray:none;stroke-opacity:1"
             id="path278" />
          <path
             d="m 309.633,112.641 h -42.52"
             style="fill:none;stroke:#231f20;stroke-width:5;stroke-linecap:butt;stroke-linejoin:miter;stroke-miterlimit:10;stroke-dasharray:none;stroke-opacity:1"
             id="path280" />
          <path
             d="m 309.633,1594.25 h -42.52"
             style="fill:none;stroke:#231f20;stroke-width:5;stroke-linecap:butt;stroke-linejoin:miter;stroke-miterlimit:10;stroke-dasharray:none;stroke-opacity:1"
             id="path282" />
          <path
             d="m 309.633,1636.77 v -42.52"
             style="fill:none;stroke:#231f20;stroke-width:5;stroke-linecap:butt;stroke-linejoin:miter;stroke-miterlimit:10;stroke-dasharray:none;stroke-opacity:1"
             id="path284" />
          <path
             d="m 3074.74,1636.77 v -42.52"
             style="fill:none;stroke:#231f20;stroke-width:5;stroke-linecap:butt;stroke-linejoin:miter;stroke-miterlimit:10;stroke-dasharray:none;stroke-opacity:1"
             id="path286" />
          <path
             d="M 309.633,112.641 V 70.1211"
             style="fill:none;stroke:#231f20;stroke-width:5;stroke-linecap:butt;stroke-linejoin:miter;stroke-miterlimit:10;stroke-dasharray:none;stroke-opacity:1"
             id="path288" />
          <path
             d="M 3074.74,1594.25 H 3096"
             style="fill:none;stroke:#231f20;stroke-width:5;stroke-linecap:butt;stroke-linejoin:miter;stroke-miterlimit:10;stroke-dasharray:none;stroke-opacity:1"
             id="path290" />
          <path
             d="M 3074.74,112.641 H 3096"
             style="fill:none;stroke:#231f20;stroke-width:5;stroke-linecap:butt;stroke-linejoin:miter;stroke-miterlimit:10;stroke-dasharray:none;stroke-opacity:1"
             id="path292" />
        </g>
      </g>
    </g>
  </g>
</svg>
